<?xml version="1.0" standalone="no"?>
<!DOCTYPE svg PUBLIC "-//W3C//DTD SVG 1.1//EN" "http://www.w3.org/Graphics/SVG/1.1/DTD/svg11.dtd" >
<svg xmlns="http://www.w3.org/2000/svg" xmlns:xlink="http://www.w3.org/1999/xlink" version="1.1">
<metadata>
Created by FontForge 20170924 at Tue May 16 23:57:38 2000
 By www-data
Copyright (c) 2000 Adobe Systems Incorporated. All Rights Reserved. U.S. Patent Des. pending.
</metadata>
<defs>
<font id="MyriadPro-LightCondIt" horiz-adv-x="300" >
  <font-face 
    font-family="Myriad Pro Light Cond"
    font-weight="300"
    font-style="italic"
    font-stretch="condensed"
    units-per-em="1000"
    panose-1="2 11 4 6 3 4 3 9 2 4"
    ascent="750"
    descent="-250"
    x-height="480"
    cap-height="674"
    bbox="-108 -250 987 863"
    underline-thickness="50"
    underline-position="-100"
    slope="-11"
    unicode-range="U+0020-FB04"
  />
<missing-glyph horiz-adv-x="500" 
d="M0 0v700h500v-700h-500zM250 395l170 255h-340zM280 350l170 -255v510zM80 50h340l-170 255zM50 605v-510l170 255z" />
    <glyph glyph-name="f_f_j" unicode="ffj" horiz-adv-x="549" 
d="M571 678l-16 -33q-27 18 -71 18q-56 0 -86 -43t-42 -126l-2 -14h192l-94 -498q-20 -106 -44 -139q-31 -43 -84 -43q-25 0 -34 4l4 36q21 -3 32 -3q28 0 48 23t34 94l92 490h-153l-84 -444h-39l84 444h-165l-85 -444h-38l85 444h-57l6 36h58l7 36q17 90 63 136
q39 37 89 37q29 0 52 -15l-17 -33q-19 11 -41 11q-34 0 -59 -25q-35 -35 -51 -120l-5 -27h165l5 25q19 99 60 147t114 48q50 0 77 -22z" />
    <glyph glyph-name="f_j" unicode="fj" horiz-adv-x="344" 
d="M366 678l-16 -33q-27 18 -71 18q-56 0 -86 -43t-42 -126l-2 -14h192l-94 -498q-20 -106 -44 -139q-31 -43 -84 -43q-25 0 -34 4l4 36q21 -3 32 -3q28 0 48 23t34 94l92 490h-153l-84 -444h-39l84 444h-57l6 36h58l5 25q19 99 60 147t114 48q50 0 77 -22z" />
    <glyph glyph-name="ff" unicode="ff" horiz-adv-x="398" 
d="M513 692l-10 -34q-15 5 -35 5q-43 0 -71 -46t-38 -112l-4 -25h91l-7 -36h-91l-86 -444h-38l85 444h-166l-85 -444h-38l85 444h-57l6 36h58l5 25q20 104 65 149q35 35 86 35q24 0 40 -14l-15 -33q-14 10 -33 10q-44 0 -68 -41t-39 -116l-3 -15h166l7 36q19 99 63 145
q39 39 89 39q28 0 38 -8z" />
    <glyph glyph-name="fi" unicode="fi" horiz-adv-x="359" 
d="M59 0h-39l84 444h-57l6 36h58l5 25q16 98 58 146.5t116 48.5q50 0 77 -22l-16 -33q-27 18 -71 18q-56 0 -86 -43t-42 -126l-2 -14h192l-91 -480h-39l84 444h-153z" />
    <glyph glyph-name="fl" unicode="fl" horiz-adv-x="359" 
d="M59 0h-39l84 444h-57l6 36h58l6 31q11 55 27 92t51 64q42 33 102 33q50 0 82 -23l-128 -677h-39l123 652q-15 11 -48 11q-54 0 -84 -35.5t-44 -103.5l-9 -44h91l-7 -36h-91z" />
    <glyph glyph-name="ffi" unicode="ffi" horiz-adv-x="563" 
d="M571 678l-16 -33q-27 18 -71 18q-56 0 -86 -43t-42 -126l-2 -14h192l-91 -480h-39l84 444h-153l-84 -444h-39l84 444h-165l-85 -444h-38l85 444h-57l6 36h58l7 36q17 90 63 136q39 37 89 37q29 0 52 -15l-17 -33q-19 11 -41 11q-34 0 -59 -25q-35 -35 -51 -120l-5 -27
h165l5 25q19 99 60 147t114 48q50 0 77 -22z" />
    <glyph glyph-name="ffl" unicode="ffl" horiz-adv-x="563" 
d="M324 674l-17 -33q-19 11 -41 11q-36 0 -60 -26q-36 -37 -51 -119l-5 -27h165l6 31q11 55 27 92t51 64q42 33 102 33q50 0 82 -23l-128 -677h-39l123 652q-15 11 -48 11q-54 0 -84 -35.5t-44 -103.5l-9 -44h91l-7 -36h-91l-84 -444h-39l84 444h-165l-85 -444h-38l85 444
h-57l6 36h58l7 36q17 89 63 135q38 38 90 38q30 0 52 -15z" />
    <glyph glyph-name=".notdef" horiz-adv-x="500" 
d="M0 0v700h500v-700h-500zM250 395l170 255h-340zM280 350l170 -255v510zM80 50h340l-170 255zM50 605v-510l170 255z" />
    <glyph glyph-name=".null" horiz-adv-x="0" 
 />
    <glyph glyph-name="nonmarkingreturn" horiz-adv-x="333" 
 />
    <glyph glyph-name="space" unicode=" " horiz-adv-x="150" 
 />
    <glyph glyph-name="space" unicode="&#xa0;" horiz-adv-x="150" 
 />
    <glyph glyph-name="exclam" unicode="!" horiz-adv-x="184" 
d="M91 168h-34l90 506h48zM44 -8h-1q-14 0 -22.5 10t-8.5 27t11 30t27 13q32 0 32 -36q0 -17 -11 -30.5t-27 -13.5z" />
    <glyph glyph-name="quotedbl" unicode="&#x22;" horiz-adv-x="232" 
d="M108 683h50l-50 -217h-32zM234 683h50l-50 -217h-32z" />
    <glyph glyph-name="numbersign" unicode="#" horiz-adv-x="360" 
d="M128 240h81l50 175h-81zM60 0h-38l58 202h-59l6 38h64l50 175h-66l6 36h71l57 199h36l-57 -199h82l57 199h36l-57 -199h59l-6 -36h-63l-50 -175h67l-6 -36h-71l-58 -204h-38l59 204h-81z" />
    <glyph glyph-name="dollar" unicode="$" horiz-adv-x="360" 
d="M135 -83h-37l19 100q-32 3 -59 14.5t-39 23.5l15 33q50 -37 100 -37q57 0 90 36.5t33 90.5q0 48 -15.5 78.5t-50.5 64.5q-29 27 -46 46t-32 50t-15 63q0 60 36 104t98 51l18 90h37l-17 -91q46 -2 82 -32l-20 -31q-36 30 -83 30t-78 -31t-31 -81q0 -31 12.5 -57
t24.5 -38.5t41 -38.5q81 -76 81 -158q0 -80 -40 -128t-104 -53z" />
    <glyph glyph-name="percent" unicode="%" horiz-adv-x="634" 
d="M218 658h1q46 0 67.5 -37.5t21.5 -93.5q0 -53 -15 -110t-52.5 -103.5t-88.5 -46.5q-46 0 -68.5 37.5t-22.5 89.5q0 41 9 85t26.5 85t49.5 67.5t72 26.5zM210 624h-1q-37 0 -63 -43.5t-35.5 -90.5t-9.5 -84q0 -105 57 -105q36 0 63 43t37 91t10 85q0 104 -58 104zM123 -16
h-41l451 681h41zM509 385h1q46 0 67.5 -37.5t21.5 -93.5q0 -53 -15 -110t-52.5 -103.5t-88.5 -46.5q-46 0 -68.5 37.5t-22.5 89.5q0 41 9 85t26.5 85t49.5 67.5t72 26.5zM501 351h-1q-37 0 -63 -43.5t-35.5 -90.5t-9.5 -84q0 -105 57 -105q36 0 63 43t37 91t10 85
q0 104 -58 104z" />
    <glyph glyph-name="ampersand" unicode="&#x26;" horiz-adv-x="468" 
d="M390 0h-46q-25 44 -39 71q-66 -79 -152 -79q-64 0 -101 44.5t-37 110.5q0 137 148 231v2q-28 68 -28 123q0 73 36 126t99 53q48 0 72.5 -33t24.5 -79q0 -65 -42.5 -112.5t-114.5 -92.5v-2q43 -111 104 -224q62 106 90 224h43q-41 -149 -115 -259q22 -44 58 -104zM158 30
h1q71 0 129 74q-68 128 -113 242q-117 -76 -117 -193q0 -56 28.5 -89.5t71.5 -33.5zM261 644h-1q-38 0 -61 -38.5t-23 -88.5q0 -58 22 -120q126 79 126 166q0 81 -63 81z" />
    <glyph glyph-name="quotesingle" unicode="'" horiz-adv-x="106" 
d="M108 683h50l-50 -217h-32z" />
    <glyph glyph-name="parenleft" unicode="(" horiz-adv-x="250" 
d="M261 692h43q-97 -111 -148 -246.5t-51 -267.5q0 -191 40 -298h-37q-45 115 -45 290q0 140 52 277.5t146 244.5z" />
    <glyph glyph-name="parenright" unicode=")" horiz-adv-x="250" 
d="M-3 -120h-44q97 111 148 246.5t51 267.5q0 191 -40 298h37q45 -115 45 -290q0 -140 -52 -277.5t-145 -244.5z" />
    <glyph glyph-name="asterisk" unicode="*" horiz-adv-x="365" 
d="M307 682l38 -20l-91 -122v-2l133 13l-5 -43l-130 9v-2l69 -116l-37 -23l-56 124h-2l-74 -128l-36 24l90 120l1 2l-130 -10l5 43l126 -11v2l-63 116l41 20l46 -121h2z" />
    <glyph glyph-name="plus" unicode="+" horiz-adv-x="596" 
d="M281 532h40v-246h238v-38h-238v-248h-40v248h-238v38h238v246z" />
    <glyph glyph-name="comma" unicode="," horiz-adv-x="170" 
d="M-4 -121l-35 -5q16 32 39.5 99t34.5 113l60 10q-18 -53 -50.5 -123.5t-48.5 -93.5z" />
    <glyph glyph-name="hyphen" unicode="-" horiz-adv-x="291" 
d="M31 271h232l-7 -38h-232z" />
    <glyph glyph-name="hyphen" unicode="&#xad;" horiz-adv-x="291" 
d="M31 271h232l-7 -38h-232z" />
    <glyph glyph-name="period" unicode="." horiz-adv-x="170" 
d="M48 -8h-1q-14 0 -22.5 10t-8.5 27t11 30t27 13q32 0 32 -36q0 -17 -11 -30.5t-27 -13.5z" />
    <glyph glyph-name="slash" unicode="/" horiz-adv-x="281" 
d="M10 -40h-43l341 722h43z" />
    <glyph glyph-name="zero" unicode="0" horiz-adv-x="360" 
d="M133 -8h-1q-104 0 -104 185q0 62 13.5 139.5t39 156.5t72 132t104.5 53q103 0 103 -170q0 -57 -12 -134t-36.5 -161.5t-71.5 -142.5t-107 -58zM140 29h1q35 0 65.5 37.5t50.5 93t34 121t20.5 121t6.5 92.5q0 127 -63 127q-45 0 -82.5 -49t-58.5 -121t-32.5 -143.5
t-11.5 -126.5q0 -77 14 -114.5t56 -37.5z" />
    <glyph glyph-name="one" unicode="1" horiz-adv-x="360" 
d="M143 0l112 600h-2l-117 -66l-5 34l144 82h30l-123 -650h-39z" />
    <glyph glyph-name="two" unicode="2" horiz-adv-x="360" 
d="M270 0h-273l4 24l61 72q43 50 61.5 72.5t60.5 79t63 93.5t40 86t19 87q0 107 -86 107q-11 0 -21.5 -2.5t-18 -5t-16 -7.5t-12.5 -8t-10.5 -8.5t-7.5 -5.5l-14 30q52 44 108 44q59 0 89.5 -37.5t30.5 -99.5q0 -39 -14 -82.5t-32 -79t-51.5 -82.5t-55.5 -74.5t-61 -74.5
t-53 -64l-21 -26l1 -2h214z" />
    <glyph glyph-name="three" unicode="3" horiz-adv-x="360" 
d="M7 13l12 34q36 -18 77 -18q66 0 109.5 52.5t43.5 125.5q0 67 -33.5 102.5t-80.5 34.5h-16l6 31h14q51 2 99.5 44.5t48.5 110.5q0 91 -83 91q-41 0 -70 -21l-11 33q40 25 95 25q50 0 80.5 -34.5t30.5 -86.5q0 -67 -37 -113t-90 -64v-2q39 -11 64 -51t25 -93
q0 -97 -58 -159.5t-142 -62.5q-50 0 -84 21z" />
    <glyph glyph-name="four" unicode="4" horiz-adv-x="360" 
d="M223 0h-39l37 195h-209l6 28l288 427h41l-80 -419h74l-7 -36h-74zM67 231h161l41 215q5 28 16.5 74t15.5 67h-3q-50 -86 -95 -153l-136 -201v-2z" />
    <glyph glyph-name="five" unicode="5" horiz-adv-x="360" 
d="M369 650l-10 -38h-155l-64 -207q5 1 15 1q24 0 53.5 -11.5t48.5 -31.5q43 -46 43 -128q0 -99 -61.5 -171t-153.5 -72q-54 0 -79 18l12 34q30 -15 66 -15q77 0 125 60t48 142q0 139 -127 139q-26 0 -40 -3l87 283h192z" />
    <glyph glyph-name="six" unicode="6" horiz-adv-x="360" 
d="M361 658v-38h-4q-80 -8 -154 -78t-111 -198h2q52 64 118 64q53 0 81.5 -43t28.5 -112q0 -39 -10.5 -82.5t-31 -84.5t-55 -67.5t-76.5 -26.5q-61 0 -91.5 51t-30.5 136q0 95 36.5 199.5t93.5 165.5q50 55 105 83.5t98 30.5h1zM149 29h1q34 0 60.5 23t40.5 58.5t21 72
t7 70.5q0 118 -81 118q-27 0 -56.5 -20t-52.5 -57q-8 -15 -11 -25q-10 -45 -10 -94q0 -65 21 -105.5t60 -40.5z" />
    <glyph glyph-name="seven" unicode="7" horiz-adv-x="360" 
d="M110 650h288l-4 -22q-182 -363 -332 -628h-45q109 191 330 610l-2 2h-242z" />
    <glyph glyph-name="eight" unicode="8" horiz-adv-x="360" 
d="M245 658h1q53 0 79 -36.5t26 -81.5q0 -120 -119 -193v-3q80 -74 80 -169q0 -73 -47.5 -128t-119.5 -55q-56 0 -91 39t-35 102q0 136 146 217v2q-69 66 -69 138q0 65 42.5 116.5t106.5 51.5zM151 29h1q53 0 85.5 44t32.5 104q0 85 -79 150q-50 -24 -90 -75.5t-40 -111.5
q0 -52 23.5 -81.5t66.5 -29.5zM240 621h-1q-43 0 -72 -36.5t-29 -92.5q0 -40 16.5 -67.5t49.5 -57.5q51 32 78 74.5t27 88.5q0 91 -69 91z" />
    <glyph glyph-name="nine" unicode="9" horiz-adv-x="360" 
d="M40 -8l-4 37q3 1 31 9q54 17 102 60q81 73 121 209h-2q-51 -56 -109 -56q-54 0 -82 41.5t-28 109.5q0 90 52 173t130 83q56 0 83 -45.5t27 -114.5q0 -97 -36.5 -208.5t-92.5 -178.5q-67 -80 -155 -109q-27 -9 -37 -10zM244 621h-1q-41 0 -72.5 -38t-45.5 -85.5t-14 -89.5
q0 -120 78 -120q29 0 58 19t47 52q8 14 12 26q12 43 12 105q0 63 -15.5 97t-58.5 34z" />
    <glyph glyph-name="colon" unicode=":" horiz-adv-x="170" 
d="M122 384h-1q-14 0 -22.5 10t-8.5 27t11 30t27 13q32 0 32 -36q0 -17 -11 -30.5t-27 -13.5zM48 -8h-1q-14 0 -22.5 10t-8.5 27t11 30t27 13q32 0 32 -36q0 -17 -11 -30.5t-27 -13.5z" />
    <glyph glyph-name="semicolon" unicode=";" horiz-adv-x="170" 
d="M-4 -121l-35 -5q16 32 39.5 99t34.5 113l60 10q-18 -53 -50.5 -123.5t-48.5 -93.5zM122 384h-1q-14 0 -22.5 10t-8.5 27t11 30t27 13q32 0 32 -36q0 -17 -11 -30.5t-27 -13.5z" />
    <glyph glyph-name="less" unicode="&#x3c;" horiz-adv-x="596" 
d="M76 247v38l454 247v-45l-410 -220v-2l410 -220v-45z" />
    <glyph glyph-name="equal" unicode="=" horiz-adv-x="596" 
d="M564 346h-516v38h516v-38zM564 156h-516v38h516v-38z" />
    <glyph glyph-name="greater" unicode="&#x3e;" horiz-adv-x="596" 
d="M543 285v-38l-454 -247v45l410 220v2l-410 220v45z" />
    <glyph glyph-name="question" unicode="?" horiz-adv-x="294" 
d="M137 168h-39v12q2 109 79 212q5 7 27.5 33t35 43t24.5 48t12 63q0 34 -19.5 52t-51.5 18q-42 0 -69 -23l-12 31q42 29 93 29q50 0 76 -31t26 -82q0 -24 -6.5 -47t-22 -47.5t-25 -38t-32 -40.5l-27.5 -33q-35 -45 -50 -85.5t-18 -99.5q0 -9 -1 -14zM86 -8h-1
q-14 0 -22.5 10t-8.5 27t11 30t27 13q32 0 32 -36q0 -17 -11 -30.5t-27 -13.5z" />
    <glyph glyph-name="at" unicode="@" horiz-adv-x="560" 
d="M336 234l33 156q-11 4 -29 4q-67 0 -113 -73.5t-46 -153.5q0 -68 43 -68q35 0 68 42t44 93zM386 -36l11 -30q-57 -37 -141 -37q-105 0 -168 70.5t-63 210.5q0 175 91.5 296t220.5 121q89 0 140 -61.5t51 -167.5q0 -144 -42.5 -222.5t-108.5 -78.5q-24 0 -38.5 19
t-10.5 58h-2q-46 -77 -109 -77q-35 0 -56.5 25.5t-21.5 77.5q0 56 22.5 113.5t74.5 102t121 44.5q34 0 57 -10l-44 -213q-22 -106 17 -106q40 0 71 72t31 173q0 215 -157 215q-110 0 -188.5 -108.5t-78.5 -274.5q0 -119 51.5 -180.5t150.5 -61.5q57 0 119 30z" />
    <glyph glyph-name="A" unicode="A" horiz-adv-x="413" 
d="M292 233h-167l-96 -233h-41l283 674h39l31 -674h-39zM140 269h151l-8 190q0 4 -3 152h-4q-36 -102 -58 -153z" />
    <glyph glyph-name="B" unicode="B" horiz-adv-x="370" 
d="M13 8l124 660q41 9 90 9q67 0 105 -35q38 -36 38 -101q0 -61 -37.5 -110t-101.5 -70v-2q97 -33 97 -152q0 -98 -73 -161q-55 -49 -154 -49q-61 0 -88 11zM171 636l-49 -257h35q70 0 120 45t50 116q0 101 -111 101q-31 0 -45 -5zM116 345l-58 -305q19 -7 49 -7
q84 0 132 50t48 126q0 61 -35 98.5t-104 37.5h-32z" />
    <glyph glyph-name="C" unicode="C" horiz-adv-x="340" 
d="M273 45l9 -34q-31 -17 -87 -17q-84 0 -122.5 65.5t-38.5 171.5q0 99 30 200t97 170q76 79 169 79q45 0 61 -11l-13 -36q-21 9 -51 9q-81 0 -139 -66q-52 -59 -82 -149.5t-30 -180.5q0 -103 28.5 -159t99.5 -56q39 0 69 14z" />
    <glyph glyph-name="D" unicode="D" horiz-adv-x="410" 
d="M11 5l125 663q45 9 84 9q96 0 142 -64q41 -58 40 -158q0 -113 -36 -223t-93 -165q-73 -70 -176 -70q-55 0 -86 8zM170 637l-113 -600q20 -4 41 -4q89 0 158 74q44 47 74 147t30 201q0 186 -146 186q-22 0 -44 -4z" />
    <glyph glyph-name="E" unicode="E" horiz-adv-x="322" 
d="M297 372l-7 -36h-177l-56 -300h202l-7 -36h-241l127 674h229l-7 -36h-189l-51 -266h177z" />
    <glyph glyph-name="F" unicode="F" horiz-adv-x="309" 
d="M11 0l127 674h229l-7 -36h-189l-53 -278h177l-7 -36h-177l-61 -324h-39z" />
    <glyph glyph-name="G" unicode="G" horiz-adv-x="404" 
d="M372 336l-61 -322q-42 -20 -96 -20q-89 0 -136 70q-41 61 -41 171q0 99 32.5 200t101.5 169q77 76 179 76q39 0 68 -12l-14 -36q-24 10 -63 10q-80 0 -150 -70q-50 -50 -81 -145.5t-31 -183.5q0 -212 142 -212q33 0 55 10l48 259h-102l7 36h142z" />
    <glyph glyph-name="H" unicode="H" horiz-adv-x="421" 
d="M138 674h40l-58 -302h220l57 302h40l-128 -674h-39l63 336h-220l-63 -336h-39z" />
    <glyph glyph-name="I" unicode="I" horiz-adv-x="163" 
d="M138 674h40l-128 -674h-39z" />
    <glyph glyph-name="J" unicode="J" horiz-adv-x="239" 
d="M125 162l97 512h39l-99 -525q-17 -92 -52 -124.5t-89 -32.5q-35 0 -56 10l9 35q22 -8 44 -8q46 0 69.5 30t37.5 103z" />
    <glyph glyph-name="K" unicode="K" horiz-adv-x="352" 
d="M11 0l127 674h40l-64 -333h2q14 17 34 45t28 38l193 250h48l-227 -284l106 -390h-40l-97 355l-56 -65l-55 -290h-39z" />
    <glyph glyph-name="L" unicode="L" horiz-adv-x="305" 
d="M11 0l127 674h40l-121 -638h198l-7 -36h-237z" />
    <glyph glyph-name="M" unicode="M" horiz-adv-x="563" 
d="M464 0h-39l64 458q5 34 14 89t12 71h-5q-35 -98 -71 -177l-199 -441h-22l-32 453q-5 79 -5 165h-3q-7 -30 -17 -81t-17 -80l-105 -457h-40l162 674h47l31 -433q6 -81 5 -147h4q14 39 63 149l192 431h52z" />
    <glyph glyph-name="N" unicode="N" horiz-adv-x="423" 
d="M48 0h-37l127 674h41l80 -423q22 -114 33 -183h2q21 149 28 186l80 420h37l-127 -674h-39l-81 412q-22 115 -32 201h-2q-11 -88 -32 -198z" />
    <glyph glyph-name="O" unicode="O" horiz-adv-x="417" 
d="M165 -8h-1q-129 0 -129 208q0 106 38 237t102 194q51 51 111 51q33 0 57 -15t36.5 -36.5t20 -54t9 -57t1.5 -57.5q0 -99 -37 -228.5t-97 -189.5q-52 -52 -111 -52zM169 29h1q38 0 73 35q57 58 91 184t34 204q0 31 -1 51t-3.5 44.5t-8.5 40t-15.5 30t-25 21t-36.5 6.5
q-39 0 -74 -35q-57 -57 -92 -182t-35 -213q0 -28 1 -47t6 -48t14 -46.5t27 -31t44 -13.5z" />
    <glyph glyph-name="P" unicode="P" horiz-adv-x="354" 
d="M11 0l125 668q41 9 88 9q75 0 111 -43q34 -40 34 -105q0 -93 -57 -166q-61 -73 -153 -73q-32 0 -53 6l-56 -296h-39zM170 636l-58 -304q22 -6 48 -6q77 0 122 62t45 135q0 118 -114 118q-21 0 -43 -5z" />
    <glyph glyph-name="Q" unicode="Q" horiz-adv-x="417" 
d="M326 -41l-24 -38q-81 34 -125 62q-15 9 -19 9q-123 5 -123 208q0 106 37 235t100 193q53 54 114 54q34 0 58 -15t36.5 -36t19.5 -54t8.5 -57.5t1.5 -57.5q0 -94 -36.5 -224.5t-99.5 -193.5q-28 -28 -58 -39v-2q48 -23 110 -44zM169 29h1q38 0 73 35q57 58 91 184.5
t34 206.5v35.5t-1.5 35.5t-4.5 37t-10 30.5t-16 28t-24 16.5t-34 7q-39 0 -74 -35q-58 -58 -92.5 -184.5t-34.5 -215.5q0 -34 2.5 -59.5t11 -56.5t28.5 -48t50 -17z" />
    <glyph glyph-name="R" unicode="R" horiz-adv-x="361" 
d="M11 0l125 668q44 9 89 9q69 0 106 -40q33 -37 33 -100q0 -70 -40 -129t-103 -79v-2q66 -24 67 -164q1 -121 10 -163h-40q-4 13 -9 170q-3 78 -25.5 110.5t-76.5 32.5h-38l-59 -313h-39zM170 636l-55 -289h40q69 0 117.5 53.5t48.5 136.5q0 104 -105 104q-30 0 -46 -5z
" />
    <glyph glyph-name="S" unicode="S" horiz-adv-x="322" 
d="M-6 22l15 36q35 -26 88 -26q67 0 103 45.5t36 111.5q0 77 -71 150q-85 87 -85 168q0 72 48 122.5t124 50.5q52 0 82 -22l-15 -34q-33 18 -75 18q-55 0 -88 -37.5t-34 -93.5q0 -69 74 -143q82 -82 82 -172q0 -88 -49 -145t-139 -57q-28 0 -56.5 9t-39.5 19z" />
    <glyph glyph-name="T" unicode="T" horiz-adv-x="323" 
d="M92 0l120 638h-124l7 36h287l-7 -36h-124l-120 -638h-39z" />
    <glyph glyph-name="U" unicode="U" horiz-adv-x="421" 
d="M138 674h40l-87 -460q-8 -39 -8 -82q0 -49 24.5 -76t63.5 -27q56 0 88 43t50 138l88 464h40l-88 -464q-22 -120 -66.5 -169t-117.5 -49q-52 0 -87.5 34.5t-35.5 98.5q0 41 8 84z" />
    <glyph glyph-name="V" unicode="V" horiz-adv-x="404" 
d="M164 0h-36l-26 674h40l17 -458q4 -113 -1 -146h4q15 49 55 145l188 459h41z" />
    <glyph glyph-name="W" unicode="W" horiz-adv-x="634" 
d="M145 0h-34l-9 674h40l4 -458q0 -35 -7 -142h4q22 75 48 142l178 458h39l5 -458q1 -37 -1.5 -85t-2.5 -57h3q3 10 19 59t28 82l176 459h42l-264 -674h-36l-4 477q0 17 1 37.5t2 49.5t2 51h-2q-7 -22 -15.5 -51t-15 -49.5t-13.5 -37.5z" />
    <glyph glyph-name="X" unicode="X" horiz-adv-x="376" 
d="M302 0h-41l-39 185l-25 117h-3l-67 -118l-106 -184h-46l207 344l-77 330h42l39 -172q8 -36 24 -114h2q24 47 63 115l100 171h47l-197 -324z" />
    <glyph glyph-name="Y" unicode="Y" horiz-adv-x="391" 
d="M161 0h-40l58 302l-77 372h42l43 -221q13 -66 19 -109h2l62 112l127 218h46l-225 -370z" />
    <glyph glyph-name="Z" unicode="Z" horiz-adv-x="335" 
d="M-25 0l5 27l350 609v2h-216l6 36h268l-5 -25l-352 -611v-2h236l-7 -36h-285z" />
    <glyph glyph-name="bracketleft" unicode="[" horiz-adv-x="250" 
d="M144 -112h-126l152 798h126l-7 -34h-85l-139 -730h85z" />
    <glyph glyph-name="backslash" unicode="\" horiz-adv-x="281" 
d="M280 -40h-41l-202 722h41z" />
    <glyph glyph-name="bracketright" unicode="]" horiz-adv-x="250" 
d="M116 686h127l-152 -798h-127l6 34h87l139 730h-87z" />
    <glyph glyph-name="asciicircum" unicode="^" horiz-adv-x="596" 
d="M533 196h-43l-178 404h-2l-178 -404h-43l203 454h38z" />
    <glyph glyph-name="underscore" unicode="_" horiz-adv-x="500" 
d="M-64 -75h500l-10 -50h-500z" />
    <glyph glyph-name="grave" unicode="`" 
d="M101 667h57l82 -132h-32z" />
    <glyph glyph-name="a" unicode="a" horiz-adv-x="352" 
d="M259 0h-39q0 2 9 98h-2q-61 -106 -127 -106q-37 0 -59 33t-22 97q0 45 9.5 94t30.5 98t50 87.5t71.5 62.5t92.5 24q41 0 64 -13l-57 -279q-22 -114 -21 -196zM252 250l39 197q-12 4 -32 4q-44 0 -82.5 -31t-62.5 -78.5t-38 -101t-15 -102.5q-3 -109 49 -109q41 0 83.5 70
t58.5 151z" />
    <glyph glyph-name="b" unicode="b" horiz-adv-x="354" 
d="M139 692h40l-52 -273h2q50 69 107 69q47 0 69 -39.5t22 -95.5q0 -49 -13.5 -108t-39 -117t-71.5 -97t-103 -39q-38 0 -58 22.5t-20 53.5q0 22 4 46zM104 295l-35 -168q-4 -26 -4 -48q0 -50 46 -50q41 0 76 36t55 88t31.5 104t11.5 91q0 103 -61 103q-37 0 -71.5 -43
t-48.5 -113z" />
    <glyph glyph-name="c" unicode="c" horiz-adv-x="275" 
d="M209 44l7 -36q-31 -14 -74 -14q-119 0 -119 171q0 48 13.5 101.5t39.5 104.5t72 84t103 33q26 0 39 -8l-12 -36q-16 7 -35 7q-55 0 -97.5 -48.5t-61.5 -112t-19 -123.5q0 -136 86 -136q28 0 58 13z" />
    <glyph glyph-name="d" unicode="d" horiz-adv-x="354" 
d="M337 692h39l-97 -517q-21 -111 -21 -175h-37l6 78h-2q-16 -38 -47 -62t-68 -24q-42 0 -66 38t-24 102q0 83 25.5 163.5t77 136.5t116.5 56q34 0 55 -21zM244 199l38 224q-16 28 -53 28q-38 0 -70.5 -32.5t-53 -81.5t-32 -101t-11.5 -95q0 -112 61 -112q34 0 70 43t51 127
z" />
    <glyph glyph-name="e" unicode="e" horiz-adv-x="310" 
d="M224 58l12 -32q-48 -32 -97 -32q-116 0 -116 163q0 67 21.5 141t69 132t106.5 58q41 0 61 -27t20 -68q0 -77 -64 -117.5t-167 -42.5q-3 -15 -4.5 -53t2.5 -70q15 -79 78 -79q38 0 78 27zM260 392v1q0 58 -48 58q-37 0 -73 -46t-61 -136q47 1 85 11t67.5 38.5t29.5 73.5z
" />
    <glyph glyph-name="f" unicode="f" horiz-adv-x="193" 
d="M57 0h-38l85 444h-57l6 36h58l7 36q17 96 63 145q39 39 89 39q28 0 38 -8l-10 -34q-15 5 -35 5q-43 0 -71 -46t-38 -112l-4 -25h91l-7 -36h-91z" />
    <glyph glyph-name="g" unicode="g" horiz-adv-x="352" 
d="M-10 -176l14 35q37 -22 78 -22q53 0 79.5 38t44.5 120l19 87h-2q-53 -90 -118 -90q-39 0 -62.5 34.5t-23.5 105.5q0 55 13.5 114t40.5 114.5t74.5 91.5t107.5 36q40 0 80 -20l-79 -420q-30 -160 -71 -202q-43 -46 -106 -46q-53 0 -89 24zM244 212l45 229q-17 10 -51 10
q-54 0 -95.5 -53.5t-60.5 -120t-21 -127.5q-4 -121 55 -121q42 0 78.5 58.5t49.5 124.5z" />
    <glyph glyph-name="h" unicode="h" horiz-adv-x="363" 
d="M47 0h-39l130 692h40l-53 -284h2q52 80 119 80q39 0 58.5 -26.5t19.5 -64.5q0 -32 -8 -72l-61 -325h-39l62 330q6 33 6 66q0 55 -49 55q-43 0 -83 -54t-53 -121z" />
    <glyph glyph-name="i" unicode="i" horiz-adv-x="156" 
d="M47 0h-39l92 480h39zM137 567h-1q-27 0 -24 35q2 15 12.5 25.5t22.5 10.5q15 0 22 -10t5 -26q-5 -35 -37 -35z" />
    <glyph glyph-name="j" unicode="j" horiz-adv-x="164" 
d="M109 480h39l-94 -498q-20 -106 -44 -139q-31 -43 -84 -43q-25 0 -34 4l4 36q21 -3 32 -3q28 0 48 23t34 94zM146 567h-1q-27 0 -24 35q2 15 12.5 25.5t22.5 10.5q15 0 22 -10t5 -26q-5 -35 -37 -35z" />
    <glyph glyph-name="k" unicode="k" horiz-adv-x="310" 
d="M47 0h-38l130 692h39l-80 -424h2q25 30 31 38l145 174h51l-170 -195l106 -285h-41l-94 256l-41 -48z" />
    <glyph glyph-name="l" unicode="l" horiz-adv-x="155" 
d="M47 0h-39l130 692h40z" />
    <glyph glyph-name="m" unicode="m" horiz-adv-x="555" 
d="M47 0h-39l58 311q13 69 25 169h36l-10 -84h2q56 92 122 92q37 0 56 -26.5t20 -64.5q55 91 124 91q37 0 56 -26.5t19 -64.5q0 -29 -10 -81l-59 -316h-39l60 320q8 40 8 76q0 55 -46 55q-40 0 -78.5 -52t-52.5 -123l-52 -276h-39l60 320q8 40 8 76q0 55 -46 55
q-38 0 -78 -54t-53 -121z" />
    <glyph glyph-name="n" unicode="n" horiz-adv-x="363" 
d="M47 0h-39l58 311q13 69 25 169h36l-10 -84h2q58 92 129 92q38 0 57 -26.5t19 -64.5q0 -31 -8 -71l-61 -326h-39l60 320q8 40 8 76q0 55 -49 55q-41 0 -82 -53.5t-54 -121.5z" />
    <glyph glyph-name="o" unicode="o" horiz-adv-x="340" 
d="M119 -8h-1q-49 0 -73 43.5t-24 117.5q0 45 11.5 99t33.5 108.5t62.5 91t90.5 36.5q94 0 94 -149q0 -44 -10 -98.5t-31 -112.5t-61 -97t-92 -39zM126 29h1q37 0 66.5 36.5t45.5 89t24 100.5t8 82q0 53 -12.5 83.5t-46.5 30.5q-45 0 -80.5 -52.5t-52 -117.5t-16.5 -120
q0 -30 2 -50t7.5 -40.5t19 -31t34.5 -10.5z" />
    <glyph glyph-name="p" unicode="p" horiz-adv-x="353" 
d="M11 -192h-39l93 495q8 46 17.5 109.5t10.5 67.5h37l-12 -83h2q56 91 126 91q80 0 80 -129q0 -56 -14 -118t-40 -118.5t-69 -93.5t-95 -37q-36 0 -57 18h-2zM93 246l-36 -195q25 -22 54 -22q46 0 82.5 40t55.5 97.5t28 107.5t9 82q0 95 -53 95q-43 0 -84 -60.5t-56 -144.5
z" />
    <glyph glyph-name="q" unicode="q" horiz-adv-x="354" 
d="M210 -192h-39l56 275h-2q-47 -91 -118 -91q-39 0 -63.5 34.5t-24.5 105.5q0 52 14.5 111.5t42.5 115.5t75.5 92.5t105.5 36.5q41 0 81 -20zM246 212l46 230q-17 9 -45 9q-49 0 -91.5 -45t-66.5 -115t-26 -145q-4 -117 57 -117q41 0 77 58.5t49 124.5z" />
    <glyph glyph-name="r" unicode="r" horiz-adv-x="223" 
d="M47 0h-39l60 321q17 90 19 159h36q-2 -51 -8 -96h2q48 104 121 104h9l-8 -45h-3q-48 0 -87 -56.5t-51 -115.5z" />
    <glyph glyph-name="s" unicode="s" horiz-adv-x="260" 
d="M-16 21l16 34q35 -24 73 -24q42 0 67 28t25 70q0 59 -50 107q-64 62 -64 117q0 58 36.5 96.5t95.5 38.5q42 0 65 -18l-15 -34q-25 15 -55 15q-40 0 -63 -25t-23 -63q0 -21 8.5 -40t16.5 -28.5t24 -25.5q65 -65 65 -126q0 -73 -39 -111t-100 -38q-24 0 -49 9t-34 18z" />
    <glyph glyph-name="t" unicode="t" horiz-adv-x="213" 
d="M126 560l46 25l-22 -105h91l-7 -35h-91l-57 -307q-9 -46 -9 -73q0 -34 31 -34q25 2 26 2v-33q-20 -6 -37 -6q-28 0 -45 16t-17 43q0 29 10 81l59 311h-59l6 35h60z" />
    <glyph glyph-name="u" unicode="u" horiz-adv-x="363" 
d="M306 480h39l-58 -311q-16 -83 -21 -169h-38l8 82h-2q-53 -90 -130 -90q-37 0 -56 26.5t-19 64.5q0 33 6 61l63 336h39l-60 -320q-8 -40 -8 -74q0 -57 48 -57q43 0 83 51.5t54 123.5z" />
    <glyph glyph-name="v" unicode="v" horiz-adv-x="310" 
d="M56 480h39l16 -304q4 -86 2 -106h4q13 36 43 107l129 303h41l-211 -480h-35z" />
    <glyph glyph-name="w" unicode="w" horiz-adv-x="525" 
d="M58 480h39l12 -304q4 -80 2 -106h3q24 66 41 105l132 305h33l15 -304q4 -79 0 -106h4q4 10 17.5 47t22.5 59l126 304h41l-206 -480h-32l-16 313q-3 53 0 102h-2q-3 -9 -16 -46t-21 -56l-137 -313h-35z" />
    <glyph glyph-name="x" unicode="x" 
d="M58 480h42l32 -113q1 -4 10 -36.5t14 -48.5h2l54 85l72 113h47l-162 -237l69 -243h-42l-31 121l-23 89h-2q-11 -19 -55 -90l-75 -120h-47l166 245z" />
    <glyph glyph-name="y" unicode="y" horiz-adv-x="312" 
d="M52 480h40l23 -292q1 -18 3.5 -55.5l4.5 -67.5h2q8 25 46 121l117 294h42l-163 -397q-73 -179 -157 -248q-44 -35 -70 -43l-16 36q40 17 77 50q23 19 47.5 54.5t37.5 67.5q6 13 4 30z" />
    <glyph glyph-name="z" unicode="z" horiz-adv-x="282" 
d="M-34 0l2 26l219 324q12 18 26 38t22 31.5t14 21.5l1 3h-183l7 36h231l-3 -27l-222 -326l-60 -89v-2h200l-7 -36h-247z" />
    <glyph glyph-name="braceleft" unicode="{" horiz-adv-x="250" 
d="M42 271l6 32q70 0 85 80q6 32 12 93.5t11 91.5q11 64 40.5 91t78.5 27h21l-7 -34h-16q-61 0 -75 -76q-7 -34 -11.5 -91t-8.5 -81q-10 -59 -30.5 -83t-55.5 -33v-2q27 -7 38 -23.5t11 -46.5q0 -27 -27 -118q-27 -89 -27 -118q0 -26 10 -40t39 -18h14l-6 -34h-6
q-38 0 -65 22.5t-27 65.5q0 38 27 125q27 89 27 115q0 55 -58 55z" />
    <glyph glyph-name="bar" unicode="|" horiz-adv-x="165" 
d="M76 750h40v-1000h-40v1000z" />
    <glyph glyph-name="braceright" unicode="}" horiz-adv-x="250" 
d="M218 303l-6 -32q-70 0 -85 -80q-6 -32 -12 -93.5t-11 -91.5q-11 -64 -40.5 -91t-78.5 -27h-21l7 34h16q61 0 75 76q7 34 11.5 91t8.5 81q10 59 30.5 83t55.5 33v2q-27 7 -38 23.5t-11 46.5q0 26 27 117q27 89 27 119q0 26 -10 40t-39 18h-14l6 34h6q38 0 65 -22.5
t27 -65.5q0 -39 -27 -126t-27 -114q0 -55 58 -55z" />
    <glyph glyph-name="asciitilde" unicode="~" horiz-adv-x="596" 
d="M126 233h-35q-4 49 21 81t74 32q43 0 126 -38q86 -39 124 -39q28 0 40.5 22.5t10.5 52.5h35q4 -56 -21 -84.5t-70 -28.5q-48 0 -135 40q-81 37 -118 37q-25 0 -39 -20t-13 -55z" />
    <glyph glyph-name="exclamdown" unicode="&#xa1;" horiz-adv-x="184" 
d="M30 -188h-48l104 506h34zM133 498h1q14 0 22.5 -10t8.5 -27t-11 -30t-27 -13q-32 0 -32 36q0 17 11 30.5t27 13.5z" />
    <glyph glyph-name="cent" unicode="&#xa2;" horiz-adv-x="360" 
d="M176 -5h-37l18 97q-48 14 -67 59q-17 37 -17 95q0 63 19.5 129t61.5 119t95 64l17 90h37l-17 -87q37 0 53 -18l-16 -31q-18 14 -52 14q-45 0 -82 -46t-55.5 -110t-18.5 -126q0 -120 78 -120q34 0 63 18l10 -29q-31 -21 -72 -23z" />
    <glyph glyph-name="sterling" unicode="&#xa3;" horiz-adv-x="360" 
d="M299 0h-300l6 25q35 20 77 73.5t53 117.5q8 44 12 104h-84l7 35h79q0 71 10 137q13 82 53 124t101 42q36 0 63 -19l-16 -32q-24 14 -52 14q-90 0 -109 -133q-8 -53 -8 -133h105l-7 -35h-99q-4 -50 -11 -90q-19 -115 -111 -192l-1 -2h239z" />
    <glyph glyph-name="currency" unicode="&#xa4;" horiz-adv-x="360" 
d="M194 524h1q23 0 49 -12t42 -32l60 71l30 -31l-69 -71q25 -49 25 -119t-25 -119l69 -71l-30 -31l-60 71q-16 -20 -42 -32t-50 -12t-50 12t-41 32l-60 -71l-31 31l70 71q-26 51 -26 119t26 119l-70 71l31 31l60 -71q15 20 41 32t50 12zM195 487h-1q-43 0 -70 -41t-27 -116
q0 -74 27 -115.5t70 -41.5q43 -2 70 41.5t27 115.5q0 73 -26.5 115t-69.5 42z" />
    <glyph glyph-name="yen" unicode="&#xa5;" horiz-adv-x="360" 
d="M145 0h-39l38 201h-122l6 32h122l16 85h-122l7 32h109l-64 300h41l39 -198q12 -61 17 -97h2q15 30 57 100l117 195h45l-189 -300h112l-7 -32h-125l-16 -85h125l-6 -32h-125z" />
    <glyph glyph-name="brokenbar" unicode="&#xa6;" horiz-adv-x="165" 
d="M76 174h40v-350h-40v350zM76 674h40v-350h-40v350z" />
    <glyph glyph-name="section" unicode="&#xa7;" horiz-adv-x="382" 
d="M87 351v-1q0 -23 11 -41.5t23.5 -28.5t35.5 -24q66 -40 91 -62q34 14 53 42t19 63q0 60 -80 104q-28 15 -77 50q-76 -38 -76 -102zM383 648l-21 -33q-36 30 -95 30q-51 0 -80 -26.5t-29 -65.5q0 -34 22 -58t67 -48q54 -29 84.5 -63t30.5 -84q0 -84 -91 -131
q24 -37 24 -77q0 -65 -44.5 -103.5t-115.5 -38.5q-38 0 -75 14t-56 31l19 36q17 -16 50.5 -30t71.5 -14q51 0 79.5 27.5t28.5 70.5q0 39 -22.5 65.5t-69.5 55.5q-28 17 -39.5 24.5t-34 26t-32.5 39t-10 44.5q0 81 95 136q-24 32 -24 66q0 59 43.5 99.5t115.5 40.5
q32 0 63.5 -10t44.5 -24z" />
    <glyph glyph-name="dieresis" unicode="&#xa8;" 
d="M140 565h-1q-29 0 -29 33q0 15 10.5 26.5t25.5 11.5q30 0 30 -32q0 -15 -10 -27t-26 -12zM278 565h-1q-29 0 -29 33q0 15 10.5 26.5t25.5 11.5q30 0 30 -32q0 -15 -10 -27t-26 -12z" />
    <glyph glyph-name="copyright" unicode="&#xa9;" horiz-adv-x="677" 
d="M355 648h1q125 0 210.5 -90t85.5 -218q0 -130 -86 -220t-211 -90q-126 0 -213 90.5t-87 219.5q0 128 87 218t213 90zM355 616h-1q-110 0 -184.5 -80t-74.5 -200q0 -116 74.5 -195t185.5 -79q109 -2 183 78.5t74 199.5q0 117 -74 196.5t-183 79.5zM489 493l-10 -31
q-39 25 -99 25q-74 0 -111.5 -42t-37.5 -108q0 -65 39 -108t112 -43q63 0 103 28l10 -29q-45 -32 -123 -32q-84 0 -133 51t-49 130q0 82 55.5 134t133.5 52q37 0 67.5 -8.5t42.5 -18.5z" />
    <glyph glyph-name="ordfeminine" unicode="&#xaa;" horiz-adv-x="285" 
d="M246 263h-34q0 6 0.5 13t1.5 20.5t2 25.5h-1q-36 -64 -86 -64q-29 0 -48 25t-19 76q0 52 18 102.5t59 88.5t97 38q34 0 58 -14l-41 -225q-7 -41 -7 -86zM234 427l21 123q-11 6 -35 6q-49 0 -83 -59t-36 -134q-3 -73 39 -73q27 0 56 43t38 94z" />
    <glyph glyph-name="guillemotleft" unicode="&#xab;" horiz-adv-x="336" 
d="M195 420l-124 -168l78 -168h-40l-81 168l125 168h42zM327 420l-124 -168l78 -168h-40l-81 168l125 168h42z" />
    <glyph glyph-name="logicalnot" unicode="&#xac;" horiz-adv-x="596" 
d="M43 384h516v-254h-40v216h-476v38z" />
    <glyph glyph-name="registered" unicode="&#xae;" horiz-adv-x="360" 
d="M207 512v-68h-28v161q25 5 53 5q33 0 51 -13q16 -11 16 -34q0 -27 -32 -38v-2q19 -6 27 -39q7 -32 12 -40h-29q-7 8 -13 42q-6 26 -38 26h-19zM207 585v-50h20q42 0 42 25q0 27 -39 27q-13 0 -23 -2zM235 682h1q65 0 109.5 -44.5t44.5 -108.5q0 -65 -45 -110t-110 -45
t-110 45t-45 110q0 64 45 108.5t110 44.5zM235 655h-1q-51 0 -86.5 -37t-35.5 -89q0 -54 35.5 -90.5t88.5 -36.5q51 -1 86 36t35 90t-35 90t-87 37z" />
    <glyph glyph-name="macron" unicode="&#xaf;" 
d="M125 619h187l-6 -36h-187z" />
    <glyph glyph-name="macron" unicode="&#x2c9;" 
d="M125 619h187l-6 -36h-187z" />
    <glyph glyph-name="degree" unicode="&#xb0;" horiz-adv-x="276" 
d="M211 686h1q50 0 84 -38t34 -93q0 -56 -37 -95.5t-89 -39.5q-51 0 -85 37.5t-34 93.5q-1 55 36.5 95t89.5 40zM212 652h-1q-36 0 -61.5 -30t-25.5 -71q0 -42 22.5 -69.5t57.5 -27.5q37 0 62.5 29.5t25.5 71.5q0 41 -22.5 69t-57.5 28z" />
    <glyph glyph-name="plusminus" unicode="&#xb1;" horiz-adv-x="596" 
d="M281 567h40v-208h238v-38h-238v-216h-40v216h-238v38h238v208zM43 38h516v-38h-516v38z" />
    <glyph glyph-name="twosuperior" unicode="&#xb2;" horiz-adv-x="235" 
d="M250 403h-211l6 26l38 35q46 43 75 73t57.5 76t28.5 83q0 67 -61 67q-34 0 -66 -25l-13 28q39 32 89 32q42 0 67 -26.5t25 -72.5q0 -30 -12 -60t-37.5 -61.5t-42 -49t-47.5 -47.5l-42 -41v-2h153z" />
    <glyph glyph-name="threesuperior" unicode="&#xb3;" horiz-adv-x="219" 
d="M115 739l-10 28q33 31 82 31q37 0 59.5 -21t22.5 -62q0 -31 -21.5 -56t-54.5 -39l-1 -2q65 -27 61 -97q-2 -53 -39 -88t-96 -35q-49 0 -84 25l15 31q37 -22 75 -22q40 0 63.5 25.5t23.5 68.5q0 75 -87 75h-5l5 29h6q40 0 69.5 24.5t29.5 60.5q0 25 -13.5 37.5t-36.5 12.5
q-34 0 -64 -26z" />
    <glyph glyph-name="acute" unicode="&#xb4;" 
d="M252 667h57l-107 -132h-32z" />
    <glyph glyph-name="mu" unicode="&#xb5;" horiz-adv-x="359" 
d="M133 480l-61 -325q-24 -124 52 -124q41 0 72 47t45 91q7 20 11 42l48 269h39l-65 -359q-9 -50 -7 -71.5t16 -20.5l-12 -37h-11q-40 0 -29 89h-2q-18 -37 -48.5 -61.5t-65.5 -24.5q-49 0 -65 43l-17 -89q-19 -104 -16 -141h-36q-7 31 9 117l104 555h39z" />
    <glyph glyph-name="paragraph" unicode="&#xb6;" horiz-adv-x="382" 
d="M167 -50h-36l63 330q-2 1 -6 1q-15 2 -33 11.5t-38 27.5t-33.5 50.5t-13.5 72.5q0 101 69.5 166t184.5 65q44 0 77 -7l-138 -717h-36l132 688h-60z" />
    <glyph glyph-name="periodcentered" unicode="&#xb7;" horiz-adv-x="170" 
d="M76 217h-1q-14 0 -22.5 10t-8.5 27t11 30t27 13q32 0 32 -36q0 -17 -11 -30.5t-27 -13.5z" />
    <glyph glyph-name="periodcentered" unicode="&#x2219;" horiz-adv-x="170" 
d="M76 217h-1q-14 0 -22.5 10t-8.5 27t11 30t27 13q32 0 32 -36q0 -17 -11 -30.5t-27 -13.5z" />
    <glyph glyph-name="cedilla" unicode="&#xb8;" 
d="M101 5h35l-41 -61q53 -18 53 -69q0 -32 -24 -52.5t-58 -20.5q-42 0 -63 19l13 31q25 -15 50 -15q44 0 46 37q-1 19 -20 31.5t-45 16.5z" />
    <glyph glyph-name="onesuperior" unicode="&#xb9;" horiz-adv-x="179" 
d="M151 403h-37l67 349h-2l-83 -42l-1 34l101 49h30z" />
    <glyph glyph-name="ordmasculine" unicode="&#xba;" horiz-adv-x="296" 
d="M204 588h1q43 0 66.5 -33t23.5 -83q0 -33 -7 -67t-22 -68.5t-44 -56.5t-68 -22q-42 0 -66 33t-24 86q0 47 13.5 93t47 82t79.5 36zM196 556h-1q-38 0 -63.5 -52.5t-27.5 -123.5q0 -90 56 -90q32 0 54.5 29.5t31.5 68t9 78.5q0 90 -59 90z" />
    <glyph glyph-name="guillemotright" unicode="&#xbb;" horiz-adv-x="336" 
d="M129 252l-78 168h39l82 -168l-123 -168h-44zM261 252l-78 168h39l82 -168l-123 -168h-44z" />
    <glyph glyph-name="onequarter" unicode="&#xbc;" horiz-adv-x="600" 
d="M476 0h-37l22 118h-145l4 20l193 257h38l-47 -246h49l-6 -31h-49zM467 149l23 119q4 20 11.5 47.5t7.5 29.5h-2l-55 -79l-81 -114l-1 -3h97zM154 263h-37l67 349h-2l-83 -42l-1 34l101 49h30zM108 -8h-39l441 666h39z" />
    <glyph glyph-name="onehalf" unicode="&#xbd;" horiz-adv-x="600" 
d="M144 263h-37l67 349h-2l-83 -42l-1 34l101 49h30zM85 -8h-39l441 666h39zM527 0h-211l6 26l38 35q37 35 56 55t48.5 54t43 64.5t13.5 58.5q0 67 -61 67q-34 0 -66 -25l-13 28q39 32 89 32q42 0 67 -26.5t25 -72.5q0 -28 -11 -56.5t-34 -58t-38.5 -46.5t-44.5 -46l-11 -11
l-42 -41v-2h153z" />
    <glyph glyph-name="threequarters" unicode="&#xbe;" horiz-adv-x="600" 
d="M131 -8h-39l441 666h39zM121 599l-10 28q33 31 82 31q37 0 59.5 -21t22.5 -62q0 -31 -21.5 -56t-54.5 -39l-1 -2q61 -25 61 -97q-5 -54 -40.5 -88.5t-94.5 -34.5q-49 0 -84 25l15 31q34 -22 73 -22q41 0 65 25t24 69q0 75 -87 75h-5l5 29h6q40 2 69.5 25.5t29.5 59.5
q0 25 -13.5 37.5t-36.5 12.5q-34 0 -64 -26zM475 0h-37l22 118h-145l4 20l193 257h38l-47 -246h49l-6 -31h-49zM466 149l23 119q4 20 11.5 47.5t7.5 29.5h-2l-55 -79l-81 -114l-1 -3h97z" />
    <glyph glyph-name="questiondown" unicode="&#xbf;" horiz-adv-x="294" 
d="M153 318h39v-12q-2 -109 -79 -212q-6 -7 -28 -33t-34.5 -42.5t-24.5 -47.5t-12 -62q0 -34 21 -53t53 -19q39 0 68 21l13 -33q-45 -25 -93 -25q-50 0 -77.5 32t-27.5 83q0 23 6.5 46t21.5 47t25 37.5t32.5 40.5l27.5 33q35 45 50 85.5t18 99.5zM204 498h1q14 0 22.5 -10
t8.5 -27t-11 -30t-27 -13q-32 0 -32 36q0 17 11 30.5t27 13.5z" />
    <glyph glyph-name="Agrave" unicode="&#xc0;" horiz-adv-x="413" 
d="M292 233h-167l-96 -233h-41l283 674h39l31 -674h-39zM140 269h151l-8 190q0 4 -3 152h-4q-36 -102 -58 -153zM164 815h65l102 -105h-41z" />
    <glyph glyph-name="Aacute" unicode="&#xc1;" horiz-adv-x="413" 
d="M292 233h-167l-96 -233h-41l283 674h39l31 -674h-39zM140 269h151l-8 190q0 4 -3 152h-4q-36 -102 -58 -153zM363 815h65l-126 -105h-41z" />
    <glyph glyph-name="Acircumflex" unicode="&#xc2;" horiz-adv-x="413" 
d="M292 233h-167l-96 -233h-41l283 674h39l31 -674h-39zM140 269h151l-8 190q0 4 -3 152h-4q-36 -102 -58 -153zM287 815h40l62 -105h-42l-42 76h-2l-67 -76h-45z" />
    <glyph glyph-name="Atilde" unicode="&#xc3;" horiz-adv-x="413" 
d="M292 233h-167l-96 -233h-41l283 674h39l31 -674h-39zM140 269h151l-8 190q0 4 -3 152h-4q-36 -102 -58 -153zM223 718h-30q3 35 20.5 57.5t43.5 22.5q17 0 42 -17q28 -18 39 -18q25 0 33 36h29q-9 -75 -67 -75q-20 0 -44 18q-25 17 -35 17q-22 0 -31 -41z" />
    <glyph glyph-name="Adieresis" unicode="&#xc4;" horiz-adv-x="413" 
d="M292 233h-167l-96 -233h-41l283 674h39l31 -674h-39zM140 269h151l-8 190q0 4 -3 152h-4q-36 -102 -58 -153zM225 731h-1q-14 0 -22.5 9t-8.5 24t11 26.5t27 11.5q32 0 32 -32q0 -15 -10.5 -27t-27.5 -12zM368 731h-1q-14 0 -22.5 9t-8.5 24t11 26.5t27 11.5q32 0 32 -32
q0 -15 -10.5 -27t-27.5 -12z" />
    <glyph glyph-name="Aring" unicode="&#xc5;" horiz-adv-x="413" 
d="M292 233h-167l-96 -233h-41l283 674h39l31 -674h-39zM140 269h151l-8 190q0 4 -3 152h-4q-36 -102 -58 -153zM305 863h1q39 0 61 -21t22 -59q0 -41 -30 -65t-64 -24q-36 0 -59 21.5t-23 54.5q0 40 27.5 66.5t64.5 26.5zM305 834h-1q-22 0 -38.5 -16.5t-16.5 -43.5
q0 -24 13 -37t36 -13q22 0 38 16t16 43q0 22 -12.5 36.5t-34.5 14.5z" />
    <glyph glyph-name="AE" unicode="&#xc6;" horiz-adv-x="522" 
d="M9 0h-42l329 674h257l-8 -36h-187l-37 -266h175l-7 -36h-172l-39 -300h186l-8 -36h-221l30 246h-138zM145 282h125l32 229q7 55 21 132h-5l-66 -135z" />
    <glyph glyph-name="Ccedilla" unicode="&#xc7;" horiz-adv-x="353" 
d="M273 45l9 -34q-29 -17 -75 -17l-32 -48q53 -18 53 -69q0 -32 -24 -52.5t-58 -20.5q-42 0 -63 19l13 31q25 -15 50 -15q19 0 32.5 10t12.5 27q0 19 -18.5 31.5t-45.5 16.5l48 71q-141 16 -141 239q0 95 30.5 197.5t97.5 170.5q77 78 170 78q43 0 59 -11l-13 -36
q-22 9 -51 9q-79 0 -139 -66q-51 -56 -81.5 -149t-30.5 -180q0 -216 126 -216q41 0 71 14z" />
    <glyph glyph-name="Egrave" unicode="&#xc8;" horiz-adv-x="322" 
d="M297 372l-7 -36h-177l-56 -300h202l-7 -36h-241l127 674h229l-7 -36h-189l-51 -266h177zM129 815h65l102 -105h-41z" />
    <glyph glyph-name="Eacute" unicode="&#xc9;" horiz-adv-x="322" 
d="M297 372l-7 -36h-177l-56 -300h202l-7 -36h-241l127 674h229l-7 -36h-189l-51 -266h177zM331 815h65l-126 -105h-41z" />
    <glyph glyph-name="Ecircumflex" unicode="&#xca;" horiz-adv-x="322" 
d="M297 372l-7 -36h-177l-56 -300h202l-7 -36h-241l127 674h229l-7 -36h-189l-51 -266h177zM255 815h40l62 -105h-42l-42 76h-2l-67 -76h-45z" />
    <glyph glyph-name="Edieresis" unicode="&#xcb;" horiz-adv-x="322" 
d="M297 372l-7 -36h-177l-56 -300h202l-7 -36h-241l127 674h229l-7 -36h-189l-51 -266h177zM182 731h-1q-14 0 -22.5 9t-8.5 24t11 26.5t27 11.5q32 0 32 -32q0 -15 -10.5 -27t-27.5 -12zM325 731h-1q-14 0 -22.5 9t-8.5 24t11 26.5t27 11.5q32 0 32 -32q0 -15 -10.5 -27
t-27.5 -12z" />
    <glyph glyph-name="Igrave" unicode="&#xcc;" horiz-adv-x="163" 
d="M138 674h40l-128 -674h-39zM35 815h65l102 -105h-41z" />
    <glyph glyph-name="Iacute" unicode="&#xcd;" horiz-adv-x="163" 
d="M138 674h40l-128 -674h-39zM232 815h65l-126 -105h-41z" />
    <glyph glyph-name="Icircumflex" unicode="&#xce;" horiz-adv-x="163" 
d="M138 674h40l-128 -674h-39zM158 815h40l62 -105h-42l-42 76h-2l-67 -76h-45z" />
    <glyph glyph-name="Idieresis" unicode="&#xcf;" horiz-adv-x="163" 
d="M138 674h40l-128 -674h-39zM103 731h-1q-14 0 -22.5 9t-8.5 24t11 26.5t27 11.5q32 0 32 -32q0 -15 -10.5 -27t-27.5 -12zM246 731h-1q-14 0 -22.5 9t-8.5 24t11 26.5t27 11.5q32 0 32 -32q0 -15 -10.5 -27t-27.5 -12z" />
    <glyph glyph-name="Eth" unicode="&#xd0;" horiz-adv-x="422" 
d="M14 336l7 36h72l55 295q44 10 84 10q98 0 142 -64q41 -58 40 -158q0 -113 -36.5 -223t-92.5 -164q-75 -71 -178 -71q-53 0 -84 8l63 331h-72zM257 372l-7 -36h-124l-57 -299q20 -4 42 -4q88 0 157 74q44 47 74 147t30 201q0 96 -35 141t-111 45q-22 0 -44 -4l-49 -265
h124z" />
    <glyph glyph-name="Ntilde" unicode="&#xd1;" horiz-adv-x="423" 
d="M48 0h-37l127 674h41l80 -423q22 -114 33 -183h2q21 149 28 186l80 420h37l-127 -674h-39l-81 412q-22 115 -32 201h-2q-11 -88 -32 -198zM227 718h-30q3 35 20.5 57.5t43.5 22.5q17 0 42 -17q28 -18 39 -18q25 0 33 36h29q-9 -75 -67 -75q-20 0 -44 18q-25 17 -35 17
q-22 0 -31 -41z" />
    <glyph glyph-name="Ograve" unicode="&#xd2;" horiz-adv-x="417" 
d="M165 -8h-1q-129 0 -129 208q0 106 38 237t102 194q51 51 111 51q33 0 57 -15t36.5 -36.5t20 -54t9 -57t1.5 -57.5q0 -99 -37 -228.5t-97 -189.5q-52 -52 -111 -52zM169 29h1q38 0 73 35q57 58 91 184t34 204q0 31 -1 51t-3.5 44.5t-8.5 40t-15.5 30t-25 21t-36.5 6.5
q-39 0 -74 -35q-57 -57 -92 -182t-35 -213q0 -28 1 -47t6 -48t14 -46.5t27 -31t44 -13.5zM161 815h65l102 -105h-41z" />
    <glyph glyph-name="Oacute" unicode="&#xd3;" horiz-adv-x="417" 
d="M165 -8h-1q-129 0 -129 208q0 106 38 237t102 194q51 51 111 51q33 0 57 -15t36.5 -36.5t20 -54t9 -57t1.5 -57.5q0 -99 -37 -228.5t-97 -189.5q-52 -52 -111 -52zM169 29h1q38 0 73 35q57 58 91 184t34 204q0 31 -1 51t-3.5 44.5t-8.5 40t-15.5 30t-25 21t-36.5 6.5
q-39 0 -74 -35q-57 -57 -92 -182t-35 -213q0 -28 1 -47t6 -48t14 -46.5t27 -31t44 -13.5zM360 815h65l-126 -105h-41z" />
    <glyph glyph-name="Ocircumflex" unicode="&#xd4;" horiz-adv-x="417" 
d="M165 -8h-1q-129 0 -129 208q0 106 38 237t102 194q51 51 111 51q33 0 57 -15t36.5 -36.5t20 -54t9 -57t1.5 -57.5q0 -99 -37 -228.5t-97 -189.5q-52 -52 -111 -52zM169 29h1q38 0 73 35q57 58 91 184t34 204q0 31 -1 51t-3.5 44.5t-8.5 40t-15.5 30t-25 21t-36.5 6.5
q-39 0 -74 -35q-57 -57 -92 -182t-35 -213q0 -28 1 -47t6 -48t14 -46.5t27 -31t44 -13.5zM281 815h40l62 -105h-42l-42 76h-2l-67 -76h-45z" />
    <glyph glyph-name="Otilde" unicode="&#xd5;" horiz-adv-x="417" 
d="M165 -8h-1q-129 0 -129 208q0 106 38 237t102 194q51 51 111 51q33 0 57 -15t36.5 -36.5t20 -54t9 -57t1.5 -57.5q0 -99 -37 -228.5t-97 -189.5q-52 -52 -111 -52zM169 29h1q38 0 73 35q57 58 91 184t34 204q0 31 -1 51t-3.5 44.5t-8.5 40t-15.5 30t-25 21t-36.5 6.5
q-39 0 -74 -35q-57 -57 -92 -182t-35 -213q0 -28 1 -47t6 -48t14 -46.5t27 -31t44 -13.5zM222 718h-30q3 35 20.5 57.5t43.5 22.5q16 0 42 -17q28 -18 39 -18q25 0 33 36h29q-9 -75 -67 -75q-20 0 -44 18q-26 17 -35 17q-22 0 -31 -41z" />
    <glyph glyph-name="Odieresis" unicode="&#xd6;" horiz-adv-x="417" 
d="M165 -8h-1q-129 0 -129 208q0 106 38 237t102 194q51 51 111 51q33 0 57 -15t36.5 -36.5t20 -54t9 -57t1.5 -57.5q0 -99 -37 -228.5t-97 -189.5q-52 -52 -111 -52zM169 29h1q38 0 73 35q57 58 91 184t34 204q0 31 -1 51t-3.5 44.5t-8.5 40t-15.5 30t-25 21t-36.5 6.5
q-39 0 -74 -35q-57 -57 -92 -182t-35 -213q0 -28 1 -47t6 -48t14 -46.5t27 -31t44 -13.5zM220 731h-1q-14 0 -22.5 9t-8.5 24t11 26.5t27 11.5q32 0 32 -32q0 -15 -10.5 -27t-27.5 -12zM363 731h-1q-14 0 -22.5 9t-8.5 24t11 26.5t27 11.5q32 0 32 -32q0 -15 -10.5 -27
t-27.5 -12z" />
    <glyph glyph-name="multiply" unicode="&#xd7;" horiz-adv-x="596" 
d="M58 498l25 28l234 -237l234 237l27 -28l-235 -235l235 -234l-27 -29l-234 237l-234 -237l-25 29l233 234z" />
    <glyph glyph-name="Oslash" unicode="&#xd8;" horiz-adv-x="417" 
d="M16 -28l-25 19l59 96q-15 45 -15 121q0 102 31.5 219.5t79.5 177.5q61 77 136 77q66 0 98 -59l48 79l28 -18l-61 -99q13 -45 13 -123q0 -88 -30.5 -210t-77.5 -183q-61 -77 -136 -77q-68 0 -99 60zM81 137l273 443q-23 65 -83 65q-58 0 -101 -71.5t-68 -176.5
q-31 -131 -23 -260h2zM361 532l-270 -439q21 -64 81 -64q58 0 100 67.5t67 169.5q35 140 25 266h-3z" />
    <glyph glyph-name="Ugrave" unicode="&#xd9;" horiz-adv-x="421" 
d="M138 674h40l-87 -460q-8 -39 -8 -82q0 -49 24.5 -76t63.5 -27q56 0 88 43t50 138l88 464h40l-88 -464q-22 -120 -66.5 -169t-117.5 -49q-52 0 -87.5 34.5t-35.5 98.5q0 41 8 84zM160 815h65l102 -105h-41z" />
    <glyph glyph-name="Uacute" unicode="&#xda;" horiz-adv-x="421" 
d="M138 674h40l-87 -460q-8 -39 -8 -82q0 -49 24.5 -76t63.5 -27q56 0 88 43t50 138l88 464h40l-88 -464q-22 -120 -66.5 -169t-117.5 -49q-52 0 -87.5 34.5t-35.5 98.5q0 41 8 84zM329 815h65l-126 -105h-41z" />
    <glyph glyph-name="Ucircumflex" unicode="&#xdb;" horiz-adv-x="421" 
d="M138 674h40l-87 -460q-8 -39 -8 -82q0 -49 24.5 -76t63.5 -27q56 0 88 43t50 138l88 464h40l-88 -464q-22 -120 -66.5 -169t-117.5 -49q-52 0 -87.5 34.5t-35.5 98.5q0 41 8 84zM288 815h40l62 -105h-42l-42 76h-2l-67 -76h-45z" />
    <glyph glyph-name="Udieresis" unicode="&#xdc;" horiz-adv-x="421" 
d="M138 674h40l-87 -460q-8 -39 -8 -82q0 -49 24.5 -76t63.5 -27q56 0 88 43t50 138l88 464h40l-88 -464q-22 -120 -66.5 -169t-117.5 -49q-52 0 -87.5 34.5t-35.5 98.5q0 41 8 84zM224 731h-1q-14 0 -22.5 9t-8.5 24t11 26.5t27 11.5q32 0 32 -32q0 -15 -10.5 -27
t-27.5 -12zM367 731h-1q-14 0 -22.5 9t-8.5 24t11 26.5t27 11.5q32 0 32 -32q0 -15 -10.5 -27t-27.5 -12z" />
    <glyph glyph-name="Yacute" unicode="&#xdd;" horiz-adv-x="391" 
d="M161 0h-40l58 302l-77 372h42l43 -221q13 -66 19 -109h2l62 112l127 218h46l-225 -370zM345 815h65l-126 -105h-41z" />
    <glyph glyph-name="Thorn" unicode="&#xde;" horiz-adv-x="352" 
d="M11 0l127 674h40l-28 -144q28 4 48 4q71 0 110 -41q35 -37 35 -106q0 -92 -58 -152.5t-153 -60.5q-22 0 -48 4l-34 -178h-39zM143 494l-52 -280q24 -4 41 -4q78 0 123.5 50.5t45.5 122.5q0 115 -113 115q-21 0 -45 -4z" />
    <glyph glyph-name="germandbls" unicode="&#xdf;" horiz-adv-x="383" 
d="M47 0h-39l89 465q10 51 23.5 90t35 73.5t54 53t74.5 18.5q55 0 81.5 -33.5t26.5 -80.5q0 -73 -45 -117q-82 -37 -82 -103q0 -45 25 -87q41 -72 41 -132q0 -64 -44 -109.5t-113 -45.5q-46 0 -80 18l12 35q28 -16 73 -16q48 0 79 33t31 82q0 48 -33 108q-33 58 -33 103
q0 88 99 141q27 25 28 94q-4 73 -73 73q-105 0 -142 -199z" />
    <glyph glyph-name="agrave" unicode="&#xe0;" horiz-adv-x="352" 
d="M259 0h-39q0 2 9 98h-2q-61 -106 -127 -106q-37 0 -59 33t-22 97q0 45 9.5 94t30.5 98t50 87.5t71.5 62.5t92.5 24q41 0 64 -13l-57 -279q-22 -114 -21 -196zM252 250l39 197q-12 4 -32 4q-44 0 -82.5 -31t-62.5 -78.5t-38 -101t-15 -102.5q-3 -109 49 -109q41 0 83.5 70
t58.5 151zM142 667h57l82 -132h-32z" />
    <glyph glyph-name="aacute" unicode="&#xe1;" horiz-adv-x="352" 
d="M259 0h-39q0 2 9 98h-2q-61 -106 -127 -106q-37 0 -59 33t-22 97q0 45 9.5 94t30.5 98t50 87.5t71.5 62.5t92.5 24q41 0 64 -13l-57 -279q-22 -114 -21 -196zM252 250l39 197q-12 4 -32 4q-44 0 -82.5 -31t-62.5 -78.5t-38 -101t-15 -102.5q-3 -109 49 -109q41 0 83.5 70
t58.5 151zM303 667h57l-107 -132h-32z" />
    <glyph glyph-name="acircumflex" unicode="&#xe2;" horiz-adv-x="352" 
d="M259 0h-39q0 2 9 98h-2q-61 -106 -127 -106q-37 0 -59 33t-22 97q0 45 9.5 94t30.5 98t50 87.5t71.5 62.5t92.5 24q41 0 64 -13l-57 -279q-22 -114 -21 -196zM252 250l39 197q-12 4 -32 4q-44 0 -82.5 -31t-62.5 -78.5t-38 -101t-15 -102.5q-3 -109 49 -109q41 0 83.5 70
t58.5 151zM255 667h28l55 -132h-37l-36 91h-2l-65 -91h-38z" />
    <glyph glyph-name="atilde" unicode="&#xe3;" horiz-adv-x="352" 
d="M259 0h-39q0 2 9 98h-2q-61 -106 -127 -106q-37 0 -59 33t-22 97q0 45 9.5 94t30.5 98t50 87.5t71.5 62.5t92.5 24q41 0 64 -13l-57 -279q-22 -114 -21 -196zM252 250l39 197q-12 4 -32 4q-44 0 -82.5 -31t-62.5 -78.5t-38 -101t-15 -102.5q-3 -109 49 -109q41 0 83.5 70
t58.5 151zM188 564h-32q-1 32 14.5 54t41.5 22q16 0 44 -17q30 -18 41 -18q24 0 27 36h31q0 -30 -14 -50.5t-45 -20.5q-20 0 -46 18q-28 17 -37 17q-20 0 -25 -41z" />
    <glyph glyph-name="adieresis" unicode="&#xe4;" horiz-adv-x="352" 
d="M259 0h-39q0 2 9 98h-2q-61 -106 -127 -106q-37 0 -59 33t-22 97q0 45 9.5 94t30.5 98t50 87.5t71.5 62.5t92.5 24q41 0 64 -13l-57 -279q-22 -114 -21 -196zM252 250l39 197q-12 4 -32 4q-44 0 -82.5 -31t-62.5 -78.5t-38 -101t-15 -102.5q-3 -109 49 -109q41 0 83.5 70
t58.5 151zM186 565h-1q-29 0 -29 33q0 15 10.5 26.5t25.5 11.5q30 0 30 -32q0 -15 -10 -27t-26 -12zM324 565h-1q-29 0 -29 33q0 15 10.5 26.5t25.5 11.5q30 0 30 -32q0 -15 -10 -27t-26 -12z" />
    <glyph glyph-name="aring" unicode="&#xe5;" horiz-adv-x="352" 
d="M259 0h-39q0 2 9 98h-2q-61 -106 -127 -106q-37 0 -59 33t-22 97q0 45 9.5 94t30.5 98t50 87.5t71.5 62.5t92.5 24q41 0 64 -13l-57 -279q-22 -114 -21 -196zM252 250l39 197q-12 4 -32 4q-44 0 -82.5 -31t-62.5 -78.5t-38 -101t-15 -102.5q-3 -109 49 -109q41 0 83.5 70
t58.5 151zM258 698h1q39 0 61 -21t22 -59q0 -41 -30 -65t-64 -24q-36 0 -59 21.5t-23 54.5q0 40 27.5 66.5t64.5 26.5zM258 668h-1q-22 0 -38.5 -16.5t-16.5 -42.5q0 -24 13.5 -37t36.5 -13q21 0 37.5 16t16.5 42q0 22 -12.5 36.5t-35.5 14.5z" />
    <glyph glyph-name="ae" unicode="&#xe6;" horiz-adv-x="497" 
d="M410 59l12 -28q-44 -39 -104 -39q-82 0 -106 90h-2q-43 -90 -114 -90q-46 0 -70 32.5t-24 73.5q0 96 64.5 147t161.5 49l7 34q11 54 -5.5 88.5t-65.5 34.5q-38 0 -69 -17l-9 29q32 25 90 25q40 0 67.5 -22.5t27.5 -70.5h2q48 93 130 93q45 0 65 -27t20 -60
q0 -43 -18 -72.5t-52 -44.5t-72.5 -20.5t-89.5 -5.5q-19 -96 -8 -156q14 -73 83 -73q38 0 79 30zM207 181l14 77q-79 2 -128 -36t-49 -120q0 -32 16 -52.5t43 -20.5q30 0 59.5 35.5t44.5 116.5zM447 396v1q0 21 -12 37.5t-41 16.5q-44 0 -76.5 -45t-48.5 -112
q91 0 134.5 23.5t43.5 78.5z" />
    <glyph glyph-name="ccedilla" unicode="&#xe7;" horiz-adv-x="275" 
d="M209 44l7 -31q-38 -19 -59 -19l-32 -48q53 -18 53 -69q0 -32 -24.5 -52.5t-59.5 -20.5q-40 0 -61 19l13 31q25 -15 50 -15q20 0 33 10t12 27q0 19 -18.5 31.5t-45.5 16.5l45 70q-99 15 -99 171q0 48 13.5 101t39 104.5t72 84.5t104.5 33q24 0 38 -8l-12 -36q-16 7 -35 7
q-55 0 -97.5 -48.5t-61.5 -112t-19 -123.5q0 -136 85 -136q29 0 59 13z" />
    <glyph glyph-name="egrave" unicode="&#xe8;" horiz-adv-x="310" 
d="M224 58l12 -32q-48 -32 -97 -32q-116 0 -116 163q0 67 21.5 141t69 132t106.5 58q41 0 61 -27t20 -68q0 -77 -64 -117.5t-167 -42.5q-3 -15 -4.5 -53t2.5 -70q15 -79 78 -79q38 0 78 27zM260 392v1q0 58 -48 58q-37 0 -73 -46t-61 -136q47 1 85 11t67.5 38.5t29.5 73.5z
M111 667h57l82 -132h-32z" />
    <glyph glyph-name="eacute" unicode="&#xe9;" horiz-adv-x="310" 
d="M224 58l12 -32q-48 -32 -97 -32q-116 0 -116 163q0 67 21.5 141t69 132t106.5 58q41 0 61 -27t20 -68q0 -77 -64 -117.5t-167 -42.5q-3 -15 -4.5 -53t2.5 -70q15 -79 78 -79q38 0 78 27zM260 392v1q0 58 -48 58q-37 0 -73 -46t-61 -136q47 1 85 11t67.5 38.5t29.5 73.5z
M277 667h57l-107 -132h-32z" />
    <glyph glyph-name="ecircumflex" unicode="&#xea;" horiz-adv-x="310" 
d="M224 58l12 -32q-48 -32 -97 -32q-116 0 -116 163q0 67 21.5 141t69 132t106.5 58q41 0 61 -27t20 -68q0 -77 -64 -117.5t-167 -42.5q-3 -15 -4.5 -53t2.5 -70q15 -79 78 -79q38 0 78 27zM260 392v1q0 58 -48 58q-37 0 -73 -46t-61 -136q47 1 85 11t67.5 38.5t29.5 73.5z
M228 667h28l55 -132h-37l-36 91h-2l-65 -91h-38z" />
    <glyph glyph-name="edieresis" unicode="&#xeb;" horiz-adv-x="310" 
d="M224 58l12 -32q-48 -32 -97 -32q-116 0 -116 163q0 67 21.5 141t69 132t106.5 58q41 0 61 -27t20 -68q0 -77 -64 -117.5t-167 -42.5q-3 -15 -4.5 -53t2.5 -70q15 -79 78 -79q38 0 78 27zM260 392v1q0 58 -48 58q-37 0 -73 -46t-61 -136q47 1 85 11t67.5 38.5t29.5 73.5z
M159 565h-1q-29 0 -29 33q0 15 10.5 26.5t25.5 11.5q30 0 30 -32q0 -15 -10 -27t-26 -12zM297 565h-1q-29 0 -29 33q0 15 10.5 26.5t25.5 11.5q30 0 30 -32q0 -15 -10 -27t-26 -12z" />
    <glyph glyph-name="igrave" unicode="&#xec;" horiz-adv-x="156" 
d="M47 0h-39l92 480h39zM21 667h57l82 -132h-32z" />
    <glyph glyph-name="iacute" unicode="&#xed;" horiz-adv-x="156" 
d="M47 0h-39l92 480h39zM180 667h57l-107 -132h-32z" />
    <glyph glyph-name="icircumflex" unicode="&#xee;" horiz-adv-x="156" 
d="M47 0h-39l92 480h39zM134 667h28l55 -132h-37l-36 91h-2l-65 -91h-38z" />
    <glyph glyph-name="idieresis" unicode="&#xef;" horiz-adv-x="156" 
d="M47 0h-39l92 480h39zM68 565h-1q-29 0 -29 33q0 15 10.5 26.5t25.5 11.5q30 0 30 -32q0 -15 -10 -27t-26 -12zM206 565h-1q-29 0 -29 33q0 15 10.5 26.5t25.5 11.5q30 0 30 -32q0 -15 -10 -27t-26 -12z" />
    <glyph glyph-name="eth" unicode="&#xf0;" horiz-adv-x="343" 
d="M131 29h1q37 0 66.5 36t45 89t23 101t7.5 83q0 48 -1 58q-2 22 -17.5 38.5t-44.5 16.5q-46 0 -81.5 -53t-51 -117.5t-15.5 -118.5q0 -133 68 -133zM123 509l-14 27l98 53q-16 35 -59 88l29 23q35 -43 64 -91l95 52l16 -27l-95 -53q31 -64 44.5 -116t13.5 -124
q0 -41 -8.5 -92.5t-27.5 -113t-59.5 -102.5t-95.5 -41q-39 0 -63.5 28.5t-32 62t-7.5 70.5q0 51 11.5 107t34 108t61.5 86t88 34q28 0 43 -15l2 1q-10 39 -39 90z" />
    <glyph glyph-name="ntilde" unicode="&#xf1;" horiz-adv-x="363" 
d="M47 0h-39l58 311q13 69 25 169h36l-10 -84h2q58 92 129 92q38 0 57 -26.5t19 -64.5q0 -31 -8 -71l-61 -326h-39l60 320q8 40 8 76q0 55 -49 55q-41 0 -82 -53.5t-54 -121.5zM169 564h-32q-1 32 14.5 54t41.5 22q16 0 44 -17q30 -18 41 -18q24 0 27 36h31q0 -30 -14 -50.5
t-45 -20.5q-20 0 -46 18q-28 17 -37 17q-20 0 -25 -41z" />
    <glyph glyph-name="ograve" unicode="&#xf2;" horiz-adv-x="340" 
d="M119 -8h-1q-49 0 -73 43.5t-24 117.5q0 45 11.5 99t33.5 108.5t62.5 91t90.5 36.5q94 0 94 -149q0 -44 -10 -98.5t-31 -112.5t-61 -97t-92 -39zM126 29h1q37 0 66.5 36.5t45.5 89t24 100.5t8 82q0 53 -12.5 83.5t-46.5 30.5q-45 0 -80.5 -52.5t-52 -117.5t-16.5 -120
q0 -30 2 -50t7.5 -40.5t19 -31t34.5 -10.5zM108 667h57l82 -132h-32z" />
    <glyph glyph-name="oacute" unicode="&#xf3;" horiz-adv-x="340" 
d="M119 -8h-1q-49 0 -73 43.5t-24 117.5q0 45 11.5 99t33.5 108.5t62.5 91t90.5 36.5q94 0 94 -149q0 -44 -10 -98.5t-31 -112.5t-61 -97t-92 -39zM126 29h1q37 0 66.5 36.5t45.5 89t24 100.5t8 82q0 53 -12.5 83.5t-46.5 30.5q-45 0 -80.5 -52.5t-52 -117.5t-16.5 -120
q0 -30 2 -50t7.5 -40.5t19 -31t34.5 -10.5zM279 667h57l-107 -132h-32z" />
    <glyph glyph-name="ocircumflex" unicode="&#xf4;" horiz-adv-x="340" 
d="M119 -8h-1q-49 0 -73 43.5t-24 117.5q0 45 11.5 99t33.5 108.5t62.5 91t90.5 36.5q94 0 94 -149q0 -44 -10 -98.5t-31 -112.5t-61 -97t-92 -39zM126 29h1q37 0 66.5 36.5t45.5 89t24 100.5t8 82q0 53 -12.5 83.5t-46.5 30.5q-45 0 -80.5 -52.5t-52 -117.5t-16.5 -120
q0 -30 2 -50t7.5 -40.5t19 -31t34.5 -10.5zM231 667h28l55 -132h-37l-36 91h-2l-65 -91h-38z" />
    <glyph glyph-name="otilde" unicode="&#xf5;" horiz-adv-x="340" 
d="M119 -8h-1q-49 0 -73 43.5t-24 117.5q0 45 11.5 99t33.5 108.5t62.5 91t90.5 36.5q94 0 94 -149q0 -44 -10 -98.5t-31 -112.5t-61 -97t-92 -39zM126 29h1q37 0 66.5 36.5t45.5 89t24 100.5t8 82q0 53 -12.5 83.5t-46.5 30.5q-45 0 -80.5 -52.5t-52 -117.5t-16.5 -120
q0 -30 2 -50t7.5 -40.5t19 -31t34.5 -10.5zM157 564h-32q-1 32 14.5 54t41.5 22q16 0 44 -17q30 -18 41 -18q24 0 27 36h31q0 -30 -14 -50.5t-45 -20.5q-20 0 -46 18q-28 17 -37 17q-20 0 -25 -41z" />
    <glyph glyph-name="odieresis" unicode="&#xf6;" horiz-adv-x="340" 
d="M119 -8h-1q-49 0 -73 43.5t-24 117.5q0 45 11.5 99t33.5 108.5t62.5 91t90.5 36.5q94 0 94 -149q0 -44 -10 -98.5t-31 -112.5t-61 -97t-92 -39zM126 29h1q37 0 66.5 36.5t45.5 89t24 100.5t8 82q0 53 -12.5 83.5t-46.5 30.5q-45 0 -80.5 -52.5t-52 -117.5t-16.5 -120
q0 -30 2 -50t7.5 -40.5t19 -31t34.5 -10.5zM160 565h-1q-29 0 -29 33q0 15 10.5 26.5t25.5 11.5q30 0 30 -32q0 -15 -10 -27t-26 -12zM298 565h-1q-29 0 -29 33q0 15 10.5 26.5t25.5 11.5q30 0 30 -32q0 -15 -10 -27t-26 -12z" />
    <glyph glyph-name="divide" unicode="&#xf7;" horiz-adv-x="596" 
d="M301 409h-1q-16 0 -25.5 10t-9.5 27t10 27.5t26 10.5q17 0 26.5 -10.5t9.5 -27.5t-9.5 -27t-26.5 -10zM559 248h-516v38h516v-38zM301 50h-1q-16 0 -25.5 10t-9.5 27t10 27.5t26 10.5q17 0 26.5 -10.5t9.5 -27.5t-9.5 -27t-26.5 -10z" />
    <glyph glyph-name="oslash" unicode="&#xf8;" horiz-adv-x="344" 
d="M17 -28l-26 20l43 68q-14 35 -14 93q0 45 11 99t33 108.5t62.5 91t91.5 36.5q41 0 66 -30l30 47l28 -17l-39 -62q13 -35 13 -87q0 -44 -10 -98.5t-30.5 -112.5t-60 -97t-90.5 -39q-46 0 -73 35zM67 109l194 312q-16 30 -50 30q-37 0 -67 -31t-47 -78t-26 -94.5t-9 -86.5
q0 -28 3 -52h2zM275 380l-198 -313q13 -38 53 -38t70 36t45.5 89.5t23 100.5t7.5 82v43h-1z" />
    <glyph glyph-name="ugrave" unicode="&#xf9;" horiz-adv-x="363" 
d="M306 480h39l-58 -311q-16 -83 -21 -169h-38l8 82h-2q-53 -90 -130 -90q-37 0 -56 26.5t-19 64.5q0 33 6 61l63 336h39l-60 -320q-8 -40 -8 -74q0 -57 48 -57q43 0 83 51.5t54 123.5zM113 667h57l82 -132h-32z" />
    <glyph glyph-name="uacute" unicode="&#xfa;" horiz-adv-x="363" 
d="M306 480h39l-58 -311q-16 -83 -21 -169h-38l8 82h-2q-53 -90 -130 -90q-37 0 -56 26.5t-19 64.5q0 33 6 61l63 336h39l-60 -320q-8 -40 -8 -74q0 -57 48 -57q43 0 83 51.5t54 123.5zM286 667h57l-107 -132h-32z" />
    <glyph glyph-name="ucircumflex" unicode="&#xfb;" horiz-adv-x="363" 
d="M306 480h39l-58 -311q-16 -83 -21 -169h-38l8 82h-2q-53 -90 -130 -90q-37 0 -56 26.5t-19 64.5q0 33 6 61l63 336h39l-60 -320q-8 -40 -8 -74q0 -57 48 -57q43 0 83 51.5t54 123.5zM233 667h28l55 -132h-37l-36 91h-2l-65 -91h-38z" />
    <glyph glyph-name="udieresis" unicode="&#xfc;" horiz-adv-x="363" 
d="M306 480h39l-58 -311q-16 -83 -21 -169h-38l8 82h-2q-53 -90 -130 -90q-37 0 -56 26.5t-19 64.5q0 33 6 61l63 336h39l-60 -320q-8 -40 -8 -74q0 -57 48 -57q43 0 83 51.5t54 123.5zM175 565h-1q-29 0 -29 33q0 15 10.5 26.5t25.5 11.5q30 0 30 -32q0 -15 -10 -27
t-26 -12zM313 565h-1q-29 0 -29 33q0 15 10.5 26.5t25.5 11.5q30 0 30 -32q0 -15 -10 -27t-26 -12z" />
    <glyph glyph-name="yacute" unicode="&#xfd;" horiz-adv-x="312" 
d="M52 480h40l23 -292q1 -18 3.5 -55.5l4.5 -67.5h2q8 25 46 121l117 294h42l-163 -397q-73 -179 -157 -248q-44 -35 -70 -43l-16 36q40 17 77 50q23 19 47.5 54.5t37.5 67.5q6 13 4 30zM248 667h57l-107 -132h-32z" />
    <glyph glyph-name="thorn" unicode="&#xfe;" horiz-adv-x="353" 
d="M-28 -192l160 853h40l-54 -264h2q59 91 126 91q80 0 80 -129q0 -56 -14 -118t-40 -118.5t-69 -93.5t-95 -37q-36 0 -57 18h-2l-38 -202h-39zM93 246l-36 -195q25 -22 54 -22q46 0 82.5 40t55.5 97.5t28 107.5t9 82q0 95 -53 95q-43 0 -84 -61t-56 -144z" />
    <glyph glyph-name="ydieresis" unicode="&#xff;" horiz-adv-x="312" 
d="M52 480h40l23 -292q1 -18 3.5 -55.5l4.5 -67.5h2q8 25 46 121l117 294h42l-163 -397q-73 -179 -157 -248q-44 -35 -70 -43l-16 36q40 17 77 50q23 19 47.5 54.5t37.5 67.5q6 13 4 30zM135 565h-1q-29 0 -29 33q0 15 10.5 26.5t25.5 11.5q30 0 30 -32q0 -15 -10 -27
t-26 -12zM273 565h-1q-29 0 -29 33q0 15 10.5 26.5t25.5 11.5q30 0 30 -32q0 -15 -10 -27t-26 -12z" />
    <glyph glyph-name="Amacron" unicode="&#x100;" horiz-adv-x="413" 
d="M292 233h-167l-96 -233h-41l283 674h39l31 -674h-39zM140 269h151l-8 190q0 4 -3 152h-4q-36 -102 -58 -153zM211 770h187l-7 -36h-187z" />
    <glyph glyph-name="amacron" unicode="&#x101;" horiz-adv-x="352" 
d="M259 0h-39q0 2 9 98h-2q-61 -106 -127 -106q-37 0 -59 33t-22 97q0 45 9.5 94t30.5 98t50 87.5t71.5 62.5t92.5 24q41 0 64 -13l-57 -279q-22 -114 -21 -196zM252 250l39 197q-12 4 -32 4q-44 0 -82.5 -31t-62.5 -78.5t-38 -101t-15 -102.5q-3 -109 49 -109q41 0 83.5 70
t58.5 151zM151 619h187l-6 -36h-187z" />
    <glyph glyph-name="Abreve" unicode="&#x102;" horiz-adv-x="413" 
d="M292 233h-167l-96 -233h-41l283 674h39l31 -674h-39zM140 269h151l-8 190q0 4 -3 152h-4q-36 -102 -58 -153zM213 802h30q-2 -22 14.5 -38t44.5 -16q29 0 51 16t26 38h30q-4 -38 -33 -63.5t-77 -25.5t-70.5 26t-15.5 63z" />
    <glyph glyph-name="abreve" unicode="&#x103;" horiz-adv-x="352" 
d="M259 0h-39q0 2 9 98h-2q-61 -106 -127 -106q-37 0 -59 33t-22 97q0 45 9.5 94t30.5 98t50 87.5t71.5 62.5t92.5 24q41 0 64 -13l-57 -279q-22 -114 -21 -196zM252 250l39 197q-12 4 -32 4q-44 0 -82.5 -31t-62.5 -78.5t-38 -101t-15 -102.5q-3 -109 49 -109q41 0 83.5 70
t58.5 151zM155 659h30q-3 -29 12 -47.5t43 -18.5q31 0 52.5 18t28.5 48h30q-5 -46 -36.5 -75t-77.5 -29q-48 0 -69.5 29.5t-12.5 74.5z" />
    <glyph glyph-name="Aogonek" unicode="&#x104;" horiz-adv-x="413" 
d="M310 674l31 -674h-7q-60 -69 -60 -121q0 -18 11 -29.5t28 -11.5q21 0 41 11l8 -27q-25 -20 -65 -20q-29 0 -46.5 18.5t-17.5 51.5q0 54 69 135l-10 226h-167l-96 -233h-41l283 674h39zM140 269h151l-8 190q0 4 -3 152h-4q-36 -102 -58 -153z" />
    <glyph glyph-name="aogonek" unicode="&#x105;" horiz-adv-x="352" 
d="M337 475l-57 -279q-22 -114 -21 -196h-7q-60 -69 -60 -121q0 -18 11 -29.5t28 -11.5q21 0 41 11l8 -27q-25 -20 -65 -20q-29 0 -46.5 18.5t-17.5 51.5q0 54 69 135q0 11 1.5 24t4 32.5t3.5 34.5h-2q-61 -106 -127 -106q-37 0 -59 33t-22 97q0 45 9.5 94t30.5 98t50 87.5
t71.5 62.5t92.5 24q41 0 64 -13zM252 250l39 197q-12 4 -32 4q-44 0 -82.5 -31t-62.5 -78.5t-38 -101t-15 -102.5q-3 -109 49 -109q41 0 83.5 70t58.5 151z" />
    <glyph glyph-name="Cacute" unicode="&#x106;" horiz-adv-x="340" 
d="M273 45l9 -34q-31 -17 -87 -17q-84 0 -122.5 65.5t-38.5 171.5q0 99 30 200t97 170q76 79 169 79q45 0 61 -11l-13 -36q-21 9 -51 9q-81 0 -139 -66q-52 -59 -82 -149.5t-30 -180.5q0 -103 28.5 -159t99.5 -56q39 0 69 14zM351 815h65l-126 -105h-41z" />
    <glyph glyph-name="cacute" unicode="&#x107;" horiz-adv-x="275" 
d="M209 44l7 -36q-31 -14 -74 -14q-119 0 -119 171q0 48 13.5 101.5t39.5 104.5t72 84t103 33q26 0 39 -8l-12 -36q-16 7 -35 7q-55 0 -97.5 -48.5t-61.5 -112t-19 -123.5q0 -136 86 -136q28 0 58 13zM260 667h57l-107 -132h-32z" />
    <glyph glyph-name="Ccircumflex" unicode="&#x108;" horiz-adv-x="340" 
d="M273 45l9 -34q-31 -17 -87 -17q-84 0 -122.5 65.5t-38.5 171.5q0 99 30 200t97 170q76 79 169 79q45 0 61 -11l-13 -36q-21 9 -51 9q-81 0 -139 -66q-52 -59 -82 -149.5t-30 -180.5q0 -103 28.5 -159t99.5 -56q39 0 69 14zM282 815h40l62 -105h-42l-42 76h-2l-67 -76h-45
z" />
    <glyph glyph-name="ccircumflex" unicode="&#x109;" horiz-adv-x="275" 
d="M209 44l7 -36q-31 -14 -74 -14q-119 0 -119 171q0 48 13.5 101.5t39.5 104.5t72 84t103 33q26 0 39 -8l-12 -36q-16 7 -35 7q-55 0 -97.5 -48.5t-61.5 -112t-19 -123.5q0 -136 86 -136q28 0 58 13zM219 667h28l55 -132h-37l-36 91h-2l-65 -91h-38z" />
    <glyph glyph-name="Cdotaccent" unicode="&#x10a;" horiz-adv-x="340" 
d="M273 45l9 -34q-31 -17 -87 -17q-84 0 -122.5 65.5t-38.5 171.5q0 99 30 200t97 170q76 79 169 79q45 0 61 -11l-13 -36q-21 9 -51 9q-81 0 -139 -66q-52 -59 -82 -149.5t-30 -180.5q0 -103 28.5 -159t99.5 -56q39 0 69 14zM303 731h-1q-14 0 -22.5 9t-8.5 24t11 26.5
t27 11.5q32 0 32 -32q0 -15 -10.5 -27t-27.5 -12z" />
    <glyph glyph-name="cdotaccent" unicode="&#x10b;" horiz-adv-x="275" 
d="M209 44l7 -36q-31 -14 -74 -14q-119 0 -119 171q0 48 13.5 101.5t39.5 104.5t72 84t103 33q26 0 39 -8l-12 -36q-16 7 -35 7q-55 0 -97.5 -48.5t-61.5 -112t-19 -123.5q0 -136 86 -136q28 0 58 13zM231 565h-1q-29 0 -29 33q0 15 10.5 26.5t25.5 11.5q30 0 30 -32
q0 -15 -10 -27t-26 -12z" />
    <glyph glyph-name="Ccaron" unicode="&#x10c;" horiz-adv-x="340" 
d="M273 45l9 -34q-31 -17 -87 -17q-84 0 -122.5 65.5t-38.5 171.5q0 99 30 200t97 170q76 79 169 79q45 0 61 -11l-13 -36q-21 9 -51 9q-81 0 -139 -66q-52 -59 -82 -149.5t-30 -180.5q0 -103 28.5 -159t99.5 -56q39 0 69 14zM320 710h-40l-62 105h42l42 -76h2l67 76h45z
" />
    <glyph glyph-name="ccaron" unicode="&#x10d;" horiz-adv-x="275" 
d="M209 44l7 -36q-31 -14 -74 -14q-119 0 -119 171q0 48 13.5 101.5t39.5 104.5t72 84t103 33q26 0 39 -8l-12 -36q-16 7 -35 7q-55 0 -97.5 -48.5t-61.5 -112t-19 -123.5q0 -136 86 -136q28 0 58 13zM228 535h-28l-55 132h37l36 -91h2l65 91h38z" />
    <glyph glyph-name="Dcaron" unicode="&#x10e;" horiz-adv-x="410" 
d="M11 5l125 663q45 9 84 9q96 0 142 -64q41 -58 40 -158q0 -113 -36 -223t-93 -165q-73 -70 -176 -70q-55 0 -86 8zM170 637l-113 -600q20 -4 41 -4q89 0 158 74q44 47 74 147t30 201q0 186 -146 186q-22 0 -44 -4zM270 710h-40l-62 105h42l42 -76h2l67 76h45z" />
    <glyph glyph-name="dcaron" unicode="&#x10f;" horiz-adv-x="364" 
d="M337 692h39l-97 -517q-21 -111 -21 -175h-37l6 78h-2q-16 -38 -47 -62t-68 -24q-42 0 -66 38t-24 102q0 83 25.5 163.5t77 136.5t116.5 56q34 0 55 -21zM244 199l38 224q-16 28 -53 28q-38 0 -70.5 -32.5t-53 -81.5t-32 -101t-11.5 -95q0 -112 61 -112q34 0 70 43t51 127
zM386 533l-8 25q61 27 61 78q0 34 -27 53l42 9q26 -19 26 -58q0 -42 -28.5 -70t-65.5 -37z" />
    <glyph glyph-name="Dcroat" unicode="&#x110;" horiz-adv-x="422" 
d="M14 336l7 36h72l55 295q44 10 84 10q98 0 142 -64q41 -58 40 -158q0 -113 -36.5 -223t-92.5 -164q-75 -71 -178 -71q-53 0 -84 8l63 331h-72zM257 372l-7 -36h-124l-57 -299q20 -4 42 -4q88 0 157 74q44 47 74 147t30 201q0 96 -35 141t-111 45q-22 0 -44 -4l-49 -265
h124z" />
    <glyph glyph-name="dcroat" unicode="&#x111;" horiz-adv-x="354" 
d="M244 199l38 224q-16 28 -53 28q-38 0 -70.5 -32.5t-53 -81.5t-32 -101t-11.5 -95q0 -112 61 -112q34 0 70.5 43t50.5 127zM183 586h134l20 106h39l-20 -106h59l-7 -35h-58l-71 -376q-21 -111 -21 -175h-37l6 78h-2q-16 -38 -47 -62t-68 -24q-42 0 -66 38t-24 102
q0 83 25.5 163.5t77 136.5t116.5 56q34 0 55 -21l16 84h-134z" />
    <glyph glyph-name="Emacron" unicode="&#x112;" horiz-adv-x="322" 
d="M297 372l-7 -36h-177l-56 -300h202l-7 -36h-241l127 674h229l-7 -36h-189l-51 -266h177zM165 770h187l-7 -36h-187z" />
    <glyph glyph-name="emacron" unicode="&#x113;" horiz-adv-x="310" 
d="M224 58l12 -32q-48 -32 -97 -32q-116 0 -116 163q0 67 21.5 141t69 132t106.5 58q41 0 61 -27t20 -68q0 -77 -64 -117.5t-167 -42.5q-3 -15 -4.5 -53t2.5 -70q15 -79 78 -79q38 0 78 27zM260 392v1q0 58 -48 58q-37 0 -73 -46t-61 -136q47 1 85 11t67.5 38.5t29.5 73.5z
M130 619h187l-6 -36h-187z" />
    <glyph glyph-name="Ebreve" unicode="&#x114;" horiz-adv-x="322" 
d="M297 372l-7 -36h-177l-56 -300h202l-7 -36h-241l127 674h229l-7 -36h-189l-51 -266h177zM173 808h30q-2 -22 14.5 -38t44.5 -16q29 0 51 16t26 38h30q-4 -38 -33 -63.5t-77 -25.5t-70.5 26t-15.5 63z" />
    <glyph glyph-name="ebreve" unicode="&#x115;" horiz-adv-x="310" 
d="M224 58l12 -32q-48 -32 -97 -32q-116 0 -116 163q0 67 21.5 141t69 132t106.5 58q41 0 61 -27t20 -68q0 -77 -64 -117.5t-167 -42.5q-3 -15 -4.5 -53t2.5 -70q15 -79 78 -79q38 0 78 27zM260 392v1q0 58 -48 58q-37 0 -73 -46t-61 -136q47 1 85 11t67.5 38.5t29.5 73.5z
M134 659h30q-3 -29 12 -47.5t43 -18.5q31 0 52.5 18t28.5 48h30q-5 -46 -36.5 -75t-77.5 -29q-48 0 -69.5 29.5t-12.5 74.5z" />
    <glyph glyph-name="Edotaccent" unicode="&#x116;" horiz-adv-x="322" 
d="M297 372l-7 -36h-177l-56 -300h202l-7 -36h-241l127 674h229l-7 -36h-189l-51 -266h177zM254 731h-1q-14 0 -22.5 9t-8.5 24t11 26.5t27 11.5q32 0 32 -32q0 -15 -10.5 -27t-27.5 -12z" />
    <glyph glyph-name="edotaccent" unicode="&#x117;" horiz-adv-x="310" 
d="M224 58l12 -32q-48 -32 -97 -32q-116 0 -116 163q0 67 21.5 141t69 132t106.5 58q41 0 61 -27t20 -68q0 -77 -64 -117.5t-167 -42.5q-3 -15 -4.5 -53t2.5 -70q15 -79 78 -79q38 0 78 27zM260 392v1q0 58 -48 58q-37 0 -73 -46t-61 -136q47 1 85 11t67.5 38.5t29.5 73.5z
M218 565h-1q-29 0 -29 33q0 15 10.5 26.5t25.5 11.5q30 0 30 -32q0 -15 -10 -27t-26 -12z" />
    <glyph glyph-name="Eogonek" unicode="&#x118;" horiz-adv-x="322" 
d="M11 0l127 674h229l-7 -36h-189l-51 -266h177l-7 -36h-177l-56 -300h202l-7 -36h-10q-97 -74 -97 -126q0 -15 9.5 -25.5t26.5 -10.5q25 0 44 9l10 -27q-26 -18 -65 -18q-30 0 -48 17t-18 48q0 58 97 133h-190z" />
    <glyph glyph-name="eogonek" unicode="&#x119;" horiz-adv-x="310" 
d="M260 392v1q0 58 -48 58q-37 0 -73 -46t-61 -136q47 1 85 11t67.5 38.5t29.5 73.5zM184 -138l10 -27q-25 -20 -65 -20q-29 0 -47.5 19.5t-18.5 50.5q0 28 23 58t54 50v1h-1q-116 0 -116 163q0 67 21.5 141t69 132t106.5 58q41 0 61 -27t20 -68q0 -77 -64 -117.5
t-167 -42.5q-3 -15 -4.5 -53t2.5 -70q15 -79 78 -79q38 0 78 27l12 -32q-7 -5 -23 -13q-39 -20 -74 -53t-35 -68q0 -18 9.5 -29.5t26.5 -11.5q24 0 44 11z" />
    <glyph glyph-name="Ecaron" unicode="&#x11a;" horiz-adv-x="322" 
d="M297 372l-7 -36h-177l-56 -300h202l-7 -36h-241l127 674h229l-7 -36h-189l-51 -266h177zM276 710h-40l-62 105h42l42 -76h2l67 76h45z" />
    <glyph glyph-name="ecaron" unicode="&#x11b;" horiz-adv-x="310" 
d="M224 58l12 -32q-48 -32 -97 -32q-116 0 -116 163q0 67 21.5 141t69 132t106.5 58q41 0 61 -27t20 -68q0 -77 -64 -117.5t-167 -42.5q-3 -15 -4.5 -53t2.5 -70q15 -79 78 -79q38 0 78 27zM260 392v1q0 58 -48 58q-37 0 -73 -46t-61 -136q47 1 85 11t67.5 38.5t29.5 73.5z
M225 535h-28l-55 132h37l36 -91h2l65 91h38z" />
    <glyph glyph-name="Gcircumflex" unicode="&#x11c;" horiz-adv-x="404" 
d="M372 336l-61 -322q-42 -20 -96 -20q-89 0 -136 70q-41 61 -41 171q0 99 32.5 200t101.5 169q77 76 179 76q39 0 68 -12l-14 -36q-24 10 -63 10q-80 0 -150 -70q-50 -50 -81 -145.5t-31 -183.5q0 -212 142 -212q33 0 55 10l48 259h-102l7 36h142zM314 815h40l62 -105h-42
l-42 76h-2l-67 -76h-45z" />
    <glyph glyph-name="gcircumflex" unicode="&#x11d;" horiz-adv-x="352" 
d="M-10 -176l14 35q37 -22 78 -22q53 0 79.5 38t44.5 120l19 87h-2q-53 -90 -118 -90q-39 0 -62.5 34.5t-23.5 105.5q0 55 13.5 114t40.5 114.5t74.5 91.5t107.5 36q40 0 80 -20l-79 -420q-30 -160 -71 -202q-43 -46 -106 -46q-53 0 -89 24zM244 212l45 229q-17 10 -51 10
q-54 0 -95.5 -53.5t-60.5 -120t-21 -127.5q-4 -121 55 -121q42 0 78.5 58.5t49.5 124.5zM237 667h28l55 -132h-37l-36 91h-2l-65 -91h-38z" />
    <glyph glyph-name="Gbreve" unicode="&#x11e;" horiz-adv-x="404" 
d="M372 336l-61 -322q-42 -20 -96 -20q-89 0 -136 70q-41 61 -41 171q0 99 32.5 200t101.5 169q77 76 179 76q39 0 68 -12l-14 -36q-24 10 -63 10q-80 0 -150 -70q-50 -50 -81 -145.5t-31 -183.5q0 -212 142 -212q33 0 55 10l48 259h-102l7 36h142zM228 822h30
q-2 -22 14.5 -38t44.5 -16q29 0 51 16t26 38h30q-4 -38 -33 -63.5t-77 -25.5t-70.5 26t-15.5 63z" />
    <glyph glyph-name="gbreve" unicode="&#x11f;" horiz-adv-x="352" 
d="M-10 -176l14 35q37 -22 78 -22q53 0 79.5 38t44.5 120l19 87h-2q-53 -90 -118 -90q-39 0 -62.5 34.5t-23.5 105.5q0 55 13.5 114t40.5 114.5t74.5 91.5t107.5 36q40 0 80 -20l-79 -420q-30 -160 -71 -202q-43 -46 -106 -46q-53 0 -89 24zM244 212l45 229q-17 10 -51 10
q-54 0 -95.5 -53.5t-60.5 -120t-21 -127.5q-4 -121 55 -121q42 0 78.5 58.5t49.5 124.5zM155 659h30q-3 -29 12 -47.5t43 -18.5q31 0 52.5 18t28.5 48h30q-5 -46 -36.5 -75t-77.5 -29q-48 0 -69.5 29.5t-12.5 74.5z" />
    <glyph glyph-name="Gdotaccent" unicode="&#x120;" horiz-adv-x="404" 
d="M372 336l-61 -322q-42 -20 -96 -20q-89 0 -136 70q-41 61 -41 171q0 99 32.5 200t101.5 169q77 76 179 76q39 0 68 -12l-14 -36q-24 10 -63 10q-80 0 -150 -70q-50 -50 -81 -145.5t-31 -183.5q0 -212 142 -212q33 0 55 10l48 259h-102l7 36h142zM325 731h-1
q-14 0 -22.5 9t-8.5 24t11 26.5t27 11.5q32 0 32 -32q0 -15 -10.5 -27t-27.5 -12z" />
    <glyph glyph-name="gdotaccent" unicode="&#x121;" horiz-adv-x="352" 
d="M-10 -176l14 35q37 -22 78 -22q53 0 79.5 38t44.5 120l19 87h-2q-53 -90 -118 -90q-39 0 -62.5 34.5t-23.5 105.5q0 55 13.5 114t40.5 114.5t74.5 91.5t107.5 36q40 0 80 -20l-79 -420q-30 -160 -71 -202q-43 -46 -106 -46q-53 0 -89 24zM244 212l45 229q-17 10 -51 10
q-54 0 -95.5 -53.5t-60.5 -120t-21 -127.5q-4 -121 55 -121q42 0 78.5 58.5t49.5 124.5zM239 565h-1q-29 0 -29 33q0 15 10.5 26.5t25.5 11.5q30 0 30 -32q0 -15 -10 -27t-26 -12z" />
    <glyph glyph-name="Gcommaaccent" unicode="&#x122;" horiz-adv-x="404" 
d="M372 336l-61 -322q-42 -20 -96 -20q-89 0 -136 70q-41 61 -41 171q0 99 32.5 200t101.5 169q77 76 179 76q39 0 68 -12l-14 -36q-24 10 -63 10q-80 0 -150 -70q-50 -50 -81 -145.5t-31 -183.5q0 -212 142 -212q33 0 55 10l48 259h-102l7 36h142zM108 -207l-8 25
q33 7 57 27t24 51q0 34 -27 53l42 9q26 -20 26 -55q0 -46 -32 -74t-82 -36z" />
    <glyph glyph-name="gcommaaccent" unicode="&#x123;" horiz-adv-x="352" 
d="M-10 -176l14 35q37 -22 78 -22q53 0 79.5 38t44.5 120l19 87h-2q-53 -90 -118 -90q-39 0 -62.5 34.5t-23.5 105.5q0 55 13.5 114t40.5 114.5t74.5 91.5t107.5 36q40 0 80 -20l-79 -420q-30 -160 -71 -202q-43 -46 -106 -46q-53 0 -89 24zM244 212l45 229q-17 10 -51 10
q-54 0 -95.5 -53.5t-60.5 -120t-21 -127.5q-4 -121 55 -121q42 0 78.5 58.5t49.5 124.5zM314 686l8 -25q-33 -7 -57 -27t-24 -51q0 -34 27 -53l-39 -9q-10 7 -18 23t-8 32q0 45 31.5 73.5t79.5 36.5z" />
    <glyph glyph-name="Hcircumflex" unicode="&#x124;" horiz-adv-x="421" 
d="M138 674h40l-58 -302h220l57 302h40l-128 -674h-39l63 336h-220l-63 -336h-39zM293 815h40l62 -105h-42l-42 76h-2l-67 -76h-45z" />
    <glyph glyph-name="hcircumflex" unicode="&#x125;" horiz-adv-x="363" 
d="M47 0h-39l130 692h40l-53 -284h2q52 80 119 80q39 0 58.5 -26.5t19.5 -64.5q0 -32 -8 -72l-61 -325h-39l62 330q6 33 6 66q0 55 -49 55q-43 0 -83 -54t-53 -121zM163 815h40l62 -105h-42l-42 76h-2l-67 -76h-45z" />
    <glyph glyph-name="Hbar" unicode="&#x126;" horiz-adv-x="421" 
d="M362 486h-220l-22 -114h220zM54 520h55l29 154h40l-30 -154h220l29 154h40l-29 -154h45l-7 -34h-45l-92 -486h-39l63 336h-220l-63 -336h-39l92 486h-56z" />
    <glyph glyph-name="hbar" unicode="&#x127;" horiz-adv-x="363" 
d="M54 586h64l20 106h40l-20 -106h128l-7 -34h-127l-27 -144h2q52 80 119 80q39 0 58.5 -26.5t19.5 -64.5q0 -32 -8 -72l-61 -325h-39l62 330q6 33 6 66q0 55 -49 55q-43 0 -83 -54t-53 -121l-52 -276h-39l104 552h-65z" />
    <glyph glyph-name="Itilde" unicode="&#x128;" horiz-adv-x="163" 
d="M138 674h40l-128 -674h-39zM105 718h-30q3 35 20.5 57.5t43.5 22.5q17 0 42 -17q28 -18 39 -18q25 0 33 36h29q-9 -75 -67 -75q-20 0 -44 18q-25 17 -35 17q-22 0 -31 -41z" />
    <glyph glyph-name="itilde" unicode="&#x129;" horiz-adv-x="156" 
d="M47 0h-39l92 480h39zM75 564h-32q-1 32 14.5 54t41.5 22q16 0 44 -17q30 -18 41 -18q24 0 27 36h31q0 -30 -14 -50.5t-45 -20.5q-20 0 -46 18q-28 17 -37 17q-20 0 -25 -41z" />
    <glyph glyph-name="Imacron" unicode="&#x12a;" horiz-adv-x="163" 
d="M138 674h40l-128 -674h-39zM86 770h187l-7 -36h-187z" />
    <glyph glyph-name="imacron" unicode="&#x12b;" horiz-adv-x="156" 
d="M47 0h-39l92 480h39zM53 619h187l-6 -36h-187z" />
    <glyph glyph-name="Ibreve" unicode="&#x12c;" horiz-adv-x="163" 
d="M138 674h40l-128 -674h-39zM88 812h30q-2 -22 14.5 -38t44.5 -16q29 0 51 16t26 38h30q-4 -38 -33 -63.5t-77 -25.5t-70.5 26t-15.5 63z" />
    <glyph glyph-name="ibreve" unicode="&#x12d;" horiz-adv-x="156" 
d="M47 0h-39l92 480h39zM57 659h30q-3 -29 12 -47.5t43 -18.5q31 0 52.5 18t28.5 48h30q-5 -46 -36.5 -75t-77.5 -29q-48 0 -69.5 29.5t-12.5 74.5z" />
    <glyph glyph-name="Iogonek" unicode="&#x12e;" horiz-adv-x="163" 
d="M178 674l-128 -674h-6q-60 -69 -60 -121q0 -18 11 -29.5t28 -11.5q21 0 41 11l8 -27q-25 -20 -65 -20q-29 0 -46.5 18.5t-17.5 51.5q0 54 69 135l126 667h40z" />
    <glyph glyph-name="iogonek" unicode="&#x12f;" horiz-adv-x="156" 
d="M137 565h-1q-12 0 -19 9.5t-5 25.5q1 15 12 25.5t23 10.5q15 0 22 -10t5 -26q-5 -35 -37 -35zM139 480l-92 -480h-6q-60 -69 -60 -121q0 -18 11 -29.5t28 -11.5q21 0 41 11l8 -27q-25 -20 -65 -20q-29 0 -46.5 18.5t-17.5 51.5q0 54 69 135l91 473h39z" />
    <glyph glyph-name="Idotaccent" unicode="&#x130;" horiz-adv-x="163" 
d="M138 674h40l-128 -674h-39zM175 731h-1q-14 0 -22.5 9t-8.5 24t11 26.5t27 11.5q32 0 32 -32q0 -15 -10.5 -27t-27.5 -12z" />
    <glyph glyph-name="dotlessi" unicode="&#x131;" horiz-adv-x="156" 
d="M47 0h-39l92 480h39z" />
    <glyph glyph-name="IJ" unicode="&#x132;" horiz-adv-x="402" 
d="M138 674h40l-128 -674h-39zM288 162l97 512h39l-99 -525q-17 -92 -52 -124.5t-89 -32.5q-35 0 -56 10l9 35q22 -8 44 -8q46 0 69.5 30t37.5 103z" />
    <glyph glyph-name="ij" unicode="&#x133;" horiz-adv-x="320" 
d="M47 0h-39l92 480h39zM137 567h-1q-27 0 -24 35q2 15 12.5 25.5t22.5 10.5q15 0 22 -10t5 -26q-5 -35 -37 -35zM265 480h39l-94 -498q-20 -106 -44 -139q-31 -43 -84 -43q-25 0 -34 4l4 36q21 -3 32 -3q28 0 48 23t34 94zM302 567h-1q-27 0 -24 35q2 15 12.5 25.5
t22.5 10.5q15 0 22 -10t5 -26q-5 -35 -37 -35z" />
    <glyph glyph-name="Jcircumflex" unicode="&#x134;" horiz-adv-x="239" 
d="M125 162l97 512h39l-99 -525q-17 -92 -52 -124.5t-89 -32.5q-35 0 -56 10l9 35q22 -8 44 -8q46 0 69.5 30t37.5 103zM231 815h40l62 -105h-42l-42 76h-2l-67 -76h-45z" />
    <glyph glyph-name="jcircumflex" unicode="&#x135;" horiz-adv-x="164" 
d="M109 480h39l-94 -498q-20 -106 -44 -139q-31 -43 -84 -43q-25 0 -34 4l4 36q21 -3 32 -3q28 0 48 23t34 94zM138 667h28l55 -132h-37l-36 91h-2l-65 -91h-38z" />
    <glyph glyph-name="Kcommaaccent" unicode="&#x136;" horiz-adv-x="352" 
d="M11 0l127 674h40l-64 -333h2q14 17 34 45t28 38l193 250h48l-227 -284l106 -390h-40l-97 355l-56 -65l-55 -290h-39zM52 -207l-8 25q33 7 57 27t24 51q0 34 -27 53l42 9q26 -20 26 -55q0 -46 -32 -74t-82 -36z" />
    <glyph glyph-name="kcommaaccent" unicode="&#x137;" horiz-adv-x="310" 
d="M47 0h-38l130 692h39l-80 -424h2q25 30 31 38l145 174h51l-170 -195l106 -285h-41l-94 256l-41 -48zM31 -207l-8 25q33 7 57 27t24 51q0 34 -27 53l42 9q26 -20 26 -55q0 -46 -32 -74t-82 -36z" />
    <glyph glyph-name="kgreenlandic" unicode="&#x138;" horiz-adv-x="310" 
d="M47 0h-38l90 480h39l-40 -212h2q25 30 31 38l145 174h51l-170 -195l106 -285h-41l-94 256l-41 -48z" />
    <glyph glyph-name="Lacute" unicode="&#x139;" horiz-adv-x="305" 
d="M11 0l127 674h40l-121 -638h198l-7 -36h-237zM250 815h65l-126 -105h-41z" />
    <glyph glyph-name="lacute" unicode="&#x13a;" horiz-adv-x="155" 
d="M47 0h-39l130 692h40zM229 825h65l-126 -105h-41z" />
    <glyph glyph-name="Lcommaaccent" unicode="&#x13b;" horiz-adv-x="305" 
d="M11 0l127 674h40l-121 -638h198l-7 -36h-237zM29 -207l-8 25q33 7 57 27t24 51q0 34 -27 53l42 9q26 -20 26 -55q0 -46 -32 -74t-82 -36z" />
    <glyph glyph-name="lcommaaccent" unicode="&#x13c;" horiz-adv-x="155" 
d="M47 0h-39l130 692h40zM-46 -207l-8 25q33 7 57 27t24 51q0 34 -27 53l42 9q26 -20 26 -55q0 -46 -32 -74t-82 -36z" />
    <glyph glyph-name="Lcaron" unicode="&#x13d;" horiz-adv-x="305" 
d="M11 0l127 674h40l-121 -638h198l-7 -36h-237zM209 511l-8 25q33 7 57 27t24 51q0 34 -27 53l42 9q26 -20 26 -55q0 -46 -32 -74t-82 -36z" />
    <glyph glyph-name="lcaron" unicode="&#x13e;" horiz-adv-x="155" 
d="M47 0h-39l130 692h40zM196 533l-8 25q61 27 61 78q0 34 -27 53l42 9q26 -19 26 -58q0 -42 -28.5 -70t-65.5 -37z" />
    <glyph glyph-name="Ldot" unicode="&#x13f;" horiz-adv-x="305" 
d="M11 0l127 674h40l-121 -638h198l-7 -36h-237zM235 321h-1q-14 0 -22.5 9t-8.5 24t11 26.5t27 11.5q32 0 32 -32q0 -15 -10.5 -27t-27.5 -12z" />
    <glyph glyph-name="ldot" unicode="&#x140;" horiz-adv-x="165" 
d="M47 0h-39l130 692h40zM173 315h-1q-29 0 -29 33q0 15 10.5 26.5t25.5 11.5q30 0 30 -32q0 -15 -10 -27t-26 -12z" />
    <glyph glyph-name="Lslash" unicode="&#x141;" horiz-adv-x="317" 
d="M260 0h-237l50 269l-86 -76l8 45l87 77l68 359h39l-59 -315l135 120l-9 -47l-135 -119l-52 -277h198z" />
    <glyph glyph-name="lslash" unicode="&#x142;" horiz-adv-x="178" 
d="M61 0h-39l58 309l-79 -74l8 44l80 75l63 338h39l-54 -291l84 79l-9 -46l-84 -78z" />
    <glyph glyph-name="Nacute" unicode="&#x143;" horiz-adv-x="423" 
d="M48 0h-37l127 674h41l80 -423q22 -114 33 -183h2q21 149 28 186l80 420h37l-127 -674h-39l-81 412q-22 115 -32 201h-2q-11 -88 -32 -198zM348 815h65l-126 -105h-41z" />
    <glyph glyph-name="nacute" unicode="&#x144;" horiz-adv-x="363" 
d="M47 0h-39l58 311q13 69 25 169h36l-10 -84h2q58 92 129 92q38 0 57 -26.5t19 -64.5q0 -31 -8 -71l-61 -326h-39l60 320q8 40 8 76q0 55 -49 55q-41 0 -82 -53.5t-54 -121.5zM284 667h57l-107 -132h-32z" />
    <glyph glyph-name="Ncommaaccent" unicode="&#x145;" horiz-adv-x="423" 
d="M48 0h-37l127 674h41l80 -423q22 -114 33 -183h2q21 149 28 186l80 420h37l-127 -674h-39l-81 412q-22 115 -32 201h-2q-11 -88 -32 -198zM88 -207l-8 25q33 7 57 27t24 51q0 34 -27 53l42 9q26 -20 26 -55q0 -46 -32 -74t-82 -36z" />
    <glyph glyph-name="ncommaaccent" unicode="&#x146;" horiz-adv-x="363" 
d="M47 0h-39l58 311q13 69 25 169h36l-10 -84h2q58 92 129 92q38 0 57 -26.5t19 -64.5q0 -31 -8 -71l-61 -326h-39l60 320q8 40 8 76q0 55 -49 55q-41 0 -82 -53.5t-54 -121.5zM58 -207l-8 25q33 7 57 27t24 51q0 34 -27 53l42 9q26 -20 26 -55q0 -46 -32 -74t-82 -36z" />
    <glyph glyph-name="Ncaron" unicode="&#x147;" horiz-adv-x="423" 
d="M48 0h-37l127 674h41l80 -423q22 -114 33 -183h2q21 149 28 186l80 420h37l-127 -674h-39l-81 412q-22 115 -32 201h-2q-11 -88 -32 -198zM307 710h-40l-62 105h42l42 -76h2l67 76h45z" />
    <glyph glyph-name="ncaron" unicode="&#x148;" horiz-adv-x="363" 
d="M47 0h-39l58 311q13 69 25 169h36l-10 -84h2q58 92 129 92q38 0 57 -26.5t19 -64.5q0 -31 -8 -71l-61 -326h-39l60 320q8 40 8 76q0 55 -49 55q-41 0 -82 -53.5t-54 -121.5zM227 535h-28l-55 132h37l36 -91h2l65 91h38z" />
    <glyph glyph-name="napostrophe" unicode="&#x149;" horiz-adv-x="363" 
d="M47 0h-39l58 311q13 69 25 169h36l-10 -84h2q58 92 129 92q38 0 57 -26.5t19 -64.5q0 -31 -8 -71l-61 -326h-39l60 320q8 40 8 76q0 55 -49 55q-41 0 -82 -53.5t-54 -121.5zM36 533l-8 25q61 27 61 78q0 34 -27 53l42 9q26 -19 26 -58q0 -42 -28.5 -70t-65.5 -37z" />
    <glyph glyph-name="Eng" unicode="&#x14a;" horiz-adv-x="423" 
d="M174 -161l-3 34q39 5 63.5 33t38.5 94l-81 412q-22 115 -32 201h-2q-11 -88 -32 -198l-78 -415h-37l127 674h41l80 -423q22 -114 33 -183h2q21 149 28 186l80 420h37l-121 -643q-19 -101 -52.5 -144t-91.5 -48z" />
    <glyph glyph-name="eng" unicode="&#x14b;" horiz-adv-x="363" 
d="M108 -158l-9 33q98 21 121 146l56 299q8 40 8 76q0 55 -49 55q-41 0 -82 -53.5t-54 -121.5l-52 -276h-39l58 311q13 69 25 169h36l-10 -84h2q58 92 129 92q38 0 57 -26.5t19 -64.5q0 -31 -8 -71l-56 -298q-17 -91 -54.5 -132.5t-97.5 -53.5z" />
    <glyph glyph-name="Omacron" unicode="&#x14c;" horiz-adv-x="417" 
d="M165 -8h-1q-129 0 -129 208q0 106 38 237t102 194q51 51 111 51q33 0 57 -15t36.5 -36.5t20 -54t9 -57t1.5 -57.5q0 -99 -37 -228.5t-97 -189.5q-52 -52 -111 -52zM169 29h1q38 0 73 35q57 58 91 184t34 204q0 31 -1 51t-3.5 44.5t-8.5 40t-15.5 30t-25 21t-36.5 6.5
q-39 0 -74 -35q-57 -57 -92 -182t-35 -213q0 -28 1 -47t6 -48t14 -46.5t27 -31t44 -13.5zM213 770h187l-7 -36h-187z" />
    <glyph glyph-name="omacron" unicode="&#x14d;" horiz-adv-x="340" 
d="M119 -8h-1q-49 0 -73 43.5t-24 117.5q0 45 11.5 99t33.5 108.5t62.5 91t90.5 36.5q94 0 94 -149q0 -44 -10 -98.5t-31 -112.5t-61 -97t-92 -39zM126 29h1q37 0 66.5 36.5t45.5 89t24 100.5t8 82q0 53 -12.5 83.5t-46.5 30.5q-45 0 -80.5 -52.5t-52 -117.5t-16.5 -120
q0 -30 2 -50t7.5 -40.5t19 -31t34.5 -10.5zM145 619h187l-6 -36h-187z" />
    <glyph glyph-name="Obreve" unicode="&#x14e;" horiz-adv-x="417" 
d="M165 -8h-1q-129 0 -129 208q0 106 38 237t102 194q51 51 111 51q33 0 57 -15t36.5 -36.5t20 -54t9 -57t1.5 -57.5q0 -99 -37 -228.5t-97 -189.5q-52 -52 -111 -52zM169 29h1q38 0 73 35q57 58 91 184t34 204q0 31 -1 51t-3.5 44.5t-8.5 40t-15.5 30t-25 21t-36.5 6.5
q-39 0 -74 -35q-57 -57 -92 -182t-35 -213q0 -28 1 -47t6 -48t14 -46.5t27 -31t44 -13.5zM215 822h30q-2 -22 14.5 -38t44.5 -16q29 0 51 16t26 38h30q-4 -38 -33 -63.5t-77 -25.5t-70.5 26t-15.5 63z" />
    <glyph glyph-name="obreve" unicode="&#x14f;" horiz-adv-x="340" 
d="M119 -8h-1q-49 0 -73 43.5t-24 117.5q0 45 11.5 99t33.5 108.5t62.5 91t90.5 36.5q94 0 94 -149q0 -44 -10 -98.5t-31 -112.5t-61 -97t-92 -39zM126 29h1q37 0 66.5 36.5t45.5 89t24 100.5t8 82q0 53 -12.5 83.5t-46.5 30.5q-45 0 -80.5 -52.5t-52 -117.5t-16.5 -120
q0 -30 2 -50t7.5 -40.5t19 -31t34.5 -10.5zM149 659h30q-3 -29 12 -47.5t43 -18.5q31 0 52.5 18t28.5 48h30q-5 -46 -36.5 -75t-77.5 -29q-48 0 -69.5 29.5t-12.5 74.5z" />
    <glyph glyph-name="Ohungarumlaut" unicode="&#x150;" horiz-adv-x="417" 
d="M165 -8h-1q-129 0 -129 208q0 106 38 237t102 194q51 51 111 51q33 0 57 -15t36.5 -36.5t20 -54t9 -57t1.5 -57.5q0 -99 -37 -228.5t-97 -189.5q-52 -52 -111 -52zM169 29h1q38 0 73 35q57 58 91 184t34 204q0 31 -1 51t-3.5 44.5t-8.5 40t-15.5 30t-25 21t-36.5 6.5
q-39 0 -74 -35q-57 -57 -92 -182t-35 -213q0 -28 1 -47t6 -48t14 -46.5t27 -31t44 -13.5zM313 815h64l-122 -92h-42zM428 815h64l-122 -92h-42z" />
    <glyph glyph-name="ohungarumlaut" unicode="&#x151;" horiz-adv-x="340" 
d="M119 -8h-1q-49 0 -73 43.5t-24 117.5q0 45 11.5 99t33.5 108.5t62.5 91t90.5 36.5q94 0 94 -149q0 -44 -10 -98.5t-31 -112.5t-61 -97t-92 -39zM126 29h1q37 0 66.5 36.5t45.5 89t24 100.5t8 82q0 53 -12.5 83.5t-46.5 30.5q-45 0 -80.5 -52.5t-52 -117.5t-16.5 -120
q0 -30 2 -50t7.5 -40.5t19 -31t34.5 -10.5zM220 667h57l-107 -132h-32zM335 667h57l-107 -132h-32z" />
    <glyph glyph-name="OE" unicode="&#x152;" horiz-adv-x="572" 
d="M509 36l-6 -36h-207q-12 0 -54 -6q-22 -2 -36 -2q-87 0 -128 65.5t-41 179.5q0 52 9 109t31.5 118t55 108.5t84 78.5t113.5 31q22 0 45 -3q35 -5 52 -5h190l-7 -36h-189l-51 -266h177l-7 -36h-177l-56 -300h202zM268 39l113 597q-27 9 -63 9q-57 0 -104.5 -41t-75.5 -103
t-43.5 -129t-15.5 -125q0 -105 31 -161.5t108 -56.5q27 0 50 10z" />
    <glyph glyph-name="oe" unicode="&#x153;" horiz-adv-x="542" 
d="M456 56l12 -32q-48 -32 -101 -32q-89 0 -104 116h-1q-18 -51 -53.5 -83.5t-82.5 -32.5q-53 0 -79 43.5t-26 116.5q0 36 6 77.5t20.5 88t36.5 84t56.5 62t77.5 24.5t66.5 -36t23.5 -84h1q24 55 61 87.5t85 32.5q38 0 58 -26.5t20 -63.5q0 -149 -231 -165q-10 -71 -2 -123
q12 -81 78 -81q38 0 78 27zM130 29h1q39 0 69.5 36.5t45.5 89.5t22.5 100t7.5 82q0 114 -67 114q-44 0 -79 -51.5t-51 -116t-16 -120.5q0 -29 2.5 -50.5t9 -42t20.5 -31t35 -10.5zM492 393v1q0 25 -12.5 41t-33.5 16q-38 0 -75 -46.5t-62 -135.5q183 15 183 124z" />
    <glyph glyph-name="Racute" unicode="&#x154;" horiz-adv-x="361" 
d="M11 0l125 668q44 9 89 9q69 0 106 -40q33 -37 33 -100q0 -70 -40 -129t-103 -79v-2q66 -24 67 -164q1 -121 10 -163h-40q-4 13 -9 170q-3 78 -25.5 110.5t-76.5 32.5h-38l-59 -313h-39zM170 636l-55 -289h40q69 0 117.5 53.5t48.5 136.5q0 104 -105 104q-30 0 -46 -5z
M312 815h65l-126 -105h-41z" />
    <glyph glyph-name="racute" unicode="&#x155;" horiz-adv-x="223" 
d="M47 0h-39l60 321q17 90 19 159h36q-2 -51 -8 -96h2q48 104 121 104h9l-8 -45h-3q-48 0 -87 -56.5t-51 -115.5zM214 667h57l-107 -132h-32z" />
    <glyph glyph-name="Rcommaaccent" unicode="&#x156;" horiz-adv-x="361" 
d="M11 0l125 668q44 9 89 9q69 0 106 -40q33 -37 33 -100q0 -70 -40 -129t-103 -79v-2q66 -24 67 -164q1 -121 10 -163h-40q-4 13 -9 170q-3 78 -25.5 110.5t-76.5 32.5h-38l-59 -313h-39zM170 636l-55 -289h40q69 0 117.5 53.5t48.5 136.5q0 104 -105 104q-30 0 -46 -5z
M57 -207l-8 25q33 7 57 27t24 51q0 34 -27 53l42 9q26 -20 26 -55q0 -46 -32 -74t-82 -36z" />
    <glyph glyph-name="rcommaaccent" unicode="&#x157;" horiz-adv-x="223" 
d="M47 0h-39l60 321q17 90 19 159h36q-2 -51 -8 -96h2q48 104 121 104h9l-8 -45h-3q-48 0 -87 -56.5t-51 -115.5zM-12 -207l-8 25q33 7 57 27t24 51q0 34 -27 53l42 9q26 -20 26 -55q0 -46 -32 -74t-82 -36z" />
    <glyph glyph-name="Rcaron" unicode="&#x158;" horiz-adv-x="361" 
d="M11 0l125 668q44 9 89 9q69 0 106 -40q33 -37 33 -100q0 -70 -40 -129t-103 -79v-2q66 -24 67 -164q1 -121 10 -163h-40q-4 13 -9 170q-3 78 -25.5 110.5t-76.5 32.5h-38l-59 -313h-39zM170 636l-55 -289h40q69 0 117.5 53.5t48.5 136.5q0 104 -105 104q-30 0 -46 -5z
M261 710h-40l-62 105h42l42 -76h2l67 76h45z" />
    <glyph glyph-name="rcaron" unicode="&#x159;" horiz-adv-x="223" 
d="M47 0h-39l60 321q17 90 19 159h36q-2 -51 -8 -96h2q48 104 121 104h9l-8 -45h-3q-48 0 -87 -56.5t-51 -115.5zM182 535h-28l-55 132h37l36 -91h2l65 91h38z" />
    <glyph glyph-name="Sacute" unicode="&#x15a;" horiz-adv-x="322" 
d="M-6 22l15 36q35 -26 88 -26q67 0 103 45.5t36 111.5q0 77 -71 150q-85 87 -85 168q0 72 48 122.5t124 50.5q52 0 82 -22l-15 -34q-33 18 -75 18q-55 0 -88 -37.5t-34 -93.5q0 -69 74 -143q82 -82 82 -172q0 -88 -49 -145t-139 -57q-28 0 -56.5 9t-39.5 19zM297 815h65
l-126 -105h-41z" />
    <glyph glyph-name="sacute" unicode="&#x15b;" horiz-adv-x="260" 
d="M-16 21l16 34q35 -24 73 -24q42 0 67 28t25 70q0 59 -50 107q-64 62 -64 117q0 58 36.5 96.5t95.5 38.5q42 0 65 -18l-15 -34q-25 15 -55 15q-40 0 -63 -25t-23 -63q0 -21 8.5 -40t16.5 -28.5t24 -25.5q65 -65 65 -126q0 -73 -39 -111t-100 -38q-24 0 -49 9t-34 18z
M232 667h57l-107 -132h-32z" />
    <glyph glyph-name="Scircumflex" unicode="&#x15c;" horiz-adv-x="322" 
d="M-6 22l15 36q35 -26 88 -26q67 0 103 45.5t36 111.5q0 77 -71 150q-85 87 -85 168q0 72 48 122.5t124 50.5q52 0 82 -22l-15 -34q-33 18 -75 18q-55 0 -88 -37.5t-34 -93.5q0 -69 74 -143q82 -82 82 -172q0 -88 -49 -145t-139 -57q-28 0 -56.5 9t-39.5 19zM243 815h40
l62 -105h-42l-42 76h-2l-67 -76h-45z" />
    <glyph glyph-name="scircumflex" unicode="&#x15d;" horiz-adv-x="260" 
d="M-16 21l16 34q35 -24 73 -24q42 0 67 28t25 70q0 59 -50 107q-64 62 -64 117q0 58 36.5 96.5t95.5 38.5q42 0 65 -18l-15 -34q-25 15 -55 15q-40 0 -63 -25t-23 -63q0 -21 8.5 -40t16.5 -28.5t24 -25.5q65 -65 65 -126q0 -73 -39 -111t-100 -38q-24 0 -49 9t-34 18z
M181 667h28l55 -132h-37l-36 91h-2l-65 -91h-38z" />
    <glyph glyph-name="Scedilla" unicode="&#x15e;" horiz-adv-x="322" 
d="M334 658l-15 -34q-33 18 -75 18q-55 0 -88 -37.5t-34 -93.5q0 -69 74 -143q82 -82 82 -172q0 -74 -35.5 -128t-102.5 -69l-37 -55q53 -18 53 -69q0 -32 -24 -52.5t-58 -20.5q-42 0 -63 19l13 31q25 -15 50 -15q20 0 33 10t13 27q0 19 -19 31.5t-46 16.5l47 72h-12
q-28 0 -56.5 9t-39.5 19l15 36q35 -26 88 -26q67 0 103 45.5t36 111.5q0 77 -71 150q-85 87 -85 168q0 72 48 122.5t124 50.5q52 0 82 -22z" />
    <glyph glyph-name="Scedilla" unicode="&#xf6c1;" horiz-adv-x="322" 
d="M334 658l-15 -34q-33 18 -75 18q-55 0 -88 -37.5t-34 -93.5q0 -69 74 -143q82 -82 82 -172q0 -74 -35.5 -128t-102.5 -69l-37 -55q53 -18 53 -69q0 -32 -24 -52.5t-58 -20.5q-42 0 -63 19l13 31q25 -15 50 -15q20 0 33 10t13 27q0 19 -19 31.5t-46 16.5l47 72h-12
q-28 0 -56.5 9t-39.5 19l15 36q35 -26 88 -26q67 0 103 45.5t36 111.5q0 77 -71 150q-85 87 -85 168q0 72 48 122.5t124 50.5q52 0 82 -22z" />
    <glyph glyph-name="scedilla" unicode="&#x15f;" horiz-adv-x="260" 
d="M248 470l-15 -34q-25 15 -55 15q-40 0 -63 -25t-23 -63q0 -21 8.5 -40t16.5 -28.5t24 -25.5q65 -65 65 -126q0 -58 -25.5 -94t-68.5 -49l-38 -56q53 -18 53 -69q0 -32 -24 -52.5t-58 -20.5q-42 0 -63 19l13 31q25 -15 50 -15q20 0 33 10t13 27q0 19 -19 31.5t-46 16.5
l47 72h-6q-24 0 -49 9t-34 18l16 34q35 -24 73 -24q42 0 67 28t25 70q0 59 -50 107q-64 62 -64 117q0 58 36.5 96.5t95.5 38.5q42 0 65 -18z" />
    <glyph glyph-name="scedilla" unicode="&#xf6c2;" horiz-adv-x="260" 
d="M248 470l-15 -34q-25 15 -55 15q-40 0 -63 -25t-23 -63q0 -21 8.5 -40t16.5 -28.5t24 -25.5q65 -65 65 -126q0 -58 -25.5 -94t-68.5 -49l-38 -56q53 -18 53 -69q0 -32 -24 -52.5t-58 -20.5q-42 0 -63 19l13 31q25 -15 50 -15q20 0 33 10t13 27q0 19 -19 31.5t-46 16.5
l47 72h-6q-24 0 -49 9t-34 18l16 34q35 -24 73 -24q42 0 67 28t25 70q0 59 -50 107q-64 62 -64 117q0 58 36.5 96.5t95.5 38.5q42 0 65 -18z" />
    <glyph glyph-name="Scaron" unicode="&#x160;" horiz-adv-x="322" 
d="M-6 22l15 36q35 -26 88 -26q67 0 103 45.5t36 111.5q0 77 -71 150q-85 87 -85 168q0 72 48 122.5t124 50.5q52 0 82 -22l-15 -34q-33 18 -75 18q-55 0 -88 -37.5t-34 -93.5q0 -69 74 -143q82 -82 82 -172q0 -88 -49 -145t-139 -57q-28 0 -56.5 9t-39.5 19zM258 710h-40
l-62 105h42l42 -76h2l67 76h45z" />
    <glyph glyph-name="scaron" unicode="&#x161;" horiz-adv-x="260" 
d="M-16 21l16 34q35 -24 73 -24q42 0 67 28t25 70q0 59 -50 107q-64 62 -64 117q0 58 36.5 96.5t95.5 38.5q42 0 65 -18l-15 -34q-25 15 -55 15q-40 0 -63 -25t-23 -63q0 -21 8.5 -40t16.5 -28.5t24 -25.5q65 -65 65 -126q0 -73 -39 -111t-100 -38q-24 0 -49 9t-34 18z
M187 535h-28l-55 132h37l36 -91h2l65 91h38z" />
    <glyph glyph-name="Tcommaaccent" unicode="&#x162;" horiz-adv-x="323" 
d="M92 0l120 638h-124l7 36h287l-7 -36h-124l-120 -638h-39zM32 -207l-8 25q33 7 57 27t24 51q0 34 -27 53l42 9q26 -20 26 -55q0 -46 -32 -74t-82 -36z" />
    <glyph glyph-name="Tcommaaccent" unicode="&#x21a;" horiz-adv-x="323" 
d="M92 0l120 638h-124l7 36h287l-7 -36h-124l-120 -638h-39zM32 -207l-8 25q33 7 57 27t24 51q0 34 -27 53l42 9q26 -20 26 -55q0 -46 -32 -74t-82 -36z" />
    <glyph glyph-name="tcommaaccent" unicode="&#x163;" horiz-adv-x="213" 
d="M126 560l46 25l-22 -105h91l-7 -35h-91l-57 -307q-9 -46 -9 -73q0 -34 31 -34q25 2 26 2v-33q-20 -6 -37 -6q-28 0 -45 16t-17 43q0 29 10 81l59 311h-59l6 35h60zM-8 -207l-8 25q33 7 57 27t24 51q0 34 -27 53l42 9q26 -20 26 -55q0 -46 -32 -74t-82 -36z" />
    <glyph glyph-name="tcommaaccent" unicode="&#x21b;" horiz-adv-x="213" 
d="M126 560l46 25l-22 -105h91l-7 -35h-91l-57 -307q-9 -46 -9 -73q0 -34 31 -34q25 2 26 2v-33q-20 -6 -37 -6q-28 0 -45 16t-17 43q0 29 10 81l59 311h-59l6 35h60zM-8 -207l-8 25q33 7 57 27t24 51q0 34 -27 53l42 9q26 -20 26 -55q0 -46 -32 -74t-82 -36z" />
    <glyph glyph-name="Tcaron" unicode="&#x164;" horiz-adv-x="323" 
d="M92 0l120 638h-124l7 36h287l-7 -36h-124l-120 -638h-39zM267 710h-40l-62 105h42l42 -76h2l67 76h45z" />
    <glyph glyph-name="tcaron" unicode="&#x165;" horiz-adv-x="213" 
d="M126 560l46 25l-22 -105h91l-7 -35h-91l-57 -307q-9 -46 -9 -73q0 -34 31 -34q25 2 26 2v-33q-20 -6 -37 -6q-28 0 -45 16t-17 43q0 29 10 81l59 311h-59l6 35h60zM221 533l-8 25q61 27 61 78q0 34 -27 53l42 9q26 -19 26 -58q0 -42 -28.5 -70t-65.5 -37z" />
    <glyph glyph-name="Tbar" unicode="&#x166;" horiz-adv-x="323" 
d="M284 338h-89l-64 -338h-39l64 338h-87l7 35h86l50 265h-124l7 36h287l-7 -36h-124l-50 -265h90z" />
    <glyph glyph-name="tbar" unicode="&#x167;" horiz-adv-x="213" 
d="M18 298h58l28 147h-59l6 35h60l15 80l46 25l-22 -105h91l-7 -35h-91l-27 -147h69l-7 -35h-69l-23 -125q-9 -46 -9 -73q0 -17 7 -26t24 -8q20 0 26 2v-33q-20 -6 -37 -6q-28 0 -45 16t-17 43q0 29 10 81l25 129h-59z" />
    <glyph glyph-name="Utilde" unicode="&#x168;" horiz-adv-x="421" 
d="M138 674h40l-87 -460q-8 -39 -8 -82q0 -49 24.5 -76t63.5 -27q56 0 88 43t50 138l88 464h40l-88 -464q-22 -120 -66.5 -169t-117.5 -49q-52 0 -87.5 34.5t-35.5 98.5q0 41 8 84zM234 718h-30q3 35 20.5 57.5t43.5 22.5q16 0 42 -17q28 -18 39 -18q25 0 33 36h29
q-9 -75 -67 -75q-20 0 -44 18q-26 17 -35 17q-22 0 -31 -41z" />
    <glyph glyph-name="utilde" unicode="&#x169;" horiz-adv-x="363" 
d="M306 480h39l-58 -311q-16 -83 -21 -169h-38l8 82h-2q-53 -90 -130 -90q-37 0 -56 26.5t-19 64.5q0 33 6 61l63 336h39l-60 -320q-8 -40 -8 -74q0 -57 48 -57q43 0 83 51.5t54 123.5zM179 564h-32q-1 32 14.5 54t41.5 22q16 0 44 -17q30 -18 41 -18q24 0 27 36h31
q0 -30 -14 -50.5t-45 -20.5q-20 0 -46 18q-28 17 -37 17q-20 0 -25 -41z" />
    <glyph glyph-name="Umacron" unicode="&#x16a;" horiz-adv-x="421" 
d="M138 674h40l-87 -460q-8 -39 -8 -82q0 -49 24.5 -76t63.5 -27q56 0 88 43t50 138l88 464h40l-88 -464q-22 -120 -66.5 -169t-117.5 -49q-52 0 -87.5 34.5t-35.5 98.5q0 41 8 84zM209 770h187l-7 -36h-187z" />
    <glyph glyph-name="umacron" unicode="&#x16b;" horiz-adv-x="363" 
d="M306 480h39l-58 -311q-16 -83 -21 -169h-38l8 82h-2q-53 -90 -130 -90q-37 0 -56 26.5t-19 64.5q0 33 6 61l63 336h39l-60 -320q-8 -40 -8 -74q0 -57 48 -57q43 0 83 51.5t54 123.5zM157 619h187l-6 -36h-187z" />
    <glyph glyph-name="Ubreve" unicode="&#x16c;" horiz-adv-x="421" 
d="M138 674h40l-87 -460q-8 -39 -8 -82q0 -49 24.5 -76t63.5 -27q56 0 88 43t50 138l88 464h40l-88 -464q-22 -120 -66.5 -169t-117.5 -49q-52 0 -87.5 34.5t-35.5 98.5q0 41 8 84zM207 812h30q-2 -22 14.5 -38t44.5 -16q29 0 51 16t26 38h30q-4 -38 -33 -63.5t-77 -25.5
t-70.5 26t-15.5 63z" />
    <glyph glyph-name="ubreve" unicode="&#x16d;" horiz-adv-x="363" 
d="M306 480h39l-58 -311q-16 -83 -21 -169h-38l8 82h-2q-53 -90 -130 -90q-37 0 -56 26.5t-19 64.5q0 33 6 61l63 336h39l-60 -320q-8 -40 -8 -74q0 -57 48 -57q43 0 83 51.5t54 123.5zM136 659h30q-3 -29 12 -47.5t43 -18.5q31 0 52.5 18t28.5 48h30q-5 -46 -36.5 -75
t-77.5 -29q-48 0 -69.5 29.5t-12.5 74.5z" />
    <glyph glyph-name="Uring" unicode="&#x16e;" horiz-adv-x="421" 
d="M138 674h40l-87 -460q-8 -39 -8 -82q0 -49 24.5 -76t63.5 -27q56 0 88 43t50 138l88 464h40l-88 -464q-22 -120 -66.5 -169t-117.5 -49q-52 0 -87.5 34.5t-35.5 98.5q0 41 8 84zM306 863h1q39 0 61 -21t22 -59q0 -41 -30 -65t-64 -24q-36 0 -59 21.5t-23 54.5
q0 40 27.5 66.5t64.5 26.5zM306 834h-1q-22 0 -38.5 -16.5t-16.5 -43.5q0 -24 13 -37t36 -13q21 0 37.5 16t16.5 43q0 22 -12.5 36.5t-34.5 14.5z" />
    <glyph glyph-name="uring" unicode="&#x16f;" horiz-adv-x="363" 
d="M306 480h39l-58 -311q-16 -83 -21 -169h-38l8 82h-2q-53 -90 -130 -90q-37 0 -56 26.5t-19 64.5q0 33 6 61l63 336h39l-60 -320q-8 -40 -8 -74q0 -57 48 -57q43 0 83 51.5t54 123.5zM253 698h1q39 0 61 -21t22 -59q0 -41 -30 -65t-64 -24q-36 0 -59 21.5t-23 54.5
q0 40 27.5 66.5t64.5 26.5zM253 668h-1q-22 0 -38.5 -16.5t-16.5 -42.5q0 -24 13.5 -37t36.5 -13q21 0 37.5 16t16.5 42q0 22 -12.5 36.5t-35.5 14.5z" />
    <glyph glyph-name="Uhungarumlaut" unicode="&#x170;" horiz-adv-x="421" 
d="M138 674h40l-87 -460q-8 -39 -8 -82q0 -49 24.5 -76t63.5 -27q56 0 88 43t50 138l88 464h40l-88 -464q-22 -120 -66.5 -169t-117.5 -49q-52 0 -87.5 34.5t-35.5 98.5q0 41 8 84zM299 815h64l-122 -92h-42zM414 815h64l-122 -92h-42z" />
    <glyph glyph-name="uhungarumlaut" unicode="&#x171;" horiz-adv-x="363" 
d="M306 480h39l-58 -311q-16 -83 -21 -169h-38l8 82h-2q-53 -90 -130 -90q-37 0 -56 26.5t-19 64.5q0 33 6 61l63 336h39l-60 -320q-8 -40 -8 -74q0 -57 48 -57q43 0 83 51.5t54 123.5zM224 667h57l-107 -132h-32zM339 667h57l-107 -132h-32z" />
    <glyph glyph-name="Uogonek" unicode="&#x172;" horiz-adv-x="421" 
d="M222 -137l10 -27q-25 -20 -65 -20q-29 0 -47.5 19.5t-18.5 50.5q0 53 73 106h-9q-52 0 -87.5 34.5t-35.5 98.5q0 41 8 84l88 465h40l-87 -460q-8 -39 -8 -82q0 -49 24.5 -76t63.5 -27q56 0 88 43t50 138l88 464h40l-88 -464q-31 -161 -107 -201q-34 -18 -64 -48
q-36 -36 -36 -68q0 -18 9.5 -29.5t26.5 -11.5q24 0 44 11z" />
    <glyph glyph-name="uogonek" unicode="&#x173;" horiz-adv-x="363" 
d="M345 480l-58 -311q-16 -83 -21 -169h-6q-60 -69 -60 -121q0 -18 11 -29.5t28 -11.5q21 0 41 11l8 -27q-25 -20 -65 -20q-29 0 -46.5 18.5t-17.5 51.5q0 54 69 135l8 75h-2q-53 -90 -130 -90q-37 0 -56 26.5t-19 64.5q0 33 6 61l63 336h39l-60 -320q-8 -40 -8 -74
q0 -57 48 -57q43 0 83 51.5t54 123.5l52 276h39z" />
    <glyph glyph-name="Wcircumflex" unicode="&#x174;" horiz-adv-x="634" 
d="M145 0h-34l-9 674h40l4 -458q0 -35 -7 -142h4q22 75 48 142l178 458h39l5 -458q1 -37 -1.5 -85t-2.5 -57h3q3 10 19 59t28 82l176 459h42l-264 -674h-36l-4 477q0 17 1 37.5t2 49.5t2 51h-2q-7 -22 -15.5 -51t-15 -49.5t-13.5 -37.5zM391 815h40l62 -105h-42l-42 76h-2
l-67 -76h-45z" />
    <glyph glyph-name="wcircumflex" unicode="&#x175;" horiz-adv-x="525" 
d="M58 480h39l12 -304q4 -80 2 -106h3q24 66 41 105l132 305h33l15 -304q4 -79 0 -106h4q4 10 17.5 47t22.5 59l126 304h41l-206 -480h-32l-16 313q-3 53 0 102h-2q-3 -9 -16 -46t-21 -56l-137 -313h-35zM324 667h28l55 -132h-37l-36 91h-2l-65 -91h-38z" />
    <glyph glyph-name="Ycircumflex" unicode="&#x176;" horiz-adv-x="391" 
d="M161 0h-40l58 302l-77 372h42l43 -221q13 -66 19 -109h2l62 112l127 218h46l-225 -370zM268 815h40l62 -105h-42l-42 76h-2l-67 -76h-45z" />
    <glyph glyph-name="ycircumflex" unicode="&#x177;" horiz-adv-x="312" 
d="M52 480h40l23 -292q1 -18 3.5 -55.5l4.5 -67.5h2q8 25 46 121l117 294h42l-163 -397q-73 -179 -157 -248q-44 -35 -70 -43l-16 36q40 17 77 50q23 19 47.5 54.5t37.5 67.5q6 13 4 30zM202 667h28l55 -132h-37l-36 91h-2l-65 -91h-38z" />
    <glyph glyph-name="Ydieresis" unicode="&#x178;" horiz-adv-x="391" 
d="M161 0h-40l58 302l-77 372h42l43 -221q13 -66 19 -109h2l62 112l127 218h46l-225 -370zM209 731h-1q-14 0 -22.5 9t-8.5 24t11 26.5t27 11.5q32 0 32 -32q0 -15 -10.5 -27t-27.5 -12zM352 731h-1q-14 0 -22.5 9t-8.5 24t11 26.5t27 11.5q32 0 32 -32q0 -15 -10.5 -27
t-27.5 -12z" />
    <glyph glyph-name="Zacute" unicode="&#x179;" horiz-adv-x="335" 
d="M-25 0l5 27l350 609v2h-216l6 36h268l-5 -25l-352 -611v-2h236l-7 -36h-285zM319 815h65l-126 -105h-41z" />
    <glyph glyph-name="zacute" unicode="&#x17a;" horiz-adv-x="282" 
d="M-34 0l2 26l219 324q12 18 26 38t22 31.5t14 21.5l1 3h-183l7 36h231l-3 -27l-222 -326l-60 -89v-2h200l-7 -36h-247zM243 667h57l-107 -132h-32z" />
    <glyph glyph-name="Zdotaccent" unicode="&#x17b;" horiz-adv-x="335" 
d="M-25 0l5 27l350 609v2h-216l6 36h268l-5 -25l-352 -611v-2h236l-7 -36h-285zM261 731h-1q-14 0 -22.5 9t-8.5 24t11 26.5t27 11.5q32 0 32 -32q0 -15 -10.5 -27t-27.5 -12z" />
    <glyph glyph-name="zdotaccent" unicode="&#x17c;" horiz-adv-x="282" 
d="M-34 0l2 26l219 324q12 18 26 38t22 31.5t14 21.5l1 3h-183l7 36h231l-3 -27l-222 -326l-60 -89v-2h200l-7 -36h-247zM204 565h-1q-29 0 -29 33q0 15 10.5 26.5t25.5 11.5q30 0 30 -32q0 -15 -10 -27t-26 -12z" />
    <glyph glyph-name="Zcaron" unicode="&#x17d;" horiz-adv-x="335" 
d="M-25 0l5 27l350 609v2h-216l6 36h268l-5 -25l-352 -611v-2h236l-7 -36h-285zM278 710h-40l-62 105h42l42 -76h2l67 76h45z" />
    <glyph glyph-name="zcaron" unicode="&#x17e;" horiz-adv-x="282" 
d="M-34 0l2 26l219 324q12 18 26 38t22 31.5t14 21.5l1 3h-183l7 36h231l-3 -27l-222 -326l-60 -89v-2h200l-7 -36h-247zM208 535h-28l-55 132h37l36 -91h2l65 91h38z" />
    <glyph glyph-name="florin" unicode="&#x192;" horiz-adv-x="360" 
d="M96 373l4 35h87l3 12q14 55 21 80.5t21.5 62.5t29 53.5t38 29t54.5 12.5q30 0 51 -16l-13 -32q-18 11 -50 11q-39 0 -61 -42t-51 -159l-3 -12h92l-4 -35h-96l-63 -257q-26 -104 -56 -150t-89 -46q-37 0 -60 19l12 32q22 -14 50 -14q40 0 64 42t53 167l49 207h-83z" />
    <glyph glyph-name="AEacute" unicode="&#x1fc;" horiz-adv-x="522" 
d="M9 0h-42l329 674h257l-8 -36h-187l-37 -266h175l-7 -36h-172l-39 -300h186l-8 -36h-221l30 246h-138zM145 282h125l32 229q7 55 21 132h-5l-66 -135zM457 815h65l-126 -105h-41z" />
    <glyph glyph-name="aeacute" unicode="&#x1fd;" horiz-adv-x="497" 
d="M410 59l12 -28q-44 -39 -104 -39q-82 0 -106 90h-2q-43 -90 -114 -90q-46 0 -70 32.5t-24 73.5q0 96 64.5 147t161.5 49l7 34q11 54 -5.5 88.5t-65.5 34.5q-38 0 -69 -17l-9 29q32 25 90 25q40 0 67.5 -22.5t27.5 -70.5h2q48 93 130 93q45 0 65 -27t20 -60
q0 -43 -18 -72.5t-52 -44.5t-72.5 -20.5t-89.5 -5.5q-19 -96 -8 -156q14 -73 83 -73q38 0 79 30zM207 181l14 77q-79 2 -128 -36t-49 -120q0 -32 16 -52.5t43 -20.5q30 0 59.5 35.5t44.5 116.5zM447 396v1q0 21 -12 37.5t-41 16.5q-44 0 -76.5 -45t-48.5 -112
q91 0 134.5 23.5t43.5 78.5zM351 667h57l-107 -132h-32z" />
    <glyph glyph-name="Oslashacute" unicode="&#x1fe;" horiz-adv-x="417" 
d="M16 -28l-25 19l59 96q-15 45 -15 121q0 102 31.5 219.5t79.5 177.5q61 77 136 77q66 0 98 -59l48 79l28 -18l-61 -99q13 -45 13 -123q0 -88 -30.5 -210t-77.5 -183q-61 -77 -136 -77q-68 0 -99 60zM81 137l273 443q-23 65 -83 65q-58 0 -101 -71.5t-68 -176.5
q-31 -131 -23 -260h2zM361 532l-270 -439q21 -64 81 -64q58 0 100 67.5t67 169.5q35 140 25 266h-3zM360 815h65l-126 -105h-41z" />
    <glyph glyph-name="oslashacute" unicode="&#x1ff;" horiz-adv-x="344" 
d="M17 -28l-26 20l43 68q-14 35 -14 93q0 45 11 99t33 108.5t62.5 91t91.5 36.5q41 0 66 -30l30 47l28 -17l-39 -62q13 -35 13 -87q0 -44 -10 -98.5t-30.5 -112.5t-60 -97t-90.5 -39q-46 0 -73 35zM67 109l194 312q-16 30 -50 30q-37 0 -67 -31t-47 -78t-26 -94.5t-9 -86.5
q0 -28 3 -52h2zM275 380l-198 -313q13 -38 53 -38t70 36t45.5 89.5t23 100.5t7.5 82v43h-1zM274 667h57l-107 -132h-32z" />
    <glyph glyph-name="Scommaaccent" unicode="&#x218;" horiz-adv-x="322" 
d="M-6 22l15 36q35 -26 88 -26q67 0 103 45.5t36 111.5q0 77 -71 150q-85 87 -85 168q0 72 48 122.5t124 50.5q52 0 82 -22l-15 -34q-33 18 -75 18q-55 0 -88 -37.5t-34 -93.5q0 -69 74 -143q82 -82 82 -172q0 -88 -49 -145t-139 -57q-28 0 -56.5 9t-39.5 19zM37 -207l-8 25
q33 7 57 27t24 51q0 34 -27 53l42 9q26 -20 26 -55q0 -46 -32 -74t-82 -36z" />
    <glyph glyph-name="scommaaccent" unicode="&#x219;" horiz-adv-x="260" 
d="M-16 21l16 34q35 -24 73 -24q42 0 67 28t25 70q0 59 -50 107q-64 62 -64 117q0 58 36.5 96.5t95.5 38.5q42 0 65 -18l-15 -34q-25 15 -55 15q-40 0 -63 -25t-23 -63q0 -21 8.5 -40t16.5 -28.5t24 -25.5q65 -65 65 -126q0 -73 -39 -111t-100 -38q-24 0 -49 9t-34 18z
M6 -207l-8 25q33 7 57 27t24 51q0 34 -27 53l42 9q26 -20 26 -55q0 -46 -32 -74t-82 -36z" />
    <glyph glyph-name="circumflex" unicode="&#x2c6;" 
d="M211 667h28l55 -132h-37l-36 91h-2l-65 -91h-38z" />
    <glyph glyph-name="caron" unicode="&#x2c7;" 
d="M220 535h-28l-55 132h37l36 -91h2l65 91h38z" />
    <glyph glyph-name="breve" unicode="&#x2d8;" 
d="M129 659h30q-3 -29 12 -47.5t43 -18.5q31 0 52.5 18t28.5 48h30q-5 -46 -36.5 -75t-77.5 -29q-48 0 -69.5 29.5t-12.5 74.5z" />
    <glyph glyph-name="dotaccent" unicode="&#x2d9;" 
d="M213 565h-1q-29 0 -29 33q0 15 10.5 26.5t25.5 11.5q30 0 30 -32q0 -15 -10 -27t-26 -12z" />
    <glyph glyph-name="ring" unicode="&#x2da;" horiz-adv-x="307" 
d="M225 698h1q39 0 61 -21t22 -59q0 -41 -30 -65t-64 -24q-36 0 -59 21.5t-23 54.5q0 40 27.5 66.5t64.5 26.5zM225 668h-1q-22 0 -38.5 -16.5t-16.5 -42.5q0 -24 13.5 -37t36.5 -13q21 0 37.5 16t16.5 42q0 22 -12.5 36.5t-35.5 14.5z" />
    <glyph glyph-name="ogonek" unicode="&#x2db;" 
d="M110 2h36q-72 -72 -72 -124q0 -18 11 -29t28 -11q21 0 41 11l8 -27q-25 -20 -65 -20q-29 0 -46.5 17.5t-17.5 48.5q0 57 77 134z" />
    <glyph glyph-name="tilde" unicode="&#x2dc;" 
d="M147 564h-32q-1 32 14.5 54t41.5 22q16 0 44 -17q30 -18 41 -18q24 0 27 36h31q0 -30 -14 -50.5t-45 -20.5q-20 0 -46 18q-28 17 -37 17q-20 0 -25 -41z" />
    <glyph glyph-name="hungarumlaut" unicode="&#x2dd;" 
d="M162 667h57l-107 -132h-32zM277 667h57l-107 -132h-32z" />
    <glyph glyph-name="uni037E" unicode="&#x37e;" horiz-adv-x="170" 
d="M7 -121l-36 -5q39 96 67 212l59 4q-16 -47 -46.5 -116.5t-43.5 -94.5zM117 354h-1q-15 0 -24 11t-9 28q0 18 12 31.5t28 13.5q34 0 34 -38q0 -18 -11.5 -32t-28.5 -14z" />
    <glyph glyph-name="tonos" unicode="&#x384;" 
d="M252 667h57l-107 -132h-32z" />
    <glyph glyph-name="dieresistonos" unicode="&#x385;" 
d="M209 671h49l-76 -140h-24zM113 562h-1q-28 0 -28 29q0 14 10.5 24.5t23.5 10.5q29 0 29 -29q0 -14 -9.5 -24.5t-24.5 -10.5zM286 562h-1q-28 0 -28 29q0 14 10 24.5t24 10.5q29 0 29 -29q0 -13 -10 -24t-24 -11z" />
    <glyph glyph-name="Alphatonos" unicode="&#x386;" horiz-adv-x="413" 
d="M292 233h-167l-96 -233h-41l283 674h39l31 -674h-39zM140 269h151l-8 190q0 4 -3 152h-4q-36 -102 -58 -153zM99 674h47l-34 -137h-25z" />
    <glyph glyph-name="anoteleia" unicode="&#x387;" horiz-adv-x="170" 
d="M89 280h-1q-15 0 -24 11t-9 28q0 18 12 31.5t28 13.5q34 0 34 -38q0 -18 -11.5 -32t-28.5 -14z" />
    <glyph glyph-name="Epsilontonos" unicode="&#x388;" horiz-adv-x="322" 
d="M297 372l-7 -36h-177l-56 -300h202l-7 -36h-241l127 674h229l-7 -36h-189l-51 -266h177zM37 674h47l-34 -137h-25z" />
    <glyph glyph-name="Etatonos" unicode="&#x389;" horiz-adv-x="421" 
d="M138 674h40l-58 -302h220l57 302h40l-128 -674h-39l63 336h-220l-63 -336h-39zM37 674h47l-34 -137h-25z" />
    <glyph glyph-name="Iotatonos" unicode="&#x38a;" horiz-adv-x="163" 
d="M138 674h40l-128 -674h-39zM37 674h47l-34 -137h-25z" />
    <glyph glyph-name="Omicrontonos" unicode="&#x38c;" horiz-adv-x="417" 
d="M165 -8h-1q-129 0 -129 208q0 100 33.5 220t83.5 185q60 77 134 77q33 0 57 -15t36.5 -36.5t20 -54t9 -57t1.5 -57.5q0 -86 -32.5 -209t-79.5 -184q-60 -77 -133 -77zM169 29h1q48 0 88 51.5t62.5 124t35 139t12.5 108.5q0 31 -1 51t-3.5 44.5t-8.5 40t-15.5 30t-25 21
t-36.5 6.5q-46 0 -86 -49t-64 -119.5t-37.5 -141t-13.5 -120.5q0 -28 1 -47t6 -48t14 -46.5t27 -31t44 -13.5zM37 674h47l-34 -137h-25z" />
    <glyph glyph-name="Upsilontonos" unicode="&#x38e;" horiz-adv-x="399" 
d="M88 646l12 34q28 -6 56 -39q36 -41 55 -120.5t9 -183.5h3q28 99 73.5 172.5t91.5 115.5q47 43 78 55l8 -35q-143 -87 -229 -330q-22 -64 -31 -117l-37 -198h-40l37 198q13 76 14 117q10 266 -100 331zM11 674h47l-34 -137h-25z" />
    <glyph glyph-name="Omegatonos" unicode="&#x38f;" horiz-adv-x="425" 
d="M102 37l1 4q-49 87 -49 208q0 193 72.5 313t162.5 120q59 0 94 -47.5t35 -141.5q0 -146 -51 -266.5t-114 -185.5v-4h98l-8 -37h-149l7 34q70 60 122.5 189.5t52.5 259.5q0 162 -92 162q-76 0 -132 -118t-56 -264q0 -159 51 -229l-7 -34h-150l8 37h104zM37 674h47
l-34 -137h-25z" />
    <glyph glyph-name="iotadieresistonos" unicode="&#x390;" horiz-adv-x="156" 
d="M137 480l-76 -403q-5 -27 -0.5 -38t21.5 -11l-10 -35q-5 -1 -16 -1q-37 0 -37 54q0 20 18 113l61 321h39zM146 671h49l-76 -140h-24zM50 562h-1q-28 0 -28 29q0 14 10.5 24.5t23.5 10.5q29 0 29 -29q0 -14 -9.5 -24.5t-24.5 -10.5zM223 562h-1q-28 0 -28 29q0 14 10 24.5
t24 10.5q29 0 29 -29q0 -13 -10 -24t-24 -11z" />
    <glyph glyph-name="Alpha" unicode="&#x391;" horiz-adv-x="413" 
d="M292 233h-167l-96 -233h-41l283 674h39l31 -674h-39zM140 269h151l-8 190q0 4 -3 152h-4q-36 -102 -58 -153z" />
    <glyph glyph-name="Beta" unicode="&#x392;" horiz-adv-x="368" 
d="M11 8l124 660q41 9 90 9q67 0 105 -35q38 -36 38 -101q0 -61 -37.5 -110t-101.5 -70v-2q97 -33 97 -152q0 -98 -73 -161q-55 -49 -154 -49q-61 0 -88 11zM169 636l-49 -257h35q70 0 120 45t50 116q0 101 -111 101q-31 0 -45 -5zM114 345l-58 -305q19 -7 49 -7
q84 0 132 50t48 126q0 61 -35 98.5t-104 37.5h-32z" />
    <glyph glyph-name="Gamma" unicode="&#x393;" horiz-adv-x="297" 
d="M138 674h230l-7 -36h-190l-120 -638h-40z" />
    <glyph glyph-name="Delta" unicode="&#x394;" horiz-adv-x="413" 
d="M-22 0l5 28l283 646h41l35 -646l-6 -28h-358zM29 36h274l-20 385q-6 108 -6 195h-4q-21 -62 -67 -169z" />
    <glyph glyph-name="Delta" unicode="&#xe000;" horiz-adv-x="413" 
d="M-22 0l5 28l283 646h41l35 -646l-6 -28h-358zM29 36h274l-20 385q-6 108 -6 195h-4q-21 -62 -67 -169z" />
    <glyph glyph-name="Epsilon" unicode="&#x395;" horiz-adv-x="322" 
d="M297 372l-7 -36h-177l-56 -300h202l-7 -36h-241l127 674h229l-7 -36h-189l-51 -266h177z" />
    <glyph glyph-name="Zeta" unicode="&#x396;" horiz-adv-x="335" 
d="M-25 0l5 27l350 609v2h-216l6 36h268l-5 -25l-352 -611v-2h236l-7 -36h-285z" />
    <glyph glyph-name="Eta" unicode="&#x397;" horiz-adv-x="421" 
d="M138 674h40l-58 -302h220l57 302h40l-128 -674h-39l63 336h-220l-63 -336h-39z" />
    <glyph glyph-name="Theta" unicode="&#x398;" horiz-adv-x="417" 
d="M165 -8h-1q-129 0 -129 208q0 100 33.5 220t83.5 185q60 77 134 77q33 0 57 -15t36.5 -36.5t20 -54t9 -57t1.5 -57.5q0 -86 -32.5 -209t-79.5 -184q-60 -77 -133 -77zM169 29h1q48 0 88 51.5t62.5 124t35 139t12.5 108.5q0 31 -1 51t-3.5 44.5t-8.5 40t-15.5 30t-25 21
t-36.5 6.5q-46 0 -86 -49t-64 -119.5t-37.5 -141t-13.5 -120.5q0 -28 1 -47t6 -48t14 -46.5t27 -31t44 -13.5zM144 372h170l-6 -36h-170z" />
    <glyph glyph-name="Iota" unicode="&#x399;" horiz-adv-x="163" 
d="M138 674h40l-128 -674h-39z" />
    <glyph glyph-name="Kappa" unicode="&#x39a;" horiz-adv-x="352" 
d="M11 0l127 674h40l-64 -333h2q14 17 34 45t28 38l193 250h48l-227 -284l106 -390h-40l-97 355l-56 -65l-55 -290h-39z" />
    <glyph glyph-name="Lambda" unicode="&#x39b;" horiz-adv-x="418" 
d="M346 0h-39l-23 459q-4 63 -2 157h-4q-30 -90 -58 -158l-190 -458h-43l285 674h39z" />
    <glyph glyph-name="Mu" unicode="&#x39c;" horiz-adv-x="563" 
d="M464 0h-39l64 458q5 34 14 89t12 71h-5q-35 -98 -71 -177l-199 -441h-22l-32 453q-5 79 -5 165h-3q-7 -30 -17 -81t-17 -80l-105 -457h-40l162 674h47l31 -433q6 -81 5 -147h4q14 39 63 149l192 431h52z" />
    <glyph glyph-name="Nu" unicode="&#x39d;" horiz-adv-x="423" 
d="M48 0h-37l127 674h41l80 -423q22 -114 33 -183h2q21 149 28 186l80 420h37l-127 -674h-39l-81 412q-22 115 -32 201h-2q-11 -88 -32 -198z" />
    <glyph glyph-name="Xi" unicode="&#x39e;" horiz-adv-x="345" 
d="M109 674h266l-6 -36h-266zM75 372h226l-7 -36h-226zM-11 36h277l-6 -36h-277z" />
    <glyph glyph-name="Omicron" unicode="&#x39f;" horiz-adv-x="417" 
d="M165 -8h-1q-129 0 -129 208q0 100 33.5 220t83.5 185q60 77 134 77q33 0 57 -15t36.5 -36.5t20 -54t9 -57t1.5 -57.5q0 -86 -32.5 -209t-79.5 -184q-60 -77 -133 -77zM169 29h1q48 0 88 51.5t62.5 124t35 139t12.5 108.5q0 31 -1 51t-3.5 44.5t-8.5 40t-15.5 30t-25 21
t-36.5 6.5q-46 0 -86 -49t-64 -119.5t-37.5 -141t-13.5 -120.5q0 -28 1 -47t6 -48t14 -46.5t27 -31t44 -13.5z" />
    <glyph glyph-name="Pi" unicode="&#x3a0;" horiz-adv-x="411" 
d="M425 674l-125 -674h-40l119 638h-210l-118 -638h-39l125 674h288z" />
    <glyph glyph-name="Rho" unicode="&#x3a1;" horiz-adv-x="354" 
d="M11 0l125 668q41 9 88 9q75 0 111 -43q34 -40 34 -105q0 -93 -57 -166q-61 -73 -153 -73q-32 0 -53 6l-56 -296h-39zM170 636l-58 -304q22 -6 48 -6q77 0 122 62t45 135q0 118 -114 118q-21 0 -43 -5z" />
    <glyph glyph-name="Sigma" unicode="&#x3a3;" horiz-adv-x="380" 
d="M31 41l-1 -5h303l-7 -36h-355l5 33l269 301l-140 308l4 32h309l-7 -35h-259l-1 -4l139 -306z" />
    <glyph glyph-name="Tau" unicode="&#x3a4;" horiz-adv-x="323" 
d="M92 0l120 638h-124l7 36h287l-7 -36h-124l-120 -638h-39z" />
    <glyph glyph-name="Upsilon" unicode="&#x3a5;" horiz-adv-x="379" 
d="M68 646l12 34q28 -6 56 -39q36 -41 55 -120.5t9 -183.5h3q28 99 73.5 172.5t91.5 115.5q47 43 78 55l8 -35q-143 -87 -229 -330q-22 -64 -31 -117l-37 -198h-40l37 198q13 76 14 117q10 266 -100 331z" />
    <glyph glyph-name="Phi" unicode="&#x3a6;" horiz-adv-x="440" 
d="M146 -8l11 52q-47 9 -84.5 59t-37.5 146q0 91 29 178t85 146t125 59l9 50h38l-9 -50q55 -7 88 -62t33 -151q0 -90 -27.5 -173t-83 -140.5t-127.5 -61.5l-10 -52h-39zM165 79l100 518q-54 -1 -98.5 -56.5t-67 -133t-22.5 -154.5q0 -76 23.5 -121t64.5 -53zM303 597
l-100 -518q58 3 102.5 60t65 133t20.5 152q0 80 -25.5 125t-62.5 48z" />
    <glyph glyph-name="Chi" unicode="&#x3a7;" horiz-adv-x="376" 
d="M302 0h-41l-39 185l-25 117h-3l-67 -118l-106 -184h-46l207 344l-77 330h42l39 -172q8 -36 24 -114h2q24 47 63 115l100 171h46l-196 -324z" />
    <glyph glyph-name="Psi" unicode="&#x3a8;" horiz-adv-x="435" 
d="M476 674l-37 -199q-22 -119 -68.5 -180t-138.5 -67l-43 -228h-40l43 228q-126 22 -126 167q0 33 8 79l37 200h39l-36 -194q-7 -42 -7 -85q0 -63 25.5 -95.5t65.5 -37.5l76 412h39l-76 -412q69 3 106.5 57t57.5 161l36 194h39z" />
    <glyph glyph-name="Omega" unicode="&#x3a9;" horiz-adv-x="415" 
d="M92 37l1 4q-49 87 -49 208q0 193 72.5 313t162.5 120q59 0 94 -47.5t35 -141.5q0 -145 -51 -265.5t-114 -186.5v-4h98l-8 -37h-149l7 34q70 60 122.5 189.5t52.5 259.5q0 162 -92 162q-76 0 -132 -118t-56 -264q0 -159 51 -229l-7 -34h-150l8 37h104z" />
    <glyph glyph-name="Omega" unicode="&#x2126;" horiz-adv-x="415" 
d="M92 37l1 4q-49 87 -49 208q0 193 72.5 313t162.5 120q59 0 94 -47.5t35 -141.5q0 -145 -51 -265.5t-114 -186.5v-4h98l-8 -37h-149l7 34q70 60 122.5 189.5t52.5 259.5q0 162 -92 162q-76 0 -132 -118t-56 -264q0 -159 51 -229l-7 -34h-150l8 37h104z" />
    <glyph glyph-name="Iotadieresis" unicode="&#x3aa;" horiz-adv-x="163" 
d="M93 709h-1q-14 0 -22.5 9t-8.5 24t11 26.5t27 11.5q32 0 32 -32q0 -15 -10.5 -27t-27.5 -12zM231 709h-1q-14 0 -22.5 9t-8.5 24t11 26.5t27 11.5q32 0 32 -32q0 -15 -10.5 -27t-27.5 -12zM138 674h40l-128 -674h-39z" />
    <glyph glyph-name="Upsilondieresis" unicode="&#x3ab;" horiz-adv-x="379" 
d="M196 694h-1q-14 0 -22.5 9t-8.5 24t11 26.5t27 11.5q32 0 32 -32q0 -15 -10.5 -27t-27.5 -12zM334 694h-1q-14 0 -22.5 9t-8.5 24t11 26.5t27 11.5q32 0 32 -32q0 -15 -10.5 -27t-27.5 -12zM68 646l12 34q28 -6 56 -39q36 -41 55 -120.5t9 -183.5h3q28 99 73.5 172.5
t91.5 115.5q47 43 78 55l8 -35q-143 -87 -229 -330q-22 -64 -31 -117l-37 -198h-40l37 198q13 76 14 117q10 266 -100 331z" />
    <glyph glyph-name="alphatonos" unicode="&#x3ac;" horiz-adv-x="342" 
d="M254 667h57l-107 -132h-32zM221 73h-3q-18 -35 -48 -58t-65 -23q-42 0 -66.5 34t-24.5 100q0 147 59.5 254.5t129.5 107.5q38 0 55.5 -24t19.5 -54h3q12 51 21 70h33q-15 -40 -29 -117l-42 -230q-11 -60 -9 -82.5t19 -21.5l-11 -37h-8q-44 0 -34 81zM56 131v-1
q0 -101 60 -101q39 0 74 50.5t48 118.5q2 12 6.5 35t6.5 35q8 43 8 74q0 51 -15.5 80t-42.5 29q-38 0 -72 -48.5t-53.5 -122.5t-19.5 -149z" />
    <glyph glyph-name="epsilontonos" unicode="&#x3ad;" horiz-adv-x="276" 
d="M266 667h57l-107 -132h-32zM216 243h-32q-49 0 -94 -34t-45 -90q0 -42 27 -66t70 -24q44 0 77 18l8 -32q-32 -23 -93 -23q-55 0 -93 31t-38 89q0 55 38 98.5t84 53.5l1 5q-27 9 -43.5 32.5t-16.5 58.5q0 50 41 89t97 39q60 0 83 -23l-15 -33q-26 19 -72 19
q-41 0 -66.5 -28t-25.5 -63q0 -78 101 -81h13z" />
    <glyph glyph-name="etatonos" unicode="&#x3ae;" horiz-adv-x="363" 
d="M280 667h57l-107 -132h-32zM117 396h2q58 92 129 92q38 0 57 -26.5t19 -64.5q0 -31 -8 -71l-70 -377q-19 -104 -17 -141h-36q-9 22 9 117l74 395q8 40 8 76q0 55 -49 55q-41 0 -82 -53.5t-54 -121.5l-52 -276h-39l58 311q23 117 18 169h36q3 -42 -3 -84z" />
    <glyph glyph-name="iotatonos" unicode="&#x3af;" horiz-adv-x="156" 
d="M183 667h57l-107 -132h-32zM137 480l-76 -403q-5 -27 -0.5 -38t21.5 -11l-10 -35q-5 -1 -16 -1q-37 0 -37 53q0 20 17 109l62 326h39z" />
    <glyph glyph-name="upsilondieresistonos" unicode="&#x3b0;" horiz-adv-x="339" 
d="M256 480h37q14 -26 14 -81q0 -110 -23.5 -202t-68.5 -148.5t-103 -56.5q-37 0 -63 27.5t-26 71.5q0 10 5 43l32 174q27 141 23 172h36q9 -20 -5 -95l-48 -257q-4 -26 -4 -34q0 -33 17 -50.5t39 -17.5q60 0 105 106t45 263q0 51 -12 85zM209 671h49l-76 -140h-24zM113 562
h-1q-28 0 -28 29q0 14 10.5 24.5t23.5 10.5q29 0 29 -29q0 -14 -9.5 -24.5t-24.5 -10.5zM286 562h-1q-28 0 -28 29q0 14 10 24.5t24 10.5q29 0 29 -29q0 -13 -10 -24t-24 -11z" />
    <glyph glyph-name="alpha" unicode="&#x3b1;" horiz-adv-x="342" 
d="M221 73h-3q-18 -35 -48 -58t-65 -23q-41 0 -66 34.5t-25 99.5q0 147 59.5 254.5t129.5 107.5q38 0 55.5 -24t19.5 -54h3q12 51 21 70h33q-15 -40 -29 -117l-42 -230q-11 -60 -9 -82.5t19 -21.5l-11 -37h-8q-44 0 -34 81zM56 131v-1q0 -43 14.5 -72t45.5 -29q39 0 74 50.5
t48 118.5q2 12 6.5 35t6.5 35q8 43 8 74q0 51 -15.5 80t-42.5 29q-38 0 -72 -48.5t-53.5 -122.5t-19.5 -149z" />
    <glyph glyph-name="beta" unicode="&#x3b2;" horiz-adv-x="356" 
d="M21 -192h-37q-9 30 7 116l109 592q21 105 64 148q36 36 81 36q49 0 73 -36.5t24 -91.5q0 -66 -32 -121t-79 -72v-5q29 -8 57.5 -47t28.5 -102q0 -111 -55 -172t-120 -61q-57 0 -89 45l-2 -2l-15 -86q-19 -111 -15 -141zM159 354l7 36q12 0 22 3q48 16 80 60t32 114
q0 97 -60 97q-37 0 -62 -41.5t-37 -106.5l-79 -431q30 -57 85 -57q52 0 90 54.5t38 130.5q0 61 -26.5 99t-75.5 41q-2 0 -6.5 0.5t-7.5 0.5z" />
    <glyph glyph-name="gamma" unicode="&#x3b3;" horiz-adv-x="285" 
d="M72 -192h-40q38 192 40 259q2 56 -11 190.5t-32 222.5h41q36 -180 36 -385h4q39 72 61.5 117.5t47 109.5t33.5 116q4 32 4 42h38q1 -4 0.5 -17.5t-2.5 -23.5q-27 -150 -166 -376q-13 -22 -15 -34q-20 -123 -39 -221z" />
    <glyph glyph-name="delta" unicode="&#x3b4;" horiz-adv-x="334" 
d="M336 642l-23 -26q-37 47 -85 47q-25 0 -39 -16.5t-14 -37.5q0 -33 34 -86l48 -76q49 -78 49 -177q0 -56 -18 -117.5t-60.5 -111t-98.5 -49.5q-48 0 -81 43t-33 128q0 106 51 191.5t122 124.5v4l-17 28q-35 58 -35 95t26.5 65.5t68.5 28.5q69 0 105 -58zM231 412l-23 39
q-67 -39 -109 -117t-42 -165q0 -78 23 -109t55 -31q41 0 72.5 45t44.5 99t13 100q0 81 -34 139z" />
    <glyph glyph-name="epsilon" unicode="&#x3b5;" horiz-adv-x="276" 
d="M216 243h-32q-49 0 -94 -34t-45 -90q0 -42 27 -66t70 -24q46 0 77 19l8 -34q-29 -22 -93 -22q-55 0 -93 31t-38 89q0 55 38 98.5t84 53.5l1 5q-27 9 -43.5 32.5t-16.5 58.5q0 50 41 89t97 39q60 0 82 -24l-14 -32q-26 19 -72 19q-41 0 -66.5 -28t-25.5 -63q0 -78 101 -81
h13z" />
    <glyph glyph-name="zeta" unicode="&#x3b6;" horiz-adv-x="291" 
d="M359 688l5 -31q-100 -64 -199 -208.5t-99 -257.5q0 -60 22.5 -92t67.5 -51q38 -16 85 -26q6 -2 6 -9q0 -27 -23 -71t-47 -66l-33 10q48 61 59 108q-46 9 -77 24q-49 25 -75.5 62.5t-26.5 109.5q0 109 92 251t188 209v3h-62q-62 0 -85 7l10 32q17 -4 78 -4h114z" />
    <glyph glyph-name="eta" unicode="&#x3b7;" horiz-adv-x="363" 
d="M117 396h2q58 92 129 92q38 0 57 -26.5t19 -64.5q0 -31 -8 -71l-70 -377q-19 -104 -17 -141h-36q-9 22 9 117l74 395q8 40 8 76q0 55 -49 55q-41 0 -82 -53.5t-54 -121.5l-52 -276h-39l58 311q23 117 18 169h36q3 -42 -3 -84z" />
    <glyph glyph-name="theta" unicode="&#x3b8;" horiz-adv-x="340" 
d="M126 -8h-1q-38 0 -67 41t-29 134q0 78 22 197q35 187 83.5 261.5t109.5 74.5q39 0 66 -42.5t27 -127.5q0 -86 -16 -176q-21 -116 -44.5 -191t-49 -110.5t-48.5 -48t-53 -12.5zM95 375h188q13 75 13 148q0 140 -61 140q-45 0 -80.5 -78t-59.5 -210zM276 340h-188
q-18 -105 -18 -166q0 -145 64 -145q50 0 82 77.5t60 233.5z" />
    <glyph glyph-name="iota" unicode="&#x3b9;" horiz-adv-x="156" 
d="M137 480l-76 -403q-5 -27 -0.5 -38t21.5 -11l-10 -35q-5 -1 -16 -1q-37 0 -37 51q0 21 23 143l56 294h39z" />
    <glyph glyph-name="kappa" unicode="&#x3ba;" horiz-adv-x="315" 
d="M137 254l-1 -2q39 -14 83 -137l45 -115h-42l-43 115q-14 35 -22.5 55t-24.5 40.5t-32 20.5h-9l-43 -231h-39l69 369q14 83 9 111h36q10 -22 -4 -98l-23 -125h2l196 223h45v-2z" />
    <glyph glyph-name="lambda" unicode="&#x3bb;" horiz-adv-x="295" 
d="M196 0l-14 288q-3 46 -3 123h-3q-21 -61 -47 -119l-129 -292h-42l203 452q9 21 9 40q0 18 -1 30q-5 81 -22 110.5t-46 31.5h-5l8 36q9 0 18 -1q24 -3 40 -18.5t24.5 -43.5t12.5 -56.5t7 -71.5l30 -509h-40z" />
    <glyph glyph-name="uni03BC" unicode="&#x3bc;" horiz-adv-x="359" 
d="M133 480l-61 -325q-24 -124 52 -124q41 0 72 47t45 91q7 20 11 42l48 269h39l-65 -359q-9 -50 -7 -71.5t16 -20.5l-12 -37h-11q-40 0 -29 89h-2q-18 -37 -48.5 -61.5t-65.5 -24.5q-49 0 -65 43l-17 -89q-19 -104 -16 -141h-36q-7 31 9 117l104 555h39z" />
    <glyph glyph-name="nu" unicode="&#x3bd;" horiz-adv-x="305" 
d="M45 480h39q3 -46 8.5 -138.5t8.5 -138.5q3 -54 5 -140h3q128 270 146 358q8 40 6 59h38q5 -16 -3 -56q-25 -130 -187 -424h-33z" />
    <glyph glyph-name="xi" unicode="&#x3be;" horiz-adv-x="311" 
d="M277 375h-18q-79 -2 -138 -56.5t-59 -137.5q0 -96 102 -134q39 -15 89 -25q6 -2 6 -9q0 -27 -23 -71t-47 -66l-33 10q48 61 59 108q-36 5 -80 23q-115 48 -115 157q0 89 54 148t119 77v5q-36 15 -56.5 49.5t-20.5 75.5q0 70 48 120.5t116 50.5q50 0 76 -20l-13 -31
q-25 14 -70 14q-50 0 -82.5 -40t-32.5 -92q0 -50 30 -82.5t79 -36.5q5 -1 15 -1z" />
    <glyph glyph-name="omicron" unicode="&#x3bf;" horiz-adv-x="340" 
d="M119 -8h-1q-49 0 -73 43.5t-24 117.5q0 45 11.5 99t33.5 108.5t62.5 91t90.5 36.5q94 0 94 -149q0 -44 -10 -98.5t-31 -112.5t-61 -97t-92 -39zM126 29h1q37 0 66.5 36.5t45.5 89t24 100.5t8 82q0 53 -12.5 83.5t-46.5 30.5q-45 0 -80.5 -52.5t-52 -117.5t-16.5 -120
q0 -30 2 -50t7.5 -40.5t19 -31t34.5 -10.5z" />
    <glyph glyph-name="pi" unicode="&#x3c0;" horiz-adv-x="349" 
d="M354 445h-47l-59 -314q-18 -96 -12 -131h-37q-9 35 9 130l60 315h-114q-4 -18 -11 -54t-11 -54q-55 -261 -115 -337h-40q63 85 116 333q4 18 11.5 55.5t11.5 56.5q-51 0 -67 -10l-4 28q19 17 79 17h237z" />
    <glyph glyph-name="rho" unicode="&#x3c1;" horiz-adv-x="353" 
d="M14 -192h-36q-7 30 9 115l59 317q24 131 74 195q42 53 106 53q43 0 72.5 -39.5t29.5 -110.5q0 -86 -23 -164.5t-66.5 -130t-97.5 -51.5q-32 0 -55 19t-32 50h-3l-20 -112q-20 -108 -17 -141zM85 236l-8 -43q-6 -28 -6 -60q0 -38 18.5 -71t55.5 -33q57 0 99 93.5t42 222.5
q0 43 -19.5 74.5t-51.5 31.5q-39 0 -74 -50.5t-56 -164.5z" />
    <glyph glyph-name="uni03C2" unicode="&#x3c2;" horiz-adv-x="277" 
d="M152 -124l-33 10q49 63 59 108q-39 10 -70 29q-83 52 -83 164q0 120 64.5 210.5t141.5 90.5q42 0 60 -15l-12 -31q-19 9 -50 9q-63 0 -112.5 -77.5t-49.5 -181.5q0 -95 67 -138q33 -21 82 -34q6 -2 6 -9q0 -27 -23 -69.5t-47 -65.5z" />
    <glyph glyph-name="sigma" unicode="&#x3c3;" horiz-adv-x="345" 
d="M284 457v-3q29 -42 29 -115q0 -44 -10 -98.5t-31 -112.5t-61 -97t-92 -39q-50 0 -74 43.5t-24 117.5q0 45 11.5 99t33.5 108.5t62.5 91t90.5 36.5h43h16h102l-7 -35q-13 0 -89 4zM126 29h1q37 0 66.5 36.5t45.5 89t24 100.5t8 82q0 53 -12.5 83.5t-46.5 30.5
q-45 0 -80.5 -52.5t-52 -117.5t-16.5 -120q0 -30 2 -50t7.5 -40.5t19 -31t34.5 -10.5z" />
    <glyph glyph-name="tau" unicode="&#x3c4;" horiz-adv-x="260" 
d="M164 29l-7 -33q-9 -4 -20 -4q-29 0 -48.5 18.5t-19.5 51.5q0 17 11 79l57 304h-48q-36 0 -60 -12l-2 28q19 19 67 19h202l-8 -35h-111l-58 -321q-8 -41 -8 -56q0 -40 35 -40q12 0 18 1z" />
    <glyph glyph-name="upsilon" unicode="&#x3c5;" horiz-adv-x="339" 
d="M256 480h37q14 -26 14 -81q0 -110 -23.5 -202t-68.5 -148.5t-103 -56.5q-37 0 -63 27.5t-26 71.5q0 10 5 43l32 174q27 141 23 172h36q9 -20 -5 -95l-48 -257q-4 -26 -4 -34q0 -33 17 -50.5t39 -17.5q60 0 105 106t45 263q0 51 -12 85z" />
    <glyph glyph-name="phi" unicode="&#x3c6;" horiz-adv-x="418" 
d="M146 27l65 360q9 50 27 75.5t52 25.5q42 0 70 -39.5t28 -122.5q0 -140 -62.5 -234t-147.5 -100l-36 -184h-39l37 184q-48 12 -81 55t-33 125q0 114 46.5 197t98.5 115l20 -25q-47 -32 -85 -107.5t-38 -171.5q0 -130 78 -153zM251 396l-67 -368q66 7 114 94.5t48 205.5
q0 60 -15.5 92.5t-42.5 32.5q-26 0 -37 -57z" />
    <glyph glyph-name="chi" unicode="&#x3c7;" horiz-adv-x="285" 
d="M53 480h42l22 -164q1 -7 13 -115h5q29 61 50 101l92 178h46l-180 -326l54 -342l-40 -10l-25 168q-11 75 -19 145h-5q-11 -20 -29 -59t-25 -52l-99 -202l-38 15l182 350z" />
    <glyph glyph-name="psi" unicode="&#x3c8;" horiz-adv-x="422" 
d="M348 480h36q10 -34 10 -69q0 -188 -62 -302t-152 -117l-34 -184h-39l34 184q-107 14 -107 148q0 29 8 74l32 177q12 59 8 89h36q6 -22 -4 -81l-29 -164q-10 -60 -10 -92q0 -56 18 -83t55 -32l103 552h39l-103 -552q64 2 115.5 108.5t51.5 267.5q0 40 -6 76z" />
    <glyph glyph-name="omega" unicode="&#x3c9;" horiz-adv-x="460" 
d="M341 480h38q21 -24 34.5 -70t13.5 -94q0 -133 -44 -228.5t-106 -95.5q-37 0 -54.5 20.5t-23.5 60.5h-3q-34 -81 -96 -81q-36 0 -61 33.5t-25 101.5q0 117 46 218t89 135h43v-2q-47 -39 -91.5 -138.5t-44.5 -209.5q0 -51 14.5 -75.5t38.5 -24.5q60 0 85 142l28 147h39
l-28 -147q-6 -28 -6 -58q0 -84 52 -84q29 0 54.5 46.5t39 108t13.5 113.5q0 120 -45 180v2z" />
    <glyph glyph-name="iotadieresis" unicode="&#x3ca;" horiz-adv-x="156" 
d="M59 562h-1q-14 0 -22.5 9t-8.5 24t11 26.5t27 11.5q32 0 32 -32q0 -15 -10.5 -27t-27.5 -12zM197 562h-1q-14 0 -22.5 9t-8.5 24t11 26.5t27 11.5q32 0 32 -32q0 -15 -10.5 -27t-27.5 -12zM137 480l-76 -403q-5 -27 -0.5 -38t21.5 -11l-10 -35q-5 -1 -16 -1q-37 0 -37 55
q0 20 17 105l62 328h39z" />
    <glyph glyph-name="upsilondieresis" unicode="&#x3cb;" horiz-adv-x="339" 
d="M140 562h-1q-14 0 -22.5 9t-8.5 24t11 26.5t27 11.5q32 0 32 -32q0 -15 -10.5 -27t-27.5 -12zM278 562h-1q-14 0 -22.5 9t-8.5 24t11 26.5t27 11.5q32 0 32 -32q0 -15 -10.5 -27t-27.5 -12zM256 480h37q14 -26 14 -81q0 -110 -23.5 -202t-68.5 -148.5t-103 -56.5
q-37 0 -63 27.5t-26 71.5q0 10 5 43l32 174q27 141 23 172h36q9 -20 -5 -95l-48 -257q-4 -26 -4 -34q0 -33 17 -50.5t39 -17.5q60 0 105 106t45 263q0 51 -12 85z" />
    <glyph glyph-name="omicrontonos" unicode="&#x3cc;" horiz-adv-x="340" 
d="M258 667h57l-107 -132h-32zM119 -8h-1q-49 0 -73 43.5t-24 117.5q0 45 11.5 99t33.5 108.5t62.5 91t90.5 36.5q94 0 94 -149q0 -44 -10 -98.5t-31 -112.5t-61 -97t-92 -39zM126 29h1q37 0 66.5 36.5t45.5 89t24 100.5t8 82q0 53 -12.5 83.5t-46.5 30.5q-45 0 -80.5 -52.5
t-52 -117.5t-16.5 -120q0 -30 2 -50t7.5 -40.5t19 -31t34.5 -10.5z" />
    <glyph glyph-name="upsilontonos" unicode="&#x3cd;" horiz-adv-x="339" 
d="M242 667h57l-107 -132h-32zM256 480h37q14 -26 14 -81q0 -110 -23.5 -202t-68.5 -148.5t-103 -56.5q-37 0 -63 27.5t-26 71.5q0 10 5 43l32 174q27 141 23 172h36q9 -20 -5 -95l-48 -257q-4 -26 -4 -34q0 -33 17 -50.5t39 -17.5q60 0 105 106t45 263q0 51 -12 85z" />
    <glyph glyph-name="omegatonos" unicode="&#x3ce;" horiz-adv-x="460" 
d="M326 667h57l-107 -132h-32zM341 480h38q21 -24 34.5 -70t13.5 -94q0 -133 -44 -228.5t-106 -95.5q-37 0 -54.5 20.5t-23.5 60.5h-3q-34 -81 -96 -81q-36 0 -61 33.5t-25 101.5q0 117 46 218t89 135h43v-2q-47 -39 -91.5 -138.5t-44.5 -209.5q0 -51 14.5 -75.5t38.5 -24.5
q60 0 85 142l28 147h39l-28 -147q-6 -28 -6 -58q0 -84 52 -84q29 0 54.5 46.5t39 108t13.5 113.5q0 120 -45 180v2z" />
    <glyph glyph-name="afii10023" unicode="&#x401;" horiz-adv-x="322" 
d="M297 372l-7 -36h-177l-56 -300h202l-7 -36h-241l127 674h229l-7 -36h-189l-51 -266h177zM182 731h-1q-14 0 -22.5 9t-8.5 24t11 26.5t27 11.5q32 0 32 -32q0 -15 -10.5 -27t-27.5 -12zM325 731h-1q-14 0 -22.5 9t-8.5 24t11 26.5t27 11.5q32 0 32 -32q0 -15 -10.5 -27
t-27.5 -12z" />
    <glyph glyph-name="afii10051" unicode="&#x402;" horiz-adv-x="430" 
d="M94 674h306l-8 -36h-146l-44 -233h2q40 27 84 27q53 0 80 -48.5t27 -107.5q0 -83 -28.5 -176t-78.5 -148q-48 -54 -101 -76l-12 33q58 27 100 84q34 50 57 132t23 146q0 46 -20.5 85t-62.5 39q-40 0 -77 -27l-69 -368h-39l120 638h-121z" />
    <glyph glyph-name="afii10052" unicode="&#x403;" horiz-adv-x="303" 
d="M138 674h224l-7 -36h-184l-121 -638h-39zM318 815h65l-126 -105h-41z" />
    <glyph glyph-name="afii10053" unicode="&#x404;" horiz-adv-x="341" 
d="M392 668l-11 -36q-21 10 -57 10q-42 0 -77.5 -18t-60 -46t-45 -66.5t-32 -73t-19.5 -72.5h214l-7 -37h-213q-7 -38 -7 -95q0 -34 5.5 -65.5t18.5 -64.5t39.5 -53t64.5 -20q40 0 74 16l8 -34q-41 -19 -90 -19q-47 0 -80.5 21.5t-50.5 59t-24.5 78t-7.5 87.5
q0 84 25.5 174.5t72.5 155.5q80 110 199 110q39 0 61 -12z" />
    <glyph glyph-name="afii10054" unicode="&#x405;" horiz-adv-x="322" 
d="M-6 22l15 36q35 -26 88 -26q67 0 103 45.5t36 111.5q0 77 -71 150q-85 87 -85 168q0 72 48 122.5t124 50.5q52 0 82 -22l-15 -34q-33 18 -75 18q-55 0 -88 -37.5t-34 -93.5q0 -69 74 -143q82 -82 82 -172q0 -88 -49 -145t-139 -57q-28 0 -56.5 9t-39.5 19z" />
    <glyph glyph-name="afii10055" unicode="&#x406;" horiz-adv-x="163" 
d="M138 674h40l-128 -674h-39z" />
    <glyph glyph-name="afii10056" unicode="&#x407;" horiz-adv-x="163" 
d="M138 674h40l-128 -674h-39zM103 731h-1q-14 0 -22.5 9t-8.5 24t11 26.5t27 11.5q32 0 32 -32q0 -15 -10.5 -27t-27.5 -12zM246 731h-1q-14 0 -22.5 9t-8.5 24t11 26.5t27 11.5q32 0 32 -32q0 -15 -10.5 -27t-27.5 -12z" />
    <glyph glyph-name="afii10057" unicode="&#x408;" horiz-adv-x="239" 
d="M125 162l97 512h39l-99 -525q-17 -92 -52 -124.5t-89 -32.5q-35 0 -56 10l9 35q22 -8 44 -8q46 0 69.5 30t37.5 103z" />
    <glyph glyph-name="afii10058" unicode="&#x409;" horiz-adv-x="602" 
d="M177 674h244l-55 -285q25 7 55 7q68 0 105 -42.5t37 -114.5q0 -110 -64 -176q-63 -66 -166 -66q-51 0 -79 6l120 635h-164l-51 -268q-42 -218 -80 -288q-45 -81 -111 -88l-3 35q46 5 79 69q39 76 74 264zM359 352l-60 -315q22 -4 42 -4q84 0 132.5 57.5t48.5 140.5
q0 129 -110 129q-31 0 -53 -8z" />
    <glyph glyph-name="afii10059" unicode="&#x40a;" horiz-adv-x="602" 
d="M138 674h40l-58 -294h205l55 294h41l-55 -285q25 7 50 7q71 0 109 -43t38 -119q0 -105 -64 -171q-63 -66 -166 -66q-51 0 -79 6l64 341h-205l-63 -344h-39zM359 353l-60 -316q22 -4 42 -4q81 0 131 56t50 139q0 132 -118 132q-19 0 -45 -7z" />
    <glyph glyph-name="afii10060" unicode="&#x40b;" horiz-adv-x="450" 
d="M95 674h310l-7 -36h-152l-43 -236h2q45 40 102 40q45 0 70 -30t25 -75q0 -38 -15 -113l-42 -224h-40l42 220q16 82 16 112q0 32 -17.5 52.5t-53.5 20.5q-57 0 -98 -48l-66 -357h-40l118 638h-118z" />
    <glyph glyph-name="afii10061" unicode="&#x40c;" horiz-adv-x="343" 
d="M138 674h39l-60 -317h20l230 317h46l-241 -322q60 -12 80 -54t22 -113q2 -149 9 -185h-42q-3 15 -4.5 38t-1.5 41.5t-0.5 50t-0.5 45.5q-1 36 -5 59.5t-14.5 46.5t-32.5 34.5t-56 11.5h-13l-63 -327h-39zM322 815h65l-126 -105h-41z" />
    <glyph glyph-name="afii10062" unicode="&#x40e;" horiz-adv-x="328" 
d="M90 674h42l41 -291q2 -16 8 -62t9 -67h1q14 42 52 138l111 282h43l-147 -363q-77 -192 -124 -256q-48 -63 -102 -63q-25 0 -43 8l10 37q15 -6 33 -6q29 0 56.5 28.5t42 56.5t32.5 71q7 12 3 34zM145 807h37q1 -25 15.5 -41t41.5 -16q29 0 49 15.5t25 41.5h38
q-6 -37 -36.5 -63t-78.5 -26q-44 0 -68 25.5t-23 63.5z" />
    <glyph glyph-name="afii10145" unicode="&#x40f;" horiz-adv-x="410" 
d="M139 674h38l-121 -638h211l121 638h38l-128 -674h-121l-33 -135h-33l21 135h-121z" />
    <glyph glyph-name="afii10017" unicode="&#x410;" horiz-adv-x="413" 
d="M292 233h-167l-96 -233h-41l283 674h39l31 -674h-39zM140 269h151l-8 190q0 4 -3 152h-4q-36 -102 -58 -153z" />
    <glyph glyph-name="afii10018" unicode="&#x411;" horiz-adv-x="358" 
d="M138 674h223l-6 -36h-184l-47 -247q25 7 52 7q70 0 107 -45t37 -117q0 -111 -66 -177q-62 -62 -164 -62q-51 0 -79 6zM117 355l-61 -318q22 -4 42 -4q81 0 131 56.5t50 138.5q0 134 -115 134q-28 0 -47 -7z" />
    <glyph glyph-name="afii10019" unicode="&#x412;" horiz-adv-x="368" 
d="M11 8l124 660q41 9 90 9q67 0 105 -35q38 -36 38 -101q0 -61 -37.5 -110t-101.5 -70v-2q97 -33 97 -152q0 -98 -73 -161q-55 -49 -154 -49q-61 0 -88 11zM169 636l-49 -257h35q70 0 120 45t50 116q0 101 -111 101q-31 0 -45 -5zM114 345l-58 -305q19 -7 49 -7
q84 0 132 50t48 126q0 61 -35 98.5t-104 37.5h-32z" />
    <glyph glyph-name="afii10020" unicode="&#x413;" horiz-adv-x="303" 
d="M138 674h224l-7 -36h-184l-121 -638h-39z" />
    <glyph glyph-name="afii10021" unicode="&#x414;" horiz-adv-x="407" 
d="M195 674h223l-121 -638h40l-37 -171h-35l23 135h-293l-30 -135h-35l30 171h36q56 91 95 198q43 120 77 299zM226 638l-22 -118q-33 -170 -75 -294q-36 -104 -89 -190h218l114 602h-146z" />
    <glyph glyph-name="afii10022" unicode="&#x415;" horiz-adv-x="322" 
d="M297 372l-7 -36h-177l-56 -300h202l-7 -36h-241l127 674h229l-7 -36h-189l-51 -266h177z" />
    <glyph glyph-name="afii10024" unicode="&#x416;" horiz-adv-x="512" 
d="M93 674h42l103 -318h17l60 318h38l-60 -317h19l221 317h46l-231 -322q57 -12 76 -54.5t20 -112.5q2 -152 8 -185h-41q-3 19 -4.5 45.5t-1.5 73v56.5q-1 74 -21.5 113t-82.5 39h-12l-63 -327h-38l61 327h-11q-28 0 -51 -9t-37 -19.5t-29 -35t-22 -39.5t-21 -49
q-67 -161 -74 -175h-44q14 27 81 181q17 41 27.5 62t30.5 50.5t45.5 44t58.5 16.5z" />
    <glyph glyph-name="afii10025" unicode="&#x417;" horiz-adv-x="327" 
d="M94 341l6 38h19q59 0 105.5 45.5t46.5 112.5q0 45 -22 76.5t-64 31.5q-47 0 -90 -30l-11 30q54 37 108 37q56 0 88.5 -39t32.5 -99q0 -67 -36 -113.5t-87 -66.5v-4q44 -15 69 -56t25 -100q0 -89 -57 -150.5t-144 -61.5q-63 0 -109 29l18 37q37 -28 92 -28q69 0 113.5 49
t44.5 127q0 60 -33.5 97.5t-91.5 37.5h-23z" />
    <glyph glyph-name="afii10026" unicode="&#x418;" horiz-adv-x="423" 
d="M138 674h38l-77 -404q-20 -101 -43 -202h2q37 77 141 258l200 348h40l-127 -674h-37l80 423q18 94 41 190h-2q-41 -87 -135 -252l-206 -361h-42z" />
    <glyph glyph-name="afii10027" unicode="&#x419;" horiz-adv-x="423" 
d="M138 674h38l-77 -404q-20 -101 -43 -202h2q37 77 141 258l200 348h40l-127 -674h-37l80 423q18 94 41 190h-2q-41 -87 -135 -252l-206 -361h-42zM206 807h37q1 -25 15.5 -41t41.5 -16q29 0 49 15.5t25 41.5h38q-6 -37 -36.5 -63t-78.5 -26q-44 0 -68 25.5t-23 63.5z" />
    <glyph glyph-name="afii10028" unicode="&#x41a;" horiz-adv-x="343" 
d="M138 674h39l-60 -317h20l230 317h46l-241 -322q60 -12 80 -54t22 -113q2 -149 9 -185h-42q-3 15 -4.5 38t-1.5 41.5t-0.5 50t-0.5 45.5q-1 36 -5 59.5t-14.5 46.5t-32.5 34.5t-56 11.5h-13l-63 -327h-39z" />
    <glyph glyph-name="afii10029" unicode="&#x41b;" horiz-adv-x="405" 
d="M177 674h244l-129 -674h-39l121 638h-166l-51 -268q-43 -226 -77 -287q-44 -81 -112 -89l-3 35q46 5 82 70q33 58 71 263z" />
    <glyph glyph-name="afii10030" unicode="&#x41c;" horiz-adv-x="563" 
d="M464 0h-39l64 458q5 34 14 89t12 71h-5q-35 -98 -71 -177l-199 -441h-22l-32 453q-5 79 -5 165h-3q-7 -30 -17 -81t-17 -80l-105 -457h-40l162 674h47l31 -433q6 -81 5 -147h4q14 39 63 149l192 431h52z" />
    <glyph glyph-name="afii10031" unicode="&#x41d;" horiz-adv-x="421" 
d="M138 674h40l-58 -302h220l57 302h40l-128 -674h-39l63 336h-220l-63 -336h-39z" />
    <glyph glyph-name="afii10032" unicode="&#x41e;" horiz-adv-x="417" 
d="M165 -8h-1q-129 0 -129 208q0 100 33.5 220t83.5 185q60 77 134 77q33 0 57 -15t36.5 -36.5t20 -54t9 -57t1.5 -57.5q0 -86 -32.5 -209t-79.5 -184q-60 -77 -133 -77zM169 29h1q48 0 88 51.5t62.5 124t35 139t12.5 108.5q0 31 -1 51t-3.5 44.5t-8.5 40t-15.5 30t-25 21
t-36.5 6.5q-46 0 -86 -49t-64 -119.5t-37.5 -141t-13.5 -120.5q0 -28 1 -47t6 -48t14 -46.5t27 -31t44 -13.5z" />
    <glyph glyph-name="afii10033" unicode="&#x41f;" horiz-adv-x="414" 
d="M138 674h292l-127 -674h-39l120 638h-214l-120 -638h-39z" />
    <glyph glyph-name="afii10034" unicode="&#x420;" horiz-adv-x="354" 
d="M11 0l125 668q41 9 88 9q75 0 111 -43q34 -40 34 -105q0 -97 -57 -166q-28 -35 -69.5 -54t-83.5 -19q-32 0 -53 6l-56 -296h-39zM170 636l-58 -304q22 -6 48 -6q77 0 122 62t45 135q0 118 -114 118q-21 0 -43 -5z" />
    <glyph glyph-name="afii10035" unicode="&#x421;" horiz-adv-x="340" 
d="M273 45l9 -34q-31 -17 -87 -17q-84 0 -122.5 65.5t-38.5 171.5q0 99 30 200t97 170q76 79 169 79q45 0 61 -11l-13 -36q-21 9 -51 9q-81 0 -139 -66q-52 -59 -82 -149.5t-30 -180.5q0 -103 28.5 -159t99.5 -56q39 0 69 14z" />
    <glyph glyph-name="afii10036" unicode="&#x422;" horiz-adv-x="322" 
d="M92 0l120 638h-124l7 36h287l-7 -36h-124l-120 -638h-39z" />
    <glyph glyph-name="afii10037" unicode="&#x423;" horiz-adv-x="328" 
d="M90 674h42l41 -291q2 -16 8 -62t9 -67h1q14 42 52 138l111 282h43l-147 -363q-77 -192 -124 -256q-48 -63 -102 -63q-25 0 -43 8l10 37q15 -6 33 -6q29 0 56.5 28.5t42 56.5t32.5 71q7 12 3 34z" />
    <glyph glyph-name="afii10038" unicode="&#x424;" horiz-adv-x="456" 
d="M155 -8l11 54q-50 11 -86 57t-36 146q0 157 67 270t172 113l9 50h38l-9 -53q56 -7 88.5 -59.5t32.5 -150.5q0 -48 -7.5 -96.5t-25.5 -98.5t-44.5 -88.5t-68 -63.5t-92.5 -28l-10 -52h-39zM174 82l100 515q-54 -1 -98.5 -54.5t-67 -131t-22.5 -158.5q0 -75 24 -118.5
t64 -52.5zM312 594l-100 -515q50 3 88.5 39.5t59 91t30.5 109t10 105.5q0 80 -25.5 123.5t-62.5 46.5z" />
    <glyph glyph-name="afii10039" unicode="&#x425;" horiz-adv-x="376" 
d="M302 0h-41l-39 185l-25 117h-3l-67 -118l-106 -184h-46l207 344l-77 330h42l39 -172q8 -36 24 -114h2q24 47 63 115l100 171h47l-197 -324z" />
    <glyph glyph-name="afii10040" unicode="&#x426;" horiz-adv-x="417" 
d="M138 674h39l-120 -638h211l120 638h40l-120 -638h40l-37 -171h-36l23 135h-287z" />
    <glyph glyph-name="afii10041" unicode="&#x427;" horiz-adv-x="369" 
d="M119 674h39l-37 -190q-15 -73 -15 -109q0 -83 79 -83q53 0 94 27l67 355h39l-127 -674h-39l52 280h-2q-42 -23 -92 -23q-56 0 -84 29t-28 80q0 37 17 117z" />
    <glyph glyph-name="afii10042" unicode="&#x428;" horiz-adv-x="558" 
d="M138 674h40l-121 -638h157l120 638h40l-121 -638h161l120 638h40l-128 -674h-435z" />
    <glyph glyph-name="afii10043" unicode="&#x429;" horiz-adv-x="562" 
d="M138 674h40l-121 -638h157l120 638h40l-121 -638h161l120 638h39l-120 -638h40l-37 -171h-36l23 135h-432z" />
    <glyph glyph-name="afii10044" unicode="&#x42a;" horiz-adv-x="441" 
d="M94 674h166l-55 -285q25 7 53 7q69 0 106.5 -42.5t37.5 -114.5q0 -110 -64 -176q-63 -66 -166 -66q-51 0 -79 6l120 635h-125zM198 351l-60 -314q22 -4 42 -4q82 0 131.5 58t49.5 140q0 129 -110 129q-28 0 -53 -9z" />
    <glyph glyph-name="afii10045" unicode="&#x42b;" horiz-adv-x="493" 
d="M137 674h41l-55 -285q24 7 50 7q71 0 109 -42.5t38 -114.5q0 -110 -64 -176q-63 -66 -166 -66q-51 0 -79 6zM116 354l-60 -317q22 -4 42 -4q81 0 131 58t50 140q0 64 -28 96.5t-90 32.5q-23 0 -45 -6zM469 674h40l-128 -674h-39z" />
    <glyph glyph-name="afii10046" unicode="&#x42c;" horiz-adv-x="359" 
d="M137 674h41l-55 -285q24 7 50 7q71 0 109 -42.5t38 -114.5q0 -110 -64 -176q-63 -66 -166 -66q-51 0 -79 6zM116 353l-60 -316q22 -4 42 -4q81 0 131 58t50 140q0 64 -28 96.5t-90 32.5q-19 0 -45 -7z" />
    <glyph glyph-name="afii10047" unicode="&#x42d;" horiz-adv-x="350" 
d="M89 325l7 38h194q5 33 5 80q0 48 -10 90.5t-39.5 76t-74.5 33.5q-41 0 -73 -16l-7 33q44 20 88 20q78 0 118 -69t40 -179q0 -83 -23.5 -179.5t-84.5 -173.5q-67 -85 -164 -85q-57 0 -94 23l14 34q35 -20 80 -20q50 0 91 29.5t66 77t40.5 94t22.5 93.5h-196z" />
    <glyph glyph-name="afii10048" unicode="&#x42e;" horiz-adv-x="548" 
d="M138 674h40l-58 -302h88q32 153 90 233q56 77 125 77q118 0 118 -220q0 -85 -30.5 -208.5t-74.5 -184.5q-55 -77 -125 -77q-123 0 -123 208q0 58 13 136h-88l-63 -336h-39zM315 29h1q44 0 81.5 51.5t58.5 124t32.5 139t11.5 108.5q0 47 -2 75.5t-10 59t-26 44.5t-46 14
q-43 0 -80.5 -49t-59.5 -119.5t-34.5 -141t-12.5 -120.5q0 -28 1 -47t5.5 -48t13 -46.5t25.5 -31t41 -13.5z" />
    <glyph glyph-name="afii10049" unicode="&#x42f;" horiz-adv-x="353" 
d="M369 666l-126 -666h-39l59 309h-31q-36 0 -63 -12t-45.5 -37t-29.5 -47.5t-23 -57.5q-4 -11 -15.5 -47.5t-21 -62.5t-20.5 -45h-42q9 15 16.5 31t15 36.5t11.5 32.5t12 38.5t10 33.5q43 132 122 156v2q-37 15 -61 52.5t-24 87.5q0 99 72 159q57 48 142 48q50 0 81 -11z
M269 343l56 293q-16 4 -37 4q-78 1 -124.5 -45.5t-46.5 -118.5q0 -61 33.5 -97t93.5 -36h25z" />
    <glyph glyph-name="afii10065" unicode="&#x430;" horiz-adv-x="352" 
d="M259 0h-39q0 2 9 98h-2q-61 -106 -127 -106q-37 0 -59 33t-22 97q0 45 9.5 94t30.5 98t50 87.5t71.5 62.5t92.5 24q41 0 64 -13l-57 -279q-22 -114 -21 -196zM252 250l39 197q-12 4 -32 4q-44 0 -82.5 -31t-62.5 -78.5t-38 -101t-15 -102.5q-3 -109 49 -109q41 0 83.5 70
t58.5 151z" />
    <glyph glyph-name="afii10066" unicode="&#x431;" horiz-adv-x="338" 
d="M383 700l-3 -39q-22 -9 -55 -16q-111 -24 -163 -114q-37 -64 -51 -122h4q44 71 107 71q48 0 68.5 -40t20.5 -95q0 -44 -9.5 -99t-29 -114.5t-58 -99.5t-89.5 -40q-50 0 -74.5 44t-24.5 114q0 89 27 194.5t61 169.5q39 77 90 116t119 54q36 7 60 16zM133 28h1
q34 0 61.5 37t42.5 90.5t23 102.5t8 81q0 105 -56 105q-33 0 -63.5 -30.5t-46.5 -68.5q-35 -82 -35 -209q0 -46 17 -77t48 -31z" />
    <glyph glyph-name="afii10067" unicode="&#x432;" horiz-adv-x="343" 
d="M234 488h1q33 0 57 -25t24 -65q0 -79 -110 -132v-2q82 -19 82 -114q0 -69 -47 -112.5t-108 -43.5q-59 0 -84 33t-25 97q0 69 31 174t80 148q42 42 99 42zM220 452h-1q-28 0 -52.5 -20.5t-40.5 -53t-25.5 -61t-14.5 -56.5q93 16 139 51q50 39 50 80q0 27 -14 43.5
t-41 16.5zM163 243h-1q-39 0 -84 -18q-13 -52 -13 -105q0 -90 75 -90q45 0 75.5 32t30.5 88q0 91 -83 93z" />
    <glyph glyph-name="afii10068" unicode="&#x433;" horiz-adv-x="264" 
d="M97 432l-11 30q37 26 81 26q45 0 69 -26.5t24 -70.5q0 -35 -20.5 -66.5t-40.5 -47.5t-59 -43q-98 -65 -98 -131q0 -31 14.5 -51.5t45.5 -20.5q35 0 82 25l11 -32q-13 -10 -41 -20t-56 -10q-45 0 -72 27t-27 78q0 38 19.5 71t40 50.5t63.5 48.5q1 1 16.5 12t20 14.5
t17.5 14.5t18 18t12.5 18t10.5 21.5t3 22.5q0 27 -15 44t-45 17q-25 0 -63 -19z" />
    <glyph glyph-name="afii10069" unicode="&#x434;" horiz-adv-x="335" 
d="M109 662l-2 38q24 -8 69 -14q93 -15 125 -75q25 -47 25 -136q0 -38 -6 -93t-22 -124.5t-39.5 -127.5t-62 -98t-84.5 -40q-93 0 -93 155q0 33 7 75t22 87.5t36.5 83.5t54.5 62.5t71 24.5q32 0 50.5 -21t23.5 -52h1q4 32 4 61q0 81 -22 123q-15 27 -36.5 40t-57.5 19
q-46 7 -64 12zM116 28h1q43 0 79 63t53 132.5t17 113.5q0 107 -62 107q-45 0 -79.5 -58t-49 -124t-14.5 -116q0 -118 55 -118z" />
    <glyph glyph-name="afii10070" unicode="&#x435;" horiz-adv-x="310" 
d="M224 58l12 -32q-48 -32 -97 -32q-116 0 -116 163q0 67 21.5 141t69 132t106.5 58q41 0 61 -27t20 -68q0 -77 -64 -117.5t-167 -42.5q-3 -15 -4.5 -53t2.5 -70q15 -79 78 -79q38 0 78 27zM260 392v1q0 58 -48 58q-37 0 -73 -46t-61 -136q47 1 85 11t67.5 38.5t29.5 73.5z
" />
    <glyph glyph-name="afii10072" unicode="&#x436;" horiz-adv-x="426" 
d="M48 480h43l94 -223h8l44 223h36l-43 -223h8l180 223h45l-190 -225q87 -8 87 -131q0 -100 10 -124h-37q-9 25 -9 124q-1 57 -22.5 81t-68.5 24h-10l-44 -229h-37l45 229h-4q-53 0 -85 -29t-53 -89q-34 -90 -45 -111h-42q22 35 49 111q25 68 57.5 104.5t87.5 38.5z" />
    <glyph glyph-name="afii10073" unicode="&#x437;" horiz-adv-x="298" 
d="M69 240l4 34h14q47 0 91 31t44 73q0 33 -18.5 53t-47.5 20q-44 0 -91 -29l-13 28q54 38 110 38q43 0 71 -27.5t28 -71.5q0 -49 -31 -82.5t-80 -48.5v-1q42 -9 68 -39t26 -76q0 -70 -51 -109t-120 -39q-66 0 -104 30l16 33q33 -26 90 -26q53 0 91.5 28.5t38.5 81.5
q0 44 -35.5 71.5t-81.5 27.5h-19z" />
    <glyph glyph-name="afii10074" unicode="&#x438;" horiz-adv-x="363" 
d="M98 480h39l-60 -320q-8 -40 -8 -74q0 -57 48 -57q43 0 83 51.5t54 123.5l52 276h39l-58 -311q-16 -83 -21 -169h-38l8 82h-2q-53 -90 -130 -90q-37 0 -56 26.5t-19 64.5q0 33 6 61z" />
    <glyph glyph-name="afii10075" unicode="&#x439;" horiz-adv-x="363" 
d="M98 480h39l-60 -320q-8 -40 -8 -74q0 -57 48 -57q43 0 83 51.5t54 123.5l52 276h39l-58 -311q-16 -83 -21 -169h-38l8 82h-2q-53 -90 -130 -90q-37 0 -56 26.5t-19 64.5q0 33 6 61zM155 659h38q-3 -32 12 -51t43 -19q61 0 75 70h38q-9 -47 -40 -75.5t-76 -28.5
q-50 0 -72.5 29t-17.5 75z" />
    <glyph glyph-name="afii10076" unicode="&#x43a;" horiz-adv-x="294" 
d="M101 480h38l-43 -223h11l174 223h46l-184 -225q39 -4 61.5 -37.5t23.5 -93.5q0 -97 12 -124h-40q-7 18 -10 124q-1 57 -23 81t-65 24h-11l-44 -229h-39z" />
    <glyph glyph-name="afii10077" unicode="&#x43b;" horiz-adv-x="355" 
d="M132 480h207l-91 -480h-39l84 444h-129l-33 -171q-26 -133 -55 -188t-70 -75q-20 -10 -43 -10l-3 32q24 3 34 10q23 14 40 39.5t29 66t16 58t12 61.5z" />
    <glyph glyph-name="afii10078" unicode="&#x43c;" horiz-adv-x="512" 
d="M122 480h49l30 -249q4 -35 18 -168h1q9 21 82 174l117 243h51l-59 -480h-39l31 230q23 167 31 207h-5l-81 -177l-126 -260h-32l-26 244q-15 143 -18 193h-3q-1 -8 -49 -213l-52 -224h-39z" />
    <glyph glyph-name="afii10079" unicode="&#x43d;" horiz-adv-x="362" 
d="M100 480h39l-40 -208h168l40 208h39l-92 -480h-39l45 236h-168l-45 -236h-39z" />
    <glyph glyph-name="afii10080" unicode="&#x43e;" horiz-adv-x="340" 
d="M119 -8h-1q-49 0 -73 43.5t-24 117.5q0 45 11.5 99t33.5 108.5t62.5 91t90.5 36.5q94 0 94 -149q0 -44 -10 -98.5t-31 -112.5t-61 -97t-92 -39zM126 29h1q37 0 66.5 36.5t45.5 89t24 100.5t8 82q0 53 -12.5 83.5t-46.5 30.5q-45 0 -80.5 -52.5t-52 -117.5t-16.5 -120
q0 -30 2 -50t7.5 -40.5t19 -31t34.5 -10.5z" />
    <glyph glyph-name="afii10081" unicode="&#x43f;" horiz-adv-x="363" 
d="M47 0h-39l58 311q13 69 25 169h36l-10 -84h2q58 92 129 92q38 0 57 -26.5t19 -64.5q0 -31 -8 -71l-61 -326h-39l60 320q8 40 8 76q0 55 -49 55q-41 0 -82 -53.5t-54 -121.5z" />
    <glyph glyph-name="afii10082" unicode="&#x440;" horiz-adv-x="353" 
d="M11 -192h-39l93 495q8 46 17.5 109.5t10.5 67.5h37l-12 -83h2q56 91 126 91q80 0 80 -129q0 -56 -14 -118t-40 -118.5t-69 -93.5t-95 -37q-36 0 -57 18h-2zM93 246l-36 -195q25 -22 54 -22q46 0 82.5 40t55.5 97.5t28 107.5t9 82q0 95 -53 95q-43 0 -84 -60.5t-56 -144.5
z" />
    <glyph glyph-name="afii10083" unicode="&#x441;" horiz-adv-x="275" 
d="M209 44l7 -36q-31 -14 -74 -14q-119 0 -119 171q0 48 13.5 101.5t39.5 104.5t72 84t103 33q26 0 39 -8l-12 -36q-16 7 -35 7q-55 0 -97.5 -48.5t-61.5 -112t-19 -123.5q0 -136 86 -136q28 0 58 13z" />
    <glyph glyph-name="afii10084" unicode="&#x442;" horiz-adv-x="555" 
d="M47 0h-39l58 311q13 69 25 169h36l-10 -84h2q56 92 122 92q37 0 56 -26.5t20 -64.5q55 91 124 91q37 0 56 -26.5t19 -64.5q0 -29 -10 -81l-59 -316h-39l60 320q8 40 8 76q0 55 -46 55q-40 0 -78.5 -52t-52.5 -123l-52 -276h-39l60 320q8 40 8 76q0 55 -46 55
q-38 0 -78 -54t-53 -121z" />
    <glyph glyph-name="afii10085" unicode="&#x443;" horiz-adv-x="308" 
d="M50 480h40l25 -292q5 -52 10 -123h2l46 121l111 294h42l-154 -397q-68 -171 -162 -248q-44 -35 -70 -43l-16 36q40 17 77 50q23 20 48.5 55.5t38.5 66.5q6 13 4 30z" />
    <glyph glyph-name="afii10086" unicode="&#x444;" horiz-adv-x="488" 
d="M136 -192l51 235h-1q-14 -16 -23.5 -25.5t-27 -17.5t-38.5 -8q-36 0 -56.5 33.5t-20.5 98.5q0 40 10.5 98t31 119.5t57 104t81.5 42.5q24 0 38.5 -16.5t18.5 -39.5h1l48 260h38l-54 -271h2q43 67 92 67q28 0 46 -23t23.5 -49.5t5.5 -56.5q0 -42 -10 -100t-29.5 -120
t-55 -104.5t-79.5 -42.5q-25 0 -42 16t-21 36h-1l-46 -236h-39zM197 453h-1q-32 0 -59 -39.5t-43 -95t-24.5 -107.5t-8.5 -84q0 -100 46 -100q68 0 92 114l36 175q8 48 8 73q-1 24 -14 44t-32 20zM374 452h-1q-22 0 -45 -21t-34 -47q-13 -30 -25 -86q-20 -110 -28 -149
q-4 -21 -4 -41q0 -27 12.5 -54t37.5 -27q33 0 60 40.5t41.5 97.5t22 108t7.5 83q0 96 -44 96z" />
    <glyph glyph-name="afii10087" unicode="&#x445;" 
d="M58 480h42l32 -113q1 -4 10 -36.5t14 -48.5h2l54 85l72 113h47l-162 -237l69 -243h-42l-31 121l-23 89h-2q-11 -19 -55 -90l-75 -120h-47l166 245z" />
    <glyph glyph-name="afii10088" unicode="&#x446;" horiz-adv-x="368" 
d="M98 480h39l-60 -320q-8 -40 -8 -74q0 -57 48 -57q43 0 83 51.5t54 123.5l52 276h39l-58 -311q-13 -72 -13 -97q0 -46 45 -49l-48 -152h-32l33 129q-19 0 -30 24q-12 21 -6 58h-2q-53 -90 -130 -90q-37 0 -56 26.5t-19 64.5q0 33 6 61z" />
    <glyph glyph-name="afii10089" unicode="&#x447;" horiz-adv-x="332" 
d="M82 480h39l-28 -150q-10 -55 -10 -76q0 -55 59 -55q44 0 90 38l45 243h39l-92 -488h-39l39 205h-3q-36 -33 -90 -33q-39 0 -64 21.5t-25 61.5q0 20 12 82z" />
    <glyph glyph-name="afii10090" unicode="&#x448;" horiz-adv-x="555" 
d="M98 480h39l-60 -320q-8 -40 -8 -76q0 -55 46 -55q40 0 78.5 52t52.5 123l52 276h39l-60 -320q-8 -40 -8 -76q0 -55 46 -55q38 0 78 54t53 121l52 276h39l-58 -311q-13 -68 -21 -169h-38q6 56 8 84h-2q-56 -92 -122 -92q-37 0 -56 26.5t-20 64.5q-55 -91 -124 -91
q-37 0 -56 26.5t-19 64.5q0 29 10 81z" />
    <glyph glyph-name="afii10091" unicode="&#x449;" horiz-adv-x="560" 
d="M98 480h39l-60 -320q-8 -40 -8 -76q0 -55 46 -55q40 0 78.5 52t52.5 123l52 276h39l-60 -320q-8 -40 -8 -76q0 -55 46 -55q38 0 78 54t53 121l52 276h39l-57 -305q-14 -78 -14 -103q0 -46 45 -49l-48 -152h-32l33 129q-19 4 -29 31t-7 51h-2q-55 -90 -122 -90
q-37 0 -56 26.5t-20 64.5q-55 -91 -124 -91q-37 0 -56 26.5t-19 64.5q0 29 10 81z" />
    <glyph glyph-name="afii10092" unicode="&#x44a;" horiz-adv-x="361" 
d="M53 480h187q-89 -155 -121 -238h2q53 63 111 63q41 0 62.5 -29t21.5 -74q0 -73 -48.5 -140t-128.5 -67q-39 0 -62.5 26.5t-23.5 77.5q0 62 39.5 166t86.5 179h-135zM150 29h1q47 0 85 51.5t38 109.5q0 80 -56 80q-33 0 -61 -27.5t-45 -64.5q-19 -39 -19 -85q0 -26 15 -45
t42 -19z" />
    <glyph glyph-name="afii10093" unicode="&#x44b;" horiz-adv-x="442" 
d="M98 480h40l-49 -226h2q44 51 102 51q41 0 64.5 -29t23.5 -74q0 -74 -48.5 -140.5t-135.5 -66.5q-32 0 -55.5 17.5t-23.5 52.5q0 18 4 41zM106 29h1q56 0 94 50.5t38 110.5q0 80 -56 80q-37 0 -67 -31.5t-44 -82.5q-14 -59 -14 -79q0 -48 48 -48zM387 480h39l-92 -480h-39
z" />
    <glyph glyph-name="afii10094" unicode="&#x44c;" horiz-adv-x="326" 
d="M98 480h40l-50 -228h2q47 53 103 53q41 0 64.5 -29t23.5 -74q0 -46 -18 -91.5t-61.5 -80.5t-104.5 -35q-34 0 -56.5 20.5t-22.5 56.5q0 19 7 48zM101 29h1q63 0 100 49.5t37 111.5q0 80 -56 80q-37 0 -69.5 -35.5t-44.5 -85.5q-11 -37 -11 -69q0 -51 43 -51z" />
    <glyph glyph-name="afii10095" unicode="&#x44d;" horiz-adv-x="305" 
d="M58 230l5 34h164q2 24 2 39q0 66 -25.5 109t-77.5 43q-32 0 -61 -12l-8 33q34 16 76 16q66 0 102 -52.5t36 -139.5q0 -51 -11.5 -102t-35.5 -98t-67 -76.5t-99 -29.5q-51 0 -88 23l15 35q40 -23 79 -20q64 -1 106.5 57.5t52.5 140.5h-165z" />
    <glyph glyph-name="afii10096" unicode="&#x44e;" horiz-adv-x="479" 
d="M100 480h40l-40 -208h76q52 216 176 216q38 0 61.5 -26t31 -57.5t7.5 -68.5q0 -44 -10 -98t-30 -111.5t-59.5 -96t-91.5 -38.5q-50 0 -75.5 43.5t-25.5 117.5q0 33 8 83h-75l-45 -236h-40zM268 28h1q37 0 66 36t44.5 88.5t23 100t7.5 81.5q0 117 -65 117q-36 0 -65.5 -34
t-45 -83t-24 -94.5t-8.5 -78.5q0 -133 66 -133z" />
    <glyph glyph-name="afii10097" unicode="&#x44f;" horiz-adv-x="334" 
d="M318 478l-93 -478h-39l42 218h-33q-56 0 -87 -24t-53 -78q-36 -91 -52 -116h-43q23 39 58 127q38 95 111 109v1q-79 32 -79 111q0 67 50 103.5t126 36.5q45 0 92 -10zM235 252l38 197q-18 4 -51 4q-53 0 -91.5 -25t-38.5 -81q0 -46 36.5 -70.5t84.5 -24.5h22z" />
    <glyph glyph-name="afii10071" unicode="&#x451;" horiz-adv-x="310" 
d="M224 58l12 -32q-48 -32 -97 -32q-116 0 -116 163q0 67 21.5 141t69 132t106.5 58q41 0 61 -27t20 -68q0 -77 -64 -117.5t-167 -42.5q-3 -15 -4.5 -53t2.5 -70q15 -79 78 -79q38 0 78 27zM260 392v1q0 58 -48 58q-37 0 -73 -46t-61 -136q47 1 85 11t67.5 38.5t29.5 73.5z
M159 565h-1q-29 0 -29 33q0 15 10.5 26.5t25.5 11.5q30 0 30 -32q0 -15 -10 -27t-26 -12zM297 565h-1q-29 0 -29 33q0 15 10.5 26.5t25.5 11.5q30 0 30 -32q0 -15 -10 -27t-26 -12z" />
    <glyph glyph-name="afii10099" unicode="&#x452;" horiz-adv-x="368" 
d="M139 692h40l-16 -87h178l-8 -36h-177l-27 -142h2q48 61 107 61q93 0 93 -151q0 -105 -31 -220t-79 -169q-53 -58 -113 -71l-10 33q63 17 106 77q34 48 59.5 150.5t25.5 208.5q0 105 -61 105q-41 0 -76 -47t-46 -94l-59 -310h-38l108 569h-45l7 36h44z" />
    <glyph glyph-name="afii10100" unicode="&#x453;" horiz-adv-x="264" 
d="M97 432l-11 30q37 26 81 26q45 0 69 -26.5t24 -70.5q0 -35 -20.5 -66.5t-40.5 -47.5t-59 -43q-98 -65 -98 -131q0 -31 14.5 -51.5t45.5 -20.5q35 0 82 25l11 -32q-13 -10 -41 -20t-56 -10q-45 0 -72 27t-27 78q0 38 19.5 71t40 50.5t63.5 48.5q1 1 16.5 12t20 14.5
t17.5 14.5t18 18t12.5 18t10.5 21.5t3 22.5q0 27 -15 44t-45 17q-25 0 -63 -19zM262 667h57l-107 -132h-32z" />
    <glyph glyph-name="afii10101" unicode="&#x454;" horiz-adv-x="278" 
d="M301 474l-14 -34q-26 11 -51 11q-63 0 -104.5 -57.5t-55.5 -128.5h165l-5 -35h-165q-5 -38 -5 -57q0 -56 22 -99t73 -43q28 0 56 13l10 -32q-29 -18 -79 -18q-34 0 -59.5 15.5t-39 42t-19.5 56.5t-6 64q0 59 17 121.5t49 108.5q60 86 151 86q34 0 60 -14z" />
    <glyph glyph-name="afii10102" unicode="&#x455;" horiz-adv-x="260" 
d="M-16 21l16 34q35 -24 73 -24q42 0 67 28t25 70q0 59 -50 107q-64 62 -64 117q0 58 36.5 96.5t95.5 38.5q42 0 65 -18l-15 -34q-25 15 -55 15q-40 0 -63 -25t-23 -63q0 -21 8.5 -40t16.5 -28.5t24 -25.5q65 -65 65 -126q0 -73 -39 -111t-100 -38q-24 0 -49 9t-34 18z" />
    <glyph glyph-name="afii10103" unicode="&#x456;" horiz-adv-x="156" 
d="M47 0h-39l92 480h39zM140 577h-1q-12 0 -19 9.5t-5 25.5q1 15 12 25.5t23 10.5q15 0 22 -10t5 -26q-5 -35 -37 -35z" />
    <glyph glyph-name="afii10104" unicode="&#x457;" horiz-adv-x="156" 
d="M47 0h-39l92 480h39zM68 565h-1q-29 0 -29 33q0 15 10.5 26.5t25.5 11.5q30 0 30 -32q0 -15 -10 -27t-26 -12zM206 565h-1q-29 0 -29 33q0 15 10.5 26.5t25.5 11.5q30 0 30 -32q0 -15 -10 -27t-26 -12z" />
    <glyph glyph-name="afii10105" unicode="&#x458;" horiz-adv-x="164" 
d="M109 480h39l-94 -498q-20 -106 -44 -139q-31 -43 -84 -43q-25 0 -34 4l4 36q21 -3 32 -3q28 0 48 23t34 94zM149 577h-1q-24 0 -24 29q0 16 9.5 29t25.5 13q27 0 27 -28q0 -18 -10 -30.5t-27 -12.5z" />
    <glyph glyph-name="afii10106" unicode="&#x459;" horiz-adv-x="531" 
d="M133 480h208l-47 -231h2q47 56 103 56q38 0 63 -26.5t25 -77.5q0 -82 -52 -144t-128 -62q-43 0 -63 19t-20 51q0 22 4 41l67 338h-130l-34 -176q-22 -117 -50 -175.5t-75 -81.5q-24 -11 -43 -11l-3 32q21 3 33 11q33 20 55.5 66t42.5 153zM308 29h1q58 0 97 50.5
t39 110.5q0 80 -56 80q-35 0 -63 -29.5t-43 -68.5q-19 -49 -19 -97q0 -20 11.5 -33t32.5 -13z" />
    <glyph glyph-name="afii10107" unicode="&#x45a;" horiz-adv-x="531" 
d="M100 480h39l-37 -194h160l38 195l39 -1l-45 -228h2q42 53 102 53q41 0 64.5 -28.5t23.5 -74.5q0 -85 -52.5 -146t-133.5 -61q-77 0 -77 70q0 18 5 45l27 140h-160l-48 -250h-39zM307 29h1q62 0 99 50.5t37 110.5q0 80 -56 80q-38 0 -70.5 -38t-45.5 -94q-9 -40 -9 -65
q0 -44 44 -44z" />
    <glyph glyph-name="afii10108" unicode="&#x45b;" horiz-adv-x="363" 
d="M139 692h40l-16 -87h176l-7 -36h-176l-30 -161h2q52 80 118 80q37 0 58 -26t21 -65q0 -32 -8 -72l-61 -325h-39l62 330q7 37 7 56q0 66 -50 66q-43 0 -83 -54.5t-53 -121.5l-52 -276h-39l108 569h-46l7 36h45z" />
    <glyph glyph-name="afii10109" unicode="&#x45c;" horiz-adv-x="294" 
d="M101 480h38l-43 -223h11l174 223h46l-184 -225q39 -4 61.5 -37.5t23.5 -93.5q0 -97 12 -124h-40q-7 18 -10 124q-1 57 -23 81t-65 24h-11l-44 -229h-39zM257 667h57l-107 -132h-32z" />
    <glyph glyph-name="afii10110" unicode="&#x45e;" horiz-adv-x="308" 
d="M50 480h40l25 -292q5 -52 10 -123h2l46 121l111 294h42l-154 -397q-68 -171 -162 -248q-44 -35 -70 -43l-16 36q40 17 77 50q23 20 48.5 55.5t38.5 66.5q6 13 4 30zM110 659h38q-3 -32 12 -51t43 -19q61 0 75 70h38q-9 -47 -40 -75.5t-76 -28.5q-50 0 -72.5 29t-17.5 75z
" />
    <glyph glyph-name="afii10193" unicode="&#x45f;" horiz-adv-x="363" 
d="M98 480h39l-60 -320q-8 -40 -8 -74q0 -57 48 -57q43 0 83 51.5t54 123.5l52 276h39l-58 -311q-16 -83 -21 -169h-38l8 82h-2q-53 -90 -130 -90q-37 0 -56 26.5t-19 64.5q0 33 6 61zM117 -173l-35 -5l26 138l42 5z" />
    <glyph glyph-name="afii10050" unicode="&#x490;" horiz-adv-x="299" 
d="M137 674h181l39 104h33l-39 -140h-182l-119 -638h-39z" />
    <glyph glyph-name="afii10098" unicode="&#x491;" horiz-adv-x="274" 
d="M98 480h164l35 95h34l-39 -132h-162l-82 -443h-40z" />
    <glyph glyph-name="afii10846" unicode="&#x4d9;" 
d="M70 424l-12 32q48 32 97 32q116 0 116 -163q0 -67 -21.5 -141t-69 -132t-106.5 -58q-41 0 -61 27t-20 68q0 77 64 117.5t167 42.5q3 15 4.5 53t-2.5 70q-15 79 -78 79q-37 0 -78 -27zM82 31h1q36 0 72 46t61 136q-47 -1 -85 -11t-67.5 -38.5t-29.5 -73.5q0 -59 48 -59z
" />
    <glyph glyph-name="Wgrave" unicode="&#x1e80;" horiz-adv-x="634" 
d="M145 0h-34l-9 674h40l4 -458q0 -35 -7 -142h4q22 75 48 142l178 458h39l5 -458q1 -37 -1.5 -85t-2.5 -57h3q3 10 19 59t28 82l176 459h42l-264 -674h-36l-4 477q0 17 1 37.5t2 49.5t2 51h-2q-7 -22 -15.5 -51t-15 -49.5t-13.5 -37.5zM276 815h65l102 -105h-41z" />
    <glyph glyph-name="wgrave" unicode="&#x1e81;" horiz-adv-x="525" 
d="M58 480h39l12 -304q4 -80 2 -106h3q24 66 41 105l132 305h33l15 -304q4 -79 0 -106h4q4 10 17.5 47t22.5 59l126 304h41l-206 -480h-32l-16 313q-3 53 0 102h-2q-3 -9 -16 -46t-21 -56l-137 -313h-35zM184 667h57l82 -132h-32z" />
    <glyph glyph-name="Wacute" unicode="&#x1e82;" horiz-adv-x="634" 
d="M145 0h-34l-9 674h40l4 -458q0 -35 -7 -142h4q22 75 48 142l178 458h39l5 -458q1 -37 -1.5 -85t-2.5 -57h3q3 10 19 59t28 82l176 459h42l-264 -674h-36l-4 477q0 17 1 37.5t2 49.5t2 51h-2q-7 -22 -15.5 -51t-15 -49.5t-13.5 -37.5zM458 815h65l-126 -105h-41z" />
    <glyph glyph-name="wacute" unicode="&#x1e83;" horiz-adv-x="525" 
d="M58 480h39l12 -304q4 -80 2 -106h3q24 66 41 105l132 305h33l15 -304q4 -79 0 -106h4q4 10 17.5 47t22.5 59l126 304h41l-206 -480h-32l-16 313q-3 53 0 102h-2q-3 -9 -16 -46t-21 -56l-137 -313h-35zM365 667h57l-107 -132h-32z" />
    <glyph glyph-name="Wdieresis" unicode="&#x1e84;" horiz-adv-x="634" 
d="M145 0h-34l-9 674h40l4 -458q0 -35 -7 -142h4q22 75 48 142l178 458h39l5 -458q1 -37 -1.5 -85t-2.5 -57h3q3 10 19 59t28 82l176 459h42l-264 -674h-36l-4 477q0 17 1 37.5t2 49.5t2 51h-2q-7 -22 -15.5 -51t-15 -49.5t-13.5 -37.5zM328 731h-1q-14 0 -22.5 9t-8.5 24
t11 26.5t27 11.5q32 0 32 -32q0 -15 -10.5 -27t-27.5 -12zM471 731h-1q-14 0 -22.5 9t-8.5 24t11 26.5t27 11.5q32 0 32 -32q0 -15 -10.5 -27t-27.5 -12z" />
    <glyph glyph-name="wdieresis" unicode="&#x1e85;" horiz-adv-x="525" 
d="M58 480h39l12 -304q4 -80 2 -106h3q24 66 41 105l132 305h33l15 -304q4 -79 0 -106h4q4 10 17.5 47t22.5 59l126 304h41l-206 -480h-32l-16 313q-3 53 0 102h-2q-3 -9 -16 -46t-21 -56l-137 -313h-35zM253 565h-1q-29 0 -29 33q0 15 10.5 26.5t25.5 11.5q30 0 30 -32
q0 -15 -10 -27t-26 -12zM391 565h-1q-29 0 -29 33q0 15 10.5 26.5t25.5 11.5q30 0 30 -32q0 -15 -10 -27t-26 -12z" />
    <glyph glyph-name="Ygrave" unicode="&#x1ef2;" horiz-adv-x="391" 
d="M161 0h-40l58 302l-77 372h42l43 -221q13 -66 19 -109h2l62 112l127 218h46l-225 -370zM145 815h65l102 -105h-41z" />
    <glyph glyph-name="ygrave" unicode="&#x1ef3;" horiz-adv-x="312" 
d="M52 480h40l23 -292q1 -18 3.5 -55.5l4.5 -67.5h2q8 25 46 121l117 294h42l-163 -397q-73 -179 -157 -248q-44 -35 -70 -43l-16 36q40 17 77 50q23 19 47.5 54.5t37.5 67.5q6 13 4 30zM92 667h57l82 -132h-32z" />
    <glyph glyph-name="endash" unicode="&#x2013;" horiz-adv-x="500" 
d="M32 277h441l-6 -34h-441z" />
    <glyph glyph-name="emdash" unicode="&#x2014;" horiz-adv-x="1000" 
d="M32 277h941l-6 -34h-941z" />
    <glyph glyph-name="quoteleft" unicode="&#x2018;" horiz-adv-x="151" 
d="M119 471l-58 -10q19 52 54.5 122.5t51.5 94.5l33 5q-16 -31 -41.5 -98t-39.5 -114z" />
    <glyph glyph-name="quoteright" unicode="&#x2019;" horiz-adv-x="151" 
d="M152 673l58 10q-19 -52 -54.5 -122.5t-51.5 -94.5l-33 -5q17 32 43 99.5t38 112.5z" />
    <glyph glyph-name="quotesinglbase" unicode="&#x201a;" horiz-adv-x="151" 
d="M-19 -121l-35 -5q17 32 43 99.5t38 112.5l60 10q-19 -52 -54.5 -122.5t-51.5 -94.5z" />
    <glyph glyph-name="quotedblleft" unicode="&#x201c;" horiz-adv-x="272" 
d="M119 471l-58 -10q19 52 54.5 122.5t51.5 94.5l33 5q-16 -31 -41.5 -98t-39.5 -114zM240 471l-58 -10q19 52 54.5 122.5t51.5 94.5l33 5q-16 -31 -41.5 -98t-39.5 -114z" />
    <glyph glyph-name="quotedblright" unicode="&#x201d;" horiz-adv-x="272" 
d="M152 673l58 10q-19 -52 -54.5 -122.5t-51.5 -94.5l-33 -5q17 32 43 99.5t38 112.5zM273 673l58 10q-19 -52 -54.5 -122.5t-51.5 -94.5l-33 -5q17 32 43 99.5t38 112.5z" />
    <glyph glyph-name="quotedblbase" unicode="&#x201e;" horiz-adv-x="272" 
d="M-19 -121l-35 -5q17 32 43 99.5t38 112.5l60 10q-19 -52 -54.5 -122.5t-51.5 -94.5zM102 -121l-35 -5q17 32 43 99.5t38 112.5l60 10q-19 -52 -54.5 -122.5t-51.5 -94.5z" />
    <glyph glyph-name="dagger" unicode="&#x2020;" horiz-adv-x="353" 
d="M233 674h45l-45 -204l131 6l-9 -44l-128 7l-88 -489h-45l100 489l-132 -7l9 44l129 -6z" />
    <glyph glyph-name="daggerdbl" unicode="&#x2021;" horiz-adv-x="353" 
d="M233 674h45l-43 -204l129 6l-9 -44l-126 7l-46 -242l129 7l-8 -44l-127 6l-38 -216h-45l46 216l-129 -6l8 44l127 -7l46 242l-130 -7l9 44l127 -6z" />
    <glyph glyph-name="bullet" unicode="&#x2022;" horiz-adv-x="239" 
d="M122 184h-1q-36 0 -62 26t-26 63q-1 37 25.5 63t63.5 26t63.5 -26t26.5 -63t-26.5 -63t-63.5 -26z" />
    <glyph glyph-name="ellipsis" unicode="&#x2026;" horiz-adv-x="1000" 
d="M114 -8h-1q-14 0 -22.5 10t-8.5 27t11 30t27 13q32 0 32 -36q0 -17 -11 -30.5t-27 -13.5zM448 -8h-1q-14 0 -22.5 10t-8.5 27t11 30t27 13q32 0 32 -36q0 -17 -11 -30.5t-27 -13.5zM782 -8h-1q-14 0 -22.5 10t-8.5 27t11 30t27 13q32 0 32 -36q0 -17 -11 -30.5t-27 -13.5
z" />
    <glyph glyph-name="perthousand" unicode="&#x2030;" horiz-adv-x="918" 
d="M225 658h1q46 0 67.5 -37.5t21.5 -93.5q0 -53 -15 -110t-52.5 -103.5t-88.5 -46.5q-46 0 -68.5 37.5t-22.5 89.5q0 41 9 85t26.5 85t49.5 67.5t72 26.5zM217 624h-1q-37 0 -63 -43.5t-35.5 -90.5t-9.5 -84q0 -105 57 -105q36 0 63 43t37 91t10 85q0 104 -58 104zM126 -16
h-41l451 681h41zM508 385h1q46 0 67.5 -37.5t21.5 -93.5q0 -53 -15 -110t-52.5 -103.5t-88.5 -46.5q-46 0 -68.5 37.5t-22.5 89.5q0 41 9 85t26.5 85t49.5 67.5t72 26.5zM500 351h-1q-37 0 -63 -43.5t-35.5 -90.5t-9.5 -84q0 -105 57 -105q36 0 63 43t37 91t10 85
q0 104 -58 104zM793 385h1q46 0 67.5 -37.5t21.5 -93.5q0 -53 -15 -110t-52.5 -103.5t-88.5 -46.5q-46 0 -68.5 37.5t-22.5 89.5q0 41 9 85t26.5 85t49.5 67.5t72 26.5zM785 351h-1q-37 0 -63 -43.5t-35.5 -90.5t-9.5 -84q0 -105 57 -105q36 0 63 43t37 91t10 85
q0 104 -58 104z" />
    <glyph glyph-name="guilsinglleft" unicode="&#x2039;" horiz-adv-x="204" 
d="M195 420l-124 -168l78 -168h-40l-81 168l125 168h42z" />
    <glyph glyph-name="guilsinglright" unicode="&#x203a;" horiz-adv-x="204" 
d="M129 252l-78 168h39l82 -168l-123 -168h-44z" />
    <glyph glyph-name="fraction" unicode="&#x2044;" horiz-adv-x="360" 
d="M-11 -8h-39l441 666h39z" />
    <glyph glyph-name="fraction" unicode="&#x2215;" horiz-adv-x="360" 
d="M-11 -8h-39l441 666h39z" />
    <glyph glyph-name="zerosuperior" unicode="&#x2070;" horiz-adv-x="250" 
d="M154 398h-1q-78 0 -78 120q0 60 16.5 122.5t53 110t82.5 47.5q78 0 78 -111q0 -58 -15 -121.5t-51 -115.5t-85 -52zM160 432h1q46 0 75 92.5t29 164.5q0 75 -42 75q-32 0 -58 -45t-38 -100t-12 -101q0 -86 45 -86z" />
    <glyph glyph-name="foursuperior" unicode="&#x2074;" horiz-adv-x="246" 
d="M217 403h-37l22 118h-145l4 20l193 257h38l-47 -246h49l-6 -31h-49zM208 552l23 119q4 20 11.5 47.5t7.5 29.5h-2l-55 -79l-81 -114l-1 -3h97z" />
    <glyph glyph-name="fivesuperior" unicode="&#x2075;" horiz-adv-x="222" 
d="M295 793l-8 -36h-108l-34 -108h13q36 0 63 -23q33 -27 33 -80q0 -63 -42 -105.5t-102 -42.5q-42 0 -62 14l12 33q20 -12 52 -12q43 0 72 31t29 75q0 78 -82 78q-11 0 -31 -2l52 178h143z" />
    <glyph glyph-name="sixsuperior" unicode="&#x2076;" horiz-adv-x="247" 
d="M301 798l-4 -35q-4 0 -18 -2q-110 -22 -150 -149h1q34 42 79 42q37 0 57.5 -27.5t20.5 -69.5q0 -58 -34.5 -108.5t-88.5 -50.5q-45 0 -67 32.5t-22 85.5q0 62 25.5 123t62.5 96q40 38 91 54q22 7 47 9zM166 430h1q36 0 57 40.5t21 84.5q0 66 -51 66q-42 0 -70 -48
q-4 -7 -6 -16q-4 -19 -4 -47q0 -36 13.5 -58t38.5 -22z" />
    <glyph glyph-name="sevensuperior" unicode="&#x2077;" horiz-adv-x="219" 
d="M112 793h199l-5 -26q-16 -31 -56 -102t-91.5 -160t-59.5 -102h-43q4 8 94 160.5t111 192.5l-1 1h-155z" />
    <glyph glyph-name="eightsuperior" unicode="&#x2078;" horiz-adv-x="254" 
d="M228 798h1q37 0 58.5 -23t21.5 -56q0 -70 -73 -109v-1q51 -36 51 -97q0 -49 -34.5 -81.5t-82.5 -32.5q-43 0 -69 25.5t-26 65.5q0 80 88 123v2q-41 35 -41 79q0 43 31 74t75 31zM173 429h1q31 0 52 24t21 58q0 53 -55 83q-30 -12 -53 -39t-23 -62q0 -28 15 -46t42 -18z
M224 767h-1q-26 0 -44 -21t-18 -51q0 -42 46 -69q63 32 63 88q0 53 -46 53z" />
    <glyph glyph-name="ninesuperior" unicode="&#x2079;" horiz-adv-x="243" 
d="M75 398l2 35q13 0 28 4q33 7 67 36q46 39 70 111h-1q-33 -36 -74 -36q-38 0 -58 27t-20 67q0 58 36.5 107t88.5 49q43 0 63.5 -30.5t20.5 -76.5q0 -64 -26.5 -129t-63.5 -102q-43 -44 -102 -58q-16 -4 -31 -4zM210 766h-1q-34 0 -56.5 -38.5t-22.5 -80.5q0 -67 49 -67
q41 0 66 42q4 7 7 19q6 26 6 51q0 74 -48 74z" />
    <glyph glyph-name="parenleftsuperior" unicode="&#x207d;" horiz-adv-x="157" 
d="M218 832h36q-55 -62 -89 -144.5t-34 -170.5q0 -100 29 -172h-32q-33 73 -33 171q0 92 34.5 174.5t88.5 141.5z" />
    <glyph glyph-name="parenrightsuperior" unicode="&#x207e;" horiz-adv-x="157" 
d="M61 345h-36q56 63 89.5 145t33.5 171q0 101 -29 171h32q33 -74 33 -169q0 -92 -35 -175t-88 -143z" />
    <glyph glyph-name="zeroinferior" unicode="&#x2080;" horiz-adv-x="250" 
d="M48 -152h-1q-78 0 -78 120q0 60 16.5 122.5t53 110t82.5 47.5q78 0 78 -111q0 -58 -15 -121.5t-51 -115.5t-85 -52zM54 -118h1q46 0 75 92.5t29 164.5q0 75 -42 75q-32 0 -58 -45t-38 -100t-12 -101q0 -86 45 -86z" />
    <glyph glyph-name="oneinferior" unicode="&#x2081;" horiz-adv-x="179" 
d="M45 -147h-37l67 349h-2l-83 -42l-1 34l101 49h30z" />
    <glyph glyph-name="twoinferior" unicode="&#x2082;" horiz-adv-x="235" 
d="M144 -147h-211l6 26l38 35q46 43 75 73t57.5 76t28.5 83q0 67 -61 67q-34 0 -66 -25l-13 28q39 32 89 32q42 0 67 -26.5t25 -72.5q0 -30 -12 -60t-37.5 -61.5t-42 -49t-47.5 -47.5l-42 -41v-2h153z" />
    <glyph glyph-name="threeinferior" unicode="&#x2083;" horiz-adv-x="219" 
d="M9 189l-10 28q33 31 82 31q37 0 59.5 -21t22.5 -62q0 -31 -21.5 -56t-54.5 -39l-1 -2q65 -27 61 -97q-2 -53 -39 -88t-96 -35q-49 0 -84 25l15 31q37 -22 75 -22q40 0 63.5 25.5t23.5 68.5q0 75 -87 75h-5l5 29h6q40 0 69.5 24.5t29.5 60.5q0 25 -13.5 37.5t-36.5 12.5
q-34 0 -64 -26z" />
    <glyph glyph-name="fourinferior" unicode="&#x2084;" horiz-adv-x="246" 
d="M111 -147h-37l22 118h-145l4 20l193 257h38l-47 -246h49l-6 -31h-49zM102 2l23 119q4 20 11.5 47.5t7.5 29.5h-2l-55 -79l-81 -114l-1 -3h97z" />
    <glyph glyph-name="fiveinferior" unicode="&#x2085;" horiz-adv-x="222" 
d="M189 243l-8 -36h-108l-34 -108h13q36 0 63 -23q33 -27 33 -80q0 -63 -42 -105.5t-102 -42.5q-42 0 -62 14l12 33q20 -12 52 -12q43 0 72 31t29 75q0 78 -82 78q-11 0 -31 -2l52 178h143z" />
    <glyph glyph-name="sixinferior" unicode="&#x2086;" horiz-adv-x="247" 
d="M195 248l-4 -35q-4 0 -18 -2q-110 -22 -150 -149h1q34 42 79 42q37 0 57.5 -27.5t20.5 -69.5q0 -58 -34.5 -108.5t-88.5 -50.5q-45 0 -67 32.5t-22 85.5q0 62 25.5 123t62.5 96q40 38 91 54q22 7 47 9zM60 -120h1q36 0 57 40.5t21 84.5q0 66 -51 66q-42 0 -70 -48
q-4 -7 -6 -16q-4 -19 -4 -47q0 -36 13.5 -58t38.5 -22z" />
    <glyph glyph-name="seveninferior" unicode="&#x2087;" horiz-adv-x="219" 
d="M6 243h199l-5 -26q-16 -31 -56 -102t-91.5 -160t-59.5 -102h-43q4 8 94 160.5t111 192.5l-1 1h-155z" />
    <glyph glyph-name="eightinferior" unicode="&#x2088;" horiz-adv-x="254" 
d="M122 248h1q37 0 58.5 -23t21.5 -56q0 -70 -73 -109v-1q51 -36 51 -97q0 -49 -34.5 -81.5t-82.5 -32.5q-43 0 -69 25.5t-26 65.5q0 80 88 123v2q-41 35 -41 79q0 43 31 74t75 31zM67 -121h1q31 0 52 24t21 58q0 53 -55 83q-30 -12 -53 -39t-23 -62q0 -28 15 -46t42 -18z
M118 217h-1q-26 0 -44 -21t-18 -51q0 -42 46 -69q63 32 63 88q0 53 -46 53z" />
    <glyph glyph-name="nineinferior" unicode="&#x2089;" horiz-adv-x="243" 
d="M-31 -152l2 35q13 0 28 4q33 7 67 36q46 39 70 111h-1q-33 -36 -74 -36q-38 0 -58 27t-20 67q0 58 36.5 107t88.5 49q43 0 63.5 -30.5t20.5 -76.5q0 -64 -26.5 -129t-63.5 -102q-43 -44 -102 -58q-16 -4 -31 -4zM104 216h-1q-34 0 -56.5 -38.5t-22.5 -80.5q0 -67 49 -67
q41 0 66 42q4 7 7 19q6 26 6 51q0 74 -48 74z" />
    <glyph glyph-name="parenleftinferior" unicode="&#x208d;" horiz-adv-x="157" 
d="M112 282h36q-55 -62 -89 -144.5t-34 -170.5q0 -100 29 -172h-32q-33 73 -33 171q0 92 34.5 174.5t88.5 141.5z" />
    <glyph glyph-name="parenrightinferior" unicode="&#x208e;" horiz-adv-x="157" 
d="M-45 -205h-36q56 63 89.5 145t33.5 171q0 101 -29 171h32q33 -74 33 -169q0 -92 -35 -175t-88 -143z" />
    <glyph glyph-name="Euro" unicode="&#x20ac;" horiz-adv-x="360" 
d="M290 50l12 -30q-40 -28 -97 -28q-52 0 -85.5 28t-44.5 70t-15 90t4 87h-51l8 35h47q9 43 15 61h-47l7 35h50q13 45 33.5 87t50 82.5t70 65.5t86.5 25q38 0 68 -19l-17 -32q-23 14 -54 14q-48 0 -91 -39.5t-66.5 -86t-38.5 -97.5h179l-7 -35h-182q-8 -25 -14 -61h181
l-8 -35h-177q-27 -238 108 -238q40 0 76 21z" />
    <glyph glyph-name="afii61289" unicode="&#x2113;" horiz-adv-x="340" 
d="M169 518l-41 -215q70 72 119.5 157.5t49.5 159.5q0 27 -10.5 40t-24.5 13q-62 0 -93 -155zM270 81l18 -22q-17 -25 -51.5 -46.5t-79.5 -21.5q-61 0 -85.5 47.5t-8.5 130.5l8 40q-45 -32 -49 -35l-12 25q32 24 70 55l47 247q40 208 141 208q31 0 50.5 -21.5t19.5 -64.5
q0 -160 -220 -375l-10 -54q-18 -93 -1.5 -128.5t61.5 -35.5q51 0 102 51z" />
    <glyph glyph-name="afii61352" unicode="&#x2116;" horiz-adv-x="645" 
d="M527 332h-1q-36 0 -60 28t-24 81q0 48 14.5 97t49 86.5t80.5 37.5q38 0 60 -27.5t22 -80.5q0 -44 -12 -91.5t-46 -89t-83 -41.5zM606 286l-6 -35h-185l7 35h184zM435 674l-129 -674h-41l-67 366q-27 143 -36 245h-1q-11 -83 -57 -327l-54 -284h-39l129 674h41l63 -348
q31 -175 40 -258h2q14 101 53 308l57 298h39zM533 363h1q33 0 55.5 34t31 74t8.5 77q0 83 -50 83q-45 0 -70.5 -63t-25.5 -120q0 -85 50 -85z" />
    <glyph glyph-name="trademark" unicode="&#x2122;" horiz-adv-x="520" 
d="M100 674h171v-29h-70v-243h-31v243h-70v29zM540 402h-33l-10 185q-1 21 -3 58h-1q-3 -8 -8.5 -31.5t-8.5 -33.5l-46 -174h-37l-47 179q-7 28 -16 60h-1q0 -16 -2 -58l-10 -185h-31l17 272h48l46 -168q3 -11 8 -30.5t7 -26.5h1q2 8 7 27.5t7 27.5l46 170h48z" />
    <glyph glyph-name="estimated" unicode="&#x212e;" horiz-adv-x="817" 
d="M782 316h-605q-5 0 -5 -4v-183q0 -10 9 -21q93 -99 229 -99q145 0 240 111h55q-52 -61 -130 -96t-166 -35q-155 0 -264.5 98.5t-109.5 237.5t109.5 237.5t264.5 98.5t264 -98.5t109 -237.5v-9zM646 340v184q0 12 -10 22q-95 95 -226 95q-133 0 -228 -98q-10 -10 -10 -23
v-180q0 -5 5 -5h464q5 0 5 5z" />
    <glyph glyph-name="partialdiff" unicode="&#x2202;" horiz-adv-x="378" 
d="M133 656l-11 30q56 38 104 38q66 0 107.5 -53.5t41.5 -166.5q0 -66 -15 -148.5t-44 -166.5t-81.5 -140.5t-117.5 -56.5q-46 0 -74 35t-28 105q0 69 23.5 137t74.5 117.5t117 49.5q32 0 56 -18.5t33 -48.5h1q14 70 14 130q0 94 -30 140t-82 46q-47 0 -89 -29zM127 30h1
q58 0 108 83t73 203q-7 37 -31.5 59.5t-54.5 22.5q-54 0 -93 -47t-55.5 -106.5t-16.5 -116.5q0 -46 19 -72t50 -26z" />
    <glyph glyph-name="uni2206" unicode="&#x2206;" horiz-adv-x="402" 
d="M327 0h-349l5 27l276 631h40l34 -631zM28 35h267l-19 376q-6 106 -6 190h-4q-22 -63 -65 -165z" />
    <glyph glyph-name="product" unicode="&#x220f;" horiz-adv-x="430" 
d="M473 614h-54l-135 -704h-40l135 704h-192l-135 -704h-40l135 704h-54l7 36h380z" />
    <glyph glyph-name="summation" unicode="&#x2211;" horiz-adv-x="370" 
d="M293 -90h-337l6 33l249 337l-114 340l6 30h294l-6 -36h-249l-1 -4l114 -333l-241 -325l-1 -5h287z" />
    <glyph glyph-name="minus" unicode="&#x2212;" horiz-adv-x="596" 
d="M43 286h516v-38h-516v38z" />
    <glyph glyph-name="radical" unicode="&#x221a;" horiz-adv-x="440" 
d="M521 819l-342 -923h-33l-45 441l-66 -21l-6 31l105 37l33 -360q4 -32 4 -67h1q16 57 20 67l290 795h39z" />
    <glyph glyph-name="infinity" unicode="&#x221e;" horiz-adv-x="713" 
d="M533 129h-1q-18 0 -36.5 6t-30.5 11.5t-31.5 20.5t-26 21t-27 26.5t-23.5 22.5q-62 -62 -94 -81q-44 -27 -90 -27q-57 0 -94.5 37.5t-37.5 96.5q0 56 40.5 96t99.5 40q14 0 27.5 -3t24.5 -7t24.5 -13t21.5 -14t22 -18t19 -18l19.5 -19.5l17.5 -17.5q26 27 39 39
t38.5 32.5t51.5 29.5t55 9q57 0 94.5 -38t37.5 -98q0 -55 -40.5 -94.5t-99.5 -39.5zM535 167h1q41 0 69 28.5t28 67.5q0 42 -26.5 70t-68.5 28q-23 0 -44.5 -8t-44.5 -27.5t-33 -29t-33 -33.5q5 -4 31.5 -30t38 -35t35.5 -20t47 -11zM176 167h1q30 0 62 18t48 33.5t44 44.5
q-7 6 -32 30.5t-37.5 35t-36 21.5t-46.5 11q-42 0 -70 -29t-28 -69q0 -41 26.5 -68.5t68.5 -27.5z" />
    <glyph glyph-name="integral" unicode="&#x222b;" horiz-adv-x="210" 
d="M304 780l-12 -35q-12 4 -26 4q-26 0 -45 -19t-29 -50.5t-16 -60.5t-10 -62q-1 -7 -1 -10q-9 -62 -29.5 -230t-29.5 -236q-29 -222 -142 -222q-18 0 -30 7l9 35q14 -4 28 -4q70 0 97 186q11 77 32 249t27 218q5 38 10.5 66t17 62.5t26 56.5t39 37t54.5 15q18 0 30 -7z" />
    <glyph glyph-name="approxequal" unicode="&#x2248;" horiz-adv-x="596" 
d="M541 404l24 -29q-25 -26 -65 -45.5t-80 -19.5q-21 0 -42.5 4.5t-32.5 8.5t-31 12.5t-25 10.5q-6 2 -23 10t-28 12t-29.5 8t-36.5 4q-31 0 -64.5 -16.5t-56.5 -39.5l-24 29q25 26 65 45.5t80 19.5q21 0 42.5 -4.5t32.5 -8.5t31 -12.5t25 -10.5q6 -2 23 -10t28 -12t29.5 -8
t36.5 -4q31 0 64.5 16.5t56.5 39.5zM547 214l24 -29q-25 -26 -65 -45.5t-80 -19.5q-21 0 -42.5 4.5t-32.5 8.5t-31 12.5t-25 10.5q-6 2 -23 10t-28 12t-29.5 8t-36.5 4q-31 0 -64.5 -16.5t-56.5 -39.5l-24 29q25 26 65 45.5t80 19.5q21 0 42.5 -4.5t32.5 -8.5t31 -12.5
t25 -10.5q6 -2 23 -10t28 -12t29.5 -8t36.5 -4q31 0 64.5 16.5t56.5 39.5z" />
    <glyph glyph-name="notequal" unicode="&#x2260;" horiz-adv-x="596" 
d="M556 156h-309l-86 -135h-43l86 135h-164v38h188l97 152h-285v38h309l86 135h43l-86 -135h164v-38h-188l-97 -152h285v-38z" />
    <glyph glyph-name="lessequal" unicode="&#x2264;" horiz-adv-x="596" 
d="M525 88l-454 203v38l454 203v-43l-404 -178v-2l404 -178v-43zM525 0h-454v38h454v-38z" />
    <glyph glyph-name="greaterequal" unicode="&#x2265;" horiz-adv-x="596" 
d="M525 291l-454 -203v43l404 178v2l-404 178v43l454 -203v-38zM525 0h-454v38h454v-38z" />
    <glyph glyph-name="lozenge" unicode="&#x25ca;" horiz-adv-x="398" 
d="M380 325l-216 -333h-38l-88 333l216 333h38zM336 324l-68 265q-2 6 -4 24h-2q-4 -12 -12 -24l-168 -263l68 -265q2 -6 4 -24h2q5 14 12 24z" />
    <glyph glyph-name="uniEFED" unicode="&#xefed;" 
d="M243 731h-1q-14 0 -22.5 9t-8.5 24t11 26.5t27 11.5q32 0 32 -32q0 -15 -10.5 -27t-27.5 -12z" />
    <glyph glyph-name="uniEFEE" unicode="&#xefee;" 
d="M156 822h30q-2 -22 14.5 -38t44.5 -16q29 0 51 16t26 38h30q-4 -38 -33 -63.5t-77 -25.5t-70.5 26t-15.5 63z" />
    <glyph glyph-name="uniEFF1" unicode="&#xeff1;" 
d="M110 2h36q-72 -72 -72 -124q0 -18 11 -29t28 -11q21 0 41 11l8 -27q-25 -20 -65 -20q-29 0 -46.5 17.5t-17.5 48.5q0 57 77 134z" />
    <glyph glyph-name="uniEFF2" unicode="&#xeff2;" 
d="M101 5h35l-41 -61q53 -18 53 -69q0 -32 -24 -52.5t-58 -20.5q-42 0 -63 19l13 31q25 -15 50 -15q20 0 32.5 10t12.5 27q0 19 -18.5 31.5t-45.5 16.5z" />
    <glyph glyph-name="uniEFF3" unicode="&#xeff3;" 
d="M250 863h1q39 0 61 -21t22 -59q0 -41 -30 -65t-64 -24q-36 0 -59 21.5t-23 54.5q0 40 27.5 66.5t64.5 26.5zM250 834h-1q-22 0 -38.5 -16.5t-16.5 -43.5q0 -24 13 -37t36 -13q21 0 37.5 16t16.5 43q0 22 -12.5 36.5t-34.5 14.5z" />
    <glyph glyph-name="uniEFF5" unicode="&#xeff5;" 
d="M173 718h-30q3 35 20.5 57.5t43.5 22.5q17 0 42 -17q28 -18 39 -18q25 0 33 36h29q-9 -75 -67 -75q-20 0 -44 18q-25 17 -35 17q-22 0 -31 -41z" />
    <glyph glyph-name="uniEFF7" unicode="&#xeff7;" 
d="M232 815h40l62 -105h-42l-42 76h-2l-67 -76h-45z" />
    <glyph glyph-name="uniF629" unicode="&#xf629;" horiz-adv-x="217" 
d="M89 -6h-30l11 60q-35 7 -53 37q-15 26 -15 65q0 64 35.5 118.5t88.5 63.5l11 57h30l-11 -55q27 0 42 -13l-14 -30q-16 10 -43 10q-40 0 -69 -46t-29 -103q0 -33 14.5 -53t43.5 -20q22 0 48 12l4 -30q-23 -14 -53 -14z" />
    <glyph glyph-name="uniF62A" unicode="&#xf62a;" horiz-adv-x="217" 
d="M59 -50h-30l11 60q-42 3 -65 22l13 32q33 -22 65 -22q33 0 53.5 20t20.5 50q0 43 -43 75q-62 46 -62 95q0 37 24.5 65.5t66.5 33.5l11 57h30l-11 -57q34 -1 55 -18l-15 -31q-28 18 -55 18q-29 0 -47.5 -17.5t-18.5 -44.5q0 -22 11.5 -37t38.5 -35q56 -40 56 -94
q0 -48 -27 -77.5t-70 -34.5z" />
    <glyph glyph-name="uniF62B" unicode="&#xf62b;" horiz-adv-x="174" 
d="M3 195h137l-6 -33h-137z" />
    <glyph glyph-name="uniF62C" unicode="&#xf62c;" horiz-adv-x="157" 
d="M138 429h36q-55 -62 -89 -144.5t-34 -170.5q0 -100 29 -172h-32q-33 74 -33 171q0 92 34.5 174.5t88.5 141.5z" />
    <glyph glyph-name="uniF62D" unicode="&#xf62d;" horiz-adv-x="157" 
d="M-19 -58h-36q56 63 89.5 145t33.5 171q0 101 -29 171h32q33 -73 33 -169q0 -92 -35 -175t-88 -143z" />
    <glyph glyph-name="uniF62E" unicode="&#xf62e;" horiz-adv-x="217" 
d="M141 257h-30l11 60q-35 7 -53 37q-15 25 -15 65q0 64 35.5 118.5t88.5 63.5l11 57h30l-11 -55q27 0 42 -13l-14 -30q-16 10 -43 10q-40 0 -69 -46t-29 -103q0 -33 14.5 -53t43.5 -20q22 0 48 12l4 -30q-23 -14 -53 -14z" />
    <glyph glyph-name="uniF62F" unicode="&#xf62f;" horiz-adv-x="217" 
d="M111 213h-30l11 60q-42 3 -65 22l13 32q33 -22 65 -22q33 0 53.5 20t20.5 50q0 43 -43 75q-62 46 -62 95q0 37 24.5 65.5t66.5 33.5l11 57h30l-11 -57q34 -1 55 -18l-15 -31q-28 18 -55 18q-29 0 -47.5 -17.5t-18.5 -44.5q0 -22 11.5 -37t38.5 -35q56 -40 56 -94
q0 -48 -27 -77.5t-70 -34.5z" />
    <glyph glyph-name="uniF630" unicode="&#xf630;" horiz-adv-x="174" 
d="M55 458h137l-6 -33h-137z" />
    <glyph glyph-name="uniF631" unicode="&#xf631;" horiz-adv-x="157" 
d="M190 692h36q-55 -62 -89 -144.5t-34 -170.5q0 -100 29 -172h-32q-33 73 -33 171q0 92 34.5 174.5t88.5 141.5z" />
    <glyph glyph-name="uniF632" unicode="&#xf632;" horiz-adv-x="157" 
d="M33 205h-36q56 63 89.5 145t33.5 171q0 101 -29 171h32q33 -74 33 -169q0 -92 -35 -175t-88 -143z" />
    <glyph glyph-name="uniF633" unicode="&#xf633;" horiz-adv-x="560" 
d="M353 324l33 156q-11 4 -29 4q-67 0 -113 -73.5t-46 -153.5q0 -68 43 -68q35 0 68 42t44 93zM403 54l11 -30q-57 -37 -141 -37q-105 0 -168 70.5t-63 210.5q0 175 91.5 296t220.5 121q89 0 140 -61.5t51 -167.5q0 -144 -42.5 -222.5t-108.5 -78.5q-24 0 -38.5 19t-10.5 58
h-2q-46 -77 -109 -77q-35 0 -56.5 25.5t-21.5 77.5q0 56 22.5 113.5t74.5 102t121 44.5q34 0 57 -10l-44 -213q-22 -106 17 -106q40 0 71 72t31 173q0 215 -157 215q-110 0 -188.5 -108.5t-78.5 -274.5q0 -119 51.5 -180.5t150.5 -61.5q57 0 119 30z" />
    <glyph glyph-name="uniF634" unicode="&#xf634;" 
d="M26 -207l-8 25q33 7 57 27t24 51q0 34 -27 53l42 9q26 -20 26 -55q0 -46 -32 -74t-82 -36z" />
    <glyph glyph-name="uniF638" unicode="&#xf638;" horiz-adv-x="360" 
d="M71 133l239 438q-14 50 -55 50q-45 0 -82.5 -49t-58.5 -121t-32.5 -143.5t-11.5 -126.5q0 -33 1 -48zM317 520l-238 -438q14 -53 61 -53q44 0 80 55.5t56 135t31 152.5t11 122q0 4 -0.5 12.5t-0.5 13.5zM395 657l-45 -77q10 -37 10 -92q0 -57 -12 -134t-36.5 -161.5
t-71.5 -142.5t-107 -58q-51 0 -78 45l-32 -58l-29 18l45 78q-11 39 -11 102q0 62 13.5 139.5t39 156.5t72 132t104.5 53q52 0 77 -41l32 57z" />
    <glyph glyph-name="uniF639" unicode="&#xf639;" horiz-adv-x="360" 
d="M133 -8h-1q-104 0 -104 185q0 62 13.5 139.5t39 156.5t72 132t104.5 53q103 0 103 -170q0 -57 -12 -134t-36.5 -161.5t-71.5 -142.5t-107 -58zM140 29h1q35 0 65.5 37.5t50.5 93t34 121t20.5 121t6.5 92.5q0 127 -63 127q-45 0 -82.5 -49t-58.5 -121t-32.5 -143.5
t-11.5 -126.5q0 -77 14 -114.5t56 -37.5z" />
    <glyph glyph-name="uniF63A" unicode="&#xf63a;" horiz-adv-x="317" 
d="M239 0h-273l4 24l61 72q43 50 61.5 72.5t60.5 79t63 93.5t40 86t19 87q0 107 -86 107q-11 0 -21.5 -2.5t-18 -5t-16 -7.5t-12.5 -8t-10.5 -8.5t-7.5 -5.5l-14 30q52 44 108 44q59 0 89.5 -37.5t30.5 -99.5q0 -39 -14 -82.5t-32 -79t-51.5 -82.5t-55.5 -74.5t-61 -74.5
t-53 -64l-21 -26l1 -2h214z" />
    <glyph glyph-name="uniF63B" unicode="&#xf63b;" horiz-adv-x="298" 
d="M-22 13l12 34q36 -18 77 -18q66 0 109.5 52.5t43.5 125.5q0 67 -33.5 102.5t-80.5 34.5h-16l6 31h14q51 2 99.5 44.5t48.5 110.5q0 91 -83 91q-41 0 -70 -21l-11 33q40 25 95 25q50 0 80.5 -34.5t30.5 -86.5q0 -67 -37 -113t-90 -64v-2q39 -11 64 -51t25 -93
q0 -97 -58 -159.5t-142 -62.5q-50 0 -84 21z" />
    <glyph glyph-name="uniF63C" unicode="&#xf63c;" horiz-adv-x="360" 
d="M223 0h-39l37 195h-209l6 28l288 427h41l-80 -419h74l-7 -36h-74zM67 231h161l41 215q5 28 16.5 74t15.5 67h-3q-50 -86 -95 -153l-136 -201v-2z" />
    <glyph glyph-name="uniF63D" unicode="&#xf63d;" horiz-adv-x="312" 
d="M344 650l-10 -38h-155l-64 -207q5 1 15 1q24 0 53.5 -11.5t48.5 -31.5q43 -46 43 -128q0 -99 -61.5 -171t-153.5 -72q-54 0 -79 18l12 34q30 -15 66 -15q77 0 125 60t48 142q0 139 -127 139q-27 0 -40 -3l87 283h192z" />
    <glyph glyph-name="uniF63E" unicode="&#xf63e;" horiz-adv-x="353" 
d="M361 658v-38h-4q-80 -8 -154 -78t-111 -198h2q52 64 118 64q53 0 81.5 -43t28.5 -112q0 -39 -10.5 -82.5t-31 -84.5t-55 -67.5t-76.5 -26.5q-61 0 -91.5 51t-30.5 136q0 95 36.5 199.5t93.5 165.5q50 55 105 83.5t98 30.5h1zM149 29h1q34 0 60.5 23t40.5 58.5t21 72
t7 70.5q0 118 -81 118q-27 0 -56.5 -20t-52.5 -57q-8 -15 -11 -25q-10 -45 -10 -94q0 -65 21 -105.5t60 -40.5z" />
    <glyph glyph-name="uniF63F" unicode="&#xf63f;" horiz-adv-x="287" 
d="M72 650h288l-4 -22q-182 -363 -332 -628h-45q109 191 330 610l-2 2h-242z" />
    <glyph glyph-name="uniF640" unicode="&#xf640;" horiz-adv-x="360" 
d="M245 658h1q53 0 79 -36.5t26 -81.5q0 -120 -119 -193v-3q80 -74 80 -169q0 -73 -47.5 -128t-119.5 -55q-56 0 -91 39t-35 102q0 136 146 217v2q-69 66 -69 138q0 65 42.5 116.5t106.5 51.5zM151 29h1q53 0 85.5 44t32.5 104q0 85 -79 150q-50 -24 -90 -75.5t-40 -111.5
q0 -52 23.5 -81.5t66.5 -29.5zM240 621h-1q-43 0 -72 -36.5t-29 -92.5q0 -40 16.5 -67.5t49.5 -57.5q51 32 78 74.5t27 88.5q0 91 -69 91z" />
    <glyph glyph-name="uniF641" unicode="&#xf641;" horiz-adv-x="352" 
d="M32 -8l-4 37q3 1 31 9q54 17 102 60q81 73 121 209h-2q-51 -56 -109 -56q-54 0 -82 41.5t-28 109.5q0 90 52 173t130 83q56 0 83 -45.5t27 -114.5q0 -97 -36.5 -208.5t-92.5 -178.5q-67 -80 -155 -109q-27 -9 -37 -10zM236 621h-1q-41 0 -72.5 -38t-45.5 -85.5t-14 -89.5
q0 -120 78 -120q29 0 58 19t47 52q8 14 12 26q12 43 12 105q0 63 -15.5 97t-58.5 34z" />
    <glyph glyph-name="uniF642" unicode="&#xf642;" horiz-adv-x="642" 
d="M185 600h1q46 0 67.5 -37.5t21.5 -93.5q0 -53 -15 -110t-52.5 -103.5t-88.5 -46.5q-46 0 -68.5 37.5t-22.5 89.5q0 41 9 85t26.5 85t49.5 67.5t72 26.5zM177 566h-1q-37 0 -63 -43.5t-35.5 -90.5t-9.5 -84q0 -105 57 -105q36 0 63 43t37 91t10 85q0 104 -58 104zM131 -16
h-41l408 616h41zM517 385h1q46 0 67.5 -37.5t21.5 -93.5q0 -53 -15 -110t-52.5 -103.5t-88.5 -46.5q-46 0 -68.5 37.5t-22.5 89.5q0 41 9 85t26.5 85t49.5 67.5t72 26.5zM509 351h-1q-37 0 -63 -43.5t-35.5 -90.5t-9.5 -84q0 -105 57 -105q36 0 63 43t37 91t10 85
q0 104 -58 104z" />
    <glyph glyph-name="uniF643" unicode="&#xf643;" horiz-adv-x="368" 
d="M132 -8h-1q-46 0 -75 38t-29 115q0 48 12 105.5t34.5 114t63 94t90.5 37.5q46 0 76 -38.5t30 -117.5q0 -48 -12 -105t-35 -113t-63.5 -93t-90.5 -37zM139 29h1q38 0 69 35t47.5 87t25.5 101.5t9 87.5q0 119 -71 119q-38 0 -69 -35t-47.5 -86t-25.5 -100.5t-9 -87.5
q0 -121 70 -121z" />
    <glyph glyph-name="uniF644" unicode="&#xf644;" horiz-adv-x="368" 
d="M281 496l-94 -496h-39l84 450h-2l-151 -64l-3 34l175 76h30z" />
    <glyph glyph-name="uniF645" unicode="&#xf645;" horiz-adv-x="368" 
d="M267 37l-7 -37h-260l5 25l82 78q99 94 141 156t42 114q0 43 -22 64.5t-53 21.5q-39 0 -85 -33l-15 26q51 44 112 44q43 0 74 -31t31 -90q0 -60 -42 -121.5t-147 -162.5l-55 -53v-2q22 1 67 1h132z" />
    <glyph glyph-name="uniF646" unicode="&#xf646;" horiz-adv-x="368" 
d="M-14 -77l10 36q29 -18 85 -18q63 0 111.5 41t48.5 111q0 49 -31 80t-74 31q-8 0 -19.5 -0.5t-16.5 -0.5l4 34q2 1 10 1q57 7 106 48t49 94q0 39 -21.5 59t-54.5 20q-40 0 -76 -20l-10 29q38 28 97 28q45 0 76 -30.5t31 -80.5q0 -52 -36 -93t-91 -60v-2q40 -11 69.5 -46.5
t29.5 -86.5q0 -85 -58.5 -139t-146.5 -54q-57 0 -92 19z" />
    <glyph glyph-name="uniF647" unicode="&#xf647;" horiz-adv-x="368" 
d="M240 66l-32 -162h-39l32 162h-199l6 30l272 395h40l-73 -388h72l-7 -37h-72zM208 103l38 200q13 71 27 127h-4q-41 -74 -77 -126l-136 -198l1 -3h151z" />
    <glyph glyph-name="uniF648" unicode="&#xf648;" horiz-adv-x="368" 
d="M-3 -86l10 35q22 -8 61 -8q69 0 121.5 39.5t52.5 117.5q0 59 -37 94q-41 38 -130 41l84 253h189l-14 -38h-150l-62 -185q78 -8 117 -45q45 -45 45 -114q0 -91 -64.5 -145.5t-148.5 -54.5q-50 0 -74 10z" />
    <glyph glyph-name="uniF649" unicode="&#xf649;" horiz-adv-x="368" 
d="M147 29h1q48 0 89 64t41 139q0 55 -22 81t-53 26q-43 0 -83 -43q-52 -53 -52 -141q0 -65 21.5 -95.5t57.5 -30.5zM360 596l10 -31q-97 -31 -165 -99q-65 -65 -104 -153h2q59 63 118 63q40 0 69.5 -36t29.5 -99q0 -96 -55 -172.5t-126 -76.5q-53 0 -82 42t-29 118
q0 79 38.5 172.5t108.5 161.5q85 85 185 110z" />
    <glyph glyph-name="uniF64A" unicode="&#xf64a;" horiz-adv-x="368" 
d="M358 486l-5 -23q-58 -128 -145.5 -284t-171.5 -275l-39 10q72 98 168.5 268t136.5 261l1 5h-212l7 38h260z" />
    <glyph glyph-name="uniF64B" unicode="&#xf64b;" horiz-adv-x="368" 
d="M243 600h1q52 0 81.5 -36.5t29.5 -87.5q0 -52 -31 -88.5t-88 -74.5v-2q26 -24 40.5 -40t30 -46.5t15.5 -62.5q0 -72 -50.5 -121t-116.5 -49q-57 0 -93.5 39.5t-36.5 104.5q0 13 2.5 25.5t5.5 22.5t11 22t12 19t16.5 18.5t16.5 16t19 16.5t18 14t20 15t18 13v2
q-68 54 -68 129q0 60 42.5 105.5t104.5 45.5zM234 563h-1q-38 0 -66.5 -30.5t-28.5 -78.5q0 -67 72 -122q103 71 103 145q0 40 -21.5 63t-57.5 23zM160 29h1q49 0 84 37.5t35 85.5q0 42 -23 75t-67 69q-35 -24 -57.5 -42t-44 -51.5t-21.5 -68.5q0 -47 25 -76t68 -29z" />
    <glyph glyph-name="uniF64C" unicode="&#xf64c;" horiz-adv-x="368" 
d="M156 140h1q32 0 65 27.5t46 56.5q23 48 23 127q0 55 -20 81.5t-49 26.5q-57 0 -96 -70t-39 -143q0 -50 20 -78t49 -28zM3 -102l-8 34q21 4 36 8q173 48 234 228l-3 1q-53 -63 -115 -63q-42 0 -72 35t-30 99q0 54 20.5 111.5t64.5 101t100 43.5q47 0 75 -42.5t28 -112.5
q0 -166 -82 -285t-218 -153q-20 -4 -30 -5z" />
    <glyph glyph-name="uniF64E" unicode="&#xf64e;" horiz-adv-x="368" 
d="M273 44l9 -30q-32 -22 -89 -22q-74 0 -109 59.5t-28 135.5h-38l6 34h36q5 33 12 61h-39l7 34h42q27 84 82.5 139t136.5 55q35 0 63 -15l-14 -34q-26 12 -55 12q-63 0 -107 -46t-65 -111h166l-6 -34h-170q-10 -37 -12 -61h172l-6 -34h-170q-6 -64 18.5 -111t87.5 -47
q40 0 70 15z" />
    <glyph glyph-name="uniF64F" unicode="&#xf64f;" horiz-adv-x="368" 
d="M385 589l-14 -33q-19 7 -38 7q-40 0 -63.5 -36t-41.5 -105l-18 -72h89l-5 -34h-93l-59 -232q-25 -98 -60 -147t-88 -49q-42 0 -56 18l12 31q19 -12 41 -12q39 0 65.5 39.5t51.5 143.5l51 208h-80l4 34h85l15 60q8 31 15 53.5t20 50.5t28.5 45t38.5 29t52 12q28 0 48 -11z
" />
    <glyph glyph-name="uniF650" unicode="&#xf650;" horiz-adv-x="368" 
d="M124 215h81l50 175h-81zM63 0h-38l51 177h-59l6 38h64l50 175h-66l6 36h71l50 174h36l-50 -174h82l50 174h36l-50 -174h59l-6 -36h-63l-50 -175h67l-6 -36h-71l-51 -179h-38l52 179h-81z" />
    <glyph glyph-name="uniF651" unicode="&#xf651;" horiz-adv-x="368" 
d="M330 494l-14 -32q-24 11 -56 11q-59 0 -88 -53t-29 -140v-23h112l-6 -35h-105q2 -120 -75 -182v-3h221l-6 -37h-297l4 27q65 27 89.5 75.5t22.5 119.5h-74l6 35h67v27q0 92 41 159t123 67q36 0 64 -16z" />
    <glyph glyph-name="uniF652" unicode="&#xf652;" horiz-adv-x="368" 
d="M147 0h-39l24 124h-119l6 32h119l11 59h-119l6 32h109l-70 255h41l40 -164q14 -56 19 -80h3q5 8 54 82l108 162h45l-179 -255h109l-6 -32h-122l-11 -59h121l-6 -32h-121z" />
    <glyph glyph-name="uniF653" unicode="&#xf653;" horiz-adv-x="368" 
d="M132 -66h-32l13 66q-65 3 -104 35l20 31q41 -29 92 -29q48 0 84.5 29.5t36.5 73.5q0 52 -72 99q-50 33 -72.5 61.5t-22.5 63.5q0 46 36 80.5t93 41.5l14 72h32l-13 -71q53 -5 87 -30l-20 -32q-37 25 -81 25q-42 0 -72 -22t-30 -61q0 -27 16 -46.5t59 -48.5
q88 -58 88 -126q0 -57 -39 -96t-100 -48z" />
    <glyph glyph-name="uniF654" unicode="&#xf654;" horiz-adv-x="368" 
d="M240 114l6 -34q-32 -15 -71 -18l-13 -69h-35l13 72q-44 11 -67.5 45.5t-23.5 79.5q0 53 17.5 104t55.5 92.5t89 51.5l12 66h35l-12 -63q34 -1 61 -14l-19 -32q-22 10 -48 10q-66 0 -107.5 -62t-41.5 -148q0 -43 21.5 -70t60.5 -27q33 0 67 16z" />
    <glyph glyph-name="uniF655" unicode="&#xf655;" horiz-adv-x="250" 
d="M74 -5h-1q-78 0 -78 120q0 60 16.5 122.5t53 110t82.5 47.5q78 0 78 -111q0 -58 -15 -121.5t-51 -115.5t-85 -52zM80 29h1q46 0 75 92.5t29 164.5q0 75 -42 75q-32 0 -58 -45t-38 -100t-12 -101q0 -86 45 -86z" />
    <glyph glyph-name="uniF656" unicode="&#xf656;" horiz-adv-x="179" 
d="M71 0h-37l67 349h-2l-83 -42l-1 34l101 49h30z" />
    <glyph glyph-name="uniF657" unicode="&#xf657;" horiz-adv-x="235" 
d="M170 0h-211l6 26l38 35q46 43 75 73t57.5 76t28.5 83q0 67 -61 67q-34 0 -66 -25l-13 28q39 32 89 32q42 0 67 -26.5t25 -72.5q0 -30 -12 -60t-37.5 -61.5t-42 -49t-47.5 -47.5l-42 -41v-2h153z" />
    <glyph glyph-name="uniF658" unicode="&#xf658;" horiz-adv-x="219" 
d="M35 336l-10 28q33 31 82 31q37 0 59.5 -21t22.5 -62q0 -31 -21.5 -56t-54.5 -39l-1 -2q65 -27 61 -97q-2 -53 -39 -88t-96 -35q-49 0 -84 25l15 31q37 -22 75 -22q40 0 63.5 25.5t23.5 68.5q0 75 -87 75h-5l5 29h6q40 0 69.5 24.5t29.5 60.5q0 25 -13.5 37.5t-36.5 12.5
q-34 0 -64 -26z" />
    <glyph glyph-name="uniF659" unicode="&#xf659;" horiz-adv-x="246" 
d="M137 0h-37l22 118h-145l4 20l193 257h38l-47 -246h49l-6 -31h-49zM128 149l23 119q4 20 11.5 47.5t7.5 29.5h-2l-55 -79l-81 -114l-1 -3h97z" />
    <glyph glyph-name="uniF65A" unicode="&#xf65a;" horiz-adv-x="222" 
d="M215 390l-8 -36h-108l-34 -108h13q36 0 63 -23q33 -27 33 -80q0 -63 -42 -105.5t-102 -42.5q-42 0 -62 14l12 33q20 -12 52 -12q43 0 72 31t29 75q0 78 -82 78q-11 0 -31 -2l52 178h143z" />
    <glyph glyph-name="uniF65B" unicode="&#xf65b;" horiz-adv-x="247" 
d="M221 395l-4 -35q-4 0 -18 -2q-110 -22 -150 -149h1q34 42 79 42q37 0 57.5 -27.5t20.5 -69.5q0 -58 -34.5 -108.5t-88.5 -50.5q-45 0 -67 32.5t-22 85.5q0 62 25.5 123t62.5 96q40 38 91 54q22 7 47 9zM86 27h1q36 0 57 40.5t21 84.5q0 66 -51 66q-42 0 -70 -48
q-4 -7 -6 -16q-4 -19 -4 -47q0 -36 13.5 -58t38.5 -22z" />
    <glyph glyph-name="uniF65C" unicode="&#xf65c;" horiz-adv-x="219" 
d="M32 390h199l-5 -26q-16 -31 -56 -102t-91.5 -160t-59.5 -102h-43q4 8 94 160.5t111 192.5l-1 1h-155z" />
    <glyph glyph-name="uniF65D" unicode="&#xf65d;" horiz-adv-x="254" 
d="M148 395h1q37 0 58.5 -23t21.5 -56q0 -70 -73 -109v-1q51 -36 51 -97q0 -49 -34.5 -81.5t-82.5 -32.5q-43 0 -69 25.5t-26 65.5q0 80 88 123v2q-41 35 -41 79q0 43 31 74t75 31zM93 26h1q31 0 52 24t21 58q0 53 -55 83q-30 -12 -53 -39t-23 -62q0 -28 15 -46t42 -18z
M144 364h-1q-26 0 -44 -21t-18 -51q0 -42 46 -69q63 32 63 88q0 53 -46 53z" />
    <glyph glyph-name="uniF65E" unicode="&#xf65e;" horiz-adv-x="243" 
d="M-5 -5l2 35q13 0 28 4q33 7 67 36q46 39 70 111h-1q-33 -36 -74 -36q-38 0 -58 27t-20 67q0 58 36.5 107t88.5 49q43 0 63.5 -30.5t20.5 -76.5q0 -64 -26.5 -129t-63.5 -102q-43 -44 -102 -58q-16 -4 -31 -4zM130 363h-1q-34 0 -56.5 -38.5t-22.5 -80.5q0 -67 49 -67
q41 0 66 42q4 7 7 19q6 26 6 51q0 74 -48 74z" />
    <glyph glyph-name="uniF65F" unicode="&#xf65f;" horiz-adv-x="115" 
d="M-23 -71l-31 -4q35 66 54 137l49 6q-36 -91 -72 -139z" />
    <glyph glyph-name="uniF660" unicode="&#xf660;" horiz-adv-x="115" 
d="M15 -5h-1q-26 0 -26 30q0 14 9 24.5t22 10.5q28 0 28 -30q0 -14 -9.5 -24.5t-22.5 -10.5z" />
    <glyph glyph-name="uniF661" unicode="&#xf661;" horiz-adv-x="250" 
d="M126 258h-1q-78 0 -78 120q0 60 16.5 122.5t53 110t82.5 47.5q78 0 78 -111q0 -58 -15 -121.5t-51 -115.5t-85 -52zM132 292h1q46 0 75 92.5t29 164.5q0 75 -42 75q-32 0 -58 -45t-38 -100t-12 -101q0 -86 45 -86z" />
    <glyph glyph-name="uniF662" unicode="&#xf662;" horiz-adv-x="179" 
d="M123 263h-37l67 349h-2l-83 -42l-1 34l101 49h30z" />
    <glyph glyph-name="uniF663" unicode="&#xf663;" horiz-adv-x="235" 
d="M222 263h-211l6 26l38 35q46 43 75 73t57.5 76t28.5 83q0 67 -61 67q-34 0 -66 -25l-13 28q39 32 89 32q42 0 67 -26.5t25 -72.5q0 -30 -12 -60t-37.5 -61.5t-42 -49t-47.5 -47.5l-42 -41v-2h153z" />
    <glyph glyph-name="uniF664" unicode="&#xf664;" horiz-adv-x="219" 
d="M87 599l-10 28q33 31 82 31q37 0 59.5 -21t22.5 -62q0 -31 -21.5 -56t-54.5 -39l-1 -2q65 -27 61 -97q-2 -53 -39 -88t-96 -35q-49 0 -84 25l15 31q37 -22 75 -22q40 0 63.5 25.5t23.5 68.5q0 75 -87 75h-5l5 29h6q40 0 69.5 24.5t29.5 60.5q0 25 -13.5 37.5t-36.5 12.5
q-34 0 -64 -26z" />
    <glyph glyph-name="uniF665" unicode="&#xf665;" horiz-adv-x="246" 
d="M189 263h-37l22 118h-145l4 20l193 257h38l-47 -246h49l-6 -31h-49zM180 412l23 119q4 20 11.5 47.5t7.5 29.5h-2l-55 -79l-81 -114l-1 -3h97z" />
    <glyph glyph-name="uniF666" unicode="&#xf666;" horiz-adv-x="222" 
d="M267 653l-8 -36h-108l-34 -108h13q36 0 63 -23q33 -27 33 -80q0 -63 -42 -105.5t-102 -42.5q-42 0 -62 14l12 33q20 -12 52 -12q43 0 72 31t29 75q0 78 -82 78q-11 0 -31 -2l52 178h143z" />
    <glyph glyph-name="uniF667" unicode="&#xf667;" horiz-adv-x="247" 
d="M273 658l-4 -35q-4 0 -18 -2q-110 -22 -150 -149h1q34 42 79 42q37 0 57.5 -27.5t20.5 -69.5q0 -58 -34.5 -108.5t-88.5 -50.5q-45 0 -67 32.5t-22 85.5q0 62 25.5 123t62.5 96q40 38 91 54q22 7 47 9zM138 290h1q36 0 57 40.5t21 84.5q0 66 -51 66q-42 0 -70 -48
q-4 -7 -6 -16q-4 -19 -4 -47q0 -36 13.5 -58t38.5 -22z" />
    <glyph glyph-name="uniF668" unicode="&#xf668;" horiz-adv-x="219" 
d="M84 653h199l-5 -26q-16 -31 -56 -102t-91.5 -160t-59.5 -102h-43q4 8 94 160.5t111 192.5l-1 1h-155z" />
    <glyph glyph-name="uniF669" unicode="&#xf669;" horiz-adv-x="254" 
d="M200 658h1q37 0 58.5 -23t21.5 -56q0 -70 -73 -109v-1q51 -36 51 -97q0 -49 -34.5 -81.5t-82.5 -32.5q-43 0 -69 25.5t-26 65.5q0 80 88 123v2q-41 35 -41 79q0 43 31 74t75 31zM145 289h1q31 0 52 24t21 58q0 53 -55 83q-30 -12 -53 -39t-23 -62q0 -28 15 -46t42 -18z
M196 627h-1q-26 0 -44 -21t-18 -51q0 -42 46 -69q63 32 63 88q0 53 -46 53z" />
    <glyph glyph-name="uniF66A" unicode="&#xf66a;" horiz-adv-x="243" 
d="M47 258l2 35q13 0 28 4q33 7 67 36q46 39 70 111h-1q-33 -36 -74 -36q-38 0 -58 27t-20 67q0 58 36.5 107t88.5 49q43 0 63.5 -30.5t20.5 -76.5q0 -64 -26.5 -129t-63.5 -102q-43 -44 -102 -58q-16 -4 -31 -4zM182 626h-1q-34 0 -56.5 -38.5t-22.5 -80.5q0 -67 49 -67
q41 0 66 42q4 7 7 19q6 26 6 51q0 74 -48 74z" />
    <glyph glyph-name="uniF66B" unicode="&#xf66b;" horiz-adv-x="115" 
d="M29 192l-31 -4q35 66 54 137l49 6q-36 -91 -72 -139z" />
    <glyph glyph-name="uniF66C" unicode="&#xf66c;" horiz-adv-x="115" 
d="M67 258h-1q-26 0 -26 30q0 14 9 24.5t22 10.5q28 0 28 -30q0 -14 -9.5 -24.5t-22.5 -10.5z" />
    <glyph glyph-name="uniF6AE" unicode="&#xf6ae;" horiz-adv-x="250" 
d="M269 734h43q-97 -111 -148 -246.5t-51 -267.5q0 -191 40 -298h-37q-45 115 -45 290q0 140 52 277.5t146 244.5z" />
    <glyph glyph-name="uniF6AF" unicode="&#xf6af;" horiz-adv-x="250" 
d="M5 -78h-44q97 111 148 246.5t51 267.5q0 191 -40 298h37q45 -115 45 -290q0 -140 -52 -277.5t-145 -244.5z" />
    <glyph glyph-name="uniF6B0" unicode="&#xf6b0;" horiz-adv-x="250" 
d="M152 -70h-126l152 798h126l-7 -34h-85l-139 -730h85z" />
    <glyph glyph-name="uniF6B1" unicode="&#xf6b1;" horiz-adv-x="250" 
d="M124 728h127l-152 -798h-127l6 34h87l139 730h-87z" />
    <glyph glyph-name="uniF6B2" unicode="&#xf6b2;" horiz-adv-x="250" 
d="M50 313l6 32q70 0 85 80q6 32 12 93.5t11 91.5q11 64 40.5 91t78.5 27h21l-7 -34h-16q-61 0 -75 -76q-7 -34 -11.5 -91t-8.5 -81q-10 -59 -30.5 -83t-55.5 -33v-2q27 -7 38 -23.5t11 -46.5q0 -27 -27 -118q-27 -89 -27 -118q0 -25 10 -39.5t39 -18.5h14l-6 -34h-6
q-38 0 -65 22.5t-27 65.5q0 38 27 125q27 89 27 115q0 55 -58 55z" />
    <glyph glyph-name="uniF6B3" unicode="&#xf6b3;" horiz-adv-x="250" 
d="M226 345l-6 -32q-70 0 -85 -80q-6 -32 -12 -93.5t-11 -91.5q-11 -64 -40.5 -91t-78.5 -27h-21l7 34h16q61 0 75 76q7 34 11.5 91t8.5 81q10 59 30.5 83t55.5 33v2q-27 7 -38 23.5t-11 46.5q0 26 27 117q27 89 27 119q0 26 -10 40t-39 18h-14l6 34h6q38 0 65 -22.5
t27 -65.5q0 -39 -27 -126t-27 -114q0 -55 58 -55z" />
    <glyph glyph-name="uniF6B4" unicode="&#xf6b4;" horiz-adv-x="184" 
d="M66 0h-48l104 506h34zM169 686h1q14 0 22.5 -10t8.5 -27t-11 -30t-27 -13q-32 0 -32 36q0 17 11 30.5t27 13.5z" />
    <glyph glyph-name="uniF6B5" unicode="&#xf6b5;" horiz-adv-x="294" 
d="M189 506h39v-12q-2 -109 -79 -212q-6 -7 -28 -33t-34.5 -42.5t-24.5 -47.5t-12 -62q0 -34 21 -53t53 -19q39 0 68 21l13 -33q-45 -25 -93 -25q-50 0 -77.5 32t-27.5 83q0 23 6.5 46t21.5 47t25 37.5t32.5 40.5l27.5 33q35 45 50 85.5t18 99.5zM240 686h1q14 0 22.5 -10
t8.5 -27t-11 -30t-27 -13q-32 0 -32 36q0 17 11 30.5t27 13.5z" />
    <glyph glyph-name="uniF6B6" unicode="&#xf6b6;" horiz-adv-x="336" 
d="M209 495l-124 -168l78 -168h-40l-81 168l125 168h42zM341 495l-124 -168l78 -168h-40l-81 168l125 168h42z" />
    <glyph glyph-name="uniF6B7" unicode="&#xf6b7;" horiz-adv-x="336" 
d="M143 327l-78 168h39l82 -168l-123 -168h-44zM275 327l-78 168h39l82 -168l-123 -168h-44z" />
    <glyph glyph-name="uniF6B8" unicode="&#xf6b8;" horiz-adv-x="204" 
d="M209 495l-124 -168l78 -168h-40l-81 168l125 168h42z" />
    <glyph glyph-name="uniF6B9" unicode="&#xf6b9;" horiz-adv-x="204" 
d="M143 327l-78 168h39l82 -168l-123 -168h-44z" />
    <glyph glyph-name="uniF6BA" unicode="&#xf6ba;" horiz-adv-x="291" 
d="M45 346h232l-7 -38h-232z" />
    <glyph glyph-name="uniF6BB" unicode="&#xf6bb;" horiz-adv-x="500" 
d="M46 352h441l-6 -34h-441z" />
    <glyph glyph-name="uniF6BC" unicode="&#xf6bc;" horiz-adv-x="1000" 
d="M46 352h941l-6 -34h-941z" />
    <glyph glyph-name="uniF6BD" unicode="&#xf6bd;" horiz-adv-x="170" 
d="M90 292h-1q-14 0 -22.5 10t-8.5 27t11 30t27 13q32 0 32 -36q0 -17 -11 -30.5t-27 -13.5z" />
    <glyph glyph-name="commaaccent" unicode="&#xf6c3;" 
d="M26 -207l-8 25q33 7 57 27t24 51q0 34 -27 53l42 9q26 -20 26 -55q0 -46 -32 -74t-82 -36z" />
    <glyph glyph-name="afii10063" unicode="&#xf6c4;" horiz-adv-x="156" 
d="M47 0h-39l92 480h39zM45 606h187l-6 -36h-187z" />
    <glyph glyph-name="afii10192" unicode="&#xf6c6;" horiz-adv-x="352" 
d="M-10 -176l14 35q37 -22 78 -22q53 0 79.5 38t44.5 120l19 87h-2q-53 -90 -118 -90q-39 0 -62.5 34.5t-23.5 105.5q0 55 13.5 114t40.5 114.5t74.5 91.5t107.5 36q40 0 80 -20l-79 -420q-30 -160 -71 -202q-43 -46 -106 -46q-53 0 -89 24zM244 212l45 229q-17 10 -51 10
q-54 0 -95.5 -53.5t-60.5 -120t-21 -127.5q-4 -121 55 -121q42 0 78.5 58.5t49.5 124.5z" />
    <glyph glyph-name="afii10831" unicode="&#xf6c7;" horiz-adv-x="363" 
d="M306 480h39l-58 -311q-16 -83 -21 -169h-38l8 82h-2q-53 -90 -130 -90q-37 0 -56 26.5t-19 64.5q0 33 6 61l63 336h39l-60 -320q-8 -40 -8 -74q0 -57 48 -57q43 0 83 51.5t54 123.5zM141 606h199l-6 -36h-199z" />
    <glyph glyph-name="afii10832" unicode="&#xf6c8;" horiz-adv-x="555" 
d="M98 480h39l-60 -320q-8 -40 -8 -76q0 -55 46 -55q40 0 78.5 52t52.5 123l52 276h39l-60 -320q-8 -40 -8 -76q0 -55 46 -55q38 0 78 54t53 121l52 276h39l-58 -311q-13 -68 -21 -169h-38q6 56 8 84h-2q-56 -92 -122 -92q-37 0 -56 26.5t-20 64.5q-55 -91 -124 -91
q-37 0 -56 26.5t-19 64.5q0 29 10 81zM141 606h392l-6 -36h-392z" />
    <glyph glyph-name="Acute" unicode="&#xf6c9;" 
d="M276 815h65l-126 -105h-41z" />
    <glyph glyph-name="Caron" unicode="&#xf6ca;" 
d="M255 710h-40l-62 105h42l42 -76h2l67 76h45z" />
    <glyph glyph-name="Dieresis" unicode="&#xf6cb;" 
d="M171 731h-1q-14 0 -22.5 9t-8.5 24t11 26.5t27 11.5q32 0 32 -32q0 -15 -10.5 -27t-27.5 -12zM314 731h-1q-14 0 -22.5 9t-8.5 24t11 26.5t27 11.5q32 0 32 -32q0 -15 -10.5 -27t-27.5 -12z" />
    <glyph glyph-name="DieresisAcute" unicode="&#xf6cc;" 
d="M140 731h-1q-13 0 -22 8.5t-9 24.5q0 15 11 26.5t27 11.5q32 0 32 -32q0 -17 -11.5 -28t-26.5 -11zM264 815h65l-126 -105h-41zM349 731h-1q-13 0 -22 8.5t-9 24.5q0 15 11 26.5t27 11.5q32 0 32 -32q0 -17 -11.5 -28t-26.5 -11z" />
    <glyph glyph-name="DieresisGrave" unicode="&#xf6cd;" horiz-adv-x="301" 
d="M128 731h-1q-13 0 -22 8.5t-9 24.5q0 15 11 26.5t27 11.5q32 0 32 -32q0 -17 -11.5 -28t-26.5 -11zM156 815h65l102 -105h-41zM337 731h-1q-13 0 -22 8.5t-9 24.5q0 15 11 26.5t27 11.5q32 0 32 -32q0 -17 -11.5 -28t-26.5 -11z" />
    <glyph glyph-name="Grave" unicode="&#xf6ce;" 
d="M129 815h65l102 -105h-41z" />
    <glyph glyph-name="Hungarumlaut" unicode="&#xf6cf;" 
d="M208 815h64l-122 -92h-42zM323 815h64l-122 -92h-42z" />
    <glyph glyph-name="Macron" unicode="&#xf6d0;" 
d="M154 770h187l-7 -36h-187z" />
    <glyph glyph-name="cyrBreve" unicode="&#xf6d1;" 
d="M151 822h37q1 -25 15.5 -41t41.5 -16q29 0 49 15.5t25 41.5h38q-6 -37 -36.5 -63t-78.5 -26q-44 0 -68 25.5t-23 63.5z" />
    <glyph glyph-name="cyrFlex" unicode="&#xf6d2;" 
d="M345 739h-37q-1 25 -15.5 41t-41.5 16q-29 0 -49 -15.5t-25 -41.5h-38q6 37 36.5 63t78.5 26q44 0 68 -25.5t23 -63.5z" />
    <glyph glyph-name="dblGrave" unicode="&#xf6d3;" horiz-adv-x="323" 
d="M59 815h65l102 -105h-41zM182 815h65l102 -105h-41z" />
    <glyph glyph-name="cyrbreve" unicode="&#xf6d4;" horiz-adv-x="302" 
d="M124 659h38q-3 -32 12 -51t43 -19q61 0 75 70h38q-9 -47 -40 -75.5t-76 -28.5q-50 0 -72.5 29t-17.5 75z" />
    <glyph glyph-name="cyrflex" unicode="&#xf6d5;" 
d="M314 558h-38q3 32 -12 51t-43 19q-61 0 -75 -70h-38q9 47 40 75.5t76 28.5q50 0 72.5 -29t17.5 -75z" />
    <glyph glyph-name="dblgrave" unicode="&#xf6d6;" 
d="M24 661h69l91 -127h-38zM154 661h69l91 -127h-38z" />
    <glyph glyph-name="dieresisacute" unicode="&#xf6d7;" horiz-adv-x="301" 
d="M119 573h-1q-13 0 -22 8.5t-9 24.5q0 15 11 26.5t27 11.5q32 0 32 -32q0 -18 -11.5 -28.5t-26.5 -10.5zM232 667h57l-107 -132h-32zM317 573h-1q-13 0 -22 8.5t-9 24.5q0 15 11 26.5t27 11.5q32 0 32 -32q0 -18 -11.5 -28.5t-26.5 -10.5z" />
    <glyph glyph-name="dieresisgrave" unicode="&#xf6d8;" 
d="M79 573h-1q-13 0 -22 8.5t-9 24.5q0 15 11 26.5t27 11.5q32 0 32 -32q0 -18 -11.5 -28.5t-26.5 -10.5zM112 667h57l82 -132h-32zM276 573h-1q-13 0 -22 8.5t-9 24.5q0 15 11 26.5t27 11.5q32 0 32 -32q0 -18 -11.5 -28.5t-26.5 -10.5z" />
    <glyph glyph-name="uniF6DC" unicode="&#xf6dc;" horiz-adv-x="257" 
d="M90 0l112 600h-2l-117 -66l-5 34l144 82h30l-123 -650h-39z" />
    <glyph glyph-name="centinferior" unicode="&#xf6df;" horiz-adv-x="217" 
d="M63 -153h-30l11 60q-35 7 -53 37q-15 26 -15 65q0 64 35.5 118.5t88.5 63.5l11 57h30l-11 -55q27 0 42 -13l-14 -30q-16 10 -43 10q-40 0 -69 -46t-29 -103q0 -33 14.5 -53t43.5 -20q22 0 48 12l4 -30q-23 -14 -53 -14z" />
    <glyph glyph-name="centsuperior" unicode="&#xf6e0;" horiz-adv-x="217" 
d="M169 397h-30l11 60q-35 7 -53 37q-15 26 -15 65q0 64 35.5 118.5t88.5 63.5l11 57h30l-11 -55q27 0 42 -13l-14 -30q-16 10 -43 10q-40 0 -69 -46t-29 -103q0 -33 14.5 -53t43.5 -20q22 0 48 12l4 -30q-23 -14 -53 -14z" />
    <glyph glyph-name="commainferior" unicode="&#xf6e1;" horiz-adv-x="115" 
d="M-49 -218l-31 -4q35 66 54 137l49 6q-36 -91 -72 -139z" />
    <glyph glyph-name="commasuperior" unicode="&#xf6e2;" horiz-adv-x="115" 
d="M57 332l-31 -4q35 66 54 137l49 6q-36 -91 -72 -139z" />
    <glyph glyph-name="dollarinferior" unicode="&#xf6e3;" horiz-adv-x="217" 
d="M33 -197h-30l11 60q-42 3 -65 22l13 32q33 -22 65 -22q33 0 53.5 20t20.5 50q0 43 -43 75q-62 46 -62 95q0 37 24.5 65.5t66.5 33.5l11 57h30l-11 -57q34 -1 55 -18l-15 -31q-28 18 -55 18q-29 0 -47.5 -17.5t-18.5 -44.5q0 -22 11.5 -37t38.5 -35q56 -40 56 -94
q0 -48 -27 -77.5t-70 -34.5z" />
    <glyph glyph-name="dollarsuperior" unicode="&#xf6e4;" horiz-adv-x="217" 
d="M139 353h-30l11 60q-42 3 -65 22l13 32q33 -22 65 -22q33 0 53.5 20t20.5 50q0 43 -43 75q-62 46 -62 95q0 37 24.5 65.5t66.5 33.5l11 57h30l-11 -57q34 -1 55 -18l-15 -31q-28 18 -55 18q-29 0 -47.5 -17.5t-18.5 -44.5q0 -22 11.5 -37t38.5 -35q56 -40 56 -94
q0 -48 -27 -77.5t-70 -34.5z" />
    <glyph glyph-name="hypheninferior" unicode="&#xf6e5;" horiz-adv-x="174" 
d="M-23 48h137l-6 -33h-137z" />
    <glyph glyph-name="hyphensuperior" unicode="&#xf6e6;" horiz-adv-x="174" 
d="M83 598h137l-6 -33h-137z" />
    <glyph glyph-name="periodinferior" unicode="&#xf6e7;" horiz-adv-x="115" 
d="M-11 -152h-1q-26 0 -26 30q0 14 9 24.5t22 10.5q28 0 28 -30q0 -14 -9.5 -24.5t-22.5 -10.5z" />
    <glyph glyph-name="periodsuperior" unicode="&#xf6e8;" horiz-adv-x="115" 
d="M95 398h-1q-26 0 -26 30q0 14 9 24.5t22 10.5q28 0 28 -30q0 -14 -9.5 -24.5t-22.5 -10.5z" />
    <glyph glyph-name="zerooldstyle" unicode="&#xf730;" horiz-adv-x="368" 
d="M132 -8h-1q-46 0 -75 38t-29 115q0 48 12 105.5t34.5 114t63 94t90.5 37.5q46 0 76 -38.5t30 -117.5q0 -48 -12 -105t-35 -113t-63.5 -93t-90.5 -37zM139 29h1q38 0 69 35t47.5 87t25.5 101.5t9 87.5q0 119 -71 119q-38 0 -69 -35t-47.5 -86t-25.5 -100.5t-9 -87.5
q0 -121 70 -121z" />
    <glyph glyph-name="oneoldstyle" unicode="&#xf731;" horiz-adv-x="258" 
d="M219 496l-94 -496h-39l83 446h-2l-108 -61l-5 34l135 77h30z" />
    <glyph glyph-name="twooldstyle" unicode="&#xf732;" horiz-adv-x="311" 
d="M232 37l-7 -37h-260l5 25l82 78q99 94 141 156t42 114q0 43 -22 64.5t-53 21.5q-39 0 -85 -33l-15 26q51 44 112 44q43 0 74 -31t31 -90q0 -60 -42 -121.5t-147 -162.5l-55 -53v-2q22 1 67 1h132z" />
    <glyph glyph-name="threeoldstyle" unicode="&#xf733;" horiz-adv-x="314" 
d="M-48 -77l10 36q29 -18 85 -18q63 0 111.5 41t48.5 111q0 49 -31 80t-74 31q-8 0 -20 -0.5t-16 -0.5l4 34q2 1 10 1q57 7 106 48t49 94q0 39 -21.5 59t-54.5 20q-40 0 -76 -20l-10 29q38 28 97 28q45 0 76 -30.5t31 -80.5q0 -52 -36 -93t-91 -60v-2q40 -11 69.5 -46.5
t29.5 -86.5q0 -85 -58.5 -139t-146.5 -54q-57 0 -92 19z" />
    <glyph glyph-name="fouroldstyle" unicode="&#xf734;" horiz-adv-x="370" 
d="M234 66l-32 -162h-39l32 162h-199l6 30l272 395h40l-73 -388h72l-7 -37h-72zM202 103l38 200q13 71 27 127h-4q-41 -74 -77 -126l-136 -198l1 -3h151z" />
    <glyph glyph-name="fiveoldstyle" unicode="&#xf735;" horiz-adv-x="320" 
d="M-33 -86l10 35q22 -8 61 -8q69 0 121.5 39.5t52.5 117.5q0 59 -37 94q-41 38 -130 41l84 253h189l-14 -38h-150l-62 -185q78 -8 117 -45q45 -45 45 -114q0 -91 -64.5 -145.5t-148.5 -54.5q-50 0 -74 10z" />
    <glyph glyph-name="sixoldstyle" unicode="&#xf736;" horiz-adv-x="367" 
d="M148 29h1q48 0 89 64t41 139q0 55 -22 81t-53 26q-43 0 -83 -43q-52 -53 -52 -141q0 -65 21.5 -95.5t57.5 -30.5zM361 596l10 -31q-97 -31 -165 -99q-65 -65 -104 -153h2q59 63 118 63q40 0 69.5 -36t29.5 -99q0 -96 -55 -172.5t-126 -76.5q-53 0 -82 42t-29 118
q0 79 38.5 172.5t108.5 161.5q85 85 185 110z" />
    <glyph glyph-name="sevenoldstyle" unicode="&#xf737;" horiz-adv-x="316" 
d="M326 486l-5 -23q-58 -128 -145.5 -284t-171.5 -275l-39 10q72 98 168.5 268t136.5 261l1 5h-212l7 38h260z" />
    <glyph glyph-name="eightoldstyle" unicode="&#xf738;" horiz-adv-x="392" 
d="M245 600h1q52 0 81.5 -36.5t29.5 -87.5q0 -52 -31 -88.5t-88 -74.5v-2q26 -24 40.5 -40t30 -46.5t15.5 -62.5q0 -72 -50.5 -121t-116.5 -49q-57 0 -93.5 39.5t-36.5 104.5q0 13 2.5 25.5t5.5 22.5t11 22t12 19t16.5 18.5t16.5 16t19 16.5t18 14t20 15t18 13v2
q-68 54 -68 129q0 60 42.5 105.5t104.5 45.5zM236 563h-1q-38 0 -66.5 -30.5t-28.5 -78.5q0 -67 72 -122q103 71 103 145q0 40 -21.5 63t-57.5 23zM162 29h1q49 0 84 37.5t35 85.5q0 42 -23 75t-67 69q-35 -24 -57.5 -42t-44 -51.5t-21.5 -68.5q0 -47 25 -76t68 -29z" />
    <glyph glyph-name="nineoldstyle" unicode="&#xf739;" horiz-adv-x="364" 
d="M153 140h1q32 0 65 27.5t46 56.5q23 48 23 127q0 55 -20 81.5t-49 26.5q-57 0 -96 -70t-39 -143q0 -50 20 -78t49 -28zM0 -102l-8 34q21 4 36 8q173 48 234 228l-3 1q-53 -63 -115 -63q-42 0 -72 35t-30 99q0 54 20.5 111.5t64.5 101t100 43.5q47 0 75 -42.5t28 -112.5
q0 -166 -82 -285t-218 -153q-20 -4 -30 -5z" />
    </font>
</defs>
</svg>
