<?xml version="1.0" standalone="no"?>
<!DOCTYPE svg PUBLIC "-//W3C//DTD SVG 1.1//EN" "http://www.w3.org/Graphics/SVG/1.1/DTD/svg11.dtd" >
<svg xmlns="http://www.w3.org/2000/svg" xmlns:xlink="http://www.w3.org/1999/xlink" version="1.1">
<metadata>
Created by FontForge 20170924 at Fri Feb  6 00:54:48 2015
 By www-data
Copyright (C) 2006, 2014 Hoefler &#38; Co. http://www.typography.com
</metadata>
<defs>
<font id="Quarto-Bold" horiz-adv-x="500" >
  <font-face 
    font-family="Quarto Bold"
    font-weight="700"
    font-stretch="normal"
    units-per-em="1000"
    panose-1="0 0 0 0 0 0 0 0 0 0"
    ascent="800"
    descent="-200"
    x-height="459"
    cap-height="668"
    bbox="-94 -323 1113 952"
    underline-thickness="50"
    underline-position="-100"
    unicode-range="U+0020-FB04"
  />
<missing-glyph 
d="M500 -200h-500v1000h500v-1000zM429 750h-358l179 -390zM50 676v-752l172 376zM450 -76v752l-172 -376zM429 -150l-179 390l-179 -390h358z" />
    <glyph glyph-name="f_f" unicode="ff" horiz-adv-x="617" 
d="M590 706q57 0 92 -23.5t35 -57.5q0 -29 -22 -49.5t-50 -20.5q-18 0 -33 27l-48 87q-9 16 -17 16q-28 0 -45 -51t-15 -144l2 -31h140l-18 -68h-121v-358q0 -12 4.5 -16t23.5 -6l31 -3v-8h-237v8l12 2q16 3 20.5 7.5t4.5 16.5v357h-134v-358q0 -12 5 -16.5t20 -5.5l26 -3
v-8h-235v8l16 3q18 3 22.5 7t4.5 16v357h-71v5l73 62l2 19q10 90 76 150q64 57 164 57q72 0 109 -39q64 61 163 61zM213 482l1 -23h135l3 23q3 32 12 60q-5 3 -14 17l-57 88q-11 17 -18 17q-29 0 -46.5 -48t-15.5 -134z" />
    <glyph glyph-name="fi" unicode="fi" horiz-adv-x="545" 
d="M348 391h-133v-358q0 -12 5 -16.5t20 -5.5l26 -3v-8h-235v8l16 3q18 3 22.5 7t4.5 16v357h-71v5l71 61l3 25q12 105 78 164.5t171 59.5q66 0 107 -23.5t41 -61.5q0 -31 -24 -52.5t-56 -21.5q-25 0 -45 32l-51 87q-11 17 -19 17q-31 0 -50 -51t-16 -142l1 -31h208l67 23
l3 -3q-3 -41 -3 -74v-372q0 -12 4.5 -15.5t22.5 -6.5l16 -3v-8h-221v8l12 2q16 3 20.5 7.5t4.5 16.5v357z" />
    <glyph glyph-name="fl" unicode="fl" horiz-adv-x="549" 
d="M490 628v-595q0 -11 4.5 -15t22.5 -7l16 -3v-8h-221v8l12 2q16 3 20.5 7.5t4.5 16.5v357h-134v-358q0 -12 5 -16.5t20 -5.5l26 -3v-8h-235v8l16 3q18 3 22.5 7t4.5 16v357h-71v5l71 61l3 25q12 104 76.5 164t162.5 60q61 0 101 -25l73 25l3 -2q-3 -42 -3 -76zM213 490
l1 -31h135v124l-58 85q-12 17 -18 17q-28 0 -45.5 -51.5t-14.5 -143.5z" />
    <glyph glyph-name="f_f_i" unicode="ffi" horiz-adv-x="820" 
d="M763 405v-372q0 -12 4.5 -15.5t22.5 -6.5l16 -3v-8h-221v8l12 2q17 3 21 7.5t4 16.5v357h-132v-358q0 -12 5 -16.5t20 -5.5l25 -3v-8h-228v8l12 2q16 3 20.5 7.5t4.5 16.5v357h-134v-358q0 -12 5 -16.5t20 -5.5l26 -3v-8h-235v8l16 3q18 3 22.5 7t4.5 16v357h-71v5l73 62
l2 19q10 90 76 150q64 57 164 57q72 0 110 -39q67 61 172 61q66 0 107.5 -23.5t41.5 -61.5q0 -31 -24.5 -52.5t-56.5 -21.5q-25 0 -45 32l-51 87q-9 17 -19 17q-30 0 -49 -51t-17 -142l2 -31h207l68 23l2 -3q-3 -40 -3 -74zM213 482l1 -23h135l3 23q3 32 12 59q-4 4 -14 18
l-57 88q-11 17 -18 17q-29 0 -46.5 -48t-15.5 -134z" />
    <glyph glyph-name="f_f_l" unicode="ffl" horiz-adv-x="824" 
d="M764 628v-595q0 -11 4.5 -15t23.5 -7l15 -3v-8h-221v8l12 2q17 3 21 7.5t4 16.5v357h-133v-358q0 -12 5 -16.5t20 -5.5l25 -3v-8h-228v8l12 2q16 3 20.5 7.5t4.5 16.5v357h-134v-358q0 -12 5 -16.5t20 -5.5l26 -3v-8h-235v8l16 3q18 3 22.5 7t4.5 16v357h-71v5l73 62
l2 19q10 90 76 150q64 57 164 57q73 0 109 -39q64 61 163 61q61 0 101 -25l74 25l2 -2q-3 -42 -3 -76zM487 490l2 -31h134v125l-58 84q-12 17 -18 17q-28 0 -45 -51t-15 -144zM213 482l1 -23h135l3 23q2 25 12 59q-4 4 -14 18l-57 88q-11 17 -18 17q-29 0 -46.5 -48
t-15.5 -134z" />
    <glyph glyph-name="f_b" unicode="fb" horiz-adv-x="828" 
d="M489 629v-218l4 -2q61 66 136 66q80 0 129 -61t49 -162q0 -110 -72 -188t-189 -78q-83 0 -148 38q-17 -6 -52 -29l-5 2q8 53 8 91v303h-134v-358q0 -12 5 -16.5t20 -5.5l26 -3v-8h-235v8l16 3q18 3 22.5 7t4.5 16v357h-71v5l71 61l3 25q12 104 76.5 164t162.5 60
q61 0 101 -25l73 25l2 -2q-3 -42 -3 -75zM659 212q0 88 -34.5 141.5t-86.5 53.5q-24 0 -49 -12l-2 -283q0 -109 71 -109q42 0 71.5 58t29.5 151zM213 490l1 -31h135v124l-58 85q-12 17 -18 17q-28 0 -45.5 -51.5t-14.5 -143.5z" />
    <glyph glyph-name="f_h" unicode="fh" horiz-adv-x="824" 
d="M660 475q44 0 73 -28q31 -31 31 -101v-314q0 -11 4 -14.5t20 -6.5l19 -3v-8h-224v8l19 3q12 2 16 6.5t4 14.5v254q0 69 -18 87q-16 16 -50 16q-28 0 -64 -18v-339q0 -10 3.5 -14.5t15.5 -6.5l19 -3v-8h-216v8l15 3q14 2 18 6.5t4 14.5v359h-134v-358q0 -12 5 -16.5
t20 -5.5l26 -3v-8h-235v8l16 3q18 3 22.5 7t4.5 16v357h-71v5l71 61l3 25q12 104 76.5 164t162.5 60q61 0 101 -25l73 25l3 -2q-3 -42 -3 -76v-242l4 -2q91 91 166 91zM213 490l1 -31h135v124l-58 85q-12 17 -18 17q-28 0 -45.5 -51.5t-14.5 -143.5z" />
    <glyph glyph-name="f_j" unicode="fj" horiz-adv-x="545" 
d="M348 -113v504h-133v-358q0 -12 4.5 -16t23.5 -6l32 -3v-8h-244v8l16 3q18 3 22.5 7t4.5 16v357h-71v5l71 61l3 25q12 105 78 164.5t171 59.5q66 0 107 -23.5t41 -61.5q0 -31 -24 -52.5t-56 -21.5q-25 0 -45 32l-51 87q-11 17 -19 17q-31 0 -50 -51t-16 -142l1 -31h208
l67 23l3 -3q-3 -41 -3 -74v-352q0 -68 -10 -104q-20 -76 -72 -128q-55 -55 -130 -55q-41 0 -65.5 19t-24.5 52q0 27 18.5 45.5t43.5 18.5q15 0 26 -18l47 -88q5 -8 8 -8q4 0 5 3q13 12 13 97z" />
    <glyph glyph-name="f_k" unicode="fk" horiz-adv-x="812" 
d="M680 384l-67 -58l154 -268q23 -41 56 -47l16 -3v-8h-255v8l17 3q12 2 15.5 5.5t2 10.5t-10.5 22l-78 136q-18 35 -38 35h-2v-187q0 -11 4 -15.5t18 -6.5l16 -3v-8h-216v8l12 2q16 3 20.5 7.5t4.5 16.5v357h-134v-358q0 -12 5 -16.5t20 -5.5l26 -3v-8h-235v8l16 3
q18 3 22.5 7t4.5 16v357h-71v5l71 61l3 25q12 104 76.5 164t162.5 60q61 0 101 -25l73 25l3 -2q-3 -42 -3 -76v-401l101 110q62 65 62 80q0 11 -44 23l-40 12v7h245v-7l-34 -11q-32 -9 -48 -18q-14 -9 -52 -39zM213 490l1 -31h135v124l-58 85q-12 17 -18 17
q-28 0 -45.5 -51.5t-14.5 -143.5z" />
    <glyph glyph-name="f_f_b" unicode="ffb" horiz-adv-x="1103" 
d="M821 -14q-83 0 -148 38q-20 -6 -52 -29l-5 2q7 41 7 91v303h-133v-358q0 -12 5 -16.5t20 -5.5l25 -3v-8h-228v8l12 2q16 3 20.5 7.5t4.5 16.5v357h-134v-358q0 -12 5 -16.5t20 -5.5l26 -3v-8h-235v8l16 3q18 3 22.5 7t4.5 16v357h-71v5l73 62l2 19q10 90 76 150
q64 57 164 57q73 0 109 -39q64 61 163 61q61 0 101 -25l73 25l3 -2q-3 -42 -3 -75v-218l4 -2q62 66 136 66q79 0 128 -61t49 -162q0 -109 -71 -188q-72 -78 -189 -78zM833 3q42 0 71.5 58t29.5 151q0 88 -35 141.5t-87 53.5q-24 0 -48 -12l-2 -283q-1 -109 71 -109zM487 490
l2 -31h134v125l-58 84q-12 17 -18 17q-28 0 -45 -51t-15 -144zM213 482l1 -23h135l3 23q2 25 12 59q-4 4 -14 18l-57 88q-11 17 -18 17q-29 0 -46.5 -48t-15.5 -134z" />
    <glyph glyph-name="f_f_h" unicode="ffh" horiz-adv-x="1098" 
d="M934 475q45 0 73 -28q31 -31 31 -101v-314q0 -10 4.5 -14t19.5 -7l19 -3v-8h-223v8l18 3q12 2 16 6.5t4 14.5v254q0 69 -18 87q-16 16 -49 16q-29 0 -65 -18v-339q0 -10 4 -14.5t16 -6.5l18 -3v-8h-216v8l15 3q14 2 18 6.5t4 14.5v359h-133v-358q0 -12 5 -16.5t20 -5.5
l25 -3v-8h-228v8l12 2q16 3 20.5 7.5t4.5 16.5v357h-134v-358q0 -12 5 -16.5t20 -5.5l26 -3v-8h-235v8l16 3q18 3 22.5 7t4.5 16v357h-71v5l73 62l2 19q10 90 76 150q64 57 164 57q73 0 109 -39q64 61 163 61q61 0 101 -25l74 25l2 -2q-3 -42 -3 -76v-242l4 -2q91 91 166 91
zM487 490l2 -31h134v125l-58 84q-12 17 -18 17q-28 0 -45 -51t-15 -144zM213 482l1 -23h135l3 23q2 25 12 59q-4 4 -14 18l-57 88q-11 17 -18 17q-29 0 -46.5 -48t-15.5 -134z" />
    <glyph glyph-name="f_f_j" unicode="ffj" horiz-adv-x="820" 
d="M549 8v-8h-237v8l12 2q16 3 20.5 7.5t4.5 16.5v357h-134v-358q0 -12 5 -16.5t20 -5.5l26 -3v-8h-235v8l16 3q18 3 22.5 7t4.5 16v357h-71v5l73 62l2 19q10 90 76 150q64 57 164 57q72 0 110 -39q67 61 172 61q66 0 107.5 -23.5t41.5 -61.5q0 -31 -24.5 -52.5t-56.5 -21.5
q-25 0 -45 32l-51 87q-9 17 -19 17q-30 0 -49 -51t-17 -142l2 -31h207l68 23l2 -3q-3 -40 -3 -74v-352q0 -65 -9 -104q-18 -73 -73 -128q-52 -55 -129 -55q-42 0 -66.5 19t-24.5 52q0 27 18.5 45.5t44.5 18.5q16 0 26 -18l46 -88q5 -8 9 -8q2 0 5 3q12 12 12 97v504h-132
v-358q0 -12 4.5 -16t23.5 -6zM213 482l1 -23h135l3 23q3 32 12 59q-4 4 -14 18l-57 88q-11 17 -18 17q-29 0 -46.5 -48t-15.5 -134z" />
    <glyph glyph-name="f_f_k" unicode="ffk" horiz-adv-x="1087" 
d="M954 384l-67 -58l154 -268q24 -41 56 -47l16 -3v-8h-255v8l17 3q12 2 15.5 5.5t2 10.5t-10.5 22l-77 136q-19 35 -39 35h-2v-187q0 -11 4 -15.5t19 -6.5l15 -3v-8h-216v8l12 2q17 3 21 7.5t4 16.5v357h-133v-358q0 -12 5 -16.5t20 -5.5l25 -3v-8h-228v8l12 2
q16 3 20.5 7.5t4.5 16.5v357h-134v-358q0 -12 5 -16.5t20 -5.5l26 -3v-8h-235v8l16 3q18 3 22.5 7t4.5 16v357h-71v5l73 62l2 19q10 90 76 150q64 57 164 57q73 0 109 -39q64 61 163 61q61 0 101 -25l74 25l2 -2q-3 -42 -3 -76v-401l102 110q62 65 62 80q0 9 -44 23l-40 12
v7h245v-7l-34 -11q-32 -9 -49 -18q-14 -9 -52 -39zM487 490l2 -31h134v125l-58 84q-12 17 -18 17q-28 0 -45 -51t-15 -144zM213 482l1 -23h135l3 23q2 25 12 59q-4 4 -14 18l-57 88q-11 17 -18 17q-29 0 -46.5 -48t-15.5 -134z" />
    <glyph glyph-name=".notdef" 
d="M500 -200h-500v1000h500v-1000zM429 750h-358l179 -390zM50 676v-752l172 376zM450 -76v752l-172 -376zM429 -150l-179 390l-179 -390h358z" />
    <glyph glyph-name=".null" horiz-adv-x="0" 
 />
    <glyph glyph-name="nonmarkingreturn" horiz-adv-x="333" 
 />
    <glyph glyph-name="space" unicode=" " horiz-adv-x="131" 
 />
    <glyph glyph-name="exclam" unicode="!" horiz-adv-x="282" 
d="M79 662q23 22 62 22t62 -22q23 -23 23 -63q0 -44 -34 -176q-28 -94 -37 -149l-10 -67h-9l-9 67q-13 69 -37 149q-35 132 -35 176q0 41 24 63zM141 -10q-35 0 -59.5 23t-24.5 56t25 56.5t61 23.5q33 0 57.5 -23.5t24.5 -54.5q0 -33 -24 -57t-60 -24z" />
    <glyph glyph-name="quotedbl" unicode="&#x22;" horiz-adv-x="427" 
d="M208 599q0 -25 -24 -60l-36 -56q-8 -11 -36 -54l-42 -62l-7 3l14 127l7 76q6 79 61 79q27 0 45 -14.5t18 -38.5zM380 599q0 -25 -24 -60l-36 -56q-8 -11 -36 -54l-42 -62l-7 3l14 127l7 76q6 79 61 79q27 0 45 -14.5t18 -38.5z" />
    <glyph glyph-name="numbersign" unicode="#" horiz-adv-x="650" 
d="M315 -8h-21l77 221h-169l-77 -221h-20l77 221h-167v20h174l62 175h-177v20h184l78 221h20l-78 -221h169l78 221h21l-78 -221h167v-20h-174l-62 -175h177v-20h-184zM440 408h-169l-62 -175h169z" />
    <glyph glyph-name="dollar" unicode="$" horiz-adv-x="526" 
d="M249 -8l-8 -96l-16 1q0 7 3 39q5 51 5 57q-76 5 -158 42q-10 79 -10 186l9 3q44 -111 78 -158q34 -48 83 -55l19 224l-35 26q-51 37 -75 60q-24 20 -43 53q-19 31 -19 69q0 64 55 107q55 44 151 44h1l8 92l18 -1l-8 -92q81 -3 136 -30q6 -55 7 -170l-9 -2
q-37 93 -67 133.5t-69 48.5l-18 -196q2 -1 10.5 -7t16 -11.5t11.5 -8.5q81 -60 112 -98q32 -40 32 -96q0 -72 -58 -118t-156 -46h-6zM355 104q0 32 -19 57.5t-67 62.5l-18 -214h4q46 0 73 25t27 69zM195 499q0 -30 17.5 -54.5t58.5 -55.5l16 186q-1 0 -4 0.5t-4 0.5
q-39 0 -61.5 -21t-22.5 -56z" />
    <glyph glyph-name="percent" unicode="%" horiz-adv-x="856" 
d="M168 -3l500 637l19 -9l-500 -637zM617 -11q-76 0 -122 44q-46 43 -46 106q0 72 49.5 117.5t129.5 45.5q77 0 123 -43q45 -43 45 -107q0 -72 -49.5 -117.5t-129.5 -45.5zM626 4q62 0 62 140q0 64 -18.5 103.5t-50.5 39.5q-62 0 -62 -140q0 -64 18.5 -103.5t50.5 -39.5z
M239 634q76 0 122 -43t46 -107q0 -72 -49.5 -117.5t-129.5 -45.5q-76 0 -123 44q-46 43 -46 106q0 72 50 117.5t130 45.5zM230 619q-62 0 -62 -140q0 -64 18.5 -103.5t50.5 -39.5q62 0 62 140q0 63 -18.5 103t-50.5 40z" />
    <glyph glyph-name="ampersand" unicode="&#x26;" horiz-adv-x="832" 
d="M334 642q66 0 117 -27q50 -29 50 -84q0 -45 -40 -76q-41 -32 -92 -50q68 -45 117 -86q45 -39 86 -95q69 120 69 153q0 15 -45 30l-46 16v6h272v-6l-41 -15q-39 -14 -57 -27t-60 -66l-84 -102l20 -31q65 -105 89 -127q24 -25 61 -25q29 0 71 13l4 -7q-20 -11 -87 -32
q-60 -20 -111 -20q-44 0 -67 20q-22 19 -57 74q-5 6 -6 10l-13 20q-61 -66 -110 -94q-51 -30 -121 -30q-76 0 -136 48q-61 48 -61 133q0 120 167 182q-87 65 -87 138q0 71 61 114q59 43 137 43zM350 69q68 0 126 52q-43 65 -91 110q-47 43 -135 99l-13 8q-52 -39 -52 -111
q0 -64 44 -111t121 -47zM246 549q0 -36 24.5 -65.5t83.5 -68.5l5 -3q32 53 32 110q0 52 -22 77t-53 25q-32 0 -51 -21.5t-19 -53.5z" />
    <glyph glyph-name="quotesingle" unicode="'" horiz-adv-x="251" 
d="M208 599q0 -25 -24 -60l-36 -56q-8 -11 -36 -54l-42 -62l-7 3l14 127l7 76q6 79 61 79q27 0 45 -14.5t18 -38.5z" />
    <glyph glyph-name="parenleft" unicode="(" horiz-adv-x="424" 
d="M272 596q-59 -120 -59 -314q0 -193 59 -314q58 -118 156 -166l-3 -9q-107 38 -190 110q-49 42 -84 93q-81 119 -81 286t81 286q35 51 84 93q83 72 190 110l3 -8q-97 -48 -156 -167z" />
    <glyph glyph-name="parenright" unicode=")" horiz-adv-x="424" 
d="M153 -31q58 117 58 314t-58 314t-157 166l3 9q107 -38 190 -110q49 -42 84 -93q81 -119 81 -286t-81 -286q-35 -51 -84 -93q-83 -72 -190 -110l-3 8q98 48 157 167z" />
    <glyph glyph-name="asterisk" unicode="*" horiz-adv-x="411" 
d="M53 440q-9 15 -7 31.5t16 23.5q12 7 49 11q36 4 65 14l25 8l-25 10q-28 10 -66 15t-48 9q-14 8 -16 24t7 32q21 36 52 19q10 -7 32 -36q19 -27 46 -50l20 -18l-4 26q-4 26 -20 64q-16 35 -16 47q0 22 21.5 31t43 0t21.5 -31q0 -11 -15 -47q-17 -36 -21 -64l-6 -27l21 19
q27 23 46 50q22 29 32 36q31 17 52 -19q9 -16 7 -32t-16 -24q-11 -4 -48 -9t-66 -15l-25 -10l25 -8q29 -10 66 -14q36 -4 48 -11q14 -7 16 -23.5t-7 -31.5q-8 -15 -23 -21t-29 2q-10 5 -32 36q-19 27 -46 50l-20 17l5 -26q4 -28 21 -64q15 -36 15 -47q1 -21 -21 -30t-44 0
t-21 30q0 12 16 47q16 38 20 64l4 26l-20 -17q-27 -23 -46 -50q-22 -31 -32 -36q-14 -8 -29 -2t-23 21z" />
    <glyph glyph-name="plus" unicode="+" horiz-adv-x="496" 
d="M237 252v187h22v-187h187v-22h-187v-187h-22v187h-187v22h187z" />
    <glyph glyph-name="comma" unicode="," horiz-adv-x="249" 
d="M215 28q0 -75 -55 -128.5t-146 -69.5l-2 7q126 45 126 141q0 18 -4 24.5t-15 6.5l-27 -1q-65 -2 -65 59q0 37 23.5 61t64.5 24q43 0 71.5 -32t28.5 -92z" />
    <glyph glyph-name="hyphen" unicode="-" horiz-adv-x="338" 
d="M297 301v-101h-255v101h255z" />
    <glyph glyph-name="period" unicode="." horiz-adv-x="244" 
d="M208 73q0 -34 -24.5 -58.5t-60.5 -24.5q-37 0 -62 23.5t-25 57.5q0 33 25.5 58t61.5 25q35 0 60 -24t25 -57z" />
    <glyph glyph-name="slash" unicode="/" horiz-adv-x="403" 
d="M4 -240l-22 8l378 1036l22 -8z" />
    <glyph glyph-name="zero" unicode="0" horiz-adv-x="580" 
d="M298 484q113 0 182 -71q68 -71 68 -169q0 -111 -74 -185q-75 -75 -192 -75q-113 0 -181 71q-69 71 -69 169q0 111 75 186q74 74 191 74zM285 465q-50 0 -75 -62t-25 -169q0 -99 30 -165q28 -67 80 -67q101 0 101 227q0 101 -30 169q-30 67 -81 67z" />
    <glyph glyph-name="one" unicode="1" horiz-adv-x="373" 
d="M256 320v-172q0 -78 6 -104q4 -16 13 -21.5t39 -9.5l35 -4v-9h-325v9l34 4q30 4 39.5 9.5t13.5 21.5q6 26 6 104v172q0 78 -6 104q-4 16 -13.5 21.5t-39.5 9.5l-34 4v9h325v-9l-35 -4q-30 -4 -39 -9.5t-13 -21.5q-6 -26 -6 -104z" />
    <glyph glyph-name="two" unicode="2" horiz-adv-x="460" 
d="M249 484q66 0 112 -38q45 -38 45 -98q0 -62 -66 -115q-51 -42 -155 -104q-7 -4 -24 -14l2 -3l191 5q33 1 44.5 5t23.5 19l13 15l5 -2l-56 -154h-374l-1 6q205 159 242 225q17 32 17 67q0 42 -28 67.5t-75 25.5q-70 0 -130 -68l-6 5q78 156 220 156z" />
    <glyph glyph-name="three" unicode="3" horiz-adv-x="440" 
d="M132 -191q-61 0 -94 21t-33 57q0 26 19.5 44.5t45.5 18.5q20 0 30 -21l40 -82q12 -22 21 -22q39 0 75 43q36 44 36 114q0 68 -46 109.5t-126 50.5l-2 6l16 7q140 59 140 144q0 44 -29.5 71.5t-78.5 27.5q-62 0 -118 -53l-6 6q79 133 206 133q69 0 112.5 -36t43.5 -92
q0 -93 -153 -155q29 -6 56 -17t55 -30.5t45 -52t17 -73.5q0 -96 -83 -158q-82 -61 -189 -61z" />
    <glyph glyph-name="four" unicode="4" horiz-adv-x="521" 
d="M386 -185h-131v210h-259l-3 6l339 442h54v-370h126l-14 -78h-112v-210zM252 332l-171 -226l2 -3h172v228z" />
    <glyph glyph-name="five" unicode="5" horiz-adv-x="456" 
d="M42 118l88 350h265q13 0 22 19l6 12l8 -3l-30 -135q-2 -12 -7.5 -15.5t-19.5 -3.5h-257l-24 -102q125 -13 198 -50q112 -55 112 -163q0 -95 -78 -157q-77 -61 -180 -61q-63 0 -96.5 20.5t-33.5 57.5q0 26 19.5 44.5t45.5 18.5q19 0 28 -19l38 -84q6 -13 9.5 -17t9.5 -4
q43 0 86 37t43 104q0 71 -72 106q-59 30 -179 43z" />
    <glyph glyph-name="six" unicode="6" horiz-adv-x="529" 
d="M299 408q36 0 69.5 -10t63.5 -31t48 -61t18 -93q0 -102 -68 -165q-68 -64 -160 -64q-108 0 -170 73.5t-62 202.5q0 182 126 297q125 115 323 104l-1 -11q-110 -7 -185.5 -76.5t-105.5 -185.5q54 20 104 20zM209 374q-13 0 -17 -1q-13 -56 -13 -128q0 -118 29.5 -182
t71.5 -64q38 0 60.5 48t22.5 131q0 135 -83 178q-36 18 -71 18z" />
    <glyph glyph-name="seven" unicode="7" horiz-adv-x="444" 
d="M77 -182l287 526h-245q-42 0 -53 -11q-7 -7 -29 -48l-10 -18l-7 3q27 101 48 230l8 -1l1 -16q1 -9 3 -12t11 -3h330l3 -3l-205 -650h-140z" />
    <glyph glyph-name="eight" unicode="8" horiz-adv-x="507" 
d="M267 662q83 0 137 -42q53 -44 53 -108q0 -94 -127 -145q85 -49 113 -88q28 -40 28 -95q0 -86 -67 -143q-68 -57 -155 -57q-114 0 -177 67q-35 38 -35 91q0 103 136 157q-113 71 -113 175q0 86 63 137q61 51 144 51zM195 287h-1q-46 -61 -46 -141q0 -64 31.5 -103.5
t85.5 -39.5q44 0 71.5 32t27.5 80q0 44 -35 82q-34 37 -134 90zM170 544q0 -45 28 -82q28 -38 111 -83q2 -2 3 -2q41 58 41 135q0 61 -23 97t-68 36q-43 0 -67.5 -29.5t-24.5 -71.5z" />
    <glyph glyph-name="nine" unicode="9" horiz-adv-x="529" 
d="M230 60q-36 0 -69.5 10t-63.5 31t-48 61t-18 93q0 101 69 166q68 63 159 63q108 0 170 -73.5t62 -202.5q0 -182 -126 -297q-125 -115 -323 -104l1 11q110 7 185 76.5t105 185.5q-54 -20 -103 -20zM320 94h16q14 64 14 129q0 118 -29.5 182t-71.5 64q-38 0 -60.5 -48
t-22.5 -131q0 -135 84 -178q35 -18 70 -18z" />
    <glyph glyph-name="colon" unicode=":" horiz-adv-x="262" 
d="M45 386q0 34 25.5 59t63.5 25q34 0 58.5 -24.5t24.5 -57.5q0 -34 -24.5 -58.5t-60.5 -24.5q-37 0 -62 23.5t-25 57.5zM45 71q0 33 25.5 58t62.5 25q34 0 59 -25t25 -57q0 -34 -24.5 -58t-60.5 -24t-61.5 23.5t-25.5 57.5z" />
    <glyph glyph-name="semicolon" unicode=";" horiz-adv-x="267" 
d="M36 67q0 37 23.5 61t64.5 24q42 0 70.5 -32t28.5 -92q0 -75 -54.5 -128.5t-145.5 -69.5l-2 7q126 47 126 141q0 18 -4.5 24.5t-15.5 6.5l-27 -1q-64 -1 -64 59zM41 388q0 33 25.5 57.5t61.5 24.5q34 0 59 -24t25 -56q0 -35 -24.5 -59.5t-60.5 -24.5t-61 23.5t-25 58.5z
" />
    <glyph glyph-name="less" unicode="&#x3c;" horiz-adv-x="512" 
d="M429 56l-11 -20l-386 196v18l386 196l10 -20l-366 -185z" />
    <glyph glyph-name="equal" unicode="=" horiz-adv-x="496" 
d="M446 150h-396v22h396v-22zM446 310h-396v22h396v-22z" />
    <glyph glyph-name="greater" unicode="&#x3e;" horiz-adv-x="512" 
d="M480 250v-18l-386 -196l-11 20l367 185l-366 185l10 20z" />
    <glyph glyph-name="question" unicode="?" horiz-adv-x="395" 
d="M362 453q0 -59 -25.5 -91t-86.5 -49l-99 -27q-14 -4 -17.5 -10.5t-4.5 -32.5l-1 -36h-10l-12 75q-14 82 -14 94q0 20 9.5 29.5t36.5 18.5l95 29q35 11 50 27t15 42q0 37 -21 76t-39 39q-4 0 -30 -21l-77 -67q-25 -21 -44 -21q-22 0 -38 20.5t-16 51.5q0 34 27.5 59
t71.5 25q96 0 163 -69q67 -68 67 -162zM216 71q0 -33 -24 -57t-59 -24t-60 23t-25 56t25 56.5t61 23.5q33 0 57.5 -23.5t24.5 -54.5z" />
    <glyph glyph-name="at" unicode="@" horiz-adv-x="891" 
d="M775 -20l12 -13q-149 -155 -362 -155q-170 0 -276 97q-107 98 -107 269q0 92 34 178.5t95 153.5q60 67 148 106t186 39q156 0 251 -86q93 -85 93 -209q0 -72 -34 -135t-91 -105q-118 -86 -257 -86q-38 0 -38 14t22 70l30 78l-5 2q-36 -65 -78 -107q-56 -56 -109 -56
q-69 0 -69 78q0 57 38 133q38 77 88 125q75 75 146 75q52 0 65 -42h3l21 54h110l1 -3l-122 -318q-21 -53 -21 -59q0 -8 16 -8q65 0 158 74q45 36 74.5 95t29.5 123q0 115 -88 194t-233 79q-126 0 -230 -65q-101 -63 -158 -169q-55 -104 -55 -223q0 -164 101 -256
q100 -91 261 -91q206 0 350 149zM515 425q-18 0 -42 -24q-41 -41 -88 -138q-46 -96 -46 -145q0 -25 19 -25q18 0 47 28q46 46 93 137q45 90 45 133q0 34 -28 34z" />
    <glyph glyph-name="A" unicode="A" horiz-adv-x="671" 
d="M179 19l39 -13v-6h-253v6l33 13q41 15 60 37q20 23 45 88l169 426q-12 30 -19 41l1 2q84 31 136 86h3l196 -599q16 -49 31 -66q13 -16 47 -21l32 -4v-9h-341v9l34 4q47 5 47 29q0 13 -7 34l-54 168h-197l-12 -36q-41 -120 -41 -149q0 -13 10 -21t41 -19zM371 268l-77 242
l-12 35l-93 -277h182z" />
    <glyph glyph-name="A" unicode="&#x1fa;" horiz-adv-x="671" 
d="M179 19l39 -13v-6h-253v6l33 13q41 15 60 37q20 23 45 88l169 426q-12 30 -19 41l1 2q84 31 136 86h3l196 -599q16 -49 31 -66q13 -16 47 -21l32 -4v-9h-341v9l34 4q47 5 47 29q0 13 -7 34l-54 168h-197l-12 -36q-41 -120 -41 -149q0 -13 10 -21t41 -19zM371 268l-77 242
l-12 35l-93 -277h182z" />
    <glyph glyph-name="A" unicode="&#x104;" horiz-adv-x="671" 
d="M179 19l39 -13v-6h-253v6l33 13q41 15 60 37q20 23 45 88l169 426q-12 30 -19 41l1 2q84 31 136 86h3l196 -599q16 -49 31 -66q13 -16 47 -21l32 -4v-9h-341v9l34 4q47 5 47 29q0 13 -7 34l-54 168h-197l-12 -36q-41 -120 -41 -149q0 -13 10 -21t41 -19zM371 268l-77 242
l-12 35l-93 -277h182z" />
    <glyph glyph-name="A" unicode="&#x102;" horiz-adv-x="671" 
d="M179 19l39 -13v-6h-253v6l33 13q41 15 60 37q20 23 45 88l169 426q-12 30 -19 41l1 2q84 31 136 86h3l196 -599q16 -49 31 -66q13 -16 47 -21l32 -4v-9h-341v9l34 4q47 5 47 29q0 13 -7 34l-54 168h-197l-12 -36q-41 -120 -41 -149q0 -13 10 -21t41 -19zM371 268l-77 242
l-12 35l-93 -277h182z" />
    <glyph glyph-name="A" unicode="&#x100;" horiz-adv-x="671" 
d="M179 19l39 -13v-6h-253v6l33 13q41 15 60 37q20 23 45 88l169 426q-12 30 -19 41l1 2q84 31 136 86h3l196 -599q16 -49 31 -66q13 -16 47 -21l32 -4v-9h-341v9l34 4q47 5 47 29q0 13 -7 34l-54 168h-197l-12 -36q-41 -120 -41 -149q0 -13 10 -21t41 -19zM371 268l-77 242
l-12 35l-93 -277h182z" />
    <glyph glyph-name="B" unicode="B" horiz-adv-x="660" 
d="M627 192q0 -53 -27.5 -94.5t-73.5 -65.5q-66 -32 -184 -32h-322v9l32 4q27 4 36 9.5t13 20.5q6 24 6 105v371q0 82 -6 106q-4 15 -13 20.5t-36 9.5l-32 4v9h265q304 0 304 -157q0 -50 -39.5 -85t-105.5 -51v-3q75 -15 130 -59q53 -45 53 -121zM464 176q0 83 -53 126.5
t-144 36.5v-197q0 -79 6 -103t50 -24h3q62 0 100 45.5t38 115.5zM432 507q0 60 -37 103q-38 44 -116 43h-8q-4 -23 -4 -75v-224q165 0 165 153z" />
    <glyph glyph-name="C" unicode="C" horiz-adv-x="708" 
d="M407 684q49 0 118 -12q65 -13 70 -13q10 0 17 13l6 11h7q14 -118 19 -247l-8 -1q-64 133 -113 180q-51 52 -121 52q-84 0 -140 -80q-57 -81 -57 -237q0 -148 57 -247q57 -100 145 -100q64 0 124 60q61 59 127 202l7 -4q-3 -59 -13 -129q-10 -73 -16 -87
q-126 -59 -238 -59q-158 0 -262 92t-104 249q0 152 103 255q103 102 272 102z" />
    <glyph glyph-name="C" unicode="&#x10c;" horiz-adv-x="708" 
d="M407 684q49 0 118 -12q65 -13 70 -13q10 0 17 13l6 11h7q14 -118 19 -247l-8 -1q-64 133 -113 180q-51 52 -121 52q-84 0 -140 -80q-57 -81 -57 -237q0 -148 57 -247q57 -100 145 -100q64 0 124 60q61 59 127 202l7 -4q-3 -59 -13 -129q-10 -73 -16 -87
q-126 -59 -238 -59q-158 0 -262 92t-104 249q0 152 103 255q103 102 272 102z" />
    <glyph glyph-name="C" unicode="&#x10a;" horiz-adv-x="708" 
d="M407 684q49 0 118 -12q65 -13 70 -13q10 0 17 13l6 11h7q14 -118 19 -247l-8 -1q-64 133 -113 180q-51 52 -121 52q-84 0 -140 -80q-57 -81 -57 -237q0 -148 57 -247q57 -100 145 -100q64 0 124 60q61 59 127 202l7 -4q-3 -59 -13 -129q-10 -73 -16 -87
q-126 -59 -238 -59q-158 0 -262 92t-104 249q0 152 103 255q103 102 272 102z" />
    <glyph glyph-name="C" unicode="&#x106;" horiz-adv-x="708" 
d="M407 684q49 0 118 -12q65 -13 70 -13q10 0 17 13l6 11h7q14 -118 19 -247l-8 -1q-64 133 -113 180q-51 52 -121 52q-84 0 -140 -80q-57 -81 -57 -237q0 -148 57 -247q57 -100 145 -100q64 0 124 60q61 59 127 202l7 -4q-3 -59 -13 -129q-10 -73 -16 -87
q-126 -59 -238 -59q-158 0 -262 92t-104 249q0 152 103 255q103 102 272 102z" />
    <glyph glyph-name="D" unicode="D" horiz-adv-x="763" 
d="M734 339q0 -73 -34 -144t-103 -123q-101 -78 -277 -78q-40 0 -124 3t-176 3v9l32 4q27 4 36 9.5t13 20.5q6 24 6 105v372q0 81 -6 105q-4 15 -13 20.5t-36 9.5l-32 4v9h296q200 0 309 -84.5t109 -244.5zM267 653q-2 -18 -2 -81v-436q0 -80 5 -102q3 -12 12 -17t32 -5h9
q99 0 160 61q83 83 83 248q0 111 -38.5 188.5t-110.5 112.5q-59 30 -150 31z" />
    <glyph glyph-name="D" unicode="&#x110;" horiz-adv-x="763" 
d="M734 339q0 -73 -34 -144t-103 -123q-101 -78 -277 -78q-40 0 -124 3t-176 3v9l32 4q27 4 36 9.5t13 20.5q6 24 6 105v372q0 81 -6 105q-4 15 -13 20.5t-36 9.5l-32 4v9h296q200 0 309 -84.5t109 -244.5zM267 653q-2 -18 -2 -81v-436q0 -80 5 -102q3 -12 12 -17t32 -5h9
q99 0 160 61q83 83 83 248q0 111 -38.5 188.5t-110.5 112.5q-59 30 -150 31z" />
    <glyph glyph-name="D" unicode="&#x10e;" horiz-adv-x="763" 
d="M734 339q0 -73 -34 -144t-103 -123q-101 -78 -277 -78q-40 0 -124 3t-176 3v9l32 4q27 4 36 9.5t13 20.5q6 24 6 105v372q0 81 -6 105q-4 15 -13 20.5t-36 9.5l-32 4v9h296q200 0 309 -84.5t109 -244.5zM267 653q-2 -18 -2 -81v-436q0 -80 5 -102q3 -12 12 -17t32 -5h9
q99 0 160 61q83 83 83 248q0 111 -38.5 188.5t-110.5 112.5q-59 30 -150 31z" />
    <glyph glyph-name="E" unicode="E" horiz-adv-x="630" 
d="M20 659v9h549l-4 -195l-7 -2q-48 102 -72 126q-39 39 -143 48l-76 5v-301l55 3q69 5 94 30q22 22 37 60l13 32l7 -2l-6 -262l-7 -1l-13 32q-20 48 -34 62q-22 22 -89 27l-57 3v-191q0 -78 5 -100q4 -15 12.5 -20t28.5 -5q37 0 84 9q43 7 69 20q27 13 45 31q23 25 88 124
l7 -4l-39 -197h-547v9l32 4q27 4 36 9.5t13 20.5q6 24 6 105v371q0 82 -6 106q-4 15 -13 20.5t-36 9.5z" />
    <glyph glyph-name="F" unicode="F" horiz-adv-x="611" 
d="M413 295q-22 22 -88 27l-58 3v-177q0 -81 6 -105q4 -16 13.5 -22t36.5 -8l45 -4v-9h-348v9l32 4q27 4 36 9.5t13 20.5q6 24 6 105v371q0 82 -6 106q-4 15 -13 20.5t-36 9.5l-32 4v9h549l-4 -195l-7 -2q-48 102 -72 126q-39 39 -143 48l-76 5v-309l55 3q69 5 93 29
q24 27 38 61l13 32l7 -2l-6 -262l-7 -1l-13 31q-17 46 -34 63z" />
    <glyph glyph-name="G" unicode="G" horiz-adv-x="736" 
d="M411 684q51 0 120 -12q66 -13 71 -13q10 0 17 13l6 11h7q17 -140 20 -247l-8 -1q-68 133 -114 180q-51 52 -123 52q-92 0 -147 -82t-55 -235q0 -151 64 -246q63 -96 175 -96q34 0 52 5q3 18 3 48v111q0 66 -5 88q-4 16 -14.5 22.5t-37.5 10.5l-40 4v9h327v-9l-31 -4
q-21 -4 -30 -11t-13 -22q-5 -22 -5 -88v-96q0 -16 4.5 -21.5t15.5 -5.5q10 0 30 5l2 -9q-154 -59 -288 -59q-169 0 -275 91q-107 92 -107 250q0 151 104 255q104 102 275 102z" />
    <glyph glyph-name="G" unicode="&#x122;" horiz-adv-x="736" 
d="M411 684q51 0 120 -12q66 -13 71 -13q10 0 17 13l6 11h7q17 -140 20 -247l-8 -1q-68 133 -114 180q-51 52 -123 52q-92 0 -147 -82t-55 -235q0 -151 64 -246q63 -96 175 -96q34 0 52 5q3 18 3 48v111q0 66 -5 88q-4 16 -14.5 22.5t-37.5 10.5l-40 4v9h327v-9l-31 -4
q-21 -4 -30 -11t-13 -22q-5 -22 -5 -88v-96q0 -16 4.5 -21.5t15.5 -5.5q10 0 30 5l2 -9q-154 -59 -288 -59q-169 0 -275 91q-107 92 -107 250q0 151 104 255q104 102 275 102z" />
    <glyph glyph-name="G" unicode="&#x120;" horiz-adv-x="736" 
d="M411 684q51 0 120 -12q66 -13 71 -13q10 0 17 13l6 11h7q17 -140 20 -247l-8 -1q-68 133 -114 180q-51 52 -123 52q-92 0 -147 -82t-55 -235q0 -151 64 -246q63 -96 175 -96q34 0 52 5q3 18 3 48v111q0 66 -5 88q-4 16 -14.5 22.5t-37.5 10.5l-40 4v9h327v-9l-31 -4
q-21 -4 -30 -11t-13 -22q-5 -22 -5 -88v-96q0 -16 4.5 -21.5t15.5 -5.5q10 0 30 5l2 -9q-154 -59 -288 -59q-169 0 -275 91q-107 92 -107 250q0 151 104 255q104 102 275 102z" />
    <glyph glyph-name="G" unicode="&#x11e;" horiz-adv-x="736" 
d="M411 684q51 0 120 -12q66 -13 71 -13q10 0 17 13l6 11h7q17 -140 20 -247l-8 -1q-68 133 -114 180q-51 52 -123 52q-92 0 -147 -82t-55 -235q0 -151 64 -246q63 -96 175 -96q34 0 52 5q3 18 3 48v111q0 66 -5 88q-4 16 -14.5 22.5t-37.5 10.5l-40 4v9h327v-9l-31 -4
q-21 -4 -30 -11t-13 -22q-5 -22 -5 -88v-96q0 -16 4.5 -21.5t15.5 -5.5q10 0 30 5l2 -9q-154 -59 -288 -59q-169 0 -275 91q-107 92 -107 250q0 151 104 255q104 102 275 102z" />
    <glyph glyph-name="H" unicode="H" horiz-adv-x="800" 
d="M534 149v185h-267v-185q0 -82 6 -106q4 -16 12 -21.5t33 -8.5l35 -4v-9h-333v9l32 4q27 4 36 9.5t13 20.5q6 24 6 106v370q0 82 -6 106q-4 15 -13 20.5t-36 9.5l-32 4v9h333v-9l-35 -4q-25 -3 -33 -8.5t-12 -21.5q-6 -24 -6 -106v-161h267v161q0 79 -7 106
q-4 16 -12 21.5t-33 8.5l-34 4v9h332v-9l-32 -4q-27 -4 -35.5 -9.5t-12.5 -20.5q-7 -27 -7 -106v-370q0 -79 7 -106q4 -15 12.5 -20.5t35.5 -9.5l32 -4v-9h-332v9l34 4q25 3 33 8.5t12 21.5q7 27 7 106z" />
    <glyph glyph-name="I" unicode="I" horiz-adv-x="389" 
d="M27 659v9h334v-9l-32 -4q-27 -4 -35.5 -9.5t-12.5 -20.5q-7 -27 -7 -105v-372q0 -78 7 -105q4 -15 12.5 -20.5t35.5 -9.5l32 -4v-9h-334v9l33 4q27 4 35.5 9.5t12.5 20.5q7 27 7 105v372q0 78 -7 105q-4 15 -12.5 20.5t-35.5 9.5z" />
    <glyph glyph-name="J" unicode="J" horiz-adv-x="400" 
d="M295 520v-363q0 -129 -38 -207q-33 -67 -86.5 -108t-121.5 -41q-47 0 -75 20.5t-28 54.5q0 30 23.5 52.5t56.5 22.5q18 0 29 -18l43 -90q8 -15 13 -15q11 0 17 24q8 30 8 116l1 552q0 81 -6 105q-4 15 -13 20.5t-39 9.5l-32 4v9h336v-9l-33 -4q-27 -4 -35.5 -9.5
t-12.5 -20.5q-7 -27 -7 -105z" />
    <glyph glyph-name="K" unicode="K" horiz-adv-x="725" 
d="M434 662v6h263v-6l-33 -11q-45 -15 -68 -30q-26 -15 -70 -58l-135 -133l226 -331q43 -61 69 -75q15 -8 60 -16v-8l-40 -2q-18 0 -88 -2q-35 -1 -64 -1q-36 0 -52 10q-15 8 -41 46l-156 238q-12 17 -18 22t-16 5h-4v-168q0 -81 6 -105q4 -15 12.5 -20.5t35.5 -9.5l33 -4
v-9h-334v9l32 4q27 4 36 9.5t13 20.5q6 24 6 105v372q0 81 -6 105q-4 15 -13 20.5t-36 9.5l-32 4v9h334v-9l-33 -4q-27 -4 -35.5 -9.5t-12.5 -20.5q-6 -24 -6 -105v-194l141 156q36 38 73 86q32 44 32 53q0 10 -41 27z" />
    <glyph glyph-name="K" unicode="&#x136;" horiz-adv-x="725" 
d="M434 662v6h263v-6l-33 -11q-45 -15 -68 -30q-26 -15 -70 -58l-135 -133l226 -331q43 -61 69 -75q15 -8 60 -16v-8l-40 -2q-18 0 -88 -2q-35 -1 -64 -1q-36 0 -52 10q-15 8 -41 46l-156 238q-12 17 -18 22t-16 5h-4v-168q0 -81 6 -105q4 -15 12.5 -20.5t35.5 -9.5l33 -4
v-9h-334v9l32 4q27 4 36 9.5t13 20.5q6 24 6 105v372q0 81 -6 105q-4 15 -13 20.5t-36 9.5l-32 4v9h334v-9l-33 -4q-27 -4 -35.5 -9.5t-12.5 -20.5q-6 -24 -6 -105v-194l141 156q36 38 73 86q32 44 32 53q0 10 -41 27z" />
    <glyph glyph-name="L" unicode="L" horiz-adv-x="625" 
d="M565 0h-545v9l32 4q27 4 36 9.5t13 20.5q6 24 6 105v372q0 81 -6 105q-4 15 -13 20.5t-36 9.5l-32 4v9h334v-9l-33 -4q-27 -4 -35.5 -9.5t-12.5 -20.5q-6 -24 -6 -105v-371q0 -86 5 -108q3 -14 11.5 -19.5t29.5 -5.5q74 0 146 35q21 10 39 28q48 49 101 139l7 -4z" />
    <glyph glyph-name="L" unicode="&#x13f;" horiz-adv-x="625" 
d="M565 0h-545v9l32 4q27 4 36 9.5t13 20.5q6 24 6 105v372q0 81 -6 105q-4 15 -13 20.5t-36 9.5l-32 4v9h334v-9l-33 -4q-27 -4 -35.5 -9.5t-12.5 -20.5q-6 -24 -6 -105v-371q0 -86 5 -108q3 -14 11.5 -19.5t29.5 -5.5q74 0 146 35q21 10 39 28q48 49 101 139l7 -4z" />
    <glyph glyph-name="L" unicode="&#x13d;" horiz-adv-x="625" 
d="M565 0h-545v9l32 4q27 4 36 9.5t13 20.5q6 24 6 105v372q0 81 -6 105q-4 15 -13 20.5t-36 9.5l-32 4v9h334v-9l-33 -4q-27 -4 -35.5 -9.5t-12.5 -20.5q-6 -24 -6 -105v-371q0 -86 5 -108q3 -14 11.5 -19.5t29.5 -5.5q74 0 146 35q21 10 39 28q48 49 101 139l7 -4z" />
    <glyph glyph-name="L" unicode="&#x13b;" horiz-adv-x="625" 
d="M565 0h-545v9l32 4q27 4 36 9.5t13 20.5q6 24 6 105v372q0 81 -6 105q-4 15 -13 20.5t-36 9.5l-32 4v9h334v-9l-33 -4q-27 -4 -35.5 -9.5t-12.5 -20.5q-6 -24 -6 -105v-371q0 -86 5 -108q3 -14 11.5 -19.5t29.5 -5.5q74 0 146 35q21 10 39 28q48 49 101 139l7 -4z" />
    <glyph glyph-name="L" unicode="&#x139;" horiz-adv-x="625" 
d="M565 0h-545v9l32 4q27 4 36 9.5t13 20.5q6 24 6 105v372q0 81 -6 105q-4 15 -13 20.5t-36 9.5l-32 4v9h334v-9l-33 -4q-27 -4 -35.5 -9.5t-12.5 -20.5q-6 -24 -6 -105v-371q0 -86 5 -108q3 -14 11.5 -19.5t29.5 -5.5q74 0 146 35q21 10 39 28q48 49 101 139l7 -4z" />
    <glyph glyph-name="M" unicode="M" horiz-adv-x="906" 
d="M330 536l131 -330l122 308q33 86 42 154h251v-9l-20 -5q-56 -15 -68 -39q-13 -23 -10 -92l17 -381q3 -69 10 -95q4 -16 15 -23.5t39 -11.5l28 -3v-9h-327v9l28 3q36 5 44 20q7 13 5 73l-16 442l-216 -552h-13l-235 547l-1 -410q0 -58 11 -78t52 -34l39 -14v-6h-256v6
l38 14q42 13 56 35q12 21 15 79l31 444q-15 31 -33.5 47t-50.5 27l-27 8v8h260q5 -44 39 -132z" />
    <glyph glyph-name="N" unicode="N" horiz-adv-x="759" 
d="M2 668h224l398 -449h2l-10 309q-2 62 -15 84q-14 24 -57 37l-35 13v6h256v-6l-34 -13q-43 -13 -57 -37q-15 -24 -16 -84l-20 -544h-20l-475 545l12 -395q1 -58 14 -80q12 -22 57 -35l35 -13v-6h-256v6l35 13q45 13 57 35q13 22 14 80l12 418l-34 40q-28 31 -43.5 43.5
t-39.5 22.5l-4 2v8z" />
    <glyph glyph-name="O" unicode="O" horiz-adv-x="767" 
d="M384 684q150 0 250 -94t100 -249q0 -149 -96 -252q-98 -105 -255 -105q-150 0 -250 94q-101 95 -101 249q-4 145 96 251.5t256 105.5zM368 667q-75 0 -119 -86t-44 -226q0 -153 54 -253q54 -101 140 -101q75 0 119 86t44 226q0 153 -54 253q-56 101 -140 101z" />
    <glyph glyph-name="O" unicode="&#x1fe;" horiz-adv-x="767" 
d="M384 684q150 0 250 -94t100 -249q0 -149 -96 -252q-98 -105 -255 -105q-150 0 -250 94q-101 95 -101 249q-4 145 96 251.5t256 105.5zM368 667q-75 0 -119 -86t-44 -226q0 -153 54 -253q54 -101 140 -101q75 0 119 86t44 226q0 153 -54 253q-56 101 -140 101z" />
    <glyph glyph-name="O" unicode="&#x150;" horiz-adv-x="767" 
d="M384 684q150 0 250 -94t100 -249q0 -149 -96 -252q-98 -105 -255 -105q-150 0 -250 94q-101 95 -101 249q-4 145 96 251.5t256 105.5zM368 667q-75 0 -119 -86t-44 -226q0 -153 54 -253q54 -101 140 -101q75 0 119 86t44 226q0 153 -54 253q-56 101 -140 101z" />
    <glyph glyph-name="O" unicode="&#x14e;" horiz-adv-x="767" 
d="M384 684q150 0 250 -94t100 -249q0 -149 -96 -252q-98 -105 -255 -105q-150 0 -250 94q-101 95 -101 249q-4 145 96 251.5t256 105.5zM368 667q-75 0 -119 -86t-44 -226q0 -153 54 -253q54 -101 140 -101q75 0 119 86t44 226q0 153 -54 253q-56 101 -140 101z" />
    <glyph glyph-name="O" unicode="&#x14c;" horiz-adv-x="767" 
d="M384 684q150 0 250 -94t100 -249q0 -149 -96 -252q-98 -105 -255 -105q-150 0 -250 94q-101 95 -101 249q-4 145 96 251.5t256 105.5zM368 667q-75 0 -119 -86t-44 -226q0 -153 54 -253q54 -101 140 -101q75 0 119 86t44 226q0 153 -54 253q-56 101 -140 101z" />
    <glyph glyph-name="P" unicode="P" horiz-adv-x="626" 
d="M44 652l-24 1v9q114 10 251 10q339 0 339 -195q0 -90 -85 -144q-86 -56 -221 -54v7q144 28 144 194q0 80 -46.5 128t-131.5 49q-3 -37 -3 -112v-397q0 -83 6 -107q4 -15 13.5 -20.5t37.5 -8.5l39 -3v-9h-343v9l32 4q27 4 36 9.5t13 20.5q6 24 6 105v368q0 81 -6 105
q-4 15 -16 22t-41 9z" />
    <glyph glyph-name="Q" unicode="Q" horiz-adv-x="766" 
d="M205 355q0 -153 54 -253q54 -101 140 -101q75 0 119 86q43 85 43 226q0 153 -53 254q-52 100 -140 100q-75 0 -119 -86t-44 -226zM691 -175q-40 0 -91 22q-52 23 -93 48l-81 53q-42 28 -47 31q-6 4 -32 7q-135 10 -225 102q-90 91 -90 239q-4 145 96 251.5t256 105.5
q150 0 251 -93q99 -95 99 -250q0 -98 -47 -184q-46 -84 -130 -130q155 -121 244 -121q34 0 77 17l19 8l4 -6l-51 -33q-59 -38 -92.5 -52.5t-66.5 -14.5z" />
    <glyph glyph-name="R" unicode="R" horiz-adv-x="696" 
d="M598 499q0 -105 -131 -161q43 -78 102 -171q59 -94 90 -125q15 -15 32 -21t58 -13v-8l-57 -2q-30 -1 -61.5 -2.5t-44.5 -2t-16 -0.5q-48 0 -71 18q-25 20 -55 73l-109 193q-12 20 -19.5 25.5t-21.5 5.5q-1 0 -10 -0.5t-13 -0.5h-4v-159q0 -83 6 -107q4 -15 13.5 -20.5
t37.5 -8.5l39 -3v-9h-343v9l32 4q27 4 36 9.5t13 20.5q6 24 6 105v373q0 77 -7 108q-6 20 -49 29l-31 5v10q84 -4 250 -4q328 0 328 -170zM438 490q0 77 -42 120t-126 44q-3 -37 -3 -113v-219q69 -1 121 41q50 41 50 127z" />
    <glyph glyph-name="R" unicode="&#x158;" horiz-adv-x="696" 
d="M598 499q0 -105 -131 -161q43 -78 102 -171q59 -94 90 -125q15 -15 32 -21t58 -13v-8l-57 -2q-30 -1 -61.5 -2.5t-44.5 -2t-16 -0.5q-48 0 -71 18q-25 20 -55 73l-109 193q-12 20 -19.5 25.5t-21.5 5.5q-1 0 -10 -0.5t-13 -0.5h-4v-159q0 -83 6 -107q4 -15 13.5 -20.5
t37.5 -8.5l39 -3v-9h-343v9l32 4q27 4 36 9.5t13 20.5q6 24 6 105v373q0 77 -7 108q-6 20 -49 29l-31 5v10q84 -4 250 -4q328 0 328 -170zM438 490q0 77 -42 120t-126 44q-3 -37 -3 -113v-219q69 -1 121 41q50 41 50 127z" />
    <glyph glyph-name="R" unicode="&#x156;" horiz-adv-x="696" 
d="M598 499q0 -105 -131 -161q43 -78 102 -171q59 -94 90 -125q15 -15 32 -21t58 -13v-8l-57 -2q-30 -1 -61.5 -2.5t-44.5 -2t-16 -0.5q-48 0 -71 18q-25 20 -55 73l-109 193q-12 20 -19.5 25.5t-21.5 5.5q-1 0 -10 -0.5t-13 -0.5h-4v-159q0 -83 6 -107q4 -15 13.5 -20.5
t37.5 -8.5l39 -3v-9h-343v9l32 4q27 4 36 9.5t13 20.5q6 24 6 105v373q0 77 -7 108q-6 20 -49 29l-31 5v10q84 -4 250 -4q328 0 328 -170zM438 490q0 77 -42 120t-126 44q-3 -37 -3 -113v-219q69 -1 121 41q50 41 50 127z" />
    <glyph glyph-name="R" unicode="&#x154;" horiz-adv-x="696" 
d="M598 499q0 -105 -131 -161q43 -78 102 -171q59 -94 90 -125q15 -15 32 -21t58 -13v-8l-57 -2q-30 -1 -61.5 -2.5t-44.5 -2t-16 -0.5q-48 0 -71 18q-25 20 -55 73l-109 193q-12 20 -19.5 25.5t-21.5 5.5q-1 0 -10 -0.5t-13 -0.5h-4v-159q0 -83 6 -107q4 -15 13.5 -20.5
t37.5 -8.5l39 -3v-9h-343v9l32 4q27 4 36 9.5t13 20.5q6 24 6 105v373q0 77 -7 108q-6 20 -49 29l-31 5v10q84 -4 250 -4q328 0 328 -170zM438 490q0 77 -42 120t-126 44q-3 -37 -3 -113v-219q69 -1 121 41q50 41 50 127z" />
    <glyph glyph-name="S" unicode="S" horiz-adv-x="542" 
d="M464 649q12 -68 13 -177l-8 -2q-48 108 -85 152q-36 40 -81 40q-41 0 -67 -26.5t-26 -66.5q0 -43 30 -77q31 -37 99 -91q86 -68 120 -115q34 -49 34 -114q0 -81 -63 -132q-64 -52 -173 -52q-96 0 -198 43q-17 93 -17 199l8 3q59 -133 99 -179q41 -48 97 -48q47 0 77 31.5
t30 81.5q0 43 -30 80q-29 34 -114 104q-47 37 -72 63q-25 24 -45 63q-21 37 -21 81q0 71 62 121q61 49 168 49q97 0 163 -31z" />
    <glyph glyph-name="S" unicode="&#x218;" horiz-adv-x="542" 
d="M464 649q12 -68 13 -177l-8 -2q-48 108 -85 152q-36 40 -81 40q-41 0 -67 -26.5t-26 -66.5q0 -43 30 -77q31 -37 99 -91q86 -68 120 -115q34 -49 34 -114q0 -81 -63 -132q-64 -52 -173 -52q-96 0 -198 43q-17 93 -17 199l8 3q59 -133 99 -179q41 -48 97 -48q47 0 77 31.5
t30 81.5q0 43 -30 80q-29 34 -114 104q-47 37 -72 63q-25 24 -45 63q-21 37 -21 81q0 71 62 121q61 49 168 49q97 0 163 -31z" />
    <glyph glyph-name="S" unicode="&#x15e;" horiz-adv-x="542" 
d="M464 649q12 -68 13 -177l-8 -2q-48 108 -85 152q-36 40 -81 40q-41 0 -67 -26.5t-26 -66.5q0 -43 30 -77q31 -37 99 -91q86 -68 120 -115q34 -49 34 -114q0 -81 -63 -132q-64 -52 -173 -52q-96 0 -198 43q-17 93 -17 199l8 3q59 -133 99 -179q41 -48 97 -48q47 0 77 31.5
t30 81.5q0 43 -30 80q-29 34 -114 104q-47 37 -72 63q-25 24 -45 63q-21 37 -21 81q0 71 62 121q61 49 168 49q97 0 163 -31z" />
    <glyph glyph-name="S" unicode="&#x15a;" horiz-adv-x="542" 
d="M464 649q12 -68 13 -177l-8 -2q-48 108 -85 152q-36 40 -81 40q-41 0 -67 -26.5t-26 -66.5q0 -43 30 -77q31 -37 99 -91q86 -68 120 -115q34 -49 34 -114q0 -81 -63 -132q-64 -52 -173 -52q-96 0 -198 43q-17 93 -17 199l8 3q59 -133 99 -179q41 -48 97 -48q47 0 77 31.5
t30 81.5q0 43 -30 80q-29 34 -114 104q-47 37 -72 63q-25 24 -45 63q-21 37 -21 81q0 71 62 121q61 49 168 49q97 0 163 -31z" />
    <glyph glyph-name="T" unicode="T" horiz-adv-x="725" 
d="M284 148v500l-34 -2q-52 -1 -75 -14q-43 -21 -96 -98q-18 -25 -61 -91l-7 2l48 253l7 -1l3 -14q3 -12 9 -15.5t23 -3.5h534q24 0 33 4.5t16 17.5l6 12h7l4 -254l-6 -1q-46 101 -69 137q-26 39 -50 50q-30 14 -93 16l-39 2v-500q0 -81 6 -105q4 -15 14.5 -21t40.5 -9
l45 -4v-9h-372v9l45 4q30 3 40.5 9t14.5 21q6 24 6 105z" />
    <glyph glyph-name="T" unicode="&#x21a;" horiz-adv-x="725" 
d="M284 148v500l-34 -2q-52 -1 -75 -14q-43 -21 -96 -98q-18 -25 -61 -91l-7 2l48 253l7 -1l3 -14q3 -12 9 -15.5t23 -3.5h534q24 0 33 4.5t16 17.5l6 12h7l4 -254l-6 -1q-46 101 -69 137q-26 39 -50 50q-30 14 -93 16l-39 2v-500q0 -81 6 -105q4 -15 14.5 -21t40.5 -9
l45 -4v-9h-372v9l45 4q30 3 40.5 9t14.5 21q6 24 6 105z" />
    <glyph glyph-name="T" unicode="&#x164;" horiz-adv-x="725" 
d="M284 148v500l-34 -2q-52 -1 -75 -14q-43 -21 -96 -98q-18 -25 -61 -91l-7 2l48 253l7 -1l3 -14q3 -12 9 -15.5t23 -3.5h534q24 0 33 4.5t16 17.5l6 12h7l4 -254l-6 -1q-46 101 -69 137q-26 39 -50 50q-30 14 -93 16l-39 2v-500q0 -81 6 -105q4 -15 14.5 -21t40.5 -9
l45 -4v-9h-372v9l45 4q30 3 40.5 9t14.5 21q6 24 6 105z" />
    <glyph glyph-name="T" unicode="&#x162;" horiz-adv-x="725" 
d="M284 148v500l-34 -2q-52 -1 -75 -14q-43 -21 -96 -98q-18 -25 -61 -91l-7 2l48 253l7 -1l3 -14q3 -12 9 -15.5t23 -3.5h534q24 0 33 4.5t16 17.5l6 12h7l4 -254l-6 -1q-46 101 -69 137q-26 39 -50 50q-30 14 -93 16l-39 2v-500q0 -81 6 -105q4 -15 14.5 -21t40.5 -9
l45 -4v-9h-372v9l45 4q30 3 40.5 9t14.5 21q6 24 6 105z" />
    <glyph glyph-name="U" unicode="U" horiz-adv-x="725" 
d="M374 -16q-129 0 -202.5 60.5t-73.5 180.5v295q0 78 -7 105q-4 15 -12.5 20.5t-35.5 9.5l-33 4v9h353v-9l-46 -4q-28 -3 -38.5 -9t-14.5 -21q-7 -27 -7 -105v-302q0 -90 44 -135t121 -45q82 0 128.5 47t46.5 133q0 104 -1 142l-4 177q-2 58 -16 78q-15 21 -54 33l-39 14v6
h255v-6l-31 -13q-39 -15 -53 -35q-16 -22 -17 -77l-14 -325q-4 -111 -71 -169.5t-178 -58.5z" />
    <glyph glyph-name="U" unicode="&#x172;" horiz-adv-x="725" 
d="M374 -16q-129 0 -202.5 60.5t-73.5 180.5v295q0 78 -7 105q-4 15 -12.5 20.5t-35.5 9.5l-33 4v9h353v-9l-46 -4q-28 -3 -38.5 -9t-14.5 -21q-7 -27 -7 -105v-302q0 -90 44 -135t121 -45q82 0 128.5 47t46.5 133q0 104 -1 142l-4 177q-2 58 -16 78q-15 21 -54 33l-39 14v6
h255v-6l-31 -13q-39 -15 -53 -35q-16 -22 -17 -77l-14 -325q-4 -111 -71 -169.5t-178 -58.5z" />
    <glyph glyph-name="U" unicode="&#x170;" horiz-adv-x="725" 
d="M374 -16q-129 0 -202.5 60.5t-73.5 180.5v295q0 78 -7 105q-4 15 -12.5 20.5t-35.5 9.5l-33 4v9h353v-9l-46 -4q-28 -3 -38.5 -9t-14.5 -21q-7 -27 -7 -105v-302q0 -90 44 -135t121 -45q82 0 128.5 47t46.5 133q0 104 -1 142l-4 177q-2 58 -16 78q-15 21 -54 33l-39 14v6
h255v-6l-31 -13q-39 -15 -53 -35q-16 -22 -17 -77l-14 -325q-4 -111 -71 -169.5t-178 -58.5z" />
    <glyph glyph-name="U" unicode="&#x16e;" horiz-adv-x="725" 
d="M374 -16q-129 0 -202.5 60.5t-73.5 180.5v295q0 78 -7 105q-4 15 -12.5 20.5t-35.5 9.5l-33 4v9h353v-9l-46 -4q-28 -3 -38.5 -9t-14.5 -21q-7 -27 -7 -105v-302q0 -90 44 -135t121 -45q82 0 128.5 47t46.5 133q0 104 -1 142l-4 177q-2 58 -16 78q-15 21 -54 33l-39 14v6
h255v-6l-31 -13q-39 -15 -53 -35q-16 -22 -17 -77l-14 -325q-4 -111 -71 -169.5t-178 -58.5z" />
    <glyph glyph-name="U" unicode="&#x16c;" horiz-adv-x="725" 
d="M374 -16q-129 0 -202.5 60.5t-73.5 180.5v295q0 78 -7 105q-4 15 -12.5 20.5t-35.5 9.5l-33 4v9h353v-9l-46 -4q-28 -3 -38.5 -9t-14.5 -21q-7 -27 -7 -105v-302q0 -90 44 -135t121 -45q82 0 128.5 47t46.5 133q0 104 -1 142l-4 177q-2 58 -16 78q-15 21 -54 33l-39 14v6
h255v-6l-31 -13q-39 -15 -53 -35q-16 -22 -17 -77l-14 -325q-4 -111 -71 -169.5t-178 -58.5z" />
    <glyph glyph-name="U" unicode="&#x16a;" horiz-adv-x="725" 
d="M374 -16q-129 0 -202.5 60.5t-73.5 180.5v295q0 78 -7 105q-4 15 -12.5 20.5t-35.5 9.5l-33 4v9h353v-9l-46 -4q-28 -3 -38.5 -9t-14.5 -21q-7 -27 -7 -105v-302q0 -90 44 -135t121 -45q82 0 128.5 47t46.5 133q0 104 -1 142l-4 177q-2 58 -16 78q-15 21 -54 33l-39 14v6
h255v-6l-31 -13q-39 -15 -53 -35q-16 -22 -17 -77l-14 -325q-4 -111 -71 -169.5t-178 -58.5z" />
    <glyph glyph-name="V" unicode="V" horiz-adv-x="669" 
d="M542 610q0 12 -10 20t-41 19l-40 13v6h254v-6l-31 -12q-40 -16 -59 -40q-19 -25 -52 -107l-209 -519h-36l-213 531q-36 89 -53 112q-16 21 -59 29l-22 3v9h353v-9l-34 -4q-45 -7 -45 -32q0 -18 10 -45l149 -406h2l82 242q54 154 54 196z" />
    <glyph glyph-name="W" unicode="W" horiz-adv-x="998" 
d="M625 625q0 -21 13 -63l112 -366h2l86 268q41 114 41 145q0 13 -9.5 20.5t-40.5 18.5l-40 14v6h254v-6l-31 -13q-42 -16 -61 -40q-18 -23 -52 -105l-208 -520h-36l-144 456l-179 -456h-36l-187 530q-33 90 -50 113q-16 21 -59 29l-22 3v9h347v-9l-32 -4q-48 -7 -48 -32
q0 -15 11 -46l130 -381h2l110 284l-18 57q-24 75 -37 93q-13 19 -51 25l-24 4v9h343v-9l-35 -4q-51 -7 -51 -30z" />
    <glyph glyph-name="W" unicode="&#x1e84;" horiz-adv-x="998" 
d="M625 625q0 -21 13 -63l112 -366h2l86 268q41 114 41 145q0 13 -9.5 20.5t-40.5 18.5l-40 14v6h254v-6l-31 -13q-42 -16 -61 -40q-18 -23 -52 -105l-208 -520h-36l-144 456l-179 -456h-36l-187 530q-33 90 -50 113q-16 21 -59 29l-22 3v9h347v-9l-32 -4q-48 -7 -48 -32
q0 -15 11 -46l130 -381h2l110 284l-18 57q-24 75 -37 93q-13 19 -51 25l-24 4v9h343v-9l-35 -4q-51 -7 -51 -30z" />
    <glyph glyph-name="W" unicode="&#x1e82;" horiz-adv-x="998" 
d="M625 625q0 -21 13 -63l112 -366h2l86 268q41 114 41 145q0 13 -9.5 20.5t-40.5 18.5l-40 14v6h254v-6l-31 -13q-42 -16 -61 -40q-18 -23 -52 -105l-208 -520h-36l-144 456l-179 -456h-36l-187 530q-33 90 -50 113q-16 21 -59 29l-22 3v9h347v-9l-32 -4q-48 -7 -48 -32
q0 -15 11 -46l130 -381h2l110 284l-18 57q-24 75 -37 93q-13 19 -51 25l-24 4v9h343v-9l-35 -4q-51 -7 -51 -30z" />
    <glyph glyph-name="W" unicode="&#x1e80;" horiz-adv-x="998" 
d="M625 625q0 -21 13 -63l112 -366h2l86 268q41 114 41 145q0 13 -9.5 20.5t-40.5 18.5l-40 14v6h254v-6l-31 -13q-42 -16 -61 -40q-18 -23 -52 -105l-208 -520h-36l-144 456l-179 -456h-36l-187 530q-33 90 -50 113q-16 21 -59 29l-22 3v9h347v-9l-32 -4q-48 -7 -48 -32
q0 -15 11 -46l130 -381h2l110 284l-18 57q-24 75 -37 93q-13 19 -51 25l-24 4v9h343v-9l-35 -4q-51 -7 -51 -30z" />
    <glyph glyph-name="W" unicode="&#x174;" horiz-adv-x="998" 
d="M625 625q0 -21 13 -63l112 -366h2l86 268q41 114 41 145q0 13 -9.5 20.5t-40.5 18.5l-40 14v6h254v-6l-31 -13q-42 -16 -61 -40q-18 -23 -52 -105l-208 -520h-36l-144 456l-179 -456h-36l-187 530q-33 90 -50 113q-16 21 -59 29l-22 3v9h347v-9l-32 -4q-48 -7 -48 -32
q0 -15 11 -46l130 -381h2l110 284l-18 57q-24 75 -37 93q-13 19 -51 25l-24 4v9h343v-9l-35 -4q-51 -7 -51 -30z" />
    <glyph glyph-name="X" unicode="X" horiz-adv-x="731" 
d="M534 618q0 9 -7.5 14t-33.5 17l-35 13v6h253v-6l-24 -8q-49 -20 -77 -39q-30 -21 -67 -70l-117 -154l183 -282q18 -30 27 -40q4 -8 20 -25q21 -24 56 -30l29 -5v-9h-364v9l30 4q51 9 51 26q0 15 -31 64l-106 177l-49 -72q-88 -130 -88 -158q0 -9 8 -15t33 -16l34 -13v-6
h-252v6l23 8q50 20 78 40q31 21 67 69l134 177l-167 259l-27 41l-20 25q-20 23 -56 29l-29 5v9h363v-9l-30 -4q-50 -9 -50 -26q0 -15 30 -64l90 -152l32 47q89 130 89 158z" />
    <glyph glyph-name="Y" unicode="Y" horiz-adv-x="657" 
d="M526 615q0 10 -11.5 17t-43.5 17l-35 13v6h253v-6l-31 -12q-38 -14 -58 -34q-19 -19 -54 -80l-132 -230v-158q0 -78 7 -105q4 -15 12.5 -20.5t35.5 -9.5l33 -4v-9h-334v9l32 4q27 4 35.5 9.5t12.5 20.5q7 27 7 105v55q0 67 -25 114l-131 250q-28 53 -43 68q-14 13 -51 19
l-30 5v9h367v-9l-29 -4q-51 -6 -51 -25q0 -11 22 -56l117 -244h2l77 163q46 89 46 122z" />
    <glyph glyph-name="Y" unicode="&#x1ef2;" horiz-adv-x="657" 
d="M526 615q0 10 -11.5 17t-43.5 17l-35 13v6h253v-6l-31 -12q-38 -14 -58 -34q-19 -19 -54 -80l-132 -230v-158q0 -78 7 -105q4 -15 12.5 -20.5t35.5 -9.5l33 -4v-9h-334v9l32 4q27 4 35.5 9.5t12.5 20.5q7 27 7 105v55q0 67 -25 114l-131 250q-28 53 -43 68q-14 13 -51 19
l-30 5v9h367v-9l-29 -4q-51 -6 -51 -25q0 -11 22 -56l117 -244h2l77 163q46 89 46 122z" />
    <glyph glyph-name="Y" unicode="&#x176;" horiz-adv-x="657" 
d="M526 615q0 10 -11.5 17t-43.5 17l-35 13v6h253v-6l-31 -12q-38 -14 -58 -34q-19 -19 -54 -80l-132 -230v-158q0 -78 7 -105q4 -15 12.5 -20.5t35.5 -9.5l33 -4v-9h-334v9l32 4q27 4 35.5 9.5t12.5 20.5q7 27 7 105v55q0 67 -25 114l-131 250q-28 53 -43 68q-14 13 -51 19
l-30 5v9h367v-9l-29 -4q-51 -6 -51 -25q0 -11 22 -56l117 -244h2l77 163q46 89 46 122z" />
    <glyph glyph-name="Z" unicode="Z" horiz-adv-x="654" 
d="M172 602q-36 -36 -107 -150l-7 2l37 248h6l6 -18q5 -14 10 -17t21 -3h477l3 -5l-400 -640l1 -2l110 2q80 1 121 13q36 10 65 39q43 43 110 138l8 -2l-43 -207h-556l-2 5l402 640l-1 2l-129 -2q-59 -2 -83 -10q-27 -11 -49 -33z" />
    <glyph glyph-name="Z" unicode="&#x17b;" horiz-adv-x="654" 
d="M172 602q-36 -36 -107 -150l-7 2l37 248h6l6 -18q5 -14 10 -17t21 -3h477l3 -5l-400 -640l1 -2l110 2q80 1 121 13q36 10 65 39q43 43 110 138l8 -2l-43 -207h-556l-2 5l402 640l-1 2l-129 -2q-59 -2 -83 -10q-27 -11 -49 -33z" />
    <glyph glyph-name="Z" unicode="&#x179;" horiz-adv-x="654" 
d="M172 602q-36 -36 -107 -150l-7 2l37 248h6l6 -18q5 -14 10 -17t21 -3h477l3 -5l-400 -640l1 -2l110 2q80 1 121 13q36 10 65 39q43 43 110 138l8 -2l-43 -207h-556l-2 5l402 640l-1 2l-129 -2q-59 -2 -83 -10q-27 -11 -49 -33z" />
    <glyph glyph-name="bracketleft" unicode="[" horiz-adv-x="404" 
d="M108 766q206 -6 309 -1l2 -8q-41 -7 -172 -14q-3 -156 -3 -462q0 -305 3 -461q131 -7 172 -14l-2 -8q-103 5 -309 -1q3 74 3 184v601q0 110 -3 184z" />
    <glyph glyph-name="backslash" unicode="\" horiz-adv-x="403" 
d="M44 804l378 -1036l-22 -8l-378 1036z" />
    <glyph glyph-name="bracketright" unicode="]" horiz-adv-x="404" 
d="M296 766q-3 -73 -3 -184v-601q0 -111 3 -184q-206 6 -309 1l-2 8q41 7 172 14q3 156 3 461q0 306 -3 462q-131 7 -172 14l2 8q103 -5 309 1z" />
    <glyph glyph-name="underscore" unicode="_" horiz-adv-x="419" 
d="M419 -100v-24h-419v24h419z" />
    <glyph glyph-name="grave" unicode="`" 
d="M136 710q0 25 20.5 45t49.5 20t47 -23q12 -17 27 -48l36 -74l53 -99l-4 -3l-103 67l-74 45q-52 31 -52 70z" />
    <glyph glyph-name="a" unicode="a" horiz-adv-x="466" 
d="M185 410q-27 0 -46 -11l27 -85q-13 -9 -39 -16q-30 -9 -51 -9q-45 0 -45 31q0 21 36 57q41 41 97 71q58 32 104 32q67 0 99 -31q31 -31 31 -111v-228q0 -36 16 -52q11 -11 28 -11q16 0 33 12l3 -4q-17 -27 -50.5 -48.5t-69.5 -21.5q-35 0 -61 18.5t-35 51.5l-3 1l-16 -13
q-35 -30 -60 -42t-57 -12q-43 0 -71 29.5t-28 69.5q0 34 22 57q26 26 134 64l77 26v69q0 68 -21 88q-15 18 -54 18zM260 67v156q-57 -25 -75 -42q-20 -20 -20 -53t16 -52q17 -20 40 -20q19 0 39 11z" />
    <glyph glyph-name="a" unicode="&#x1fb;" horiz-adv-x="466" 
d="M185 410q-27 0 -46 -11l27 -85q-13 -9 -39 -16q-30 -9 -51 -9q-45 0 -45 31q0 21 36 57q41 41 97 71q58 32 104 32q67 0 99 -31q31 -31 31 -111v-228q0 -36 16 -52q11 -11 28 -11q16 0 33 12l3 -4q-17 -27 -50.5 -48.5t-69.5 -21.5q-35 0 -61 18.5t-35 51.5l-3 1l-16 -13
q-35 -30 -60 -42t-57 -12q-43 0 -71 29.5t-28 69.5q0 34 22 57q26 26 134 64l77 26v69q0 68 -21 88q-15 18 -54 18zM260 67v156q-57 -25 -75 -42q-20 -20 -20 -53t16 -52q17 -20 40 -20q19 0 39 11z" />
    <glyph glyph-name="a" unicode="&#x105;" horiz-adv-x="466" 
d="M185 410q-27 0 -46 -11l27 -85q-13 -9 -39 -16q-30 -9 -51 -9q-45 0 -45 31q0 21 36 57q41 41 97 71q58 32 104 32q67 0 99 -31q31 -31 31 -111v-228q0 -36 16 -52q11 -11 28 -11q16 0 33 12l3 -4q-17 -27 -50.5 -48.5t-69.5 -21.5q-35 0 -61 18.5t-35 51.5l-3 1l-16 -13
q-35 -30 -60 -42t-57 -12q-43 0 -71 29.5t-28 69.5q0 34 22 57q26 26 134 64l77 26v69q0 68 -21 88q-15 18 -54 18zM260 67v156q-57 -25 -75 -42q-20 -20 -20 -53t16 -52q17 -20 40 -20q19 0 39 11z" />
    <glyph glyph-name="a" unicode="&#x103;" horiz-adv-x="466" 
d="M185 410q-27 0 -46 -11l27 -85q-13 -9 -39 -16q-30 -9 -51 -9q-45 0 -45 31q0 21 36 57q41 41 97 71q58 32 104 32q67 0 99 -31q31 -31 31 -111v-228q0 -36 16 -52q11 -11 28 -11q16 0 33 12l3 -4q-17 -27 -50.5 -48.5t-69.5 -21.5q-35 0 -61 18.5t-35 51.5l-3 1l-16 -13
q-35 -30 -60 -42t-57 -12q-43 0 -71 29.5t-28 69.5q0 34 22 57q26 26 134 64l77 26v69q0 68 -21 88q-15 18 -54 18zM260 67v156q-57 -25 -75 -42q-20 -20 -20 -53t16 -52q17 -20 40 -20q19 0 39 11z" />
    <glyph glyph-name="a" unicode="&#x101;" horiz-adv-x="466" 
d="M185 410q-27 0 -46 -11l27 -85q-13 -9 -39 -16q-30 -9 -51 -9q-45 0 -45 31q0 21 36 57q41 41 97 71q58 32 104 32q67 0 99 -31q31 -31 31 -111v-228q0 -36 16 -52q11 -11 28 -11q16 0 33 12l3 -4q-17 -27 -50.5 -48.5t-69.5 -21.5q-35 0 -61 18.5t-35 51.5l-3 1l-16 -13
q-35 -30 -60 -42t-57 -12q-43 0 -71 29.5t-28 69.5q0 34 22 57q26 26 134 64l77 26v69q0 68 -21 88q-15 18 -54 18zM260 67v156q-57 -25 -75 -42q-20 -20 -20 -53t16 -52q17 -20 40 -20q19 0 39 11z" />
    <glyph glyph-name="b" unicode="b" horiz-adv-x="537" 
d="M338 475q79 0 128 -61t49 -162q0 -109 -71 -188q-72 -78 -189 -78q-84 0 -149 38q-17 -6 -53 -29l-4 2q7 41 7 91v483q0 24 -11 38l-29 32v3l182 62l3 -2q-3 -42 -3 -75v-218l4 -2q62 66 136 66zM246 407q-24 0 -48 -12l-2 -283q-1 -109 71 -109q42 0 71.5 58t29.5 151
q0 88 -35 141.5t-87 53.5z" />
    <glyph glyph-name="c" unicode="c" horiz-adv-x="447" 
d="M320 67q60 0 107 43l3 -5q-64 -121 -191 -121q-99 0 -157 69q-60 67 -60 166q0 104 71 181q70 75 185 75q70 0 112.5 -25t42.5 -66q0 -27 -20 -46.5t-45 -19.5q-18 0 -37 28l-56 92q-13 18 -25 18q-33 0 -64 -49q-32 -50 -32 -133q0 -96 48 -151q47 -56 118 -56z" />
    <glyph glyph-name="c" unicode="&#x10d;" horiz-adv-x="447" 
d="M320 67q60 0 107 43l3 -5q-64 -121 -191 -121q-99 0 -157 69q-60 67 -60 166q0 104 71 181q70 75 185 75q70 0 112.5 -25t42.5 -66q0 -27 -20 -46.5t-45 -19.5q-18 0 -37 28l-56 92q-13 18 -25 18q-33 0 -64 -49q-32 -50 -32 -133q0 -96 48 -151q47 -56 118 -56z" />
    <glyph glyph-name="c" unicode="&#x10b;" horiz-adv-x="447" 
d="M320 67q60 0 107 43l3 -5q-64 -121 -191 -121q-99 0 -157 69q-60 67 -60 166q0 104 71 181q70 75 185 75q70 0 112.5 -25t42.5 -66q0 -27 -20 -46.5t-45 -19.5q-18 0 -37 28l-56 92q-13 18 -25 18q-33 0 -64 -49q-32 -50 -32 -133q0 -96 48 -151q47 -56 118 -56z" />
    <glyph glyph-name="c" unicode="&#x107;" horiz-adv-x="447" 
d="M320 67q60 0 107 43l3 -5q-64 -121 -191 -121q-99 0 -157 69q-60 67 -60 166q0 104 71 181q70 75 185 75q70 0 112.5 -25t42.5 -66q0 -27 -20 -46.5t-45 -19.5q-18 0 -37 28l-56 92q-13 18 -25 18q-33 0 -64 -49q-32 -50 -32 -133q0 -96 48 -151q47 -56 118 -56z" />
    <glyph glyph-name="d" unicode="d" horiz-adv-x="543" 
d="M258 473q44 0 80 -14v112q0 23 -12 37l-29 33v3l183 62l3 -2q-3 -40 -3 -75v-576q0 -18 5 -23t24 -5l23 1l1 -9l-200 -37l-2 3q4 33 4 39l2 27l-4 2q-64 -67 -136 -67q-77 0 -127 63q-50 62 -50 164q0 110 67 186q66 76 171 76zM269 452q-43 0 -72.5 -57t-29.5 -149
q0 -88 35 -140.5t87 -52.5q27 0 49 12l2 278q0 109 -71 109z" />
    <glyph glyph-name="e" unicode="e" horiz-adv-x="463" 
d="M257 475q86 0 136 -43q50 -44 50 -105q0 -18 -4 -29l-284 1v-18q0 -97 42.5 -148.5t117.5 -51.5q78 0 130 55l4 -3q-30 -70 -84.5 -109.5t-125.5 -39.5q-99 0 -158 68t-59 165q0 110 68 184t167 74zM202 436q-40 -40 -46 -124q142 3 163 11q2 55 -17.5 94.5t-52.5 39.5
q-26 0 -47 -21z" />
    <glyph glyph-name="e" unicode="&#x11b;" horiz-adv-x="463" 
d="M257 475q86 0 136 -43q50 -44 50 -105q0 -18 -4 -29l-284 1v-18q0 -97 42.5 -148.5t117.5 -51.5q78 0 130 55l4 -3q-30 -70 -84.5 -109.5t-125.5 -39.5q-99 0 -158 68t-59 165q0 110 68 184t167 74zM202 436q-40 -40 -46 -124q142 3 163 11q2 55 -17.5 94.5t-52.5 39.5
q-26 0 -47 -21z" />
    <glyph glyph-name="e" unicode="&#x119;" horiz-adv-x="463" 
d="M257 475q86 0 136 -43q50 -44 50 -105q0 -18 -4 -29l-284 1v-18q0 -97 42.5 -148.5t117.5 -51.5q78 0 130 55l4 -3q-30 -70 -84.5 -109.5t-125.5 -39.5q-99 0 -158 68t-59 165q0 110 68 184t167 74zM202 436q-40 -40 -46 -124q142 3 163 11q2 55 -17.5 94.5t-52.5 39.5
q-26 0 -47 -21z" />
    <glyph glyph-name="e" unicode="&#x117;" horiz-adv-x="463" 
d="M257 475q86 0 136 -43q50 -44 50 -105q0 -18 -4 -29l-284 1v-18q0 -97 42.5 -148.5t117.5 -51.5q78 0 130 55l4 -3q-30 -70 -84.5 -109.5t-125.5 -39.5q-99 0 -158 68t-59 165q0 110 68 184t167 74zM202 436q-40 -40 -46 -124q142 3 163 11q2 55 -17.5 94.5t-52.5 39.5
q-26 0 -47 -21z" />
    <glyph glyph-name="e" unicode="&#x115;" horiz-adv-x="463" 
d="M257 475q86 0 136 -43q50 -44 50 -105q0 -18 -4 -29l-284 1v-18q0 -97 42.5 -148.5t117.5 -51.5q78 0 130 55l4 -3q-30 -70 -84.5 -109.5t-125.5 -39.5q-99 0 -158 68t-59 165q0 110 68 184t167 74zM202 436q-40 -40 -46 -124q142 3 163 11q2 55 -17.5 94.5t-52.5 39.5
q-26 0 -47 -21z" />
    <glyph glyph-name="e" unicode="&#x113;" horiz-adv-x="463" 
d="M257 475q86 0 136 -43q50 -44 50 -105q0 -18 -4 -29l-284 1v-18q0 -97 42.5 -148.5t117.5 -51.5q78 0 130 55l4 -3q-30 -70 -84.5 -109.5t-125.5 -39.5q-99 0 -158 68t-59 165q0 110 68 184t167 74zM202 436q-40 -40 -46 -124q142 3 163 11q2 55 -17.5 94.5t-52.5 39.5
q-26 0 -47 -21z" />
    <glyph glyph-name="f" unicode="f" horiz-adv-x="340" 
d="M338 391h-121v-358q0 -12 4.5 -16t23.5 -6l31 -3v-8h-245v8l16 3q18 3 22.5 7t4.5 16v357h-71v5l71 61l3 25q12 104 76.5 164t162.5 60q57 0 92 -23.5t35 -57.5q0 -29 -21.5 -49.5t-49.5 -20.5q-18 0 -34 27l-47 87q-9 16 -17 16q-28 0 -45 -51t-15 -144l1 -31h141z" />
    <glyph glyph-name="g" unicode="g" horiz-adv-x="492" 
d="M188 -234q-81 0 -128.5 29.5t-47.5 77.5q0 65 99 106q-33 8 -51 26q-29 32 -29 71q0 49 91 101q-40 21 -62.5 56.5t-22.5 78.5q0 72 53 116.5t140 44.5q27 0 77 -8q47 -9 68 -9q38 0 112 23q16 -19 16 -45q0 -20 -11.5 -31.5t-30.5 -11.5q-25 0 -76 30l-20 12l-3 -4
q57 -53 57 -114q0 -72 -52.5 -117t-138.5 -45q-53 0 -95 19q-23 -20 -23 -44q0 -30 53 -30q30 0 60 1h75q119 0 157 -38q31 -30 31 -78q0 -62 -60 -122q-95 -95 -238 -95zM140 -25q-2 0 -8 0.5t-8 0.5q-15 -19 -15 -46q0 -47 43.5 -76t115.5 -29q76 0 113 22.5t37 61.5
q0 28 -15 43q-14 14 -43 19t-98 5q-35 0 -62 -1h-60zM228 459q-28 0 -46 -39t-18 -96q0 -69 20 -112t54 -43q56 0 56 124q0 166 -66 166z" />
    <glyph glyph-name="g" unicode="&#x123;" horiz-adv-x="492" 
d="M188 -234q-81 0 -128.5 29.5t-47.5 77.5q0 65 99 106q-33 8 -51 26q-29 32 -29 71q0 49 91 101q-40 21 -62.5 56.5t-22.5 78.5q0 72 53 116.5t140 44.5q27 0 77 -8q47 -9 68 -9q38 0 112 23q16 -19 16 -45q0 -20 -11.5 -31.5t-30.5 -11.5q-25 0 -76 30l-20 12l-3 -4
q57 -53 57 -114q0 -72 -52.5 -117t-138.5 -45q-53 0 -95 19q-23 -20 -23 -44q0 -30 53 -30q30 0 60 1h75q119 0 157 -38q31 -30 31 -78q0 -62 -60 -122q-95 -95 -238 -95zM140 -25q-2 0 -8 0.5t-8 0.5q-15 -19 -15 -46q0 -47 43.5 -76t115.5 -29q76 0 113 22.5t37 61.5
q0 28 -15 43q-14 14 -43 19t-98 5q-35 0 -62 -1h-60zM228 459q-28 0 -46 -39t-18 -96q0 -69 20 -112t54 -43q56 0 56 124q0 166 -66 166z" />
    <glyph glyph-name="g" unicode="&#x121;" horiz-adv-x="492" 
d="M188 -234q-81 0 -128.5 29.5t-47.5 77.5q0 65 99 106q-33 8 -51 26q-29 32 -29 71q0 49 91 101q-40 21 -62.5 56.5t-22.5 78.5q0 72 53 116.5t140 44.5q27 0 77 -8q47 -9 68 -9q38 0 112 23q16 -19 16 -45q0 -20 -11.5 -31.5t-30.5 -11.5q-25 0 -76 30l-20 12l-3 -4
q57 -53 57 -114q0 -72 -52.5 -117t-138.5 -45q-53 0 -95 19q-23 -20 -23 -44q0 -30 53 -30q30 0 60 1h75q119 0 157 -38q31 -30 31 -78q0 -62 -60 -122q-95 -95 -238 -95zM140 -25q-2 0 -8 0.5t-8 0.5q-15 -19 -15 -46q0 -47 43.5 -76t115.5 -29q76 0 113 22.5t37 61.5
q0 28 -15 43q-14 14 -43 19t-98 5q-35 0 -62 -1h-60zM228 459q-28 0 -46 -39t-18 -96q0 -69 20 -112t54 -43q56 0 56 124q0 166 -66 166z" />
    <glyph glyph-name="g" unicode="&#x11f;" horiz-adv-x="492" 
d="M188 -234q-81 0 -128.5 29.5t-47.5 77.5q0 65 99 106q-33 8 -51 26q-29 32 -29 71q0 49 91 101q-40 21 -62.5 56.5t-22.5 78.5q0 72 53 116.5t140 44.5q27 0 77 -8q47 -9 68 -9q38 0 112 23q16 -19 16 -45q0 -20 -11.5 -31.5t-30.5 -11.5q-25 0 -76 30l-20 12l-3 -4
q57 -53 57 -114q0 -72 -52.5 -117t-138.5 -45q-53 0 -95 19q-23 -20 -23 -44q0 -30 53 -30q30 0 60 1h75q119 0 157 -38q31 -30 31 -78q0 -62 -60 -122q-95 -95 -238 -95zM140 -25q-2 0 -8 0.5t-8 0.5q-15 -19 -15 -46q0 -47 43.5 -76t115.5 -29q76 0 113 22.5t37 61.5
q0 28 -15 43q-14 14 -43 19t-98 5q-35 0 -62 -1h-60zM228 459q-28 0 -46 -39t-18 -96q0 -69 20 -112t54 -43q56 0 56 124q0 166 -66 166z" />
    <glyph glyph-name="h" unicode="h" horiz-adv-x="536" 
d="M375 475q45 0 74 -28q30 -31 30 -101v-314q0 -10 4.5 -14t19.5 -7l19 -3v-8h-223v8l19 3q12 2 16 6.5t4 14.5v254q0 68 -18 87q-16 16 -50 16q-29 0 -65 -18v-339q0 -10 4 -14.5t16 -6.5l19 -3v-8h-224v8l19 3q15 3 19.5 7t4.5 14v539q0 23 -11 37l-29 33v3l183 62l2 -2
q-3 -42 -3 -75v-243l4 -2q91 91 166 91z" />
    <glyph glyph-name="h" unicode="&#x127;" horiz-adv-x="536" 
d="M375 475q45 0 74 -28q30 -31 30 -101v-314q0 -10 4.5 -14t19.5 -7l19 -3v-8h-223v8l19 3q12 2 16 6.5t4 14.5v254q0 68 -18 87q-16 16 -50 16q-29 0 -65 -18v-339q0 -10 4 -14.5t16 -6.5l19 -3v-8h-224v8l19 3q15 3 19.5 7t4.5 14v539q0 23 -11 37l-29 33v3l183 62l2 -2
q-3 -42 -3 -75v-243l4 -2q91 91 166 91z" />
    <glyph glyph-name="i" unicode="i" horiz-adv-x="262" 
d="M56 613q0 31 25.5 54.5t60.5 23.5q32 0 54 -22.5t22 -53.5q0 -33 -23 -54.5t-59 -21.5q-33 0 -56.5 21.5t-23.5 52.5zM205 405v-371q0 -12 4.5 -16t23.5 -7l15 -3v-8h-228v8l16 3q18 3 22.5 7t4.5 16v314q0 23 -11 37l-29 32v3l183 62l2 -3q-3 -41 -3 -74z" />
    <glyph glyph-name="i" unicode="&#x12f;" horiz-adv-x="262" 
d="M56 613q0 31 25.5 54.5t60.5 23.5q32 0 54 -22.5t22 -53.5q0 -33 -23 -54.5t-59 -21.5q-33 0 -56.5 21.5t-23.5 52.5zM205 405v-371q0 -12 4.5 -16t23.5 -7l15 -3v-8h-228v8l16 3q18 3 22.5 7t4.5 16v314q0 23 -11 37l-29 32v3l183 62l2 -3q-3 -41 -3 -74z" />
    <glyph glyph-name="i" unicode="&#x12d;" horiz-adv-x="262" 
d="M56 613q0 31 25.5 54.5t60.5 23.5q32 0 54 -22.5t22 -53.5q0 -33 -23 -54.5t-59 -21.5q-33 0 -56.5 21.5t-23.5 52.5zM205 405v-371q0 -12 4.5 -16t23.5 -7l15 -3v-8h-228v8l16 3q18 3 22.5 7t4.5 16v314q0 23 -11 37l-29 32v3l183 62l2 -3q-3 -41 -3 -74z" />
    <glyph glyph-name="i" unicode="&#x12b;" horiz-adv-x="262" 
d="M56 613q0 31 25.5 54.5t60.5 23.5q32 0 54 -22.5t22 -53.5q0 -33 -23 -54.5t-59 -21.5q-33 0 -56.5 21.5t-23.5 52.5zM205 405v-371q0 -12 4.5 -16t23.5 -7l15 -3v-8h-228v8l16 3q18 3 22.5 7t4.5 16v314q0 23 -11 37l-29 32v3l183 62l2 -3q-3 -41 -3 -74z" />
    <glyph glyph-name="j" unicode="j" horiz-adv-x="264" 
d="M209 405v-352q0 -65 -9 -104q-18 -73 -73 -128q-52 -55 -131 -55q-40 0 -65 19t-25 52q0 27 18.5 45.5t44.5 18.5q15 0 26 -18l46 -88q7 -12 14 -5q12 12 12 97v460q0 24 -11 37l-29 33v3l183 62l2 -3q-3 -41 -3 -74zM59 613q0 31 25.5 54.5t60.5 23.5q33 0 55 -22.5
t22 -53.5t-24 -53.5t-59 -22.5q-33 0 -56.5 21.5t-23.5 52.5z" />
    <glyph glyph-name="k" unicode="k" horiz-adv-x="528" 
d="M395 384l-67 -58l154 -268q24 -41 56 -47l16 -3v-8h-255v8l17 3q17 3 18.5 9.5t-11.5 28.5l-77 136q-19 35 -39 35h-2v-187q0 -11 4 -15.5t19 -6.5l16 -3v-8h-224v8l16 3q18 3 22.5 7t4.5 16v537q0 23 -11 37l-29 33v3l183 62l2 -2q-3 -42 -3 -75v-402l102 110
q62 65 62 80q0 9 -44 23l-40 12v7h245v-7l-34 -11q-32 -9 -49 -18q-14 -9 -52 -39z" />
    <glyph glyph-name="k" unicode="&#x137;" horiz-adv-x="528" 
d="M395 384l-67 -58l154 -268q24 -41 56 -47l16 -3v-8h-255v8l17 3q17 3 18.5 9.5t-11.5 28.5l-77 136q-19 35 -39 35h-2v-187q0 -11 4 -15.5t19 -6.5l16 -3v-8h-224v8l16 3q18 3 22.5 7t4.5 16v537q0 23 -11 37l-29 33v3l183 62l2 -2q-3 -42 -3 -75v-402l102 110
q62 65 62 80q0 9 -44 23l-40 12v7h245v-7l-34 -11q-32 -9 -49 -18q-14 -9 -52 -39z" />
    <glyph glyph-name="l" unicode="l" horiz-adv-x="265" 
d="M205 629v-596q0 -11 4.5 -15t23.5 -7l15 -3v-8h-228v8l16 3q18 3 22.5 7t4.5 16v537q0 23 -11 37l-29 33v3l183 62l2 -2q-3 -42 -3 -75z" />
    <glyph glyph-name="l" unicode="&#x140;" horiz-adv-x="265" 
d="M205 629v-596q0 -11 4.5 -15t23.5 -7l15 -3v-8h-228v8l16 3q18 3 22.5 7t4.5 16v537q0 23 -11 37l-29 33v3l183 62l2 -2q-3 -42 -3 -75z" />
    <glyph glyph-name="l" unicode="&#x13e;" horiz-adv-x="265" 
d="M205 629v-596q0 -11 4.5 -15t23.5 -7l15 -3v-8h-228v8l16 3q18 3 22.5 7t4.5 16v537q0 23 -11 37l-29 33v3l183 62l2 -2q-3 -42 -3 -75z" />
    <glyph glyph-name="l" unicode="&#x13c;" horiz-adv-x="265" 
d="M205 629v-596q0 -11 4.5 -15t23.5 -7l15 -3v-8h-228v8l16 3q18 3 22.5 7t4.5 16v537q0 23 -11 37l-29 33v3l183 62l2 -2q-3 -42 -3 -75z" />
    <glyph glyph-name="l" unicode="&#x13a;" horiz-adv-x="265" 
d="M205 629v-596q0 -11 4.5 -15t23.5 -7l15 -3v-8h-228v8l16 3q18 3 22.5 7t4.5 16v537q0 23 -11 37l-29 33v3l183 62l2 -2q-3 -42 -3 -75z" />
    <glyph glyph-name="m" unicode="m" horiz-adv-x="795" 
d="M640 475q41 0 70 -28q28 -29 28 -101v-313q0 -12 4 -15.5t23 -6.5l16 -3v-8h-222v8l16 3q14 2 17.5 6t3.5 16v253q0 71 -17 88q-15 15 -43 15q-27 0 -65 -20q1 -7 1 -37v-299q0 -12 3.5 -16t17.5 -6l16 -3v-8h-217v8l16 3q15 2 18.5 6t3.5 16v253q0 70 -18 88
q-34 34 -107 -3v-338q0 -12 3.5 -16t18.5 -6l16 -3v-8h-223v8l16 3q18 3 22.5 7t4.5 16v313q0 24 -11 37l-29 33v3l186 63l2 -3q-4 -48 -4 -64l-1 -29l4 -2q88 90 163 90q41 0 70 -28q21 -22 27 -67q90 95 170 95z" />
    <glyph glyph-name="n" unicode="n" horiz-adv-x="536" 
d="M375 475q45 0 74 -28q30 -31 30 -101v-313q0 -12 4.5 -15.5t23.5 -6.5l15 -3v-8h-223v8l15 3q15 2 19.5 6t4.5 16v253q0 68 -18 87q-16 16 -50 16q-29 0 -65 -18v-338q0 -11 4 -15.5t19 -6.5l16 -3v-8h-224v8l16 3q18 3 22.5 7t4.5 16v313q0 24 -11 37l-29 33v3l186 63
l2 -3q-4 -48 -4 -64l-1 -29l4 -2q88 90 165 90z" />
    <glyph glyph-name="n" unicode="&#x148;" horiz-adv-x="536" 
d="M375 475q45 0 74 -28q30 -31 30 -101v-313q0 -12 4.5 -15.5t23.5 -6.5l15 -3v-8h-223v8l15 3q15 2 19.5 6t4.5 16v253q0 68 -18 87q-16 16 -50 16q-29 0 -65 -18v-338q0 -11 4 -15.5t19 -6.5l16 -3v-8h-224v8l16 3q18 3 22.5 7t4.5 16v313q0 24 -11 37l-29 33v3l186 63
l2 -3q-4 -48 -4 -64l-1 -29l4 -2q88 90 165 90z" />
    <glyph glyph-name="n" unicode="&#x146;" horiz-adv-x="536" 
d="M375 475q45 0 74 -28q30 -31 30 -101v-313q0 -12 4.5 -15.5t23.5 -6.5l15 -3v-8h-223v8l15 3q15 2 19.5 6t4.5 16v253q0 68 -18 87q-16 16 -50 16q-29 0 -65 -18v-338q0 -11 4 -15.5t19 -6.5l16 -3v-8h-224v8l16 3q18 3 22.5 7t4.5 16v313q0 24 -11 37l-29 33v3l186 63
l2 -3q-4 -48 -4 -64l-1 -29l4 -2q88 90 165 90z" />
    <glyph glyph-name="n" unicode="&#x144;" horiz-adv-x="536" 
d="M375 475q45 0 74 -28q30 -31 30 -101v-313q0 -12 4.5 -15.5t23.5 -6.5l15 -3v-8h-223v8l15 3q15 2 19.5 6t4.5 16v253q0 68 -18 87q-16 16 -50 16q-29 0 -65 -18v-338q0 -11 4 -15.5t19 -6.5l16 -3v-8h-224v8l16 3q18 3 22.5 7t4.5 16v313q0 24 -11 37l-29 33v3l186 63
l2 -3q-4 -48 -4 -64l-1 -29l4 -2q88 90 165 90z" />
    <glyph glyph-name="o" unicode="o" horiz-adv-x="532" 
d="M271 475q109 0 174 -71q65 -73 65 -170q0 -109 -71 -180q-70 -70 -178 -70q-109 0 -174 72q-65 73 -65 170q0 108 71 179q70 70 178 70zM272 2q38 0 62 48q26 54 26 169q0 95 -27 167q-29 71 -73 71q-40 0 -62 -48q-27 -54 -27 -168q0 -98 28 -167q27 -72 73 -72z" />
    <glyph glyph-name="o" unicode="&#x1ff;" horiz-adv-x="532" 
d="M271 475q109 0 174 -71q65 -73 65 -170q0 -109 -71 -180q-70 -70 -178 -70q-109 0 -174 72q-65 73 -65 170q0 108 71 179q70 70 178 70zM272 2q38 0 62 48q26 54 26 169q0 95 -27 167q-29 71 -73 71q-40 0 -62 -48q-27 -54 -27 -168q0 -98 28 -167q27 -72 73 -72z" />
    <glyph glyph-name="o" unicode="&#x151;" horiz-adv-x="532" 
d="M271 475q109 0 174 -71q65 -73 65 -170q0 -109 -71 -180q-70 -70 -178 -70q-109 0 -174 72q-65 73 -65 170q0 108 71 179q70 70 178 70zM272 2q38 0 62 48q26 54 26 169q0 95 -27 167q-29 71 -73 71q-40 0 -62 -48q-27 -54 -27 -168q0 -98 28 -167q27 -72 73 -72z" />
    <glyph glyph-name="o" unicode="&#x14f;" horiz-adv-x="532" 
d="M271 475q109 0 174 -71q65 -73 65 -170q0 -109 -71 -180q-70 -70 -178 -70q-109 0 -174 72q-65 73 -65 170q0 108 71 179q70 70 178 70zM272 2q38 0 62 48q26 54 26 169q0 95 -27 167q-29 71 -73 71q-40 0 -62 -48q-27 -54 -27 -168q0 -98 28 -167q27 -72 73 -72z" />
    <glyph glyph-name="o" unicode="&#x14d;" horiz-adv-x="532" 
d="M271 475q109 0 174 -71q65 -73 65 -170q0 -109 -71 -180q-70 -70 -178 -70q-109 0 -174 72q-65 73 -65 170q0 108 71 179q70 70 178 70zM272 2q38 0 62 48q26 54 26 169q0 95 -27 167q-29 71 -73 71q-40 0 -62 -48q-27 -54 -27 -168q0 -98 28 -167q27 -72 73 -72z" />
    <glyph glyph-name="p" unicode="p" horiz-adv-x="541" 
d="M519 248q0 -108 -66 -185q-68 -77 -171 -77q-40 0 -80 14v-190q0 -12 5 -16t24 -7l30 -3v-8h-244v8l16 3q18 3 22.5 7t4.5 16v537q0 25 -11 38l-29 33v2l186 63l3 -3q-3 -23 -6 -58v-11l4 -2q61 66 135 66q78 0 128 -62q49 -62 49 -165zM372 214q0 87 -35 140t-87 53
q-22 0 -48 -12l-2 -278q-1 -109 70 -109q43 0 72.5 57t29.5 149z" />
    <glyph glyph-name="q" unicode="q" horiz-adv-x="538" 
d="M281 475q81 0 149 -44q22 17 49 43l5 -2q-5 -52 -5 -103v-559q0 -12 4.5 -16t23.5 -7l15 -3v-8h-244v8l30 3q20 3 25 7t5 16v240l-4 2q-64 -66 -137 -66q-78 0 -128 62q-49 61 -49 162q0 110 72 188q71 77 189 77zM269 458q-43 0 -72.5 -58t-29.5 -151q0 -88 35 -141
t87 -53q24 0 49 11l2 283q0 109 -71 109z" />
    <glyph glyph-name="r" unicode="r" horiz-adv-x="390" 
d="M335 479q27 0 43 -17t16 -45q0 -54 -41 -93q-62 34 -97 34q-29 0 -51 -37v-288q0 -12 4.5 -16t23.5 -6l33 -3v-8h-246v8l16 3q18 3 22.5 7t4.5 16v313q0 26 -11 37l-29 33v3l186 63l2 -3l-4 -62l-4 -72l5 -2q23 63 57 99t70 36z" />
    <glyph glyph-name="s" unicode="s" horiz-adv-x="397" 
d="M266 65q0 29 -20.5 52t-72.5 54q-47 29 -71 47q-22 16 -42 48t-20 68q0 60 49 100q49 39 126 39q73 0 130 -25q7 -41 7 -118l-7 -2q-50 75 -80 100q-31 26 -58 26t-42.5 -15t-15.5 -40q0 -27 18 -47.5t61 -46.5q82 -48 114.5 -84t32.5 -86q0 -68 -52.5 -108.5
t-136.5 -40.5q-82 0 -146 26q-14 78 -15 148l7 2q58 -85 97 -121t77 -36q28 0 44 16t16 44z" />
    <glyph glyph-name="t" unicode="t" horiz-adv-x="362" 
d="M201 -15q-68 0 -101 33q-34 34 -34 104v269h-55v15q110 86 198 172l4 -2l-4 -117h150l-12 -69l-140 1v-241q0 -42 20 -62q16 -18 59 -18q42 0 80 27l3 -3q-55 -109 -168 -109z" />
    <glyph glyph-name="t" unicode="&#x21b;" horiz-adv-x="362" 
d="M201 -15q-68 0 -101 33q-34 34 -34 104v269h-55v15q110 86 198 172l4 -2l-4 -117h150l-12 -69l-140 1v-241q0 -42 20 -62q16 -18 59 -18q42 0 80 27l3 -3q-55 -109 -168 -109z" />
    <glyph glyph-name="t" unicode="&#x165;" horiz-adv-x="362" 
d="M201 -15q-68 0 -101 33q-34 34 -34 104v269h-55v15q110 86 198 172l4 -2l-4 -117h150l-12 -69l-140 1v-241q0 -42 20 -62q16 -18 59 -18q42 0 80 27l3 -3q-55 -109 -168 -109z" />
    <glyph glyph-name="t" unicode="&#x163;" horiz-adv-x="362" 
d="M201 -15q-68 0 -101 33q-34 34 -34 104v269h-55v15q110 86 198 172l4 -2l-4 -117h150l-12 -69l-140 1v-241q0 -42 20 -62q16 -18 59 -18q42 0 80 27l3 -3q-55 -109 -168 -109z" />
    <glyph glyph-name="u" unicode="u" horiz-adv-x="535" 
d="M160 -14q-46 0 -72 27q-31 28 -31 101v282q0 21 -3 27t-15 11l-35 14v6l196 18l2 -3q-3 -39 -3 -84v-211q0 -69 18 -87q16 -16 48 -16q27 0 64 19v306q0 21 -3 27.5t-15 11.5l-35 14v5l195 18l2 -3q-3 -39 -3 -86v-326q0 -18 5 -23.5t24 -4.5h24l1 -8l-199 -37l-2 2
q2 5 3 37l2 50l-4 2q-89 -89 -164 -89z" />
    <glyph glyph-name="v" unicode="v" horiz-adv-x="463" 
d="M378 411q0 18 -37 33l-22 10v5h172v-5l-24 -13q-22 -12 -33.5 -24.5t-23.5 -39.5l-162 -389h-32l-175 413q-9 24 -18 32.5t-25 12.5l-23 4v9h271v-9l-32 -4q-24 -4 -24 -16t7 -27l93 -256h4l52 146q32 88 32 118z" />
    <glyph glyph-name="w" unicode="w" horiz-adv-x="730" 
d="M485 432q0 -5 6 -26l74 -249h4l42 123q35 111 35 133q0 17 -36 30l-22 11v5h172v-5l-29 -16q-20 -10 -31.5 -23t-22.5 -41l-157 -386h-32l-117 327l-132 -327h-33l-155 418q-8 21 -15.5 28.5t-25.5 11.5l-23 4v9h258v-9l-28 -4q-19 -4 -19 -14q0 -6 5 -26l79 -249h3
l75 190l-21 59q-8 21 -15 28.5t-23 11.5l-21 4v9h256v-9l-28 -4q-23 -6 -23 -14z" />
    <glyph glyph-name="x" unicode="x" horiz-adv-x="493" 
d="M290 298l35 56q35 56 35 66t-25 22l-22 12v5h172v-5l-31 -15q-46 -22 -67 -49l-88 -109l130 -223q12 -23 22.5 -31.5t28.5 -12.5l29 -5v-9h-273v9l39 6q8 1 11 3.5t1.5 10t-9.5 22.5l-76 130l-47 -75q-35 -59 -35 -67q0 -10 24 -22l23 -12v-5h-172v5l30 15q43 21 66 50
l102 126l-118 205q-14 23 -24.5 31.5t-29.5 12.5l-26 5v9h270v-9l-36 -6q-13 -2 -13.5 -7t10.5 -28z" />
    <glyph glyph-name="y" unicode="y" horiz-adv-x="464" 
d="M380 413q0 15 -37 30l-22 11v5h172v-5l-28 -15q-21 -10 -31 -22t-22 -42l-165 -406q-27 -66 -51 -108.5t-44 -62t-34.5 -26t-31.5 -6.5q-30 0 -48.5 21.5t-18.5 52.5q0 26 12.5 43.5t31.5 17.5q7 0 20 -5l57 -20q12 -5 21 -5q18 0 57 87l-173 443q-9 24 -17.5 32.5
t-25.5 12.5l-23 4v9h271v-9l-33 -5q-23 -5 -23 -15q0 -8 6 -25l90 -272h3l54 153q33 94 33 127z" />
    <glyph glyph-name="y" unicode="&#x1ef3;" horiz-adv-x="464" 
d="M380 413q0 15 -37 30l-22 11v5h172v-5l-28 -15q-21 -10 -31 -22t-22 -42l-165 -406q-27 -66 -51 -108.5t-44 -62t-34.5 -26t-31.5 -6.5q-30 0 -48.5 21.5t-18.5 52.5q0 26 12.5 43.5t31.5 17.5q7 0 20 -5l57 -20q12 -5 21 -5q18 0 57 87l-173 443q-9 24 -17.5 32.5
t-25.5 12.5l-23 4v9h271v-9l-33 -5q-23 -5 -23 -15q0 -8 6 -25l90 -272h3l54 153q33 94 33 127z" />
    <glyph glyph-name="y" unicode="&#x177;" horiz-adv-x="464" 
d="M380 413q0 15 -37 30l-22 11v5h172v-5l-28 -15q-21 -10 -31 -22t-22 -42l-165 -406q-27 -66 -51 -108.5t-44 -62t-34.5 -26t-31.5 -6.5q-30 0 -48.5 21.5t-18.5 52.5q0 26 12.5 43.5t31.5 17.5q7 0 20 -5l57 -20q12 -5 21 -5q18 0 57 87l-173 443q-9 24 -17.5 32.5
t-25.5 12.5l-23 4v9h271v-9l-33 -5q-23 -5 -23 -15q0 -8 6 -25l90 -272h3l54 153q33 94 33 127z" />
    <glyph glyph-name="z" unicode="z" horiz-adv-x="462" 
d="M367 64q15 15 43 61l28 45l6 -2l-21 -168h-411l-3 6l276 436l-1 2l-62 -5q-45 -3 -65 -9t-33 -20q-25 -25 -86 -111l-7 2l35 193h7l4 -17q1 -12 4 -15t14 -3h350l2 -6l-264 -435l2 -3l45 3q102 12 137 46z" />
    <glyph glyph-name="braceleft" unicode="{" horiz-adv-x="441" 
d="M186 176q0 88 -138 99l-23 2v8l23 2q138 11 138 99q0 42 -25 120t-25 112q0 82 81.5 120t246.5 43l1 -9q-71 -7 -109 -20q-23 -7 -37 -19q-29 -26 -29 -73q0 -46 10 -113q9 -71 9 -110q0 -81 -76 -114q-64 -28 -156 -41v-2q95 -13 156 -40q76 -33 76 -115q0 -39 -9 -109
q-10 -69 -10 -114q0 -71 66 -92q38 -13 109 -20l-1 -9q-165 5 -246.5 43t-81.5 120q0 35 25 114q25 78 25 118z" />
    <glyph glyph-name="bar" unicode="|" horiz-adv-x="289" 
d="M156 -234h-23v1030h23v-1030z" />
    <glyph glyph-name="braceright" unicode="}" horiz-adv-x="441" 
d="M259 176q0 -40 25 -118q25 -79 25 -114q0 -82 -81.5 -120t-246.5 -43l-1 9q70 7 110 20q21 7 37 19q28 26 28 73q0 42 -9 114q-10 67 -10 109q0 81 77 115q61 27 155 40v2q-90 12 -155 41q-77 34 -77 114q0 43 10 110q9 71 9 113q0 71 -65 92q-40 13 -110 20l1 9
q165 -5 246.5 -43t81.5 -120q0 -34 -25 -112t-25 -120q0 -88 138 -99l23 -2v-8l-23 -2q-138 -11 -138 -99z" />
    <glyph glyph-name="exclamdown" unicode="&#xa1;" horiz-adv-x="282" 
d="M203 7q-23 -23 -62 -23t-61 23q-24 22 -24 62q0 44 34 176q28 94 37 149l10 67h9l9 -67q13 -69 37 -149q35 -132 35 -176q0 -40 -24 -62zM141 678q35 0 59.5 -23t24.5 -56t-25 -56.5t-61 -23.5q-33 0 -57.5 23.5t-24.5 54.5q0 33 24 57t60 24z" />
    <glyph glyph-name="cent" unicode="&#xa2;" horiz-adv-x="486" 
d="M262 -16l-6 -87l-14 1l6 87q-97 5 -152 72q-56 68 -56 162q0 102 67 175q65 72 176 80l6 86h15l-6 -85h5q74 0 118.5 -27.5t44.5 -70.5q0 -45 -40 -64t-59 23l-41 102q-5 12 -9.5 15t-16.5 3h-4l-27 -376q32 -13 68 -13q73 0 117 43l4 -5q-64 -121 -196 -121zM172 267
q0 -132 83 -180l26 367q-47 -10 -78 -60.5t-31 -126.5z" />
    <glyph glyph-name="sterling" unicode="&#xa3;" horiz-adv-x="574" 
d="M428 308v-16h-162q-12 -80 -62 -138l-62 -64l3 -4q77 47 140 47q27 0 85 -8t75 -8q28 0 40.5 11.5t23.5 50.5l4 10l7 -1l-6 -38q-12 -80 -34.5 -119t-60.5 -39q-43 0 -144 43q-102 42 -128 42h-1q-32 -50 -49 -68.5t-31 -18.5q-15 0 -28 13.5t-13 31.5q0 39 110 59
q15 26 15.5 59.5t-11.5 96.5l-8 42h-89v16h87q-3 27 -3 54q0 102 65 170q65 66 182 66q55 0 99 -23q43 -22 43 -69q0 -27 -20 -49.5t-43 -22.5q-19 0 -36 29l-48 88q-11 21 -15 26t-11 5q-8 0 -16 -3t-18.5 -14t-18.5 -29t-13 -51.5t-4 -77.5q0 -66 -4 -99h160z" />
    <glyph glyph-name="yen" unicode="&#xa5;" horiz-adv-x="643" 
d="M82 296v17h133l-92 174q-27 50 -41 61q-15 12 -55 20l-34 5v9h344v-9l-32 -4q-25 -4 -33.5 -9.5t-8.5 -15.5q0 -7 20 -50l103 -214h2l60 120q50 98 50 131q0 10 -9 16t-38 16l-39 13v6h243v-6l-34 -12q-40 -14 -56 -29q-15 -14 -49 -74l-84 -148h144v-17h-153l-24 -43
v-37h177v-17h-177v-51q0 -77 7 -104q4 -16 12.5 -21.5t35.5 -9.5l33 -4v-9h-308v9l32 4q28 4 36.5 9.5t12.5 21.5q6 31 6 97v13q0 24 -3 45h-181v17h178q-6 23 -20 50l-16 30h-142z" />
    <glyph glyph-name="dieresis" unicode="&#xa8;" horiz-adv-x="499" 
d="M229 602q0 -31 -21 -52.5t-53 -21.5q-31 0 -52 20.5t-21 49.5q0 30 22.5 52t55.5 22q30 0 49.5 -20t19.5 -50zM418 602q0 -30 -22.5 -52t-54.5 -22q-29 0 -49.5 21t-20.5 49q0 31 21 52.5t54 21.5q29 0 50.5 -20.5t21.5 -49.5z" />
    <glyph glyph-name="copyright" unicode="&#xa9;" horiz-adv-x="778" 
d="M34 339q0 145 102 252q100 105 249 105q168 0 264 -108q95 -109 95 -260q0 -146 -102 -251t-250 -105q-168 0 -263 107.5t-95 259.5zM396 -8q124 0 225 95q100 94 100 243q0 157 -95 252t-244 95q-83 0 -155.5 -41t-120.5 -119q-49 -79 -49 -180q0 -156 95 -251
q94 -94 244 -94zM411 521q25 0 59 -6q35 -6 37 -6q6 0 9 6l3 5h6q9 -81 10 -126l-6 -1q-29 61 -54 87q-28 28 -67 28q-45 0 -72 -40.5t-27 -116.5q0 -75 28 -124t73 -49q37 0 64 29q34 33 66 102l6 -3q-8 -98 -16 -111q-66 -30 -124 -30q-84 0 -140 47q-57 46 -57 127
q0 77 57 130q55 52 145 52z" />
    <glyph glyph-name="ordfeminine" unicode="&#xaa;" horiz-adv-x="389" 
d="M160 625q-16 0 -35 -8l21 -66q-9 -6 -31.5 -12t-36.5 -6q-36 0 -36 24q0 29 65 74t120 45q48 0 71.5 -24.5t23.5 -79.5v-168q0 -43 30 -43q10 0 24 8l3 -4q-12 -20 -37 -34.5t-53 -14.5q-27 0 -47 13t-27 37h-1l-12 -10q-52 -38 -88 -38q-32 0 -53 21.5t-21 52.5
q0 28 20.5 46.5t75.5 36.5l78 26v46q0 49 -15 64q-14 14 -39 14zM214 375v116q-38 -16 -53 -30.5t-15 -40.5q0 -24 12 -38.5t31 -14.5q14 0 25 8z" />
    <glyph glyph-name="guillemotleft" unicode="&#xab;" horiz-adv-x="522" 
d="M292 428l-133 -187l133 -187l-5 -5l-266 189v6l266 189zM483 428l-127 -187l127 -187l-5 -5l-260 189v6l260 189z" />
    <glyph glyph-name="registered" unicode="&#xae;" horiz-adv-x="432" 
d="M346 379q-51 -51 -127 -51q-77 0 -126 51q-51 51 -51 127t51 127q49 51 126 51q76 0 127 -51t51 -127t-51 -127zM219 343q70 0 115 46q45 47 45 117t-45 117q-45 46 -115 46q-69 0 -114 -46q-45 -47 -45 -117t45 -117q45 -46 114 -46zM227 420h-100v5l9 2q11 1 13 9
q1 4 1 28v100q0 22 -1 26q-1 7 -14 10l-8 2v5q17 -1 76 -1q101 0 101 -48q0 -31 -40 -44q34 -62 51 -78q6 -6 21 -12v-4q-50 -2 -51 -2q-21 0 -36 28l-29 50q-5 8 -12 8h-6v-40v-8q0 -17 2 -21.5t13 -7.5l10 -2v-5zM203 598q-1 -5 -1 -30v-58q47 0 47 45q0 43 -46 43z" />
    <glyph glyph-name="overscore" unicode="&#xaf;" horiz-adv-x="499" 
d="M411 606v-62h-323v62h323z" />
    <glyph glyph-name="degree" unicode="&#xb0;" horiz-adv-x="369" 
d="M277 621q38 -38 38 -92q0 -53 -38 -91q-37 -37 -92 -37q-56 0 -93 37q-38 38 -38 91q0 54 38 92q37 37 93 37q55 0 92 -37zM260 453q30 31 30 76.5t-31 76.5t-74 31q-44 0 -74.5 -31t-30.5 -77q0 -44 31 -75.5t74 -31.5q44 0 75 31z" />
    <glyph glyph-name="acute" unicode="&#xb4;" 
d="M363 710q0 -39 -52 -70l-74 -45q-73 -46 -102 -67l-5 3q22 37 54 99l36 74q15 31 28 48q16 23 46 23q27 0 48 -20t21 -45z" />
    <glyph glyph-name="middot" unicode="&#xb7;" horiz-adv-x="252" 
d="M212 252q0 -34 -24.5 -58.5t-60.5 -24.5q-37 0 -62 23.5t-25 57.5q0 33 25.5 58t61.5 25q35 0 60 -24t25 -57z" />
    <glyph glyph-name="cedilla" unicode="&#xb8;" 
d="M285 -197q0 28 -28.5 44t-97.5 22v3l98 118h19l-41 -49q138 -19 138 -103q0 -52 -45 -83.5t-118 -31.5q-46 0 -83 15l2 10q35 -9 63 -9q44 0 68.5 17t24.5 47z" />
    <glyph glyph-name="ordmasculine" unicode="&#xba;" horiz-adv-x="437" 
d="M222 676q82 0 131 -52t49 -124q0 -79 -50 -129q-56 -54 -137 -54t-131 53q-49 52 -49 124q0 79 52 128q51 54 135 54zM223 334q28 0 43 31q20 40 20 123q0 70 -19 121q-20 51 -53 51q-28 0 -43 -31q-20 -42 -20 -124q0 -67 20 -119q19 -52 52 -52z" />
    <glyph glyph-name="guillemotright" unicode="&#xbb;" horiz-adv-x="522" 
d="M230 54l133 187l-133 187l5 5l266 -189v-6l-266 -189zM39 54l127 187l-127 187l5 5l260 -189v-6l-260 -189z" />
    <glyph glyph-name="questiondown" unicode="&#xbf;" horiz-adv-x="395" 
d="M33 215q0 59 25.5 91t86.5 49l99 27q14 4 17.5 10.5t4.5 32.5l1 36h10l12 -75q14 -82 14 -94q0 -20 -9.5 -29.5t-36.5 -18.5l-95 -29q-35 -11 -50 -27t-15 -42q0 -37 21 -76t39 -39q5 0 30 21l77 67q26 21 44 21q22 0 38 -20.5t16 -51.5q0 -34 -27.5 -59t-71.5 -25
q-95 0 -162 69q-68 70 -68 162zM179 597q0 33 24 57t59 24t60 -23t25 -56t-25 -56.5t-61 -23.5q-33 0 -57.5 23.5t-24.5 54.5z" />
    <glyph glyph-name="Agrave" unicode="&#xc0;" horiz-adv-x="671" 
d="M179 19l39 -13v-6h-253v6l33 13q41 15 60 37q20 23 45 88l169 426q-12 30 -19 41l1 2q84 31 136 86h3l196 -599q16 -49 31 -66q13 -16 47 -21l32 -4v-9h-341v9l34 4q47 5 47 29q0 13 -7 34l-54 168h-197l-12 -36q-41 -120 -41 -149q0 -13 10 -21t41 -19zM371 268l-77 242
l-12 35l-93 -277h182zM143 874q0 28 19.5 49t46.5 21q14 0 29.5 -9t23.5 -19q1 -1 23 -29l51 -65q41 -53 73 -85l-4 -4q-104 40 -115 44l-80 28q-67 24 -67 69z" />
    <glyph glyph-name="Aacute" unicode="&#xc1;" horiz-adv-x="671" 
d="M179 19l39 -13v-6h-253v6l33 13q41 15 60 37q20 23 45 88l169 426q-12 30 -19 41l1 2q84 31 136 86h3l196 -599q16 -49 31 -66q13 -16 47 -21l32 -4v-9h-341v9l34 4q47 5 47 29q0 13 -7 34l-54 168h-197l-12 -36q-41 -120 -41 -149q0 -13 10 -21t41 -19zM371 268l-77 242
l-12 35l-93 -277h182zM561 874q0 -45 -67 -69l-80 -28q-11 -4 -115 -44l-4 4q32 32 73 85l51 65q26 35 46 47q14 10 30 10q27 0 46.5 -21t19.5 -49z" />
    <glyph glyph-name="Acircumflex" unicode="&#xc2;" horiz-adv-x="671" 
d="M179 19l39 -13v-6h-253v6l33 13q41 15 60 37q20 23 45 88l169 426q-12 30 -19 41l1 2q84 31 136 86h3l196 -599q16 -49 31 -66q13 -16 47 -21l32 -4v-9h-341v9l34 4q47 5 47 29q0 13 -7 34l-54 168h-197l-12 -36q-41 -120 -41 -149q0 -13 10 -21t41 -19zM371 268l-77 242
l-12 35l-93 -277h182zM522 733l-175 76l-171 -76l-3 3l173 208h6l173 -208z" />
    <glyph glyph-name="Atilde" unicode="&#xc3;" horiz-adv-x="671" 
d="M179 19l39 -13v-6h-253v6l33 13q41 15 60 37q20 23 45 88l169 426q-12 30 -19 41l1 2q84 31 136 86h3l196 -599q16 -49 31 -66q13 -16 47 -21l32 -4v-9h-341v9l34 4q47 5 47 29q0 13 -7 34l-54 168h-197l-12 -36q-41 -120 -41 -149q0 -13 10 -21t41 -19zM425 742
q-23 0 -100 33q-67 30 -87 30q-31 0 -67 -72l-6 1q18 94 43.5 135.5t64.5 41.5q26 0 100 -34q67 -30 87 -30q33 0 67 73l6 -2q-18 -94 -43.5 -135t-64.5 -41zM371 268l-77 242l-12 35l-93 -277h182z" />
    <glyph glyph-name="Adieresis" unicode="&#xc4;" horiz-adv-x="671" 
d="M179 19l39 -13v-6h-253v6l33 13q41 15 60 37q20 23 45 88l169 426q-12 30 -19 41l1 2q84 31 136 86h3l196 -599q16 -49 31 -66q13 -16 47 -21l32 -4v-9h-341v9l34 4q47 5 47 29q0 13 -7 34l-54 168h-197l-12 -36q-41 -120 -41 -149q0 -13 10 -21t41 -19zM371 268l-77 242
l-12 35l-93 -277h182zM524 807q0 -30 -22.5 -52t-54.5 -22q-30 0 -50.5 21t-20.5 49q0 31 21 52.5t54 21.5q30 0 51.5 -20.5t21.5 -49.5zM323 806q0 -30 -21.5 -51.5t-52.5 -21.5q-30 0 -51.5 20.5t-21.5 48.5q0 30 22.5 52.5t55.5 22.5q29 0 49 -21t20 -50z" />
    <glyph glyph-name="Aring" unicode="&#xc5;" horiz-adv-x="671" 
d="M247 679q0 41 29.5 70t70.5 29q42 0 71 -29t29 -70q0 -39 -26 -68l168 -510q16 -51 31 -66q14 -16 47 -20l32 -5v-10h-341v10l34 4q47 8 47 31q0 11 -7 32l-54 167h-197l-12 -36q-41 -120 -41 -149q0 -13 10 -21.5t40 -17.5l40 -13v-7h-253v7l33 12q42 15 61 37
q19 24 44 88l180 458q-36 28 -36 77zM283 543l-94 -275h182l-56 176q-24 82 -32 99zM423 679q0 32 -22 54.5t-54 22.5t-54 -22.5t-22 -54.5q0 -33 22 -55.5t54 -22.5t54 22.5t22 55.5z" />
    <glyph glyph-name="AE" unicode="&#xc6;" horiz-adv-x="951" 
d="M342 659v9h549l-6 -195l-7 -2q-43 98 -70 125q-40 40 -143 49l-77 5v-301l60 3q69 5 94 30q22 22 37 60l13 32l7 -2l-6 -262l-7 -1l-13 32q-15 43 -34 62q-22 22 -89 27l-62 3v-191q0 -76 6 -100q4 -15 12.5 -20t27.5 -5q38 0 84 9q44 7 70 20q25 12 44 31q21 21 89 124
l7 -4l-39 -197h-547v9l32 4q27 4 35.5 9.5t12.5 20.5q7 27 7 105v96h-209l-21 -37q-75 -132 -75 -154q0 -9 10 -16t40 -18l36 -13v-6h-252v6l33 13q40 18 59 38q22 22 63 88l307 487q-6 17 -46 23zM429 268v251q0 61 -4 85l-192 -336h196z" />
    <glyph glyph-name="AE" unicode="&#x1fc;" horiz-adv-x="951" 
d="M342 659v9h549l-6 -195l-7 -2q-43 98 -70 125q-40 40 -143 49l-77 5v-301l60 3q69 5 94 30q22 22 37 60l13 32l7 -2l-6 -262l-7 -1l-13 32q-15 43 -34 62q-22 22 -89 27l-62 3v-191q0 -76 6 -100q4 -15 12.5 -20t27.5 -5q38 0 84 9q44 7 70 20q25 12 44 31q21 21 89 124
l7 -4l-39 -197h-547v9l32 4q27 4 35.5 9.5t12.5 20.5q7 27 7 105v96h-209l-21 -37q-75 -132 -75 -154q0 -9 10 -16t40 -18l36 -13v-6h-252v6l33 13q40 18 59 38q22 22 63 88l307 487q-6 17 -46 23zM429 268v251q0 61 -4 85l-192 -336h196z" />
    <glyph glyph-name="Ccedilla" unicode="&#xc7;" horiz-adv-x="708" 
d="M415 -197q0 28 -28.5 44t-97.5 22v3l94 114q-153 4 -252 96t-99 245q0 152 103 255q103 102 272 102q49 0 118 -12q65 -13 70 -13q10 0 17 13l6 11h7q14 -118 19 -247l-8 -1q-64 133 -113 180q-51 52 -121 52q-84 0 -140 -80q-57 -81 -57 -237q0 -148 57 -247
q57 -100 145 -100q64 0 124 60q61 59 127 202l7 -4q-3 -59 -13 -129q-10 -73 -16 -87q-121 -58 -234 -59l-37 -45q138 -19 138 -103q0 -52 -45 -83.5t-118 -31.5q-46 0 -83 15l2 10q35 -9 63 -9q44 0 68.5 17t24.5 47z" />
    <glyph glyph-name="Egrave" unicode="&#xc8;" horiz-adv-x="630" 
d="M20 659v9h549l-4 -195l-7 -2q-48 102 -72 126q-39 39 -143 48l-76 5v-301l55 3q69 5 94 30q22 22 37 60l13 32l7 -2l-6 -262l-7 -1l-13 32q-20 48 -34 62q-22 22 -89 27l-57 3v-191q0 -78 5 -100q4 -15 12.5 -20t28.5 -5q37 0 84 9q43 7 69 20q27 13 45 31q23 25 88 124
l7 -4l-39 -197h-547v9l32 4q27 4 36 9.5t13 20.5q6 24 6 105v371q0 82 -6 106q-4 15 -13 20.5t-36 9.5zM135 874q0 28 19.5 49t46.5 21q14 0 29.5 -9t23.5 -19q1 -1 23 -29l51 -65q41 -53 73 -85l-4 -4q-104 40 -115 44l-80 28q-67 24 -67 69z" />
    <glyph glyph-name="Eacute" unicode="&#xc9;" horiz-adv-x="630" 
d="M20 659v9h549l-4 -195l-7 -2q-48 102 -72 126q-39 39 -143 48l-76 5v-301l55 3q69 5 94 30q22 22 37 60l13 32l7 -2l-6 -262l-7 -1l-13 32q-20 48 -34 62q-22 22 -89 27l-57 3v-191q0 -78 5 -100q4 -15 12.5 -20t28.5 -5q37 0 84 9q43 7 69 20q27 13 45 31q23 25 88 124
l7 -4l-39 -197h-547v9l32 4q27 4 36 9.5t13 20.5q6 24 6 105v371q0 82 -6 106q-4 15 -13 20.5t-36 9.5zM539 874q0 -45 -67 -69l-80 -28q-11 -4 -115 -44l-4 4q32 32 73 85l51 65q26 35 46 47q14 10 30 10q27 0 46.5 -21t19.5 -49z" />
    <glyph glyph-name="Ecircumflex" unicode="&#xca;" horiz-adv-x="630" 
d="M20 659v9h549l-4 -195l-7 -2q-48 102 -72 126q-39 39 -143 48l-76 5v-301l55 3q69 5 94 30q22 22 37 60l13 32l7 -2l-6 -262l-7 -1l-13 32q-20 48 -34 62q-22 22 -89 27l-57 3v-191q0 -78 5 -100q4 -15 12.5 -20t28.5 -5q37 0 84 9q43 7 69 20q27 13 45 31q23 25 88 124
l7 -4l-39 -197h-547v9l32 4q27 4 36 9.5t13 20.5q6 24 6 105v371q0 82 -6 106q-4 15 -13 20.5t-36 9.5zM506 733l-175 76l-171 -76l-3 3l173 208h6l173 -208z" />
    <glyph glyph-name="Edieresis" unicode="&#xcb;" horiz-adv-x="630" 
d="M20 659v9h549l-4 -195l-7 -2q-48 102 -72 126q-39 39 -143 48l-76 5v-301l55 3q69 5 94 30q22 22 37 60l13 32l7 -2l-6 -262l-7 -1l-13 32q-20 48 -34 62q-22 22 -89 27l-57 3v-191q0 -78 5 -100q4 -15 12.5 -20t28.5 -5q37 0 84 9q43 7 69 20q27 13 45 31q23 25 88 124
l7 -4l-39 -197h-547v9l32 4q27 4 36 9.5t13 20.5q6 24 6 105v371q0 82 -6 106q-4 15 -13 20.5t-36 9.5zM508 807q0 -30 -22.5 -52t-54.5 -22q-30 0 -50.5 21t-20.5 49q0 31 21 52.5t54 21.5q30 0 51.5 -20.5t21.5 -49.5zM307 806q0 -30 -21.5 -51.5t-52.5 -21.5
q-30 0 -51.5 20.5t-21.5 48.5q0 30 22.5 52.5t55.5 22.5q29 0 49 -21t20 -50z" />
    <glyph glyph-name="Igrave" unicode="&#xcc;" horiz-adv-x="389" 
d="M27 659v9h334v-9l-32 -4q-27 -4 -35.5 -9.5t-12.5 -20.5q-7 -27 -7 -105v-372q0 -78 7 -105q4 -15 12.5 -20.5t35.5 -9.5l32 -4v-9h-334v9l33 4q27 4 35.5 9.5t12.5 20.5q7 27 7 105v372q0 78 -7 105q-4 15 -12.5 20.5t-35.5 9.5zM-3 874q0 28 19.5 49t46.5 21
q14 0 29.5 -9t23.5 -19q1 -1 23 -29l51 -65q41 -53 73 -85l-4 -4q-104 40 -115 44l-80 28q-67 24 -67 69z" />
    <glyph glyph-name="Iacute" unicode="&#xcd;" horiz-adv-x="389" 
d="M27 659v9h334v-9l-32 -4q-27 -4 -35.5 -9.5t-12.5 -20.5q-7 -27 -7 -105v-372q0 -78 7 -105q4 -15 12.5 -20.5t35.5 -9.5l32 -4v-9h-334v9l33 4q27 4 35.5 9.5t12.5 20.5q7 27 7 105v372q0 78 -7 105q-4 15 -12.5 20.5t-35.5 9.5zM401 874q0 -45 -67 -69l-80 -28
q-11 -4 -115 -44l-4 4q32 32 73 85l51 65q26 35 46 47q14 10 30 10q27 0 46.5 -21t19.5 -49z" />
    <glyph glyph-name="Icircumflex" unicode="&#xce;" horiz-adv-x="389" 
d="M27 659v9h334v-9l-32 -4q-27 -4 -35.5 -9.5t-12.5 -20.5q-7 -27 -7 -105v-372q0 -78 7 -105q4 -15 12.5 -20.5t35.5 -9.5l32 -4v-9h-334v9l33 4q27 4 35.5 9.5t12.5 20.5q7 27 7 105v372q0 78 -7 105q-4 15 -12.5 20.5t-35.5 9.5zM368 733l-175 76l-171 -76l-3 3l173 208
h6l173 -208z" />
    <glyph glyph-name="Idieresis" unicode="&#xcf;" horiz-adv-x="389" 
d="M27 659v9h334v-9l-32 -4q-27 -4 -35.5 -9.5t-12.5 -20.5q-7 -27 -7 -105v-372q0 -78 7 -105q4 -15 12.5 -20.5t35.5 -9.5l32 -4v-9h-334v9l33 4q27 4 35.5 9.5t12.5 20.5q7 27 7 105v372q0 78 -7 105q-4 15 -12.5 20.5t-35.5 9.5zM168 806q0 -30 -21.5 -51.5t-52.5 -21.5
q-30 0 -51.5 20.5t-21.5 48.5q0 30 22.5 52.5t55.5 22.5q29 0 49 -21t20 -50zM369 807q0 -30 -22.5 -52t-54.5 -22q-30 0 -50.5 21t-20.5 49q0 31 21 52.5t54 21.5q30 0 51.5 -20.5t21.5 -49.5z" />
    <glyph glyph-name="Eth" unicode="&#xd0;" horiz-adv-x="763" 
d="M734 339q0 -73 -34 -144t-103 -123q-101 -78 -277 -78q-40 0 -124 3t-176 3v10l33 5q27 3 35.5 8t12.5 20q6 24 6 106v188h-78v19h78v163q0 82 -6 106q-4 15 -12.5 20t-35.5 8l-33 5v10h296q200 0 309 -84.5t109 -244.5zM267 651q-2 -18 -2 -81v-214h123v-19h-123v-199
q0 -80 5 -102q3 -13 12.5 -18t31.5 -5h9q100 0 160 60q83 83 83 248q0 111 -38.5 188.5t-110.5 112.5q-60 29 -150 29z" />
    <glyph glyph-name="Ntilde" unicode="&#xd1;" horiz-adv-x="759" 
d="M2 668h224l398 -449h2l-10 309q-2 62 -15 84q-14 24 -57 37l-35 13v6h256v-6l-34 -13q-43 -13 -57 -37q-15 -24 -16 -84l-20 -544h-20l-475 545l12 -395q1 -58 14 -80q12 -22 57 -35l35 -13v-6h-256v6l35 13q45 13 57 35q13 22 14 80l12 418l-34 40q-28 31 -43.5 43.5
t-39.5 22.5l-4 2v8zM482 742q-24 0 -100 33q-68 30 -87 30q-31 0 -67 -72l-6 1q18 94 43.5 135.5t64.5 41.5q26 0 100 -34q68 -30 87 -30q33 0 67 73l6 -2q-18 -94 -43.5 -135t-64.5 -41z" />
    <glyph glyph-name="Ograve" unicode="&#xd2;" horiz-adv-x="767" 
d="M186 874q0 28 19.5 49t46.5 21q14 0 29.5 -9t23.5 -19q1 -1 23 -29l51 -65q41 -53 73 -85l-4 -4q-104 40 -115 44l-80 28q-67 24 -67 69zM384 684q150 0 250 -94t100 -249q0 -149 -96 -252q-98 -105 -255 -105q-150 0 -250 94q-101 95 -101 249q-4 145 96 251.5
t256 105.5zM368 667q-75 0 -119 -86t-44 -226q0 -153 54 -253q54 -101 140 -101q75 0 119 86t44 226q0 153 -54 253q-56 101 -140 101z" />
    <glyph glyph-name="Oacute" unicode="&#xd3;" horiz-adv-x="767" 
d="M590 874q0 -45 -67 -69l-80 -28q-11 -4 -115 -44l-4 4q32 32 73 85l51 65q26 35 46 47q14 10 30 10q27 0 46.5 -21t19.5 -49zM384 684q150 0 250 -94t100 -249q0 -149 -96 -252q-98 -105 -255 -105q-150 0 -250 94q-101 95 -101 249q-4 145 96 251.5t256 105.5zM368 667
q-75 0 -119 -86t-44 -226q0 -153 54 -253q54 -101 140 -101q75 0 119 86t44 226q0 153 -54 253q-56 101 -140 101z" />
    <glyph glyph-name="Ocircumflex" unicode="&#xd4;" horiz-adv-x="767" 
d="M384 684q150 0 250 -94t100 -249q0 -149 -96 -252q-98 -105 -255 -105q-150 0 -250 94q-101 95 -101 249q-4 145 96 251.5t256 105.5zM368 667q-75 0 -119 -86t-44 -226q0 -153 54 -253q54 -101 140 -101q75 0 119 86t44 226q0 153 -54 253q-56 101 -140 101zM557 733
l-175 76l-171 -76l-3 3l173 208h6l173 -208z" />
    <glyph glyph-name="Otilde" unicode="&#xd5;" horiz-adv-x="767" 
d="M460 742q-24 0 -100 33q-68 30 -87 30q-31 0 -67 -72l-6 1q18 94 43.5 135.5t64.5 41.5q26 0 100 -34q68 -30 87 -30q33 0 67 73l6 -2q-18 -94 -43.5 -135t-64.5 -41zM384 684q150 0 250 -94t100 -249q0 -149 -96 -252q-98 -105 -255 -105q-150 0 -250 94
q-101 95 -101 249q-4 145 96 251.5t256 105.5zM368 667q-75 0 -119 -86t-44 -226q0 -153 54 -253q54 -101 140 -101q75 0 119 86t44 226q0 153 -54 253q-56 101 -140 101z" />
    <glyph glyph-name="Odieresis" unicode="&#xd6;" horiz-adv-x="767" 
d="M357 806q0 -30 -21.5 -51.5t-52.5 -21.5q-30 0 -51.5 20.5t-21.5 48.5q0 30 22.5 52.5t55.5 22.5q29 0 49 -21t20 -50zM558 807q0 -30 -22.5 -52t-54.5 -22q-30 0 -50.5 21t-20.5 49q0 31 21 52.5t54 21.5q30 0 51.5 -20.5t21.5 -49.5zM384 684q150 0 250 -94t100 -249
q0 -149 -96 -252q-98 -105 -255 -105q-150 0 -250 94q-101 95 -101 249q-4 145 96 251.5t256 105.5zM368 667q-75 0 -119 -86t-44 -226q0 -153 54 -253q54 -101 140 -101q75 0 119 86t44 226q0 153 -54 253q-56 101 -140 101z" />
    <glyph glyph-name="Oslash" unicode="&#xd8;" horiz-adv-x="767" 
d="M384 684q124 0 216 -66l64 79l15 -13l-63 -78q118 -97 118 -265q0 -149 -96 -252q-98 -105 -255 -105q-127 0 -218 66l-64 -79l-15 12l64 79q-118 97 -118 265q-4 145 96 251.5t256 105.5zM562 313q0 114 -31 200l-287 -380q56 -132 155 -132q75 0 119 86t44 226z
M368 667q-75 0 -119 -86t-44 -226q0 -114 31 -200l286 380q-56 132 -154 132z" />
    <glyph glyph-name="Ugrave" unicode="&#xd9;" horiz-adv-x="725" 
d="M205 874q0 28 19.5 49t46.5 21q14 0 29.5 -9t23.5 -19q1 -1 23 -29l51 -65q41 -53 73 -85l-4 -4q-104 40 -115 44l-80 28q-67 24 -67 69zM374 -16q-129 0 -202.5 60.5t-73.5 180.5v295q0 78 -7 105q-4 15 -12.5 20.5t-35.5 9.5l-33 4v9h353v-9l-46 -4q-28 -3 -38.5 -9
t-14.5 -21q-7 -27 -7 -105v-302q0 -90 44 -135t121 -45q82 0 128.5 47t46.5 133q0 104 -1 142l-4 177q-2 58 -16 78q-15 21 -54 33l-39 14v6h255v-6l-31 -13q-39 -15 -53 -35q-16 -22 -17 -77l-14 -325q-4 -111 -71 -169.5t-178 -58.5z" />
    <glyph glyph-name="Uacute" unicode="&#xda;" horiz-adv-x="725" 
d="M609 874q0 -45 -67 -69l-80 -28q-11 -4 -115 -44l-4 4q32 32 73 85l51 65q26 35 46 47q14 10 30 10q27 0 46.5 -21t19.5 -49zM374 -16q-129 0 -202.5 60.5t-73.5 180.5v295q0 78 -7 105q-4 15 -12.5 20.5t-35.5 9.5l-33 4v9h353v-9l-46 -4q-28 -3 -38.5 -9t-14.5 -21
q-7 -27 -7 -105v-302q0 -90 44 -135t121 -45q82 0 128.5 47t46.5 133q0 104 -1 142l-4 177q-2 58 -16 78q-15 21 -54 33l-39 14v6h255v-6l-31 -13q-39 -15 -53 -35q-16 -22 -17 -77l-14 -325q-4 -111 -71 -169.5t-178 -58.5z" />
    <glyph glyph-name="Ucircumflex" unicode="&#xdb;" horiz-adv-x="725" 
d="M374 -16q-129 0 -202.5 60.5t-73.5 180.5v295q0 78 -7 105q-4 15 -12.5 20.5t-35.5 9.5l-33 4v9h353v-9l-46 -4q-28 -3 -38.5 -9t-14.5 -21q-7 -27 -7 -105v-302q0 -90 44 -135t121 -45q82 0 128.5 47t46.5 133q0 104 -1 142l-4 177q-2 58 -16 78q-15 21 -54 33l-39 14v6
h255v-6l-31 -13q-39 -15 -53 -35q-16 -22 -17 -77l-14 -325q-4 -111 -71 -169.5t-178 -58.5zM576 733l-175 76l-171 -76l-3 3l173 208h6l173 -208z" />
    <glyph glyph-name="Udieresis" unicode="&#xdc;" horiz-adv-x="725" 
d="M377 806q0 -30 -21.5 -51.5t-52.5 -21.5q-30 0 -51.5 20.5t-21.5 48.5q0 30 22.5 52.5t55.5 22.5q29 0 49 -21t20 -50zM578 807q0 -30 -22.5 -52t-54.5 -22q-30 0 -50.5 21t-20.5 49q0 31 21 52.5t54 21.5q30 0 51.5 -20.5t21.5 -49.5zM374 -16q-129 0 -202.5 60.5
t-73.5 180.5v295q0 78 -7 105q-4 15 -12.5 20.5t-35.5 9.5l-33 4v9h353v-9l-46 -4q-28 -3 -38.5 -9t-14.5 -21q-7 -27 -7 -105v-302q0 -90 44 -135t121 -45q82 0 128.5 47t46.5 133q0 104 -1 142l-4 177q-2 58 -16 78q-15 21 -54 33l-39 14v6h255v-6l-31 -13
q-39 -15 -53 -35q-16 -22 -17 -77l-14 -325q-4 -111 -71 -169.5t-178 -58.5z" />
    <glyph glyph-name="Yacute" unicode="&#xdd;" horiz-adv-x="657" 
d="M526 615q0 10 -11.5 17t-43.5 17l-35 13v6h253v-6l-31 -12q-38 -14 -58 -34q-19 -19 -54 -80l-132 -230v-158q0 -78 7 -105q4 -15 12.5 -20.5t35.5 -9.5l33 -4v-9h-334v9l32 4q27 4 35.5 9.5t12.5 20.5q7 27 7 105v55q0 67 -25 114l-131 250q-28 53 -43 68q-14 13 -51 19
l-30 5v9h367v-9l-29 -4q-51 -6 -51 -25q0 -11 22 -56l117 -244h2l77 163q46 89 46 122zM580 874q0 -45 -67 -69l-80 -28q-11 -4 -115 -44l-4 4q32 32 73 85l51 65q26 35 46 47q14 10 30 10q27 0 46.5 -21t19.5 -49z" />
    <glyph glyph-name="Thorn" unicode="&#xde;" horiz-adv-x="622" 
d="M614 351q0 -86 -86 -139q-89 -53 -224 -52v7q148 28 148 187q0 76 -48 121.5t-137 47.5v-3v-372q0 -81 6 -105q4 -15 12.5 -20.5t35.5 -9.5l33 -4v-9h-334v9l32 4q27 4 36 9.5t13 20.5q6 24 6 105v372q0 81 -6 105q-4 15 -13 20.5t-36 9.5l-32 4v9h334v-9l-33 -4
q-27 -4 -35.5 -9.5t-12.5 -20.5q-6 -21 -6 -87h2q345 0 345 -187z" />
    <glyph glyph-name="germandbls" unicode="&#xdf;" horiz-adv-x="598" 
d="M404 428q-17 -18 -11 -30.5t56 -54.5q77 -59 108 -96q30 -37 30 -90q0 -69 -56 -120q-55 -52 -136 -52q-57 0 -93 21t-36 57q0 25 20.5 41t50.5 16q20 0 37 -7.5t17 -21.5l-1 -3q0 -4 -1.5 -12.5t-2.5 -16.5l-7 -30q-4 -17 -4 -25q0 -4 10 -4q35 0 65 27q30 25 30 66
q0 34 -26 65q-26 30 -95 83q-45 35 -60 53t-15 36q0 17 14.5 32.5t59.5 50.5q34 27 48 49t14 48q0 33 -19 78q-20 45 -46 73q-29 27 -54 27q-38 0 -61 -55.5t-23 -167.5v-431q0 -12 3.5 -16t16.5 -6l20 -4v-8h-226v8l16 3q18 3 22.5 7.5t4.5 16.5v357h-71v5l71 61l3 24
q12 104 81 164t175 60q90 0 148 -40q57 -40 57 -93q0 -33 -19 -58t-66 -54q-36 -22 -49 -33z" />
    <glyph glyph-name="agrave" unicode="&#xe0;" horiz-adv-x="466" 
d="M185 410q-27 0 -46 -11l27 -85q-13 -9 -39 -16q-30 -9 -51 -9q-45 0 -45 31q0 21 36 57q41 41 97 71q58 32 104 32q67 0 99 -31q31 -31 31 -111v-228q0 -36 16 -52q11 -11 28 -11q16 0 33 12l3 -4q-17 -27 -50.5 -48.5t-69.5 -21.5q-35 0 -61 18.5t-35 51.5l-3 1l-16 -13
q-35 -30 -60 -42t-57 -12q-43 0 -71 29.5t-28 69.5q0 34 22 57q26 26 134 64l77 26v69q0 68 -21 88q-15 18 -54 18zM260 67v156q-57 -25 -75 -42q-20 -20 -20 -53t16 -52q17 -20 40 -20q19 0 39 11zM75 710q0 25 20.5 45t49.5 20t47 -23q12 -17 27 -48l36 -74l53 -99l-4 -3
l-103 67l-74 45q-52 31 -52 70z" />
    <glyph glyph-name="aacute" unicode="&#xe1;" horiz-adv-x="466" 
d="M185 410q-27 0 -46 -11l27 -85q-13 -9 -39 -16q-30 -9 -51 -9q-45 0 -45 31q0 21 36 57q41 41 97 71q58 32 104 32q67 0 99 -31q31 -31 31 -111v-228q0 -36 16 -52q11 -11 28 -11q16 0 33 12l3 -4q-17 -27 -50.5 -48.5t-69.5 -21.5q-35 0 -61 18.5t-35 51.5l-3 1l-16 -13
q-35 -30 -60 -42t-57 -12q-43 0 -71 29.5t-28 69.5q0 34 22 57q26 26 134 64l77 26v69q0 68 -21 88q-15 18 -54 18zM260 67v156q-57 -25 -75 -42q-20 -20 -20 -53t16 -52q17 -20 40 -20q19 0 39 11zM427 710q0 -39 -52 -70l-74 -45q-73 -46 -102 -67l-5 3q22 37 54 99l36 74
q15 31 28 48q16 23 46 23q27 0 48 -20t21 -45z" />
    <glyph glyph-name="acircumflex" unicode="&#xe2;" horiz-adv-x="466" 
d="M185 410q-27 0 -46 -11l27 -85q-13 -9 -39 -16q-30 -9 -51 -9q-45 0 -45 31q0 21 36 57q41 41 97 71q58 32 104 32q67 0 99 -31q31 -31 31 -111v-228q0 -36 16 -52q11 -11 28 -11q16 0 33 12l3 -4q-17 -27 -50.5 -48.5t-69.5 -21.5q-35 0 -61 18.5t-35 51.5l-3 1l-16 -13
q-35 -30 -60 -42t-57 -12q-43 0 -71 29.5t-28 69.5q0 34 22 57q26 26 134 64l77 26v69q0 68 -21 88q-15 18 -54 18zM260 67v156q-57 -25 -75 -42q-20 -20 -20 -53t16 -52q17 -20 40 -20q19 0 39 11zM397 528l-150 102l-147 -102l-5 3l151 247h6l151 -247z" />
    <glyph glyph-name="atilde" unicode="&#xe3;" horiz-adv-x="466" 
d="M185 410q-27 0 -46 -11l27 -85q-13 -9 -39 -16q-30 -9 -51 -9q-45 0 -45 31q0 21 36 57q41 41 97 71q58 32 104 32q67 0 99 -31q31 -31 31 -111v-228q0 -36 16 -52q11 -11 28 -11q16 0 33 12l3 -4q-17 -27 -50.5 -48.5t-69.5 -21.5q-35 0 -61 18.5t-35 51.5l-3 1l-16 -13
q-35 -30 -60 -42t-57 -12q-43 0 -71 29.5t-28 69.5q0 34 22 57q26 26 134 64l77 26v69q0 68 -21 88q-15 18 -54 18zM260 67v156q-57 -25 -75 -42q-20 -20 -20 -53t16 -52q17 -20 40 -20q19 0 39 11zM275 670q55 -30 74 -30q33 0 64 75l6 -2q-14 -93 -39 -135t-64 -42
q-26 0 -93 37q-56 30 -74 30q-33 0 -64 -75l-6 2q14 93 39 135t64 42q23 0 93 -37z" />
    <glyph glyph-name="adieresis" unicode="&#xe4;" horiz-adv-x="466" 
d="M185 410q-27 0 -46 -11l27 -85q-13 -9 -39 -16q-30 -9 -51 -9q-45 0 -45 31q0 21 36 57q41 41 97 71q58 32 104 32q67 0 99 -31q31 -31 31 -111v-228q0 -36 16 -52q11 -11 28 -11q16 0 33 12l3 -4q-17 -27 -50.5 -48.5t-69.5 -21.5q-35 0 -61 18.5t-35 51.5l-3 1l-16 -13
q-35 -30 -60 -42t-57 -12q-43 0 -71 29.5t-28 69.5q0 34 22 57q26 26 134 64l77 26v69q0 68 -21 88q-15 18 -54 18zM260 67v156q-57 -25 -75 -42q-20 -20 -20 -53t16 -52q17 -20 40 -20q19 0 39 11zM229 602q0 -31 -21 -52.5t-53 -21.5q-31 0 -52 20.5t-21 49.5
q0 30 22.5 52t55.5 22q30 0 49.5 -20t19.5 -50zM418 602q0 -30 -22.5 -52t-54.5 -22q-29 0 -49.5 21t-20.5 49q0 31 21 52.5t54 21.5q29 0 50.5 -20.5t21.5 -49.5z" />
    <glyph glyph-name="aring" unicode="&#xe5;" horiz-adv-x="466" 
d="M185 410q-27 0 -46 -11l27 -85q-13 -9 -39 -16q-30 -9 -51 -9q-45 0 -45 31q0 21 36 57q41 41 97 71q58 32 104 32q67 0 99 -31q31 -31 31 -111v-228q0 -36 16 -52q11 -11 28 -11q16 0 33 12l3 -4q-17 -27 -50.5 -48.5t-69.5 -21.5q-35 0 -61 18.5t-35 51.5l-3 1l-16 -13
q-35 -30 -60 -42t-57 -12q-43 0 -71 29.5t-28 69.5q0 34 22 57q26 26 134 64l77 26v69q0 68 -21 88q-15 18 -54 18zM260 67v156q-57 -25 -75 -42q-20 -20 -20 -53t16 -52q17 -20 40 -20q19 0 39 11zM349 628q0 -42 -29.5 -71t-70.5 -29t-70.5 29t-29.5 71q0 41 29.5 70
t70.5 29t70.5 -29t29.5 -70zM325 628q0 32 -22 54.5t-54 22.5t-54 -22.5t-22 -54.5q0 -33 22 -55.5t54 -22.5t54 22.5t22 55.5z" />
    <glyph glyph-name="ae" unicode="&#xe6;" horiz-adv-x="699" 
d="M183 209l77 26v69q0 68 -21 88q-15 18 -54 18q-27 0 -46 -11l27 -85q-13 -9 -39 -16q-30 -9 -51 -9q-45 0 -45 31q0 21 36 57q41 41 97 71q58 32 104 32q68 0 92 -54q52 49 134 49q84 0 135 -42q50 -44 50 -105q0 -21 -4 -32l-284 1v-17q0 -97 42.5 -148t118.5 -51
q80 0 129 55l5 -4q-30 -70 -85 -109t-126 -39q-117 0 -177 95q-68 -59 -102 -75q-32 -15 -62 -15q-48 0 -77.5 29t-29.5 70q0 34 22 57q26 26 134 64zM439 433q-39 -40 -47 -119l35 1q117 3 129 9q2 53 -17 90q-19 39 -54 39q-24 0 -46 -20zM225 57q28 0 69 29
q-34 56 -34 137q-57 -25 -75 -42q-20 -20 -20 -52t17.5 -52t42.5 -20z" />
    <glyph glyph-name="ae" unicode="&#x1fd;" horiz-adv-x="699" 
d="M183 209l77 26v69q0 68 -21 88q-15 18 -54 18q-27 0 -46 -11l27 -85q-13 -9 -39 -16q-30 -9 -51 -9q-45 0 -45 31q0 21 36 57q41 41 97 71q58 32 104 32q68 0 92 -54q52 49 134 49q84 0 135 -42q50 -44 50 -105q0 -21 -4 -32l-284 1v-17q0 -97 42.5 -148t118.5 -51
q80 0 129 55l5 -4q-30 -70 -85 -109t-126 -39q-117 0 -177 95q-68 -59 -102 -75q-32 -15 -62 -15q-48 0 -77.5 29t-29.5 70q0 34 22 57q26 26 134 64zM439 433q-39 -40 -47 -119l35 1q117 3 129 9q2 53 -17 90q-19 39 -54 39q-24 0 -46 -20zM225 57q28 0 69 29
q-34 56 -34 137q-57 -25 -75 -42q-20 -20 -20 -52t17.5 -52t42.5 -20z" />
    <glyph glyph-name="ccedilla" unicode="&#xe7;" horiz-adv-x="447" 
d="M265 -197q0 28 -28.5 44t-97.5 22v3l93 112q-96 3 -153 71q-57 67 -57 164q0 104 71 181q70 75 185 75q70 0 112.5 -25t42.5 -66q0 -27 -20 -46.5t-45 -19.5q-18 0 -37 28l-56 92q-13 18 -25 18q-33 0 -64 -49q-32 -50 -32 -133q0 -96 48 -151q47 -56 118 -56
q60 0 107 43l3 -5q-61 -114 -179 -120l-36 -44q138 -19 138 -103q0 -52 -45 -83.5t-118 -31.5q-46 0 -83 15l2 10q35 -9 63 -9q44 0 68.5 17t24.5 47z" />
    <glyph glyph-name="egrave" unicode="&#xe8;" horiz-adv-x="463" 
d="M257 475q86 0 136 -43q50 -44 50 -105q0 -18 -4 -29l-284 1v-18q0 -97 42.5 -148.5t117.5 -51.5q78 0 130 55l4 -3q-30 -70 -84.5 -109.5t-125.5 -39.5q-99 0 -158 68t-59 165q0 110 68 184t167 74zM79 710q0 25 20.5 45t49.5 20t47 -23q12 -17 27 -48l36 -74l53 -99
l-4 -3l-103 67l-74 45q-52 31 -52 70zM202 436q-40 -40 -46 -124q142 3 163 11q2 55 -17.5 94.5t-52.5 39.5q-26 0 -47 -21z" />
    <glyph glyph-name="eacute" unicode="&#xe9;" horiz-adv-x="463" 
d="M257 475q86 0 136 -43q50 -44 50 -105q0 -18 -4 -29l-284 1v-18q0 -97 42.5 -148.5t117.5 -51.5q78 0 130 55l4 -3q-30 -70 -84.5 -109.5t-125.5 -39.5q-99 0 -158 68t-59 165q0 110 68 184t167 74zM431 710q0 -39 -52 -70l-74 -45q-73 -46 -102 -67l-5 3q22 37 54 99
l36 74q15 31 28 48q16 23 46 23q27 0 48 -20t21 -45zM202 436q-40 -40 -46 -124q142 3 163 11q2 55 -17.5 94.5t-52.5 39.5q-26 0 -47 -21z" />
    <glyph glyph-name="ecircumflex" unicode="&#xea;" horiz-adv-x="463" 
d="M257 475q86 0 136 -43q50 -44 50 -105q0 -18 -4 -29l-284 1v-18q0 -97 42.5 -148.5t117.5 -51.5q78 0 130 55l4 -3q-30 -70 -84.5 -109.5t-125.5 -39.5q-99 0 -158 68t-59 165q0 110 68 184t167 74zM401 528l-150 102l-147 -102l-5 3l151 247h6l151 -247zM202 436
q-40 -40 -46 -124q142 3 163 11q2 55 -17.5 94.5t-52.5 39.5q-26 0 -47 -21z" />
    <glyph glyph-name="edieresis" unicode="&#xeb;" horiz-adv-x="463" 
d="M257 475q86 0 136 -43q50 -44 50 -105q0 -18 -4 -29l-284 1v-18q0 -97 42.5 -148.5t117.5 -51.5q78 0 130 55l4 -3q-30 -70 -84.5 -109.5t-125.5 -39.5q-99 0 -158 68t-59 165q0 110 68 184t167 74zM202 436q-40 -40 -46 -124q142 3 163 11q2 55 -17.5 94.5t-52.5 39.5
q-26 0 -47 -21zM233 602q0 -31 -21 -52.5t-53 -21.5q-31 0 -52 20.5t-21 49.5q0 30 22.5 52t55.5 22q30 0 49.5 -20t19.5 -50zM422 602q0 -30 -22.5 -52t-54.5 -22q-29 0 -49.5 21t-20.5 49q0 31 21 52.5t54 21.5q29 0 50.5 -20.5t21.5 -49.5z" />
    <glyph glyph-name="igrave" unicode="&#xec;" horiz-adv-x="262" 
d="M205 405v-370q0 -12 5 -16.5t23 -7.5l15 -3v-8h-228v8l16 3q18 3 22.5 7t4.5 17v313q0 23 -11 37l-29 32v3l183 62l2 -3q-3 -41 -3 -74zM-38 710q0 25 20.5 45t49.5 20t47 -23q12 -17 27 -48l36 -74l53 -99l-4 -3l-103 67l-74 45q-52 31 -52 70z" />
    <glyph glyph-name="iacute" unicode="&#xed;" horiz-adv-x="262" 
d="M314 710q0 -39 -52 -70l-74 -45q-73 -46 -102 -67l-5 3q23 37 54 99l36 74q15 31 28 48q16 23 46 23q27 0 48 -20t21 -45zM205 405v-370q0 -12 5 -16.5t23 -7.5l15 -3v-8h-228v8l16 3q18 3 22.5 7t4.5 17v313q0 23 -11 37l-29 32v3l183 62l2 -3q-3 -41 -3 -74z" />
    <glyph glyph-name="icircumflex" unicode="&#xee;" horiz-adv-x="262" 
d="M284 528l-150 102l-147 -102l-5 3l151 247h6l151 -247zM205 405v-370q0 -12 5 -16.5t23 -7.5l15 -3v-8h-228v8l16 3q18 3 22.5 7t4.5 17v313q0 23 -11 37l-29 32v3l183 62l2 -3q-3 -41 -3 -74z" />
    <glyph glyph-name="idieresis" unicode="&#xef;" horiz-adv-x="262" 
d="M115 602q0 -31 -21 -52.5t-53 -21.5q-31 0 -52 20.5t-21 49.5q0 30 22.5 52t55.5 22q30 0 49.5 -20t19.5 -50zM304 602q0 -30 -22.5 -52t-54.5 -22q-29 0 -49.5 21t-20.5 49q0 31 21 52.5t54 21.5q29 0 50.5 -20.5t21.5 -49.5zM205 405v-370q0 -12 5 -16.5t23 -7.5l15 -3
v-8h-228v8l16 3q18 3 22.5 7t4.5 17v313q0 23 -11 37l-29 32v3l183 62l2 -3q-3 -41 -3 -74z" />
    <glyph glyph-name="eth" unicode="&#xf0;" horiz-adv-x="521" 
d="M233 608l-103 -65l-9 14l100 64q-48 51 -117 81l2 11q97 -15 170 -57l103 66l9 -14l-95 -61q97 -58 150.5 -152.5t53.5 -208.5q0 -136 -71 -219t-174 -83q-106 0 -167 69q-63 68 -63 170q0 105 66 179q64 73 171 73q26 0 52 -8q-27 81 -78 141zM346 240q0 115 -30 211
q-9 4 -25 4q-52 0 -86 -58t-34 -165q0 -93 23 -162q22 -67 68 -67q24 0 41 20.5t30 72.5q13 53 13 144z" />
    <glyph glyph-name="ntilde" unicode="&#xf1;" horiz-adv-x="536" 
d="M375 475q45 0 74 -28q30 -31 30 -101v-313q0 -12 4.5 -15.5t23.5 -6.5l15 -3v-8h-223v8l15 3q15 2 19.5 6t4.5 16v253q0 68 -18 87q-16 16 -50 16q-29 0 -65 -18v-338q0 -11 4 -15.5t19 -6.5l16 -3v-8h-224v8l16 3q18 3 22.5 7t4.5 16v313q0 24 -11 37l-29 33v3l186 63
l2 -3q-4 -48 -4 -64l-1 -29l4 -2q88 90 165 90zM313 670q56 -30 74 -30q33 0 64 75l6 -2q-14 -93 -39 -135t-64 -42q-26 0 -93 37q-56 30 -74 30q-33 0 -64 -75l-6 2q14 93 39 135t64 42q23 0 93 -37z" />
    <glyph glyph-name="ograve" unicode="&#xf2;" horiz-adv-x="532" 
d="M271 475q109 0 174 -71q65 -73 65 -170q0 -109 -71 -180q-70 -70 -178 -70q-109 0 -174 72q-65 73 -65 170q0 108 71 179q70 70 178 70zM272 2q38 0 62 48q26 54 26 169q0 95 -27 167q-29 71 -73 71q-40 0 -62 -48q-27 -54 -27 -168q0 -98 28 -167q27 -72 73 -72zM92 710
q0 25 20.5 45t49.5 20t47 -23q12 -17 27 -48l36 -74l53 -99l-4 -3l-103 67l-74 45q-52 31 -52 70z" />
    <glyph glyph-name="oacute" unicode="&#xf3;" horiz-adv-x="532" 
d="M444 710q0 -39 -52 -70l-74 -45q-73 -46 -102 -67l-5 3q23 37 54 99l36 74q15 31 28 48q16 23 46 23q27 0 48 -20t21 -45zM271 475q109 0 174 -71q65 -73 65 -170q0 -109 -71 -180q-70 -70 -178 -70q-109 0 -174 72q-65 73 -65 170q0 108 71 179q70 70 178 70zM272 2
q38 0 62 48q26 54 26 169q0 95 -27 167q-29 71 -73 71q-40 0 -62 -48q-27 -54 -27 -168q0 -98 28 -167q27 -72 73 -72z" />
    <glyph glyph-name="ocircumflex" unicode="&#xf4;" horiz-adv-x="532" 
d="M414 528l-150 102l-147 -102l-5 3l151 247h6l151 -247zM271 475q109 0 174 -71q65 -73 65 -170q0 -109 -71 -180q-70 -70 -178 -70q-109 0 -174 72q-65 73 -65 170q0 108 71 179q70 70 178 70zM272 2q38 0 62 48q26 54 26 169q0 95 -27 167q-29 71 -73 71q-40 0 -62 -48
q-27 -54 -27 -168q0 -98 28 -167q27 -72 73 -72z" />
    <glyph glyph-name="otilde" unicode="&#xf5;" horiz-adv-x="532" 
d="M271 475q109 0 174 -71q65 -73 65 -170q0 -109 -71 -180q-70 -70 -178 -70q-109 0 -174 72q-65 73 -65 170q0 108 71 179q70 70 178 70zM272 2q38 0 62 48q26 54 26 169q0 95 -27 167q-29 71 -73 71q-40 0 -62 -48q-27 -54 -27 -168q0 -98 28 -167q27 -72 73 -72z
M292 670q56 -30 74 -30q32 0 64 75l6 -2q-14 -93 -39 -135t-64 -42q-26 0 -93 37q-55 30 -74 30q-32 0 -64 -75l-6 2q14 93 39 135t64 42q23 0 93 -37z" />
    <glyph glyph-name="odieresis" unicode="&#xf6;" horiz-adv-x="532" 
d="M246 602q0 -31 -21 -52.5t-53 -21.5q-31 0 -52 20.5t-21 49.5q0 30 22.5 52t55.5 22q30 0 49.5 -20t19.5 -50zM435 602q0 -30 -22.5 -52t-54.5 -22q-29 0 -49.5 21t-20.5 49q0 31 21 52.5t54 21.5q29 0 50.5 -20.5t21.5 -49.5zM271 475q109 0 174 -71q65 -73 65 -170
q0 -109 -71 -180q-70 -70 -178 -70q-109 0 -174 72q-65 73 -65 170q0 108 71 179q70 70 178 70zM272 2q38 0 62 48q26 54 26 169q0 95 -27 167q-29 71 -73 71q-40 0 -62 -48q-27 -54 -27 -168q0 -98 28 -167q27 -72 73 -72z" />
    <glyph glyph-name="oslash" unicode="&#xf8;" horiz-adv-x="532" 
d="M54 -28l-14 12l55 63q-73 70 -73 179q0 108 71 179q70 70 178 70q87 0 151 -51l56 63l14 -12l-56 -63q74 -71 74 -178q0 -109 -71 -180q-70 -70 -178 -70q-91 0 -152 51zM171 241q0 -62 10 -106l164 212q-29 110 -85 110q-40 0 -62 -48q-27 -54 -27 -168zM272 2
q38 0 62 48q26 54 26 169q0 60 -10 104l-164 -212q28 -109 86 -109z" />
    <glyph glyph-name="ugrave" unicode="&#xf9;" horiz-adv-x="535" 
d="M160 -14q-46 0 -72 27q-31 28 -31 101v282q0 21 -3 27t-15 11l-35 14v6l196 18l2 -3q-3 -39 -3 -84v-211q0 -69 18 -87q16 -16 48 -16q27 0 64 19v306q0 21 -3 27.5t-15 11.5l-35 14v5l195 18l2 -3q-3 -39 -3 -86v-326q0 -18 5 -23.5t24 -4.5h24l1 -8l-199 -37l-2 2
q2 5 3 37l2 50l-4 2q-89 -89 -164 -89zM92 710q0 25 20.5 45t49.5 20t47 -23q12 -17 27 -48l36 -74l53 -99l-4 -3l-103 67l-74 45q-52 31 -52 70z" />
    <glyph glyph-name="uacute" unicode="&#xfa;" horiz-adv-x="535" 
d="M443 710q0 -39 -52 -70l-74 -45q-73 -46 -102 -67l-5 3q22 37 54 99l36 74q15 31 28 48q16 23 46 23q27 0 48 -20t21 -45zM160 -14q-46 0 -72 27q-31 28 -31 101v282q0 21 -3 27t-15 11l-35 14v6l196 18l2 -3q-3 -39 -3 -84v-211q0 -69 18 -87q16 -16 48 -16q27 0 64 19
v306q0 21 -3 27.5t-15 11.5l-35 14v5l195 18l2 -3q-3 -39 -3 -86v-326q0 -18 5 -23.5t24 -4.5h24l1 -8l-199 -37l-2 2q2 5 3 37l2 50l-4 2q-89 -89 -164 -89z" />
    <glyph glyph-name="ucircumflex" unicode="&#xfb;" horiz-adv-x="535" 
d="M413 528l-150 102l-147 -102l-5 3l151 247h6l151 -247zM160 -14q-46 0 -72 27q-31 28 -31 101v282q0 21 -3 27t-15 11l-35 14v6l196 18l2 -3q-3 -39 -3 -84v-211q0 -69 18 -87q16 -16 48 -16q27 0 64 19v306q0 21 -3 27.5t-15 11.5l-35 14v5l195 18l2 -3q-3 -39 -3 -86
v-326q0 -18 5 -23.5t24 -4.5h24l1 -8l-199 -37l-2 2q2 5 3 37l2 50l-4 2q-89 -89 -164 -89z" />
    <glyph glyph-name="udieresis" unicode="&#xfc;" horiz-adv-x="535" 
d="M245 602q0 -31 -21 -52.5t-53 -21.5q-31 0 -52 20.5t-21 49.5q0 30 22.5 52t55.5 22q30 0 49.5 -20t19.5 -50zM434 602q0 -30 -22.5 -52t-54.5 -22q-29 0 -49.5 21t-20.5 49q0 31 21 52.5t54 21.5q29 0 50.5 -20.5t21.5 -49.5zM160 -14q-46 0 -72 27q-31 28 -31 101v282
q0 21 -3 27t-15 11l-35 14v6l196 18l2 -3q-3 -39 -3 -84v-211q0 -69 18 -87q16 -16 48 -16q27 0 64 19v306q0 21 -3 27.5t-15 11.5l-35 14v5l195 18l2 -3q-3 -39 -3 -86v-326q0 -18 5 -23.5t24 -4.5h24l1 -8l-199 -37l-2 2q2 5 3 37l2 50l-4 2q-89 -89 -164 -89z" />
    <glyph glyph-name="yacute" unicode="&#xfd;" horiz-adv-x="464" 
d="M380 413q0 15 -37 30l-22 11v5h172v-5l-28 -15q-21 -10 -31 -22t-22 -42l-165 -406q-27 -66 -51 -108.5t-44 -62t-34.5 -26t-31.5 -6.5q-30 0 -48.5 21.5t-18.5 52.5q0 26 12.5 43.5t31.5 17.5q7 0 20 -5l57 -20q12 -5 21 -5q18 0 57 87l-173 443q-9 24 -17.5 32.5
t-25.5 12.5l-23 4v9h271v-9l-33 -5q-23 -5 -23 -15q0 -8 6 -25l90 -272h3l54 153q33 94 33 127zM433 710q0 -39 -52 -70l-74 -45q-73 -46 -102 -67l-5 3q22 37 54 99l36 74q15 31 28 48q16 23 46 23q27 0 48 -20t21 -45z" />
    <glyph glyph-name="thorn" unicode="&#xfe;" horiz-adv-x="540" 
d="M518 248q0 -108 -66 -185q-68 -77 -172 -77q-39 0 -79 14v-190q0 -12 5 -16t24 -7l30 -3v-8h-244v8l16 3q18 3 22.5 7t4.5 16v761q0 24 -11 38l-29 32v3l182 62l3 -2q-3 -42 -3 -75v-218l4 -2q63 66 136 66q78 0 128 -62q49 -62 49 -165zM371 214q0 87 -35 140t-87 53
q-24 0 -48 -12l-2 -278q-1 -109 70 -109q43 0 72.5 57t29.5 149z" />
    <glyph glyph-name="ydieresis" unicode="&#xff;" horiz-adv-x="464" 
d="M380 413q0 15 -37 30l-22 11v5h172v-5l-28 -15q-21 -10 -31 -22t-22 -42l-165 -406q-27 -66 -51 -108.5t-44 -62t-34.5 -26t-31.5 -6.5q-30 0 -48.5 21.5t-18.5 52.5q0 26 12.5 43.5t31.5 17.5q7 0 20 -5l57 -20q12 -5 21 -5q18 0 57 87l-173 443q-9 24 -17.5 32.5
t-25.5 12.5l-23 4v9h271v-9l-33 -5q-23 -5 -23 -15q0 -8 6 -25l90 -272h3l54 153q33 94 33 127zM235 602q0 -31 -21 -52.5t-53 -21.5q-31 0 -52 20.5t-21 49.5q0 30 22.5 52t55.5 22q30 0 49.5 -20t19.5 -50zM424 602q0 -30 -22.5 -52t-54.5 -22q-29 0 -49.5 21t-20.5 49
q0 31 21 52.5t54 21.5q29 0 50.5 -20.5t21.5 -49.5z" />
    <glyph glyph-name="dotlessi" unicode="&#x131;" horiz-adv-x="262" 
d="M205 405v-370q0 -12 5 -16.5t23 -7.5l15 -3v-8h-228v8l16 3q18 3 22.5 7t4.5 17v313q0 23 -11 37l-29 32v3l183 62l2 -3q-3 -41 -3 -74z" />
    <glyph glyph-name="Lslash" unicode="&#x141;" horiz-adv-x="621" 
d="M106 284l-61 -34l-9 16l70 40v214q0 81 -6 105q-4 15 -13 20.5t-36 9.5l-32 4v9h334v-9l-33 -4q-27 -4 -35.5 -9.5t-12.5 -20.5q-6 -24 -6 -105v-123l113 64l10 -17l-123 -70v-225q0 -86 5 -108q3 -14 11.5 -19.5t29.5 -5.5q74 0 146 35q21 10 39 28q48 49 101 139l7 -4
l-41 -214h-545v9l32 4q27 4 36 9.5t13 20.5q6 24 6 105v136z" />
    <glyph glyph-name="lslash" unicode="&#x142;" horiz-adv-x="265" 
d="M205 629v-216l69 39l8 -16l-77 -44v-359q0 -11 4.5 -15t23.5 -7l15 -3v-8h-228v8l16 3q18 3 22.5 7t4.5 16v278l-70 -39l-8 15l78 44v239q0 23 -11 37l-29 33v3l183 62l2 -2q-3 -42 -3 -75z" />
    <glyph glyph-name="OE" unicode="&#x152;" horiz-adv-x="1018" 
d="M27 326q0 72 34.5 143t103.5 122q105 77 280 77h513l-6 -195l-7 -2q-43 98 -70 125q-40 40 -143 49l-77 5v-301l61 3q68 4 93 30q23 23 37 60l14 32l7 -2l-6 -262l-8 -1l-12 32q-20 49 -35 62q-22 22 -89 27l-62 3v-191q0 -76 6 -100q4 -15 12.5 -20t28.5 -5q38 0 84 9
q44 7 69 20q25 12 44 31q21 21 89 124l7 -4l-39 -197h-511q-199 0 -308.5 84t-109.5 242zM195 343q0 -108 39 -185.5t109 -111.5q61 -31 151 -31q2 18 2 81v476q0 63 -2 81h-28q-87 -2 -136 -27q-65 -32 -100 -107.5t-35 -175.5z" />
    <glyph glyph-name="oe" unicode="&#x153;" horiz-adv-x="815" 
d="M271 475q106 0 171 -77q68 77 170 77q84 0 133 -43q50 -44 50 -105q0 -18 -4 -29l-284 1v-18q0 -97 42.5 -148.5t117.5 -51.5q81 0 130 55l4 -3q-30 -70 -84 -109.5t-120 -39.5q-104 0 -159 79q-70 -79 -177 -79q-109 0 -174 72q-65 73 -65 170q0 108 71 179
q70 70 178 70zM260 457q-40 0 -62 -48q-27 -54 -27 -168q0 -98 28 -167q27 -71 73 -71q38 0 62 47q26 54 26 169q0 95 -27 167q-29 71 -73 71zM554 436q-40 -40 -46 -124q142 3 163 11q2 55 -17.5 94.5t-52.5 39.5q-26 0 -47 -21z" />
    <glyph glyph-name="Scaron" unicode="&#x160;" horiz-adv-x="542" 
d="M464 649q12 -68 13 -177l-8 -2q-48 108 -85 152q-36 40 -81 40q-41 0 -67 -26.5t-26 -66.5q0 -43 30 -77q31 -37 99 -91q86 -68 120 -115q34 -49 34 -114q0 -81 -63 -132q-64 -52 -173 -52q-96 0 -198 43q-17 93 -17 199l8 3q59 -133 99 -179q41 -48 97 -48q47 0 77 31.5
t30 81.5q0 43 -30 80q-29 34 -114 104q-47 37 -72 63q-25 24 -45 63q-21 37 -21 81q0 71 62 121q61 49 168 49q97 0 163 -31zM120 943l175 -76l171 76l3 -3l-173 -209h-6l-173 209z" />
    <glyph glyph-name="scaron" unicode="&#x161;" horiz-adv-x="397" 
d="M65 776l150 -102l147 102l5 -3l-151 -247h-6l-151 247zM266 65q0 29 -20.5 52t-72.5 54q-47 29 -71 47q-22 16 -42 48t-20 68q0 60 49 100q49 39 126 39q73 0 130 -25q7 -41 7 -118l-7 -2q-50 75 -80 100q-31 26 -58 26t-42.5 -15t-15.5 -40q0 -27 18 -47.5t61 -46.5
q82 -48 114.5 -84t32.5 -86q0 -68 -52.5 -108.5t-136.5 -40.5q-82 0 -146 26q-14 78 -15 148l7 2q58 -85 97 -121t77 -36q28 0 44 16t16 44z" />
    <glyph glyph-name="Ydieresis" unicode="&#x178;" horiz-adv-x="657" 
d="M526 615q0 10 -11.5 17t-43.5 17l-35 13v6h253v-6l-31 -12q-38 -14 -58 -34q-19 -19 -54 -80l-132 -230v-158q0 -78 7 -105q4 -15 12.5 -20.5t35.5 -9.5l33 -4v-9h-334v9l32 4q27 4 35.5 9.5t12.5 20.5q7 27 7 105v55q0 67 -25 114l-131 250q-28 53 -43 68q-14 13 -51 19
l-30 5v9h367v-9l-29 -4q-51 -6 -51 -25q0 -11 22 -56l117 -244h2l77 163q46 89 46 122zM348 806q0 -30 -21.5 -51.5t-52.5 -21.5q-30 0 -51.5 20.5t-21.5 48.5q0 30 22.5 52.5t55.5 22.5q29 0 49 -21t20 -50zM549 807q0 -30 -22.5 -52t-54.5 -22q-30 0 -50.5 21t-20.5 49
q0 31 21 52.5t54 21.5q30 0 51.5 -20.5t21.5 -49.5z" />
    <glyph glyph-name="Zcaron" unicode="&#x17d;" horiz-adv-x="654" 
d="M167 943l175 -76l171 76l3 -3l-173 -209h-6l-173 209zM172 602q-36 -36 -107 -150l-7 2l37 248h6l6 -18q5 -14 10 -17t21 -3h477l3 -5l-400 -640l1 -2l110 2q80 1 121 13q36 10 65 39q43 43 110 138l8 -2l-43 -207h-556l-2 5l402 640l-1 2l-129 -2q-59 -2 -83 -10
q-27 -11 -49 -33z" />
    <glyph glyph-name="zcaron" unicode="&#x17e;" horiz-adv-x="462" 
d="M97 776l150 -102l147 102l5 -3l-151 -247h-6l-151 247zM367 64q15 15 43 61l28 45l6 -2l-21 -168h-411l-3 6l276 436l-1 2l-62 -5q-45 -3 -65 -9t-33 -20q-25 -25 -86 -111l-7 2l35 193h7l4 -17q1 -12 4 -15t14 -3h350l2 -6l-264 -435l2 -3l45 3q102 12 137 46z" />
    <glyph glyph-name="circumflex" unicode="&#x2c6;" 
d="M398 528l-150 102l-147 -102l-5 3l151 247h6l151 -247z" />
    <glyph glyph-name="caron" unicode="&#x2c7;" 
d="M102 776l150 -102l147 102l5 -3l-151 -247h-6l-151 247z" />
    <glyph glyph-name="breve" unicode="&#x2d8;" 
d="M252 641q50 0 88 26.5t55 78.5l5 -2q-4 -99 -45 -153.5t-106 -54.5t-105 54t-44 154l5 2q18 -52 57 -78.5t90 -26.5z" />
    <glyph glyph-name="dotaccent" unicode="&#x2d9;" 
d="M324 600q0 -30 -21.5 -51t-52.5 -21t-52 20t-21 48q0 30 22.5 52t55.5 22q29 0 49 -20.5t20 -49.5z" />
    <glyph glyph-name="ring" unicode="&#x2da;" 
d="M350 628q0 -42 -29.5 -71t-70.5 -29t-70.5 29t-29.5 71q0 41 29.5 70t70.5 29t70.5 -29t29.5 -70zM326 628q0 32 -22 54.5t-54 22.5t-54 -22.5t-22 -54.5q0 -33 22 -55.5t54 -22.5t54 22.5t22 55.5z" />
    <glyph glyph-name="ogonek" unicode="&#x2db;" 
d="M138 -176q0 56 63 119q2 2 79 71l4 -4q-58 -77 -58 -134q0 -35 19.5 -53t50.5 -18q34 0 63 23l3 -3q-11 -21 -40 -55q-32 -37 -85 -37q-45 0 -72 25.5t-27 65.5z" />
    <glyph glyph-name="tilde" unicode="&#x2dc;" 
d="M276 670q56 -30 74 -30q32 0 64 75l6 -2q-14 -93 -39 -135t-64 -42q-26 0 -93 37q-56 30 -74 30q-32 0 -64 -75l-6 2q14 93 39 135t64 42q23 0 93 -37z" />
    <glyph glyph-name="hungarumlaut" unicode="&#x2dd;" horiz-adv-x="499" 
d="M423 720q0 -34 -51 -76l-54 -45l-79 -71l-4 3l33 98l21 73q11 37 24 53.5t43 19.5q27 0 47 -16.5t20 -38.5zM259 720q0 -34 -51 -76l-53 -45q-3 -3 -12.5 -11.5t-29.5 -26t-38 -33.5l-4 3q5 14 33 98l21 73q11 37 24 53.5t43 19.5q27 0 47 -16.5t20 -38.5z" />
    <glyph glyph-name="endash" unicode="&#x2013;" horiz-adv-x="529" 
d="M479 263v-24h-429v24h429z" />
    <glyph glyph-name="emdash" unicode="&#x2014;" horiz-adv-x="799" 
d="M749 263v-24h-699v24h699z" />
    <glyph glyph-name="quoteleft" unicode="&#x2018;" horiz-adv-x="243" 
d="M32 504q0 71 49 118t131 58l2 -7q-112 -36 -112 -123q0 -16 3.5 -22t14.5 -6l27 1q61 1 61 -55q0 -34 -22.5 -57.5t-60.5 -23.5q-39 0 -66 30.5t-27 86.5z" />
    <glyph glyph-name="quoteright" unicode="&#x2019;" horiz-adv-x="243" 
d="M211 563q0 -71 -49 -118t-131 -58l-2 7q112 36 112 123q0 16 -3.5 22t-14.5 6l-27 -1q-61 -1 -61 55q0 34 22.5 57.5t60.5 23.5q39 0 66 -30.5t27 -86.5z" />
    <glyph glyph-name="quotesinglbase" unicode="&#x201a;" horiz-adv-x="233" 
d="M198 29q0 -71 -49 -118t-131 -58l-2 7q112 36 112 123q0 16 -3.5 22t-14.5 6l-27 -1q-61 -1 -61 55q0 34 22.5 57.5t60.5 23.5q39 0 66 -30.5t27 -86.5z" />
    <glyph glyph-name="quotedblleft" unicode="&#x201c;" horiz-adv-x="440" 
d="M234 504q0 71 47 118t128 58l2 -7q-60 -19 -84 -48.5t-24 -74.5q0 -16 3.5 -22t14.5 -6l24 1q60 1 60 -55q0 -35 -21.5 -58t-59.5 -23t-64 30.5t-26 86.5zM32 504q0 71 47 118t128 58l2 -7q-60 -19 -84 -48.5t-24 -74.5q0 -16 3.5 -22t14.5 -6l24 1q61 1 61 -55
q0 -34 -21.5 -57.5t-59.5 -23.5q-39 0 -65 30t-26 87z" />
    <glyph glyph-name="quotedblright" unicode="&#x201d;" horiz-adv-x="440" 
d="M206 563q0 -71 -47 -118t-128 -58l-2 7q60 20 84.5 49t24.5 74q0 16 -4 22t-15 6l-24 -1q-60 -2 -60 55q0 34 21.5 57.5t59.5 23.5q39 0 64.5 -30t25.5 -87zM408 563q0 -71 -47 -118t-128 -58l-2 7q60 19 84 48.5t24 74.5q0 16 -3.5 22t-14.5 6l-24 -1q-60 -2 -60 55
q0 34 21.5 57.5t59.5 23.5q39 0 64.5 -30t25.5 -87z" />
    <glyph glyph-name="quotedblbase" unicode="&#x201e;" horiz-adv-x="430" 
d="M193 29q0 -71 -47 -118t-128 -58l-2 7q60 20 84.5 49t24.5 74q0 16 -4 22t-15 6l-24 -1q-60 -2 -60 55q0 34 21.5 57.5t59.5 23.5q39 0 64.5 -30t25.5 -87zM395 29q0 -71 -47 -118t-128 -58l-2 7q60 19 84 48.5t24 74.5q0 16 -3.5 22t-14.5 6l-24 -1q-60 -2 -60 55
q0 34 21.5 57.5t59.5 23.5q39 0 64.5 -30t25.5 -87z" />
    <glyph glyph-name="bullet" unicode="&#x2022;" horiz-adv-x="451" 
d="M231 418q61 0 102 -42q40 -43 40 -104q0 -62 -43 -104q-44 -42 -107 -42q-61 0 -103 42t-42 104t45 104t108 42z" />
    <glyph glyph-name="ellipsis" unicode="&#x2026;" horiz-adv-x="733" 
d="M551 13q-20 16 -24 40.5t5.5 46.5t31.5 37.5t50 14.5q34 0 58 -24t24 -57t-24 -57t-60 -24t-61 23zM282 71q0 32 25 56.5t61 24.5q34 0 59 -24.5t25 -56.5q0 -33 -24.5 -57t-60.5 -24t-60.5 23t-24.5 58zM37 70q0 33 25.5 57.5t61.5 24.5q34 0 58.5 -24t24.5 -56
q0 -34 -24 -58t-60 -24t-61 23t-25 57z" />
    <glyph glyph-name="guilsinglleft" unicode="&#x2039;" horiz-adv-x="331" 
d="M292 428l-127 -187l127 -187l-5 -5l-266 189v6l266 189z" />
    <glyph glyph-name="guilsinglright" unicode="&#x203a;" horiz-adv-x="331" 
d="M39 54l127 187l-127 187l5 5l266 -189v-6l-266 -189z" />
    <glyph glyph-name="Euro" unicode="&#x20ac;" horiz-adv-x="629" 
d="M19 329v17h93q22 108 103 181q80 71 192 71q80 0 129 -28t49 -73q0 -31 -22 -53t-50 -22q-22 0 -40 32l-56 107q-7 13 -11.5 16.5t-16.5 3.5q-52 0 -96 -65q-43 -66 -48 -170h240v-17h-240v-1q0 -40 6 -75h234v-17h-230q19 -77 70.5 -119.5t124.5 -42.5q74 0 127 49l5 -5
q-80 -134 -216 -134q-110 0 -179 71t-80 181h-88v17h86v21q0 34 4 55h-90z" />
    <glyph glyph-name="trademark" unicode="&#x2122;" horiz-adv-x="673" 
d="M307 432v4l13 5q16 6 20.5 12t6.5 24l11 162q-7 13 -28 21l-11 4v4h100q1 -14 15 -45l47 -108l42 102q13 31 15 51h101v-5l-7 -2q-20 -6 -24.5 -13t-3.5 -31l5 -138q1 -23 5 -29.5t18 -9.5l12 -3v-5h-124v5l11 3q12 3 14.5 8t1.5 23l-7 156l-79 -197h-5l-90 193l1 -147
q-1 -18 3 -23t21 -12l13 -5v-4h-97zM29 584l18 95h4l3 -7q2 -6 12 -6h197q15 0 19 7l2 6h4l2 -96l-4 -1q-28 56 -34 61q-11 11 -41 14l-16 1v-172q0 -24 2 -34q1 -9 24 -12l13 -3v-5h-143v5l13 3q22 3 24 12q2 10 2 34v172l-10 -1q-29 -1 -43 -16q-8 -8 -45 -58z" />
    <glyph glyph-name="null" horiz-adv-x="0" 
 />
    <glyph glyph-name="CR" horiz-adv-x="0" 
 />
    <glyph glyph-name="hcoslug" horiz-adv-x="694" 
d="M50 700h594v-800h-594v800zM428 306q15 -25 43 -25q21 0 35.5 15.5t14.5 38.5t-14.5 37.5t-35.5 14.5q-34 0 -60 -38q-3 38 -49 37q9 15 9 34q0 31 -26 52.5t-69 21.5q-47 0 -78 -25t-31 -60q0 -38 31 -69q-82 -28 -82 -91q0 -39 32 -66t77 -27q63 0 104 45
q44 -45 85 -45q34 0 56.5 26t23.5 68l-7 2q-17 -29 -43 -29q-27 0 -62 41q19 24 46 42zM261 219q-22 0 -37 15.5t-15 38.5q0 24 16 40q27 -25 74 -82q-15 -12 -38 -12zM247 428q0 13 7.5 21t19.5 8q13 0 21 -10.5t8 -27.5q0 -21 -18 -50q-21 20 -28 30t-10 29zM312 342
q28 18 42 34q29 -29 -1 -80q-37 42 -41 46zM132 7h-8v-7h29v7h-8v18h22v-18h-8v-7h29v7h-8v41h8v7h-29v-7h8v-16h-22v16h8v7h-29v-7h8v-41zM464 26v7h-18v-7h6q-2 -4 -6 -9l-12 13q11 5 11 12q0 12 -14 12q-17 0 -17 -14q0 -6 6 -12q-13 -4 -13 -15q0 -14 18 -14q9 0 15 6
q4 -6 12 -6q10 0 13 12l-5 1q0 -3 -2 -4.5t-4 0t-4 4.5q5 7 9 14h5zM282 7h-6v-7h23v7h-5v25h14v-25h-5v-7h23v7h-6v52l-10 -2q-6 2 -9 2q-19 0 -19 -19v-1h-7v-7h7v-25zM346 125h6v-52h6l4 8q5 -8 14 -8q16 0 16 21q0 20 -15 20q-10 0 -13 -9v27h-18v-7zM132 81h-7v-7h30v7
h-10v16h4q4 0 6 -8h7v23h-7q-2 -8 -6 -8h-4v18h12q10 0 11 -13h8v20h-51v-7h7v-41zM498 -1q22 0 24 23h-8q-1 -16 -14 -16q-16 0 -16 22t14 22q11 0 15 -16h8v22h-8l-1 -6q-7 7 -16 7q-11 0 -19 -8.5t-8 -21.5q0 -28 29 -28zM195 73q9 0 15 6t6 15q0 20 -21 20t-21 -20
q0 -21 21 -21zM210 -1q9 0 15 6t6 15q0 20 -21 20t-21 -20q0 -21 21 -21zM546 -1q9 0 15 6t6 15q0 20 -21 20t-21 -20q0 -21 21 -21zM225 81h-6v-7h22v7h-4v15q0 10 7 10q6 0 6 -7v-18h-4v-7h22v7h-6v19q0 14 -12 14q-9 0 -14 -11v10h-17v-7h6v-25zM400 75q-7 0 -7 -7
q0 -9 11 -9q12 0 18 16l13 31h5v7h-17v-7h5l-8 -20l-9 20h6v7h-25v-7h5q9 -18 16 -33q-2 -8 -8 -8q3 2 1.5 6t-6.5 4zM247 18h26q1 22 -19 22q-8 0 -14 -6t-6 -15q0 -20 21 -20q15 0 18 14h-7q-1 -7 -9 -7q-10 0 -10 12zM340 18h26q1 22 -19 22q-8 0 -14 -6t-6 -15
q0 -20 21 -20q13 0 18 14h-7q-1 -7 -9 -7q-10 0 -10 12zM309 88h-7v-14h7l1 4q8 -5 13 -5q14 0 14 13q0 7 -12 12t-12 6q0 6 8 3q4 -2 7 -6h7v13h-6l-2 -5q-3 5 -11 5q-14 0 -14 -12q0 -7 12 -12.5t12 -6.5q0 -4 -5 -4q-6 0 -12 9zM286 113v11l-12 -2v-9h-7v-7h7v-20
q0 -13 12 -13q11 0 14 13l-5 2q-1 -10 -7 -7q-2 2 -2 5v20h13v7h-13zM374 7h-6v-7h26v7h-8v16q4 9 7 9v-1q0 -6 6 -6q7 0 7 7q0 10 -9 8q-8 -1 -11 -11v10h-18v-7h6v-25zM218 20q0 -10 -4 -14t-8 0t-4 14q0 15 8 15t8 -15zM554 20q0 -10 -4 -14t-8 0t-4 14q0 15 8 15t8 -15z
M203 94q0 -10 -4 -14t-8 0t-4 14q0 15 8 15t8 -15zM372 80q-8 0 -8 13t8 13q7 0 7 -13t-7 -13zM429 6q-10 0 -10 10q0 5 4 9l14 -16q-5 -3 -8 -3zM583 6q0 7 -7 7t-7 -7t7 -7t7 7zM308 39h-14v3q0 12 6 12l3 -1q-1 -1 -1 -3q0 -6 6 -6v-5zM354 23h-14q0 12 7 12t7 -12z
M261 23h-14q0 12 7 12t7 -12zM425 43q0 5 5 5q4 0 5.5 -3t0 -6.5t-4.5 -5.5q-6 6 -6 10z" />
    <glyph glyph-name="acute.cap" 
d="M379 874q0 -45 -67 -69l-80 -28q-11 -4 -115 -44l-4 4q32 32 73 85l51 65q26 35 46 47q14 10 30 10q27 0 46.5 -21t19.5 -49z" />
    <glyph glyph-name="hungarumlaut.cap" horiz-adv-x="499" 
d="M450 890q0 -37 -62 -69l-67 -36q-62 -33 -93 -52l-4 5q31 48 54 88l37 67q17 32 31 45.5t35 13.5q29 0 49 -18.5t20 -43.5zM269 890q0 -36 -61 -69l-68 -36q-62 -33 -93 -52l-3 5q28 43 53 88l37 67q17 31 31.5 45t35.5 14q27 0 47.5 -19t20.5 -43z" />
    <glyph glyph-name="caron.alt.cap" horiz-adv-x="499" 
d="M307 646q0 -28 -30 -69l-33 -46q-3 -8 -45 -71l-4 1q2 54 2 101l1 53q2 78 55 78q24 0 39 -13t15 -34z" />
    <glyph glyph-name="grave.cap" 
d="M121 874q0 28 19.5 49t46.5 21q14 0 29.5 -9t23.5 -19q1 -1 23 -29l51 -65q41 -53 73 -85l-4 -4q-104 40 -115 44l-80 28q-67 24 -67 69z" />
    <glyph glyph-name="circumflex.cap" 
d="M423 733l-175 76l-171 -76l-3 3l173 208h6l173 -208z" />
    <glyph glyph-name="caron.cap" 
d="M77 943l175 -76l171 76l3 -3l-173 -209h-6l-173 209z" />
    <glyph glyph-name="breve.cap" 
d="M360 790q-45 -49 -111 -49q-67 0 -110 49q-44 50 -51 136l5 2q22 -49 90.5 -68t136 0t87.5 68l5 -2q-8 -87 -52 -136z" />
    <glyph glyph-name="tilde.cap" 
d="M326 742q-24 0 -100 33q-68 30 -87 30q-31 0 -67 -72l-6 1q18 94 43.5 135.5t64.5 41.5q26 0 100 -34q68 -30 87 -30q33 0 67 73l6 -2q-18 -94 -43.5 -135t-64.5 -41z" />
    <glyph glyph-name="macron.cap" horiz-adv-x="499" 
d="M431 811v-62h-363v62h363z" />
    <glyph glyph-name="dieresis.cap" horiz-adv-x="499" 
d="M223 806q0 -30 -21.5 -51.5t-52.5 -21.5q-30 0 -51.5 20.5t-21.5 48.5q0 30 22.5 52.5t55.5 22.5q29 0 49 -21t20 -50zM424 807q0 -30 -22.5 -52t-54.5 -22q-30 0 -50.5 21t-20.5 49q0 31 21 52.5t54 21.5q30 0 51.5 -20.5t21.5 -49.5z" />
    <glyph glyph-name="dotaccent.cap" horiz-adv-x="499" 
d="M323 805q0 -30 -21 -51t-53 -21q-31 0 -52 20t-21 48q0 30 22.5 52t55.5 22q30 0 49.5 -20t19.5 -50z" />
    <glyph glyph-name="ring.cap" 
d="M350 827q0 -42 -29.5 -71t-70.5 -29t-70.5 29t-29.5 71q0 40 29.5 69t70.5 29t70.5 -29t29.5 -69zM326 827q0 32 -22 54.5t-54 22.5t-54 -22.5t-22 -54.5q0 -33 22 -56t54 -23t54 23t22 56z" />
    <glyph glyph-name="commaaccent.cap" 
d="M333 -175q0 -59 -45.5 -99.5t-117.5 -48.5l-2 8q99 25 99 98q0 22 -16 22h-23q-56 -2 -56 51q0 33 20.5 54t55.5 21t60 -27.5t25 -78.5z" />
    <glyph glyph-name="cedilla.cap" 
d="M285 -197q0 28 -28.5 44t-97.5 22v3l98 118h19l-41 -49q138 -19 138 -103q0 -52 -45 -83.5t-118 -31.5q-46 0 -83 15l2 10q35 -9 63 -9q44 0 68.5 17t24.5 47z" />
    <glyph glyph-name="ogonek.cap" 
d="M138 -176q0 56 65 121q30 30 77 69l4 -4q-58 -77 -58 -134q0 -35 19.5 -53t50.5 -18q34 0 63 23l3 -3q-11 -21 -40 -55q-32 -37 -85 -37q-45 0 -72 25.5t-27 65.5z" />
    </font>
</defs>
</svg>
